<!DOCTYPE svg PUBLIC "-//W3C//DTD SVG 20010904//EN" "http://www.w3.org/TR/2001/REC-SVG-20010904/DTD/svg10.dtd">
<svg version="1.0" xmlns="http://www.w3.org/2000/svg" width="200px" height="100px" viewBox="0 0 2000 1000" preserveAspectRatio="xMidYMid meet">
<g id="layer101" fill="#c87e00" stroke="none">
 <path d="M805 981 c-194 -53 -325 -152 -398 -300 -30 -63 -32 -72 -32 -181 0 -109 2 -118 32 -181 65 -132 187 -232 349 -285 82 -27 100 -29 239 -29 139 0 157 2 239 29 162 53 284 153 349 285 30 63 32 72 32 181 0 109 -2 118 -32 181 -64 130 -185 230 -344 284 -74 25 -101 29 -224 32 -114 2 -153 -1 -210 -16z"/>
 </g>
<g id="layer102" fill="#d6a642" stroke="none">
 <path d="M805 981 c-194 -53 -325 -152 -398 -300 -30 -63 -32 -72 -32 -181 0 -109 2 -118 32 -181 65 -132 187 -232 349 -285 82 -27 100 -29 239 -29 139 0 157 2 239 29 162 53 284 153 349 285 30 63 32 72 32 181 0 109 -2 118 -32 181 -64 130 -185 230 -344 284 -74 25 -101 29 -224 32 -114 2 -153 -1 -210 -16z m231 -353 c13 -17 23 -33 20 -35 -9 -10 -63 27 -73 50 -10 22 -9 24 8 20 11 -3 31 -19 45 -35z m122 34 c13 11 15 11 7 -2 -19 -34 -28 -41 -36 -29 -4 7 -4 19 -1 28 4 10 7 11 10 3 3 -10 7 -10 20 0z m-268 -9 c0 -2 -7 -18 -16 -34 -13 -27 -79 -67 -90 -56 -6 6 80 92 94 93 6 0 12 -1 12 -3z m229 -115 c0 -24 -3 -37 -6 -30 -2 6 -9 10 -14 6 -5 -3 -9 4 -9 15 0 12 5 21 10 21 6 0 10 7 10 15 0 8 2 15 5 15 3 0 5 -19 4 -42z m-362 -70 c-2 -13 -4 -3 -4 22 0 25 2 35 4 23 2 -13 2 -33 0 -45z m266 -9 c-8 -8 -16 -8 -30 0 -16 9 -14 10 12 11 21 0 26 -3 18 -11z"/>
 </g>
<g id="layer103" fill="#fffffe" stroke="none">
 <path d="M721 724 c-12 -15 -21 -37 -21 -49 0 -35 37 -75 70 -75 42 0 59 9 76 41 28 55 -8 109 -72 109 -23 0 -39 -8 -53 -26z"/>
 <path d="M1034 742 c-23 -15 -34 -50 -24 -77 17 -46 85 -53 112 -11 13 19 9 64 -8 80 -16 17 -61 21 -80 8z"/>
 <path d="M891 683 c9 -54 -48 -123 -100 -123 l-31 0 0 -155 0 -155 103 0 102 0 58 110 c51 98 57 115 57 169 0 59 -1 61 -26 61 -31 0 -84 50 -84 79 0 18 -6 21 -40 21 -22 0 -39 -3 -39 -7z m93 -303 l-48 -90 -68 0 -68 0 0 90 0 90 116 0 115 0 -47 -90z"/>
 <path d="M1170 671 c0 -11 -11 -33 -25 -49 -21 -25 -25 -40 -25 -91 l0 -61 35 0 c34 0 36 2 80 90 34 68 50 90 65 90 13 0 20 7 20 20 0 18 -7 20 -75 20 -67 0 -75 -2 -75 -19z"/>
 <path d="M680 510 c0 -93 1 -100 20 -100 18 0 20 7 20 80 0 67 -3 83 -20 100 l-20 20 0 -100z"/>
 </g>

</svg>