<?xml version="1.0" encoding="UTF-8" standalone="no"?>
<svg
   class="svg-icon"
   style="width: 1em; height: 1em;vertical-align: middle;fill: currentColor;overflow: hidden;"
   viewBox="0 0 1024 1024"
   version="1.1"
   id="svg2"
   sodipodi:docname="clear_line_of_sight.svg"
   inkscape:version="1.3 (0e150ed6c4, 2023-07-21)"
   xmlns:inkscape="http://www.inkscape.org/namespaces/inkscape"
   xmlns:sodipodi="http://sodipodi.sourceforge.net/DTD/sodipodi-0.dtd"
   xmlns="http://www.w3.org/2000/svg"
   xmlns:svg="http://www.w3.org/2000/svg">
  <defs
     id="defs2" />
  <sodipodi:namedview
     id="namedview2"
     pagecolor="#505050"
     bordercolor="#eeeeee"
     borderopacity="1"
     inkscape:showpageshadow="0"
     inkscape:pageopacity="0"
     inkscape:pagecheckerboard="0"
     inkscape:deskcolor="#d1d1d1"
     inkscape:zoom="0.84082031"
     inkscape:cx="512"
     inkscape:cy="512"
     inkscape:window-width="1920"
     inkscape:window-height="1057"
     inkscape:window-x="-8"
     inkscape:window-y="-8"
     inkscape:window-maximized="1"
     inkscape:current-layer="svg2" />
  <path
     d="M715.76 663.07h-54.88a164.81 164.81 0 1 0-289.92 0h-62.72c-45.42-112.54 9-240.59 121.52-286s240.59 9 286 121.52a219.74 219.74 0 0 1 0 164.49zM512 196.12a27.47 27.47 0 0 1 27.47 27.47V306a27.47 27.47 0 1 1-54.94 0v-82.4A27.47 27.47 0 0 1 512 196.12zM783.93 308.74a27.47 27.47 0 0 1 0 38.85l-58.29 58.26A27.47 27.47 0 0 1 686.81 367l58.26-58.29a27.47 27.47 0 0 1 38.84 0zM896.55 580.67a27.47 27.47 0 0 1-27.47 27.47h-82.4a27.47 27.47 0 0 1 0-54.94h82.4a27.47 27.47 0 0 1 27.47 27.47zM127.45 580.67a27.47 27.47 0 0 1 27.47-27.47h82.4a27.47 27.47 0 0 1 0 54.94h-82.4a27.47 27.47 0 0 1-27.47-27.47zM240.07 308.74a27.47 27.47 0 0 1 38.85 0L337.19 367A27.47 27.47 0 1 1 299 406.54l-0.68-0.68-58.25-58.26a27.47 27.47 0 0 1 0-38.84z"
     fill="#FFCC00"
     id="path1" />
  <path
     d="M154.92 663.07h714.16a27.47 27.47 0 0 1 0 54.94H154.92a27.47 27.47 0 1 1 0-54.94zM154.92 772.94h714.16a27.47 27.47 0 0 1 0 54.94H154.92a27.47 27.47 0 1 1 0-54.94z"
     fill="#0057D9"
     id="path2"
     style="fill:#d97e00;fill-opacity:1" />
</svg>
