<svg id="Capa_1" enable-background="new 0 0 512.002 512.002" height="512" viewBox="0 0 512.002 512.002" width="512" xmlns="http://www.w3.org/2000/svg"><g><path d="m182.662 313.301c2.515-.275 4.427-2.387 4.454-4.917.63-59.21 49.12-107.379 109.287-106.376-17.577-44.482-61.003-76.033-111.659-76.033-66.168 0-120 53.832-120 120 0 44.245 24.073 82.969 59.805 103.776 13.459-21.182 35.131-33.929 58.113-36.45z" fill="#fde55f"/><path d="m296.402 202.005c-60.17-1-108.66 47.17-109.29 106.38-.01 1.76-.95 3.32-2.37 4.2v-186.61c50.66 0 94.08 31.55 111.66 76.03z" fill="#f7ba57"/><path d="m184.744 34.975c-8.284 0-15 6.716-15 15v30.205c0 8.284 6.716 15 15 15s15-6.716 15-15v-30.205c0-8.284-6.716-15-15-15z" fill="#fde55f"/><path d="m199.742 49.975v30.21c0 8.28-6.71 15-15 15v-60.21c8.29 0 15 6.72 15 15z" fill="#f7ba57"/><path d="m48.661 150.087-26.159-15.103c-7.175-4.144-16.349-1.684-20.49 5.49-4.142 7.175-1.684 16.349 5.49 20.49l26.159 15.103c7.158 4.134 16.339 1.701 20.49-5.49 4.142-7.175 1.684-16.348-5.49-20.49z" fill="#fde55f"/><path d="m33.661 315.882-26.159 15.103c-7.174 4.142-9.632 13.315-5.49 20.49 4.163 7.21 13.35 9.614 20.49 5.49l26.159-15.103c7.174-4.142 9.632-13.315 5.49-20.49-4.142-7.174-13.314-9.635-20.49-5.49z" fill="#fde55f"/><path d="m367.475 140.475c-4.142-7.174-13.314-9.634-20.49-5.49l-26.159 15.103c-7.174 4.142-9.632 13.315-5.49 20.49 4.163 7.21 13.35 9.614 20.49 5.49l26.159-15.103c7.174-4.142 9.632-13.315 5.49-20.49z" fill="#f7ba57"/><path d="m398.908 267.27c-16.986-41.975-58.153-70.295-104.306-70.295-61.881 0-111.832 49.866-112.486 111.356-42.605 4.674-75.014 41.206-75.014 84.066 0 46.636 37.941 84.577 84.577 84.577 236.013-.246 223.099.604 227.209-.672 52.427-5.914 93.114-50.38 93.114-104.328 0-61.606-52.642-109.44-113.094-104.704z" fill="#f0faff"/><path d="m512.002 371.975c0 53.95-40.69 98.41-93.11 104.33-3.39 1.05 4.78.65-124.29.62v-279.95c46.15 0 87.32 28.32 104.31 70.29 60.45-4.73 113.09 43.1 113.09 104.71z" fill="#cee6f4"/></g></svg>