<svg id="Capa_1" enable-background="new 0 0 512 512" height="512" viewBox="0 0 512 512" width="512" xmlns="http://www.w3.org/2000/svg"><g><g><g><g><path d="m311.548 56.864c-23.219.876-42.179 19.661-43.281 42.87-.265 5.585.498 10.954 2.099 15.948h-254.714c-8.644 0-15.652 7.008-15.652 15.653 0 8.645 7.008 15.652 15.652 15.652h296.907c25.083 0 45.906-20.168 45.812-45.251-.096-25.395-21.19-45.839-46.823-44.872z" fill="#b6f0ff"/><g><path d="m316.677 99.469c0 3.149-1.541 6.26-4.482 8.075-8.548 5.305-18.42 8.141-28.689 8.141h-13.143c-1.39-4.34-2.146-8.973-2.146-13.777 0-1.74.095-3.451.293-5.135h14.997c6.685 0 13.115-1.844 18.684-5.286 3.811-2.354 8.709-1.863 11.81 1.362 1.806 1.873 2.676 4.256 2.676 6.62z" fill="#5cceff"/></g><path d="m246.645 146.987h-157.583c-8.644 0-15.651-7.007-15.651-15.651 0-8.644 7.007-15.651 15.651-15.651h157.583c8.644 0 15.651 7.007 15.651 15.651 0 8.644-7.007 15.651-15.651 15.651z" fill="#dcfeff"/><path d="m163.965 146.987h-34.659c-8.644 0-15.651-7.007-15.651-15.651 0-8.644 7.007-15.651 15.651-15.651h34.659c8.644 0 15.651 7.007 15.651 15.651 0 8.644-7.007 15.651-15.651 15.651z" fill="#eefdff"/></g><g><path d="m311.548 268.411c-23.219-.876-42.179-19.661-43.281-42.87-.265-5.585.498-10.954 2.099-15.948h-254.714c-8.644.001-15.652-7.007-15.652-15.652 0-8.645 7.008-15.652 15.652-15.652h296.907c25.083 0 45.906 20.168 45.812 45.251-.096 25.395-21.19 45.839-46.823 44.871z" fill="#b6f0ff"/><g><path d="m316.677 225.807c0-3.149-1.541-6.26-4.482-8.075-8.548-5.305-18.42-8.141-28.689-8.141h-13.143c-1.39 4.34-2.146 8.973-2.146 13.777 0 1.74.095 3.451.293 5.135h14.997c6.685 0 13.115 1.844 18.684 5.286 3.811 2.354 8.709 1.863 11.81-1.362 1.806-1.874 2.676-4.256 2.676-6.62z" fill="#5cceff"/></g><path d="m184.746 178.289h-148.128c-8.644 0-15.651 7.007-15.651 15.651 0 8.644 7.007 15.651 15.651 15.651h148.128c8.644 0 15.651-7.007 15.651-15.651-.001-8.644-7.008-15.651-15.651-15.651z" fill="#dcfeff"/><path d="m106.908 178.289h-15.748c-8.644 0-15.651 7.007-15.651 15.651 0 8.644 7.007 15.651 15.651 15.651h15.748c8.644 0 15.651-7.007 15.651-15.651-.001-8.644-7.008-15.651-15.651-15.651z" fill="#eefdff"/></g><g><path d="m465.177 237.11c-23.219-.876-42.179-19.661-43.281-42.87-.265-5.585.498-10.954 2.099-15.948h-408.343c-8.644 0-15.652-7.008-15.652-15.653 0-8.645 7.008-15.652 15.652-15.652h450.536c25.083 0 45.906 20.168 45.812 45.251-.096 25.395-21.19 45.839-46.823 44.872z" fill="#73e1ff"/><g><path d="m470.306 194.505c0-3.149-1.541-6.26-4.482-8.075-8.548-5.305-18.42-8.141-28.689-8.141h-13.143c-1.39 4.34-2.146 8.973-2.146 13.777 0 1.74.095 3.451.293 5.135h14.997c6.685 0 13.115 1.844 18.684 5.286 3.811 2.354 8.709 1.863 11.81-1.362 1.806-1.873 2.676-4.256 2.676-6.62z" fill="#27b2ff"/></g><g fill="#b6f0ff"><path d="m326.581 146.987h-204.862c-8.644 0-15.651 7.007-15.651 15.651 0 8.644 7.007 15.651 15.651 15.651h204.862c8.644 0 15.651-7.007 15.651-15.651 0-8.644-7.007-15.651-15.651-15.651z"/><path d="m406.003 146.987h-15.534c-8.644 0-15.651 7.007-15.651 15.651 0 8.644 7.007 15.651 15.651 15.651h15.534c8.644 0 15.651-7.007 15.651-15.651 0-8.644-7.008-15.651-15.651-15.651z"/></g></g><path d="m295.708 146.987h-58.299c-8.644 0-15.651 7.007-15.651 15.651 0 8.644 7.007 15.651 15.651 15.651h58.299c8.644 0 15.651-7.007 15.651-15.651-.001-8.644-7.008-15.651-15.651-15.651z" fill="#dcfeff"/></g><g><g><path d="m417.269 274.891c-23.218.878-42.176 19.663-43.278 42.871-.265 5.585.499 10.953 2.1 15.946h-237.793c-8.644 0-15.651 7.007-15.651 15.651v.003c0 8.644 7.007 15.651 15.651 15.651h279.985c25.083 0 45.907-20.169 45.812-45.252-.096-25.395-21.192-45.84-46.826-44.87z" fill="#b6f0ff"/><g><path d="m422.401 317.495c0 3.149-1.541 6.26-4.482 8.075-8.548 5.305-18.42 8.141-28.689 8.141h-13.143c-1.39-4.34-2.146-8.973-2.146-13.777 0-1.74.095-3.451.293-5.135h14.997c6.685 0 13.115-1.844 18.684-5.286 3.811-2.354 8.709-1.863 11.81 1.362 1.806 1.873 2.676 4.256 2.676 6.62z" fill="#5cceff"/></g><path d="m328.008 333.711h-163.629c-8.644 0-15.651 7.007-15.651 15.651 0 8.644 7.007 15.651 15.651 15.651h164.071c8.895 0 16.056-7.42 15.633-16.408-.397-8.417-7.648-14.894-16.075-14.894z" fill="#dcfeff"/><path d="m288.008 333.711h-23.629c-8.644 0-15.651 7.007-15.651 15.651 0 8.644 7.007 15.651 15.651 15.651h24.071c8.895 0 16.056-7.42 15.633-16.408-.397-8.417-7.648-14.894-16.075-14.894z" fill="#eefdff"/></g><g><path d="m164.621 274.891c-23.218.878-42.176 19.663-43.278 42.871-.265 5.585.499 10.953 2.1 15.946h-107.792c-8.644 0-15.651 7.007-15.651 15.651v.003c0 8.644 7.007 15.651 15.651 15.651h149.985c25.083 0 45.907-20.169 45.812-45.252-.096-25.395-21.193-45.84-46.827-44.87z" fill="#b6f0ff"/><g><path d="m169.754 317.495c0 3.149-1.541 6.26-4.482 8.075-8.548 5.305-18.42 8.141-28.689 8.141h-13.143c-1.39-4.34-2.146-8.973-2.146-13.777 0-1.74.095-3.451.293-5.135h14.997c6.685 0 13.115-1.844 18.684-5.286 3.811-2.354 8.709-1.863 11.81 1.362 1.806 1.873 2.676 4.256 2.676 6.62z" fill="#5cceff"/></g><path d="m75.36 333.711h-33.629c-8.644 0-15.651 7.007-15.651 15.651 0 8.644 7.007 15.651 15.651 15.651h34.071c8.895 0 16.056-7.42 15.633-16.408-.396-8.417-7.647-14.894-16.075-14.894z" fill="#dcfeff"/></g><g><path d="m279.265 365.013h-263.614c-8.644 0-15.651 7.007-15.651 15.651v.003c0 8.644 7.007 15.651 15.651 15.651h221.421c-1.601 4.993-2.364 10.36-2.1 15.943 1.1 23.209 20.056 41.995 43.274 42.875 25.635.972 46.733-19.473 46.83-44.869.096-25.084-20.728-45.254-45.811-45.254z" fill="#73e1ff"/><g><path d="m283.383 412.531c0-3.149-1.541-6.26-4.482-8.075-8.548-5.305-18.42-8.141-28.689-8.141h-13.143c-1.39 4.34-2.146 8.973-2.146 13.777 0 1.74.095 3.451.293 5.135h14.997c6.685 0 13.115 1.844 18.684 5.286 3.811 2.354 8.709 1.863 11.81-1.362 1.806-1.873 2.676-4.256 2.676-6.62z" fill="#27b2ff"/></g><g fill="#b6f0ff"><path d="m154.658 365.013h-89.007c-8.644 0-15.651 7.007-15.651 15.651 0 8.644 7.007 15.651 15.651 15.651h89.007c8.644 0 15.651-7.007 15.651-15.651-.001-8.644-7.008-15.651-15.651-15.651z"/><path d="m234.509 365.013h-15.534c-8.644 0-15.651 7.007-15.651 15.651 0 8.644 7.007 15.651 15.651 15.651h15.534c8.644 0 15.651-7.007 15.651-15.651 0-8.644-7.007-15.651-15.651-15.651z"/></g></g><path d="m123.784 365.013h-23.299c-8.644 0-15.651 7.007-15.651 15.651 0 8.644 7.007 15.651 15.651 15.651h23.299c8.644 0 15.651-7.007 15.651-15.651 0-8.644-7.007-15.651-15.651-15.651z" fill="#dcfeff"/></g></g><g><path d="m155.864 443.067h-145.321c-5.823 0-10.543-4.72-10.543-10.543 0-5.823 4.72-10.543 10.543-10.543h145.321c5.823 0 10.543 4.72 10.543 10.543 0 5.823-4.72 10.543-10.543 10.543z" fill="#b6f0ff"/><path d="m111.228 421.981h-49.947c-5.823 0-10.543 4.72-10.543 10.543 0 5.823 4.72 10.543 10.543 10.543h49.947c5.823 0 10.543-4.72 10.543-10.543.001-5.823-4.72-10.543-10.543-10.543z" fill="#dcfeff"/></g><g><path d="m231.846 93.648h-105.321c-5.823 0-10.543-4.72-10.543-10.543 0-5.823 4.72-10.543 10.543-10.543h105.321c5.823 0 10.543 4.72 10.543 10.543 0 5.823-4.72 10.543-10.543 10.543z" fill="#73e1ff"/><path d="m207.21 72.561h-29.947c-5.823 0-10.543 4.72-10.543 10.543 0 5.823 4.72 10.543 10.543 10.543h29.947c5.823 0 10.543-4.72 10.543-10.543 0-5.822-4.72-10.543-10.543-10.543z" fill="#b6f0ff"/></g><g><path d="m475.062 406.858h-105.321c-5.823 0-10.543-4.72-10.543-10.543 0-5.823 4.72-10.543 10.543-10.543h105.321c5.823 0 10.543 4.72 10.543 10.543 0 5.823-4.721 10.543-10.543 10.543z" fill="#73e1ff"/><path d="m450.426 385.771h-29.947c-5.823 0-10.543 4.72-10.543 10.543 0 5.823 4.72 10.543 10.543 10.543h29.947c5.823 0 10.543-4.72 10.543-10.543 0-5.822-4.72-10.543-10.543-10.543z" fill="#b6f0ff"/></g><g><path d="m115.864 250.166h-105.321c-5.823 0-10.543-4.721-10.543-10.544 0-5.823 4.72-10.543 10.543-10.543h105.321c5.823 0 10.543 4.72 10.543 10.543 0 5.823-4.72 10.544-10.543 10.544z" fill="#73e1ff"/><path d="m91.228 229.079h-29.947c-5.823 0-10.543 4.72-10.543 10.543 0 5.823 4.72 10.543 10.543 10.543h29.947c5.823 0 10.543-4.72 10.543-10.543.001-5.822-4.72-10.543-10.543-10.543z" fill="#b6f0ff"/></g></g></svg>