<svg id="Layer_1" enable-background="new 0 0 512 512" height="512" viewBox="0 0 512 512" width="512" xmlns="http://www.w3.org/2000/svg"><g><g><g><g id="XMLID_951_"><g id="XMLID_952_"><g id="XMLID_953_"><g id="XMLID_954_"><g id="XMLID_955_"><g id="XMLID_956_"><g id="XMLID_957_"><g id="XMLID_958_"><g id="XMLID_959_"><g id="XMLID_960_"><g id="XMLID_961_"><g id="XMLID_962_"><g id="XMLID_963_"><g id="XMLID_964_"><g><path d="m512 256c0 14.27-1.17 28.26-3.42 41.89l-244.913 75.11-263.527-108.61c-.09-2.79-.14-5.58-.14-8.39 0-141.38 114.62-256 256-256s256 114.62 256 256z" fill="#fde672"/></g></g></g></g></g></g></g></g></g></g></g></g></g></g></g></g></g><g><path d="m189.629 215.302 137.989 138.086 180.962-55.498c2.083-12.619 3.227-25.549 3.387-38.722l-183.102-183.102z" fill="#ffd628"/></g><g><ellipse cx="255.999" cy="142.436" fill="#f59b20" rx="98.563" ry="98.563" transform="matrix(.707 -.707 .707 .707 -25.737 222.737)"/><g><path d="m354.563 142.436c0 54.432-44.132 98.564-98.564 98.564v-197.128c54.432 0 98.564 44.133 98.564 98.564z" fill="#da7327"/></g></g><path d="m508.58 297.89c-6.53 39.71-22.21 76.35-44.8 107.67-6.28 8.71-13.09 17-20.39 24.84-137.76 37.29-326.48 75.67-235.26-24.2 21.05-23.04 25.02-49.05 47.87-62.4 93.78-54.81 194.67-53.31 252.58-45.91z" fill="#da7327"/><path d="m463.78 405.56c-46.48 64.47-122.23 106.44-207.78 106.44-138.57 0-251.44-110.11-255.86-247.61 48.02-7.92 164.06-13.19 267.12 90.24 42.81 42.95 119.74 53.59 196.52 50.93z" fill="#fcb42d"/><path d="m463.78 405.56c-46.48 64.47-122.23 106.44-207.78 106.44v-168.2c3.77 3.47 7.52 7.08 11.26 10.83 42.81 42.95 119.74 53.59 196.52 50.93z" fill="#f59b20"/></g></svg>