<?xml version="1.0" encoding="UTF-8" standalone="no"?>
<svg
   xmlns:dc="http://purl.org/dc/elements/1.1/"
   xmlns:cc="http://creativecommons.org/ns#"
   xmlns:rdf="http://www.w3.org/1999/02/22-rdf-syntax-ns#"
   xmlns:svg="http://www.w3.org/2000/svg"
   xmlns="http://www.w3.org/2000/svg"
   xmlns:sodipodi="http://sodipodi.sourceforge.net/DTD/sodipodi-0.dtd"
   xmlns:inkscape="http://www.inkscape.org/namespaces/inkscape"
   version="1.1"
   id="Capa_1"
   x="0px"
   y="0px"
   viewBox="0 0 368 368"
   style="enable-background:new 0 0 368 368;"
   xml:space="preserve"
   sodipodi:docname="hazy.svg"
   inkscape:version="1.0.1 (3bc2e813f5, 2020-09-07)"><metadata
   id="metadata47"><rdf:RDF><cc:Work
       rdf:about=""><dc:format>image/svg+xml</dc:format><dc:type
         rdf:resource="http://purl.org/dc/dcmitype/StillImage" /></cc:Work></rdf:RDF></metadata><defs
   id="defs45" /><sodipodi:namedview
   pagecolor="#ffffff"
   bordercolor="#666666"
   borderopacity="1"
   objecttolerance="10"
   gridtolerance="10"
   guidetolerance="10"
   inkscape:pageopacity="0"
   inkscape:pageshadow="2"
   inkscape:window-width="1920"
   inkscape:window-height="1057"
   id="namedview43"
   showgrid="false"
   inkscape:zoom="2.4184783"
   inkscape:cx="184"
   inkscape:cy="200.53933"
   inkscape:window-x="-8"
   inkscape:window-y="-8"
   inkscape:window-maximized="1"
   inkscape:current-layer="Capa_1" />
<g
   id="g10"
   style="fill:#d4aa00">
	<path
   style="fill:#d4aa00"
   d="M 360,96 C 332.728,96 319.352,88.704 305.192,80.984 289.88,72.632 274.048,64 242.64,64 211.288,64 195.472,72.624 180.168,80.968 166,88.696 152.608,96 125.28,96 98,96 84.632,88.704 70.472,80.976 55.176,72.632 39.36,64 8,64 c -4.424,0 -8,3.584 -8,8 0,4.416 3.576,8 8,8 27.28,0 40.648,7.296 54.808,15.024 C 78.104,103.368 93.92,112 125.28,112 c 31.408,0 47.24,-8.632 62.552,-16.984 C 201.992,87.296 215.368,80 242.64,80 c 27.328,0 40.72,7.304 54.888,15.032 15.304,8.344 31.12,16.968 62.472,16.968 4.424,0 8,-3.584 8,-8 0,-4.416 -3.576,-8 -8,-8 z"
   id="path2" />
	<path
   style="fill:#d4aa00"
   d="m 360,160 c -27.272,0 -40.648,-7.296 -54.808,-15.016 C 289.88,136.632 274.048,128 242.64,128 c -31.352,0 -47.168,8.624 -62.472,16.968 C 166,152.696 152.608,160 125.28,160 98,160 84.632,152.704 70.472,144.976 55.176,136.632 39.36,128 8,128 c -4.424,0 -8,3.584 -8,8 0,4.416 3.576,8 8,8 27.28,0 40.648,7.296 54.808,15.024 C 78.104,167.368 93.92,176 125.28,176 c 31.408,0 47.24,-8.632 62.552,-16.984 14.16,-7.72 27.536,-15.016 54.808,-15.016 27.328,0 40.72,7.304 54.888,15.032 15.304,8.344 31.12,16.968 62.472,16.968 4.424,0 8,-3.584 8,-8 0,-4.416 -3.576,-8 -8,-8 z"
   id="path4" />
	<path
   style="fill:#d4aa00"
   d="m 360,288 c -27.272,0 -40.648,-7.296 -54.808,-15.016 C 289.88,264.632 274.048,256 242.64,256 c -31.352,0 -47.168,8.624 -62.472,16.968 C 166,280.696 152.608,288 125.28,288 98,288 84.632,280.704 70.472,272.976 55.176,264.632 39.36,256 8,256 c -4.424,0 -8,3.584 -8,8 0,4.416 3.576,8 8,8 27.28,0 40.648,7.296 54.808,15.024 C 78.104,295.368 93.92,304 125.28,304 c 31.408,0 47.24,-8.632 62.552,-16.984 14.16,-7.72 27.536,-15.016 54.808,-15.016 27.328,0 40.72,7.304 54.888,15.032 15.304,8.344 31.12,16.968 62.472,16.968 4.424,0 8,-3.584 8,-8 0,-4.416 -3.576,-8 -8,-8 z"
   id="path6" />
	<path
   style="fill:#d4aa00"
   d="m 360,224 c -27.272,0 -40.648,-7.296 -54.808,-15.016 C 289.88,200.632 274.048,192 242.64,192 c -31.352,0 -47.168,8.624 -62.472,16.968 C 166,216.696 152.608,224 125.28,224 98,224 84.632,216.704 70.472,208.976 55.176,200.632 39.36,192 8,192 c -4.424,0 -8,3.584 -8,8 0,4.416 3.576,8 8,8 27.28,0 40.648,7.296 54.808,15.024 C 78.104,231.368 93.92,240 125.28,240 c 31.408,0 47.24,-8.632 62.552,-16.984 14.16,-7.72 27.536,-15.016 54.808,-15.016 27.328,0 40.72,7.304 54.888,15.032 15.304,8.344 31.12,16.968 62.472,16.968 4.424,0 8,-3.584 8,-8 0,-4.416 -3.576,-8 -8,-8 z"
   id="path8" />
</g>
<g
   id="g12"
   style="fill:#d4aa00">
</g>
<g
   id="g14"
   style="fill:#d4aa00">
</g>
<g
   id="g16"
   style="fill:#d4aa00">
</g>
<g
   id="g18"
   style="fill:#d4aa00">
</g>
<g
   id="g20"
   style="fill:#d4aa00">
</g>
<g
   id="g22"
   style="fill:#d4aa00">
</g>
<g
   id="g24"
   style="fill:#d4aa00">
</g>
<g
   id="g26"
   style="fill:#d4aa00">
</g>
<g
   id="g28"
   style="fill:#d4aa00">
</g>
<g
   id="g30"
   style="fill:#d4aa00">
</g>
<g
   id="g32"
   style="fill:#d4aa00">
</g>
<g
   id="g34"
   style="fill:#d4aa00">
</g>
<g
   id="g36"
   style="fill:#d4aa00">
</g>
<g
   id="g38"
   style="fill:#d4aa00">
</g>
<g
   id="g40"
   style="fill:#d4aa00">
</g>
</svg>
