<svg height="512" viewBox="0 0 59 59" width="512" xmlns="http://www.w3.org/2000/svg"><g id="Page-1" fill="none" fill-rule="evenodd"><g id="029---Ice-Cubes" fill-rule="nonzero"><path id="Shape" d="m15.69 19-1.54-3.23c-1.1877441-2.4936931-.1317569-5.4781993 2.36-6.67l18.05-8.61c1.1973327-.57234462 2.5730843-.64521049 3.8241764-.20254522 1.2510921.44266526 2.2748802 1.36454371 2.8458236 2.56254522l8.61 18.05c.581509 1.2176597.6472433 2.6184101.182323 3.8851765-.4649202 1.2667664-1.4211811 2.2924309-2.652323 2.8448235l-17.37 8.28z" fill="#84b5cb"/><path id="Shape" d="m39.209 8.9c-.3844318-.00090467-.7343105-.22210574-.9-.569l-1.591-3.331-3.418 1.63c-.4891281.19619414-1.0465684-.02088807-1.2741922-.49620462-.2276238-.47531656-.0472958-1.0457078.4121922-1.30379538l3.411-1.63c.9997919-.45149647 2.1778331-.03589866 2.673.943l1.588 3.327c.2358286.4974038.0253067 1.09187119-.471 1.33-.133956.06533987-.2809588.09952657-.43.1z" fill="#fff"/><circle id="Oval" cx="43" cy="43" fill="#2980ba" r="15"/><path id="Shape" d="m43 59c-5.6109736-.0190621-10.8060756-2.9620815-13.707-7.765-.2844266-.4735842-.1310841-1.0880733.3425-1.3725.4735842-.2844266 1.0880733-.1310841 1.3725.3425 3.1696813 5.286357 9.4238653 7.8777459 15.4035226 6.3823703s10.2778183-6.7256649 10.5860046-12.881757c.3081863-6.1560922-3.4461161-11.7895039-9.2465272-13.8746133-4.4363368-1.6032333-9.3821261-.859729-13.151 1.977-.4418278.3330277-1.0699723.2448278-1.403-.197s-.2448278-1.0699723.197-1.403c4.3088506-3.2438359 9.9637076-4.0941706 15.036-2.261 7.3157461 2.6354934 11.6774244 10.149219 10.3380205 17.8089816-1.339404 7.6597626-7.9920347 13.2475004-15.7680205 13.2440184z" fill="#3b97d3"/><path id="Shape" d="m51.741 44.162-3.229.865-3.512-2.027 3.512-2.027 3.229.865c.0846917.0233384.1721515.0351119.26.035.5017827-.0002717.9256677-.3723675.9909573-.8698845.0652897-.4975171-.2482351-.9663838-.7329573-1.0961155l-2.659-.714.714-2.665c.1398151-.5324122-.1769484-1.0777088-.7087028-1.2200053-.5317543-.1422966-1.0785222.1719204-1.2232972.7030053l-.865 3.23-3.517 2.027v-4.055l2.364-2.364c.3789722-.3923789.3735524-1.0160848-.0121814-1.4018186s-1.0094397-.3911536-1.4018186-.0121814l-1.95 1.95-1.95-1.95c-.3923789-.3789722-1.0160848-.3735524-1.4018186.0121814s-.3911536 1.0094397-.0121814 1.4018186l2.364 2.364v4.055l-3.512-2.027-.865-3.23c-.144775-.5310849-.6915429-.8453019-1.2232972-.7030053-.5317544.1422965-.8485179.6875931-.7087028 1.2200053l.714 2.665-2.664.714c-.484906.1297809-.7984552.5989382-.732892 1.0966112.0655632.4976729.4899191.8696189.991892.8693888.0878485.0001119.1753083-.0116616.26-.035l3.229-.865 3.511 2.027-3.512 2.027-3.229-.865c-.3486122-.1036823-.7260305-.0099144-.9855847.2448642-.2595541.2547786-.3603139.6303908-.2631225.9808681.0971913.3504773.3770073.6205514.7307072.7052677l2.664.714-.714 2.665c-.0695652.256888-.0338589.5309094.0992134.7613927.1330722.2304833.3525313.3984129.6097866.4666073.0846917.0233384.1721515.0351119.26.035.4524951-.0005181.8482565-.3048238.965-.742l.865-3.23 3.51-2.031v4.055l-2.364 2.364c-.3789722.3923789-.3735524 1.0160848.0121814 1.4018186s1.0094397.3911536 1.4018186.0121814l1.95-1.95 1.95 1.95c.3923789.3789722 1.0160848.3735524 1.4018186-.0121814s.3911536-1.0094397.0121814-1.4018186l-2.364-2.364v-4.055l3.512 2.027.865 3.23c.1167435.4371762.5125049.7414819.965.742.0878485.0001119.1753083-.0116616.26-.035.5330514-.1429996.8494732-.6908077.707-1.224l-.709-2.665 2.664-.714c.3536999-.0847163.6335159-.3547904.7307072-.7052677.0971914-.3504773-.0035684-.7260895-.2631225-.9808681-.2595542-.2547786-.6369725-.3485465-.9855847-.2448642z" fill="#fff"/><rect id="Rectangle-path" fill="#9fc9d3" height="30" rx="5" width="30" y="19"/><path id="Shape" d="m25 46h-3c-.5522847 0-1-.4477153-1-1s.4477153-1 1-1h3v-3c0-.5522847.4477153-1 1-1s1 .4477153 1 1v3c0 1.1045695-.8954305 2-2 2z" fill="#84b5cb"/><g fill="#fff"><path id="Shape" d="m4 29c-.4043959-.0000863-.76893405-.2437275-.92367798-.6173454-.15474393-.373618-.06922994-.8036603.21667798-1.0896546l5-5c.39237889-.3789722 1.01608478-.3735524 1.40181858.0121814.38573382.3857338.39115362 1.0094397.01218142 1.4018186l-5 5c-.18749273.1875494-.44180519.2929434-.707.293z"/><path id="Shape" d="m4 35c-.4043959-.0000863-.76893405-.2437275-.92367798-.6173454-.15474393-.373618-.06922994-.8036603.21667798-1.0896546l11-11c.3923789-.3789722 1.0160848-.3735524 1.4018186.0121814s.3911536 1.0094397.0121814 1.4018186l-11 11c-.18749273.1875494-.44180519.2929434-.707.293z"/></g></g></g></svg>