<svg id="Capa_1" enable-background="new 0 0 512 512" height="512" viewBox="0 0 512 512" width="512" xmlns="http://www.w3.org/2000/svg"><g><g><path d="m334.5 424.5h-42.5c16.569 0 30-13.431 30-30 0-16.568-13.431-30-30-30h-254.5c-16.569 0-30 13.432-30 30 0 16.569 13.431 30 30 30h87c-22.091 0-40 17.909-40 40 0 22.091 17.909 40 40 40h210c22.091 0 40-17.908 40-40 0-22.091-17.909-40-40-40z" fill="#fff1ce"/></g><g><path d="m334.502 424.5h-99.752c-16.569 0-30-13.431-30-30 0-16.568 13.431-30 30-30h-197.25c-16.569 0-30 13.432-30 30 0 16.569 13.431 30 30 30h87c-22.091 0-40 17.909-40 40 0 22.091 17.909 40 40 40h210c22.091 0 40-17.908 40-40 0-22.091-17.907-39.999-39.998-40z" fill="#ffe1bd"/></g><g><path d="m474.5 67.5h-87c22.091 0 40 17.909 40 40 0 22.091-17.909 40-40 40h-86.5c16.569 0 30 13.431 30 30 0 16.569-13.431 30-30 30h-161c-16.569 0-30-13.431-30-30 0-16.569 13.431-30 30-30h-92.5c-22.091 0-40-17.909-40-40 0-22.091 17.909-40 40-40h132.5c-16.569 0-30-13.431-30-30 0-16.569 13.431-30 30-30h294.5c16.569 0 30 13.431 30 30 0 16.569-13.431 30-30 30z" fill="#fff1ce"/></g><g><path d="m474.5 67.5h-87-152.5c-22.091 0-40 17.909-40 40 0 22.091 17.909 40 40 40h66c16.569 0 30 13.431 30 30s-13.431 30-30 30h-161c-16.569 0-30-13.431-30-30s13.431-30 30-30h-92.5c-22.091 0-40-17.909-40-40s17.909-40 40-40h132.5c-16.569 0-30-13.431-30-30s13.431-30 30-30h294.5c16.569 0 30 13.431 30 30s-13.431 30-30 30z" fill="#ffe1bd"/></g><g><path d="m293.421 104.427c-8.478 0-16.539 3.671-22.118 10.072-2.721 3.122-2.396 7.86.727 10.582 3.122 2.721 7.859 2.396 10.582-.727 2.729-3.132 6.669-4.928 10.81-4.928s8.08 1.796 10.81 4.928c1.483 1.701 3.564 2.572 5.657 2.572 1.748 0 3.504-.607 4.925-1.846 3.123-2.722 3.447-7.46.727-10.582-5.581-6.4-13.643-10.071-22.12-10.071z"/><path d="m244.735 88.777-24.065-6.448c-3.994-1.077-8.113 1.302-9.186 5.303-1.072 4.001 1.302 8.114 5.303 9.186l7.078 1.897c-.252.75-.394 1.551-.394 2.386v10.366c0 4.143 3.358 7.5 7.5 7.5s7.5-3.357 7.5-7.5v-8.839l2.381.638c.65.175 1.303.258 1.946.258 3.311 0 6.342-2.21 7.24-5.561 1.073-4.001-1.301-8.114-5.303-9.186z"/><path d="m375.356 87.632c-1.071-4-5.184-6.379-9.186-5.303l-24.065 6.448c-4.001 1.071-6.375 5.185-5.303 9.186.897 3.351 3.928 5.561 7.239 5.561.643 0 1.296-.083 1.946-.258l2.381-.638v8.839c0 4.143 3.357 7.5 7.5 7.5s7.5-3.357 7.5-7.5v-10.366c0-.835-.142-1.636-.394-2.386l7.079-1.897c4.002-1.072 6.376-5.185 5.303-9.186z"/></g><g><g><path d="m167.051 474.429c-4.142 0-7.5-3.357-7.5-7.5v-12c0-4.143 3.358-7.5 7.5-7.5s7.5 3.357 7.5 7.5v12c0 4.142-3.358 7.5-7.5 7.5z"/></g><g><path d="m291.948 474.429c-4.143 0-7.5-3.357-7.5-7.5v-12c0-4.143 3.357-7.5 7.5-7.5s7.5 3.357 7.5 7.5v12c0 4.142-3.357 7.5-7.5 7.5z"/></g><g><path d="m229.5 481.571c-8.478 0-16.54-3.671-22.119-10.072-2.721-3.123-2.396-7.86.727-10.582 3.123-2.721 7.86-2.396 10.582.727 2.729 3.132 6.669 4.928 10.81 4.928s8.081-1.796 10.81-4.928c2.721-3.123 7.458-3.447 10.582-.727 3.123 2.722 3.448 7.459.727 10.582-5.579 6.401-13.641 10.072-22.119 10.072z"/></g></g><g><path d="m334.5 417h-12.518c4.718-6.271 7.518-14.065 7.518-22.5 0-20.678-16.822-37.5-37.5-37.5h-149.5c-4.142 0-7.5 3.357-7.5 7.5s3.358 7.5 7.5 7.5h149.5c12.406 0 22.5 10.094 22.5 22.5s-10.094 22.5-22.5 22.5c-4.143 0-7.5 3.357-7.5 7.5s3.357 7.5 7.5 7.5h42.5c17.921 0 32.5 14.579 32.5 32.5s-14.579 32.5-32.5 32.5h-210c-17.92 0-32.5-14.579-32.5-32.5s14.58-32.5 32.5-32.5c4.142 0 7.5-3.357 7.5-7.5s-3.358-7.5-7.5-7.5h-87c-12.407 0-22.5-10.094-22.5-22.5s10.093-22.5 22.5-22.5h75c4.142 0 7.5-3.357 7.5-7.5s-3.358-7.5-7.5-7.5h-75c-20.678 0-37.5 16.822-37.5 37.5s16.822 37.5 37.5 37.5h52.389c-7.989 8.503-12.889 19.939-12.889 32.5 0 26.191 21.309 47.5 47.5 47.5h210c26.191 0 47.5-21.309 47.5-47.5s-21.309-47.5-47.5-47.5z"/><path d="m474.5 0h-294.5c-20.678 0-37.5 16.822-37.5 37.5 0 8.435 2.8 16.229 7.518 22.5h-102.518c-26.191 0-47.5 21.309-47.5 47.5s21.309 47.5 47.5 47.5h62.518c-4.718 6.271-7.518 14.065-7.518 22.5 0 20.678 16.822 37.5 37.5 37.5h161c20.678 0 37.5-16.822 37.5-37.5 0-8.435-2.8-16.229-7.518-22.5h56.518c26.191 0 47.5-21.309 47.5-47.5 0-12.561-4.9-23.997-12.89-32.5h52.39c20.678 0 37.5-16.822 37.5-37.5s-16.822-37.5-37.5-37.5zm0 60h-87c-4.143 0-7.5 3.357-7.5 7.5s3.357 7.5 7.5 7.5c17.921 0 32.5 14.579 32.5 32.5s-14.579 32.5-32.5 32.5h-86.5c-4.143 0-7.5 3.357-7.5 7.5s3.357 7.5 7.5 7.5c12.406 0 22.5 10.094 22.5 22.5s-10.094 22.5-22.5 22.5h-161c-12.407 0-22.5-10.094-22.5-22.5s10.093-22.5 22.5-22.5c4.142 0 7.5-3.357 7.5-7.5s-3.358-7.5-7.5-7.5h-92.5c-17.92 0-32.5-14.579-32.5-32.5s14.58-32.5 32.5-32.5h132.5c4.142 0 7.5-3.357 7.5-7.5s-3.358-7.5-7.5-7.5c-12.407 0-22.5-10.094-22.5-22.5s10.093-22.5 22.5-22.5h294.5c12.406 0 22.5 10.094 22.5 22.5s-10.094 22.5-22.5 22.5z"/><path d="m401.001 317.235-309.333-.062h-.001c-4.142 0-7.5 3.356-7.5 7.499-.001 4.142 3.356 7.5 7.499 7.501l309.503.062c.118 0 .235-.003.353-.008 15.762-.752 31.199 5.234 42.349 16.387 16.931 16.931 16.931 44.479.001 61.41-12.961 12.959-34.049 12.961-47.008 0-4.739-4.738-7.35-11.04-7.35-17.742s2.61-13.004 7.349-17.742c7.244-7.241 19.026-7.241 26.267 0 5.209 5.208 5.209 13.684 0 18.893-2.929 2.929-2.929 7.678.001 10.606 2.928 2.928 7.677 2.929 10.606-.001 11.057-11.058 11.056-29.049-.001-40.105-13.09-13.088-34.388-13.088-47.479 0-7.571 7.572-11.742 17.641-11.742 28.35s4.171 20.777 11.743 28.35c9.404 9.403 21.757 14.105 34.109 14.105 12.354 0 24.707-4.702 34.111-14.106 22.778-22.779 22.778-59.845 0-82.623-14.087-14.088-33.567-21.652-53.477-20.774z"/><path d="m315.998 277.134-67.863.024c-4.142.002-7.499 3.36-7.497 7.503.001 4.142 3.359 7.497 7.5 7.497h.003l67.863-.024c4.142-.002 7.499-3.36 7.497-7.503-.002-4.142-3.358-7.497-7.5-7.497-.001 0-.002 0-.003 0z"/><path d="m440.777 174.571c-12.885 0-24.999 5.018-34.109 14.129-7.573 7.572-11.743 17.641-11.743 28.35 0 10.708 4.17 20.776 11.742 28.35 13.09 13.088 34.389 13.089 47.48-.001 11.057-11.058 11.056-29.049 0-40.105-2.93-2.928-7.678-2.928-10.607 0-2.929 2.93-2.929 7.678 0 10.607 5.209 5.208 5.209 13.684.001 18.892-7.243 7.241-19.025 7.243-26.267 0-4.74-4.739-7.35-11.04-7.35-17.742s2.609-13.003 7.35-17.743c6.277-6.277 14.625-9.735 23.503-9.735 8.879 0 17.226 3.458 23.504 9.736 16.932 16.931 16.932 44.479 0 61.41-11.15 11.151-26.593 17.124-42.349 16.386-.117-.005-.234-.008-.351-.008-.001 0-.002 0-.003 0l-75.581.027c-4.142.002-7.499 3.36-7.497 7.503.002 4.142 3.358 7.497 7.5 7.497h.003l75.409-.027c1.043.046 2.085.069 3.125.069 18.809-.001 37.003-7.493 50.351-20.84 22.779-22.78 22.779-59.845 0-82.625-9.112-9.112-21.225-14.13-34.111-14.13z"/><path d="m338.5 244.658c0-4.143-3.357-7.5-7.5-7.5h-124.996c-15.166 0-27.504 12.338-27.504 27.504 0 6.895-5.609 12.504-12.504 12.504h-125.584c-4.142 0-7.5 3.357-7.5 7.5s3.358 7.5 7.5 7.5h125.584c15.166 0 27.504-12.338 27.504-27.504 0-6.895 5.609-12.504 12.504-12.504h124.996c4.143 0 7.5-3.357 7.5-7.5z"/></g></g></svg>