<?xml version="1.0" encoding="iso-8859-1"?>
<!-- Generator: Adobe Illustrator 19.0.0, SVG Export Plug-In . SVG Version: 6.00 Build 0)  -->
<svg version="1.1" id="Capa_1" xmlns="http://www.w3.org/2000/svg" xmlns:xlink="http://www.w3.org/1999/xlink" x="0px" y="0px"
	 viewBox="0 0 512 512" style="enable-background:new 0 0 512 512;" xml:space="preserve">
<path style="fill:#FFDE91;" d="M287.203,228.969H91.533v-30h195.67c15.912,0,28.857-12.945,28.857-28.856
	s-12.945-28.856-28.857-28.856s-28.857,12.945-28.857,28.856h-30c0-32.453,26.403-58.856,58.857-58.856s58.857,26.403,58.857,58.856
	S319.657,228.969,287.203,228.969z"/>
<path style="fill:#EDC472;" d="M385.765,417.575c-32.454,0-58.856-26.403-58.856-58.856h30c0,15.911,12.945,28.856,28.856,28.856
	s28.857-12.945,28.857-28.856c0-15.912-12.945-28.857-28.857-28.857H152.144v-30h233.621c32.454,0,58.857,26.403,58.857,58.857
	C444.622,391.171,418.218,417.575,385.765,417.575z"/>
<path style="fill:#FAD17F;" d="M443.936,279.416H0v-30h443.936c20.989,0,38.064-17.075,38.064-38.064s-17.076-38.064-38.064-38.064
	s-38.064,17.075-38.064,38.064h-30c0-37.531,30.534-68.064,68.064-68.064S512,173.82,512,211.351S481.466,279.416,443.936,279.416z"
	/>
<rect x="54.46" y="48.974" style="fill:#FFDE91;" width="30" height="30"/>
<rect x="138.07" y="101.16" style="fill:#FAD17F;" width="30" height="30"/>
<rect x="233.27" y="26.94" style="fill:#EDC472;" width="30" height="30"/>
<rect x="461.53" y="26.94" style="fill:#FFDE91;" width="30" height="30"/>
<g>
	<rect x="360.76" y="65.21" style="fill:#FAD17F;" width="30" height="30"/>
	<rect x="17.789" y="323.29" style="fill:#FAD17F;" width="30" height="30"/>
</g>
<rect x="58.24" y="434.08" style="fill:#FFDE91;" width="30" height="30"/>
<g>
	<rect x="179.07" y="378.33" style="fill:#EDC472;" width="30" height="30"/>
	<rect x="461.53" y="387.79" style="fill:#EDC472;" width="30" height="30"/>
</g>
<rect x="256" y="434.08" style="fill:#FFDE91;" width="30" height="30"/>
<rect x="380.09" y="455.06" style="fill:#FAD17F;" width="30" height="30"/>
<g>
</g>
<g>
</g>
<g>
</g>
<g>
</g>
<g>
</g>
<g>
</g>
<g>
</g>
<g>
</g>
<g>
</g>
<g>
</g>
<g>
</g>
<g>
</g>
<g>
</g>
<g>
</g>
<g>
</g>
</svg>
