<svg id="Capa_1" enable-background="new 0 0 512.001 512.001" height="512" viewBox="0 0 512.001 512.001" width="512" xmlns="http://www.w3.org/2000/svg"><g><path d="m504.232 237.52-57.232-59.559v-89.961c0-14.832-8.168-23-23-23h-89.961l-59.558-57.231c-10.492-10.367-26.484-10.35-36.961 0l-59.559 57.231h-89.961c-14.832 0-23 8.168-23 23v89.12l-57.274 60.443c-10.312 10.485-10.306 26.441.043 36.918l57.231 59.558v89.961c0 14.832 8.168 23 23 23h89.961l59.558 57.231c10.494 10.366 26.485 10.351 36.961 0l59.559-57.231h89.961c14.832 0 23-8.168 23-23v-89.961l57.231-59.559c10.368-10.492 10.351-26.485.001-36.96z" fill="#f7be48"/><path d="m274.481 504.232 59.558-57.232h89.961c14.832 0 23-8.168 23-23v-89.961l57.231-59.559c10.367-10.493 10.35-26.486 0-36.961l-57.231-59.558v-89.961c0-14.832-8.168-23-23-23h-89.961l-59.558-57.231c-5.072-5.012-11.629-7.769-18.481-7.769v512c6.852 0 13.409-2.757 18.481-7.768z" fill="#f99e49"/><circle cx="256" cy="256" fill="#fef77d" r="143"/><path d="m399 256c0-78.851-64.149-143-143-143v286c78.851 0 143-64.149 143-143z" fill="#f4de48"/></g></svg>