<?xml version="1.0" encoding="UTF-8" standalone="no"?>
<!-- Created with Inkscape (http://www.inkscape.org/) -->

<svg
   xmlns:dc="http://purl.org/dc/elements/1.1/"
   xmlns:cc="http://creativecommons.org/ns#"
   xmlns:rdf="http://www.w3.org/1999/02/22-rdf-syntax-ns#"
   xmlns:svg="http://www.w3.org/2000/svg"
   xmlns="http://www.w3.org/2000/svg"
   xmlns:xlink="http://www.w3.org/1999/xlink"
   xmlns:sodipodi="http://sodipodi.sourceforge.net/DTD/sodipodi-0.dtd"
   xmlns:inkscape="http://www.inkscape.org/namespaces/inkscape"
   width="700"
   height="700"
   id="svg2"
   version="1.1"
   inkscape:version="0.48.3.1 r9886"
   sodipodi:docname="astronomy_observatory.svg">
  <defs
     id="defs4">
    <linearGradient
       id="linearGradient3604">
      <stop
         style="stop-color:#ffffff;stop-opacity:1;"
         offset="0"
         id="stop3606" />
      <stop
         style="stop-color:#ededed;stop-opacity:1;"
         offset="1"
         id="stop3608" />
    </linearGradient>
    <linearGradient
       id="linearGradient3591">
      <stop
         style="stop-color:#ffffff;stop-opacity:1;"
         offset="0"
         id="stop3593" />
      <stop
         style="stop-color:#d0d0d0;stop-opacity:1;"
         offset="1"
         id="stop3595" />
    </linearGradient>
    <radialGradient
       inkscape:collect="always"
       xlink:href="#linearGradient3604"
       id="radialGradient3632"
       gradientUnits="userSpaceOnUse"
       gradientTransform="matrix(1.9858905,7.2506564e-8,-7.1672339e-8,1.9630417,-345.68114,-338.0217)"
       cx="350.62836"
       cy="350.80765"
       fx="350.62836"
       fy="350.80765"
       r="177.18582" />
    <radialGradient
       inkscape:collect="always"
       xlink:href="#linearGradient3591"
       id="radialGradient2838"
       gradientUnits="userSpaceOnUse"
       cx="350.62836"
       cy="350.62836"
       fx="350.62836"
       fy="350.62836"
       r="349.3447"
       gradientTransform="matrix(0.97995872,0,0,0.97630912,5.1419385,5.7932424)" />
  </defs>
  <sodipodi:namedview
     id="base"
     pagecolor="#ffffff"
     bordercolor="#666666"
     borderopacity="1.0"
     inkscape:pageopacity="0.0"
     inkscape:pageshadow="2"
     inkscape:zoom="0.79571429"
     inkscape:cx="201.70557"
     inkscape:cy="386.83242"
     inkscape:document-units="px"
     inkscape:current-layer="layer2"
     showgrid="true"
     showguides="true"
     inkscape:guide-bbox="true"
     inkscape:snap-global="true"
     inkscape:window-width="1871"
     inkscape:window-height="1056"
     inkscape:window-x="49"
     inkscape:window-y="24"
     inkscape:window-maximized="1"
     inkscape:snap-grids="false"
     inkscape:snap-to-guides="true">
    <inkscape:grid
       type="xygrid"
       id="grid2816"
       empspacing="5"
       visible="true"
       enabled="true"
       snapvisiblegridlinesonly="true" />
    <sodipodi:guide
       orientation="1,0"
       position="350.62837,536.62478"
       id="guide2818" />
    <sodipodi:guide
       orientation="0,1"
       position="547.93537,348.1149"
       id="guide2820" />
    <sodipodi:guide
       orientation="0,1"
       position="591.921,711.31059"
       id="guide3612" />
  </sodipodi:namedview>
  <metadata
     id="metadata7">
    <rdf:RDF>
      <cc:Work
         rdf:about="">
        <dc:format>image/svg+xml</dc:format>
        <dc:type
           rdf:resource="http://purl.org/dc/dcmitype/StillImage" />
        <dc:title />
      </cc:Work>
    </rdf:RDF>
  </metadata>
  <g
     inkscape:label="Floor"
     inkscape:groupmode="layer"
     id="layer1"
     transform="translate(0,-352.36218)"
     style="display:inline"
     sodipodi:insensitive="true">
    <path
       sodipodi:type="arc"
       style="fill:#ffffff;fill-opacity:1;fill-rule:evenodd;stroke:#6e6e6e;stroke-width:1;stroke-linecap:round;stroke-linejoin:miter;stroke-miterlimit:4;stroke-opacity:1;stroke-dasharray:none;stroke-dashoffset:0"
       id="path2826"
       sodipodi:cx="350.62836"
       sodipodi:cy="350.62836"
       sodipodi:rx="343.08798"
       sodipodi:ry="343.08798"
       d="m 693.71634,350.62836 c 0,189.48226 -153.60572,343.08798 -343.08798,343.08798 C 161.1461,693.71634 7.5403748,540.11062 7.5403748,350.62836 7.5403748,161.1461 161.1461,7.5403748 350.62836,7.5403748 c 189.48226,0 343.08798,153.6057252 343.08798,343.0879852 z"
       transform="translate(0,352.36218)" />
  </g>
  <g
     inkscape:groupmode="layer"
     id="layer4"
     inkscape:label="Interior"
     style="opacity:0.506;display:inline"
     sodipodi:insensitive="true">
    <path
       d="m 693.71634,350.62836 a 343.08798,343.08798 0 1 1 -686.1759652,0 343.08798,343.08798 0 1 1 686.1759652,0 z"
       sodipodi:ry="343.08798"
       sodipodi:rx="343.08798"
       sodipodi:cy="350.62836"
       sodipodi:cx="350.62836"
       id="path3636"
       style="fill:#bec3df;fill-opacity:1;fill-rule:evenodd;stroke:#6e6e6e;stroke-width:10;stroke-linecap:round;stroke-linejoin:miter;stroke-miterlimit:4;stroke-opacity:1;stroke-dasharray:none;stroke-dashoffset:0;display:inline"
       sodipodi:type="arc" />
    <path
       sodipodi:type="arc"
       style="fill:#4d4f52;fill-opacity:1;fill-rule:evenodd;stroke:#000000;stroke-width:1;stroke-linecap:round;stroke-linejoin:miter;stroke-miterlimit:4;stroke-opacity:1;stroke-dasharray:none;stroke-dashoffset:0"
       id="path3640"
       sodipodi:cx="350.62836"
       sodipodi:cy="350.62836"
       sodipodi:rx="60.323158"
       sodipodi:ry="60.323158"
       d="m 410.95152,350.62836 a 60.323158,60.323158 0 1 1 -120.64632,0 60.323158,60.323158 0 1 1 120.64632,0 z" />
    <path
       id="path3646"
       style="fill:#75370f;fill-opacity:1;stroke:#000000;stroke-width:1;stroke-linecap:round;stroke-linejoin:miter;stroke-miterlimit:4;stroke-opacity:1;stroke-dashoffset:0"
       d="m 460,320 c 80,0 -20,0 60,0 -11.82659,-73.64742 -65.82999,-128.35325 -140,-140 0,80 0,-20 0,60 40.45211,9.74559 69.70495,40.1604 80,80 z m 60,60 c -80,0 20,0 -60,0 -9.84535,40.39572 -39.3631,69.63647 -80,80 0,80 0,-20 0,60 73.17231,-11.83135 127.41697,-67.73215 140,-140 z M 240,320 c -80,0 20,0 -60,0 11.45165,-72.92758 67.53281,-126.73474 140,-140 0,80 0,-20 0,60 -40.01749,10.43003 -69.67694,39.93943 -80,80 z m 80,200 c 0,-80 0,20 0,-60 -39.6872,-10.42483 -69.36976,-40.48344 -80,-80 -80,0 20,0 -60,0 13.06706,71.54852 68.51039,127.00086 140,140 z"
       sodipodi:nodetypes="cccccccccccccccccccc" />
    <path
       style="fill:#d4d7d7;fill-opacity:1;fill-rule:evenodd;stroke:#000000;stroke-width:1;stroke-linecap:round;stroke-linejoin:miter;stroke-miterlimit:4;stroke-opacity:1;stroke-dashoffset:0"
       d="m 319.61915,403.37863 c 0,0 21.19128,8.07081 32.26595,7.93196 9.81368,-0.12304 28.40686,-7.74346 28.40686,-7.74346 L 380,440 l -60,0 -0.38085,-36.62137 z"
       id="rect3610"
       sodipodi:nodetypes="cacccc" />
    <path
       sodipodi:nodetypes="cacccc"
       id="path3613"
       d="m 320,298.84652 c 0,0 21.15939,-8.39348 32.26595,-8.31646 9.81421,0.0681 28.40686,7.74346 28.40686,7.74346 l -0.29196,-36.43287 -60,0 L 320,298.84652 z"
       style="fill:#d4d7d7;fill-opacity:1;fill-rule:evenodd;stroke:#000000;stroke-width:1;stroke-linecap:round;stroke-linejoin:miter;stroke-miterlimit:4;stroke-opacity:1;stroke-dashoffset:0" />
    <rect
       transform="matrix(-0.70710678,-0.70710678,0.70710678,-0.70710678,0,0)"
       ry="8.2897186"
       y="188.01239"
       x="-514.19379"
       height="25.898693"
       width="32.373367"
       id="rect5530"
       style="fill:#c12120;fill-opacity:1;fill-rule:nonzero;stroke:#5e0000;stroke-width:1;stroke-linecap:round;stroke-linejoin:miter;stroke-miterlimit:4;stroke-opacity:1;stroke-dasharray:none;display:inline;enable-background:new" />
    <rect
       style="fill:#c12120;fill-opacity:1;fill-rule:nonzero;stroke:#5e0000;stroke-width:1;stroke-linecap:round;stroke-linejoin:miter;stroke-miterlimit:4;stroke-opacity:1;stroke-dasharray:none;display:inline;enable-background:new"
       id="rect3620"
       width="32.373367"
       height="25.898693"
       x="-7.912612"
       y="-309.3017"
       ry="8.2897186"
       transform="matrix(-0.70710678,0.70710678,-0.70710678,-0.70710678,0,0)" />
    <rect
       transform="matrix(-0.70710678,-0.70710678,0.70710678,-0.70710678,0,0)"
       ry="8.2897186"
       y="-211.5067"
       x="-502.8223"
       height="25.898693"
       width="32.373367"
       id="rect3622"
       style="fill:#c12120;fill-opacity:1;fill-rule:nonzero;stroke:#5e0000;stroke-width:1;stroke-linecap:round;stroke-linejoin:miter;stroke-miterlimit:4;stroke-opacity:1;stroke-dasharray:none;display:inline;enable-background:new" />
    <rect
       style="fill:#c12120;fill-opacity:1;fill-rule:nonzero;stroke:#5e0000;stroke-width:1;stroke-linecap:round;stroke-linejoin:miter;stroke-miterlimit:4;stroke-opacity:1;stroke-dasharray:none;display:inline;enable-background:new"
       id="rect3624"
       width="32.373367"
       height="25.898693"
       x="-13.219321"
       y="-704.27216"
       ry="8.2897186"
       transform="matrix(-0.70710678,0.70710678,-0.70710678,-0.70710678,0,0)" />
    <rect
       style="fill:#262522;fill-opacity:1;fill-rule:evenodd;stroke:#000000;stroke-width:1;stroke-linecap:round;stroke-linejoin:miter;stroke-miterlimit:4;stroke-opacity:1;stroke-dasharray:none;stroke-dashoffset:0"
       id="rect3626"
       width="4.9999771"
       height="50.000004"
       x="209.16493"
       y="411.25742"
       ry="2.5"
       transform="matrix(0.81915204,-0.57357644,0.57357644,0.81915204,0,0)" />
    <rect
       ry="2.5"
       y="-563.62592"
       x="-40.630482"
       height="50.000004"
       width="4.9999771"
       id="rect3628"
       style="fill:#2c2c29;fill-opacity:1;fill-rule:evenodd;stroke:#000000;stroke-width:1;stroke-linecap:round;stroke-linejoin:miter;stroke-miterlimit:4;stroke-opacity:1;stroke-dasharray:none;stroke-dashoffset:0"
       transform="matrix(-0.57357644,0.81915204,-0.81915204,-0.57357644,0,0)" />
    <rect
       style="fill:#73716e;fill-opacity:1;fill-rule:evenodd;stroke:#000000;stroke-width:1;stroke-linecap:round;stroke-linejoin:miter;stroke-miterlimit:4;stroke-opacity:1;stroke-dasharray:none;stroke-dashoffset:0"
       id="rect3630"
       width="15.340541"
       height="41.821663"
       x="147.29402"
       y="480.83261"
       ry="2.5"
       transform="matrix(0.70710678,-0.70710678,0.70710678,0.70710678,0,0)" />
    <rect
       style="fill:#787571;fill-opacity:1;fill-rule:evenodd;stroke:#000000;stroke-width:1;stroke-linecap:round;stroke-linejoin:miter;stroke-miterlimit:4;stroke-opacity:1;stroke-dasharray:none;stroke-dashoffset:0"
       id="rect3634"
       width="7.3328638"
       height="12.91608"
       x="463.46411"
       y="-160.04756"
       ry="3.6664319"
       transform="matrix(0.70710678,0.70710678,-0.70710678,0.70710678,0,0)" />
    <rect
       transform="matrix(-0.81915204,-0.57357644,-0.57357644,0.81915204,0,0)"
       ry="2.5"
       y="10.510106"
       x="-365.19513"
       height="50.000004"
       width="4.9999771"
       id="rect3636"
       style="fill:#23252b;fill-opacity:1;fill-rule:evenodd;stroke:#000000;stroke-width:1;stroke-linecap:round;stroke-linejoin:miter;stroke-miterlimit:4;stroke-opacity:1;stroke-dasharray:none;stroke-dashoffset:0" />
    <rect
       transform="matrix(0.57357644,0.81915204,0.81915204,-0.57357644,0,0)"
       style="fill:#282730;fill-opacity:1;fill-rule:evenodd;stroke:#000000;stroke-width:1;stroke-linecap:round;stroke-linejoin:miter;stroke-miterlimit:4;stroke-opacity:1;stroke-dasharray:none;stroke-dashoffset:0"
       id="rect3638"
       width="4.9999771"
       height="50.000004"
       x="362.02777"
       y="9.3960571"
       ry="2.5" />
    <rect
       transform="matrix(-0.70710678,-0.70710678,-0.70710678,0.70710678,0,0)"
       ry="2.5"
       y="-26.347286"
       x="-347.51398"
       height="41.821663"
       width="15.340541"
       id="rect3640"
       style="fill:#73716e;fill-opacity:1;fill-rule:evenodd;stroke:#000000;stroke-width:1;stroke-linecap:round;stroke-linejoin:miter;stroke-miterlimit:4;stroke-opacity:1;stroke-dasharray:none;stroke-dashoffset:0" />
    <rect
       transform="matrix(-0.70710678,0.70710678,0.70710678,0.70710678,0,0)"
       ry="3.6664319"
       y="333.11084"
       x="23.917143"
       height="12.91608"
       width="7.3328638"
       id="rect3642"
       style="fill:#787571;fill-opacity:1;fill-rule:evenodd;stroke:#000000;stroke-width:1;stroke-linecap:round;stroke-linejoin:miter;stroke-miterlimit:4;stroke-opacity:1;stroke-dasharray:none;stroke-dashoffset:0" />
    <rect
       style="fill:#2c2d2c;fill-opacity:1;fill-rule:evenodd;stroke:#000000;stroke-width:1;stroke-linecap:round;stroke-linejoin:miter;stroke-miterlimit:4;stroke-opacity:1;stroke-dasharray:none;stroke-dashoffset:0"
       id="rect3644"
       width="4.9999771"
       height="50.000004"
       x="609.72217"
       y="-162.83131"
       ry="2.5"
       transform="matrix(0.81915204,0.57357644,0.57357644,-0.81915204,0,0)" />
    <rect
       ry="2.5"
       y="-161.15764"
       x="-613.3811"
       height="50.000004"
       width="4.9999771"
       id="rect3646"
       style="fill:#252527;fill-opacity:1;fill-rule:evenodd;stroke:#000000;stroke-width:1;stroke-linecap:round;stroke-linejoin:miter;stroke-miterlimit:4;stroke-opacity:1;stroke-dasharray:none;stroke-dashoffset:0"
       transform="matrix(-0.57357644,-0.81915204,-0.81915204,0.57357644,0,0)" />
    <rect
       style="fill:#73716e;fill-opacity:1;fill-rule:evenodd;stroke:#000000;stroke-width:1;stroke-linecap:round;stroke-linejoin:miter;stroke-miterlimit:4;stroke-opacity:1;stroke-dasharray:none;stroke-dashoffset:0"
       id="rect3648"
       width="15.340541"
       height="41.821663"
       x="642.6925"
       y="-29.412214"
       ry="2.5"
       transform="matrix(0.70710678,0.70710678,0.70710678,-0.70710678,0,0)" />
    <rect
       style="fill:#787571;fill-opacity:1;fill-rule:evenodd;stroke:#000000;stroke-width:1;stroke-linecap:round;stroke-linejoin:miter;stroke-miterlimit:4;stroke-opacity:1;stroke-dasharray:none;stroke-dashoffset:0"
       id="rect3650"
       width="7.3328638"
       height="12.91608"
       x="19.202604"
       y="-657.92047"
       ry="3.6664319"
       transform="matrix(0.70710678,-0.70710678,-0.70710678,-0.70710678,0,0)" />
    <rect
       transform="matrix(-0.81915204,0.57357644,-0.57357644,-0.81915204,0,0)"
       ry="2.5"
       y="-563.67371"
       x="38.276703"
       height="50.000004"
       width="4.9999771"
       id="rect3652"
       style="fill:#262623;fill-opacity:1;fill-rule:evenodd;stroke:#000000;stroke-width:1;stroke-linecap:round;stroke-linejoin:miter;stroke-miterlimit:4;stroke-opacity:1;stroke-dasharray:none;stroke-dashoffset:0" />
    <rect
       transform="matrix(0.57357644,-0.81915204,0.81915204,0.57357644,0,0)"
       style="fill:#222121;fill-opacity:1;fill-rule:evenodd;stroke:#000000;stroke-width:1;stroke-linecap:round;stroke-linejoin:miter;stroke-miterlimit:4;stroke-opacity:1;stroke-dasharray:none;stroke-dashoffset:0"
       id="rect3654"
       width="4.9999771"
       height="50.000004"
       x="-213.49419"
       y="410.95685"
       ry="2.5" />
    <rect
       transform="matrix(-0.70710678,0.70710678,-0.70710678,-0.70710678,0,0)"
       ry="2.5"
       y="-508.96152"
       x="148.29703"
       height="41.821663"
       width="15.340541"
       id="rect3656"
       style="fill:#73716e;fill-opacity:1;fill-rule:evenodd;stroke:#000000;stroke-width:1;stroke-linecap:round;stroke-linejoin:miter;stroke-miterlimit:4;stroke-opacity:1;stroke-dasharray:none;stroke-dashoffset:0" />
    <rect
       transform="matrix(-0.70710678,-0.70710678,0.70710678,-0.70710678,0,0)"
       ry="3.6664319"
       y="-161.05054"
       x="-526.33008"
       height="12.91608"
       width="7.3328638"
       id="rect3658"
       style="fill:#787571;fill-opacity:1;fill-rule:evenodd;stroke:#000000;stroke-width:1;stroke-linecap:round;stroke-linejoin:miter;stroke-miterlimit:4;stroke-opacity:1;stroke-dasharray:none;stroke-dashoffset:0" />
    <path
       sodipodi:type="arc"
       style="fill:#222121;fill-opacity:1;fill-rule:evenodd;stroke:#000000;stroke-width:1;stroke-linecap:round;stroke-linejoin:miter;stroke-miterlimit:4;stroke-opacity:1;stroke-dasharray:none;stroke-dashoffset:0"
       id="path3679"
       sodipodi:cx="399.86176"
       sodipodi:cy="304.39856"
       sodipodi:rx="4.260323"
       sodipodi:ry="4.260323"
       d="m 404.12208,304.39856 a 4.260323,4.260323 0 1 1 -8.52065,0 4.260323,4.260323 0 1 1 8.52065,0 z"
       transform="translate(14.606822,33.473967)" />
    <path
       transform="translate(15.824057,42.603231)"
       d="m 404.12208,304.39856 a 4.260323,4.260323 0 1 1 -8.52065,0 4.260323,4.260323 0 1 1 8.52065,0 z"
       sodipodi:ry="4.260323"
       sodipodi:rx="4.260323"
       sodipodi:cy="304.39856"
       sodipodi:cx="399.86176"
       id="path3681"
       style="fill:#222121;fill-opacity:1;fill-rule:evenodd;stroke:#000000;stroke-width:1;stroke-linecap:round;stroke-linejoin:miter;stroke-miterlimit:4;stroke-opacity:1;stroke-dasharray:none;stroke-dashoffset:0"
       sodipodi:type="arc" />
    <path
       sodipodi:type="arc"
       style="fill:#222121;fill-opacity:1;fill-rule:evenodd;stroke:#000000;stroke-width:1;stroke-linecap:round;stroke-linejoin:miter;stroke-miterlimit:4;stroke-opacity:1;stroke-dasharray:none;stroke-dashoffset:0"
       id="path3683"
       sodipodi:cx="399.86176"
       sodipodi:cy="304.39856"
       sodipodi:rx="4.260323"
       sodipodi:ry="4.260323"
       d="m 404.12208,304.39856 a 4.260323,4.260323 0 1 1 -8.52065,0 4.260323,4.260323 0 1 1 8.52065,0 z"
       transform="translate(15.824057,52.341112)" />
    <path
       transform="translate(14.606822,62.078994)"
       d="m 404.12208,304.39856 a 4.260323,4.260323 0 1 1 -8.52065,0 4.260323,4.260323 0 1 1 8.52065,0 z"
       sodipodi:ry="4.260323"
       sodipodi:rx="4.260323"
       sodipodi:cy="304.39856"
       sodipodi:cx="399.86176"
       id="path3685"
       style="fill:#222121;fill-opacity:1;fill-rule:evenodd;stroke:#000000;stroke-width:1;stroke-linecap:round;stroke-linejoin:miter;stroke-miterlimit:4;stroke-opacity:1;stroke-dasharray:none;stroke-dashoffset:0"
       sodipodi:type="arc" />
    <rect
       style="fill:#222121;fill-opacity:1;fill-rule:evenodd;stroke:#000000;stroke-width:1;stroke-linecap:round;stroke-linejoin:miter;stroke-miterlimit:4;stroke-opacity:1;stroke-dasharray:none;stroke-dashoffset:0"
       id="rect3687"
       width="77.294426"
       height="6.6947937"
       x="415.07721"
       y="334.22083"
       ry="3.3473969" />
    <rect
       ry="3.3473969"
       y="334.22083"
       x="415.07721"
       height="6.6947937"
       width="77.294426"
       id="rect3689"
       style="fill:#222121;fill-opacity:1;fill-rule:evenodd;stroke:#000000;stroke-width:1;stroke-linecap:round;stroke-linejoin:miter;stroke-miterlimit:4;stroke-opacity:1;stroke-dasharray:none;stroke-dashoffset:0" />
    <rect
       style="fill:#222121;fill-opacity:1;fill-rule:evenodd;stroke:#000000;stroke-width:1;stroke-linecap:round;stroke-linejoin:miter;stroke-miterlimit:4;stroke-opacity:1;stroke-dasharray:none;stroke-dashoffset:0"
       id="rect3693"
       width="77.294426"
       height="6.6947937"
       x="415.68582"
       y="343.3501"
       ry="3.3473969" />
    <rect
       ry="3.3473969"
       y="353.08798"
       x="415.68582"
       height="6.6947937"
       width="77.294426"
       id="rect3695"
       style="fill:#222121;fill-opacity:1;fill-rule:evenodd;stroke:#000000;stroke-width:1;stroke-linecap:round;stroke-linejoin:miter;stroke-miterlimit:4;stroke-opacity:1;stroke-dasharray:none;stroke-dashoffset:0" />
    <rect
       style="fill:#222121;fill-opacity:1;fill-rule:evenodd;stroke:#000000;stroke-width:1;stroke-linecap:round;stroke-linejoin:miter;stroke-miterlimit:4;stroke-opacity:1;stroke-dasharray:none;stroke-dashoffset:0"
       id="rect3697"
       width="77.294426"
       height="6.6947937"
       x="414.4686"
       y="362.82587"
       ry="3.3473969" />
    <path
       transform="matrix(-1,0,0,1,687.12926,32.865349)"
       d="m 404.12208,304.39856 a 4.260323,4.260323 0 1 1 -8.52065,0 4.260323,4.260323 0 1 1 8.52065,0 z"
       sodipodi:ry="4.260323"
       sodipodi:rx="4.260323"
       sodipodi:cy="304.39856"
       sodipodi:cx="399.86176"
       id="path3699"
       style="fill:#222121;fill-opacity:1;fill-rule:evenodd;stroke:#000000;stroke-width:1;stroke-linecap:round;stroke-linejoin:miter;stroke-miterlimit:4;stroke-opacity:1;stroke-dasharray:none;stroke-dashoffset:0"
       sodipodi:type="arc" />
    <path
       sodipodi:type="arc"
       style="fill:#222121;fill-opacity:1;fill-rule:evenodd;stroke:#000000;stroke-width:1;stroke-linecap:round;stroke-linejoin:miter;stroke-miterlimit:4;stroke-opacity:1;stroke-dasharray:none;stroke-dashoffset:0"
       id="path3701"
       sodipodi:cx="399.86176"
       sodipodi:cy="304.39856"
       sodipodi:rx="4.260323"
       sodipodi:ry="4.260323"
       d="m 404.12208,304.39856 a 4.260323,4.260323 0 1 1 -8.52065,0 4.260323,4.260323 0 1 1 8.52065,0 z"
       transform="matrix(-1,0,0,1,685.91202,41.994613)" />
    <path
       transform="matrix(-1,0,0,1,685.91202,51.732494)"
       d="m 404.12208,304.39856 a 4.260323,4.260323 0 1 1 -8.52065,0 4.260323,4.260323 0 1 1 8.52065,0 z"
       sodipodi:ry="4.260323"
       sodipodi:rx="4.260323"
       sodipodi:cy="304.39856"
       sodipodi:cx="399.86176"
       id="path3703"
       style="fill:#222121;fill-opacity:1;fill-rule:evenodd;stroke:#000000;stroke-width:1;stroke-linecap:round;stroke-linejoin:miter;stroke-miterlimit:4;stroke-opacity:1;stroke-dasharray:none;stroke-dashoffset:0"
       sodipodi:type="arc" />
    <path
       sodipodi:type="arc"
       style="fill:#222121;fill-opacity:1;fill-rule:evenodd;stroke:#000000;stroke-width:1;stroke-linecap:round;stroke-linejoin:miter;stroke-miterlimit:4;stroke-opacity:1;stroke-dasharray:none;stroke-dashoffset:0"
       id="path3705"
       sodipodi:cx="399.86176"
       sodipodi:cy="304.39856"
       sodipodi:rx="4.260323"
       sodipodi:ry="4.260323"
       d="m 404.12208,304.39856 a 4.260323,4.260323 0 1 1 -8.52065,0 4.260323,4.260323 0 1 1 8.52065,0 z"
       transform="matrix(-1,0,0,1,687.12926,61.470376)" />
    <rect
       ry="3.3473969"
       y="333.61221"
       x="-286.65887"
       height="6.6947937"
       width="77.294426"
       id="rect3707"
       style="fill:#222121;fill-opacity:1;fill-rule:evenodd;stroke:#000000;stroke-width:1;stroke-linecap:round;stroke-linejoin:miter;stroke-miterlimit:4;stroke-opacity:1;stroke-dasharray:none;stroke-dashoffset:0"
       transform="scale(-1,1)" />
    <rect
       style="fill:#222121;fill-opacity:1;fill-rule:evenodd;stroke:#000000;stroke-width:1;stroke-linecap:round;stroke-linejoin:miter;stroke-miterlimit:4;stroke-opacity:1;stroke-dasharray:none;stroke-dashoffset:0"
       id="rect3709"
       width="77.294426"
       height="6.6947937"
       x="-286.65887"
       y="333.61221"
       ry="3.3473969"
       transform="scale(-1,1)" />
    <rect
       ry="3.3473969"
       y="342.74149"
       x="-286.05026"
       height="6.6947937"
       width="77.294426"
       id="rect3711"
       style="fill:#222121;fill-opacity:1;fill-rule:evenodd;stroke:#000000;stroke-width:1;stroke-linecap:round;stroke-linejoin:miter;stroke-miterlimit:4;stroke-opacity:1;stroke-dasharray:none;stroke-dashoffset:0"
       transform="scale(-1,1)" />
    <rect
       style="fill:#222121;fill-opacity:1;fill-rule:evenodd;stroke:#000000;stroke-width:1;stroke-linecap:round;stroke-linejoin:miter;stroke-miterlimit:4;stroke-opacity:1;stroke-dasharray:none;stroke-dashoffset:0"
       id="rect3713"
       width="77.294426"
       height="6.6947937"
       x="-286.05026"
       y="352.47937"
       ry="3.3473969"
       transform="scale(-1,1)" />
    <rect
       ry="3.3473969"
       y="362.21725"
       x="-287.26749"
       height="6.6947937"
       width="77.294426"
       id="rect3715"
       style="fill:#222121;fill-opacity:1;fill-rule:evenodd;stroke:#000000;stroke-width:1;stroke-linecap:round;stroke-linejoin:miter;stroke-miterlimit:4;stroke-opacity:1;stroke-dasharray:none;stroke-dashoffset:0"
       transform="scale(-1,1)" />
    <rect
       style="fill:#49494a;fill-opacity:1;fill-rule:evenodd;stroke:#b0aca8;stroke-width:10.22384834;stroke-linecap:round;stroke-linejoin:miter;stroke-miterlimit:4;stroke-opacity:1;stroke-dasharray:none;stroke-dashoffset:0"
       id="rect3717"
       width="96.544556"
       height="215.93414"
       x="44.097561"
       y="241.40456" />
    <rect
       style="fill:#e9e9ea;fill-opacity:1;fill-rule:evenodd;stroke:#302e31;stroke-width:1;stroke-linecap:round;stroke-linejoin:miter;stroke-miterlimit:4;stroke-opacity:1;stroke-dasharray:none;stroke-dashoffset:0"
       id="rect3719"
       width="139.74866"
       height="79.497253"
       x="280.25134"
       y="560.50275" />
    <rect
       style="fill:#d1d2d3;fill-opacity:1;fill-rule:evenodd;stroke:#322e34;stroke-width:1;stroke-linecap:round;stroke-linejoin:miter;stroke-miterlimit:4;stroke-opacity:1;stroke-dasharray:none;stroke-dashoffset:0"
       id="rect3721"
       width="60"
       height="5"
       x="285"
       y="555" />
    <rect
       style="fill:#d1d2d3;fill-opacity:1;fill-rule:evenodd;stroke:#2c2928;stroke-width:1;stroke-linecap:round;stroke-linejoin:miter;stroke-miterlimit:4;stroke-opacity:1;stroke-dasharray:none;stroke-dashoffset:0"
       id="rect3723"
       width="60"
       height="5"
       x="355"
       y="555" />
  </g>
  <g
     inkscape:groupmode="layer"
     id="layer2"
     inkscape:label="Frame"
     style="display:inline">
    <path
       sodipodi:type="arc"
       style="fill:none;fill-opacity:1;fill-rule:evenodd;stroke:#737374;stroke-width:10;stroke-linecap:round;stroke-linejoin:miter;stroke-miterlimit:4;stroke-opacity:1;stroke-dasharray:none;stroke-dashoffset:0"
       id="path3728"
       sodipodi:cx="350.62836"
       sodipodi:cy="351.8851"
       sodipodi:rx="341.83124"
       sodipodi:ry="341.83124"
       d="m 692.45959,351.8851 a 341.83124,341.83124 0 1 1 -683.6624709,0 341.83124,341.83124 0 1 1 683.6624709,0 z" />
    <g
       id="g3623"
       transform="translate(-2.5134549,-0.62835147)">
      <path
         style="fill:url(#radialGradient2838);fill-opacity:1;fill-rule:evenodd;stroke:#6e6e6e;stroke-width:0.97813219;stroke-linecap:round;stroke-linejoin:miter;stroke-miterlimit:4;stroke-opacity:1;stroke-dashoffset:0"
         d="m 348.75,11.9375 c -186.36495,0 -337.4375,150.51661 -337.4375,336.1875 0,185.67088 152.95092,339.9577 339.31587,339.9577 186.36494,0 335.55913,-154.28682 335.55913,-339.9577 0,-185.67089 -151.07256,-336.1875 -337.4375,-336.1875 z m 1.875,91.125 c 136.73261,0 247.59375,110.82989 247.59375,247.5625 0,136.73261 -110.86114,247.59375 -247.59375,247.59375 -136.73261,0 -247.5625,-110.86114 -247.5625,-247.59375 0,-136.73261 110.82989,-247.5625 247.5625,-247.5625 z"
         transform="translate(2.5134549,0.62835147)"
         id="path3589"
         sodipodi:nodetypes="csssccsssc" />
      <path
         sodipodi:nodetypes="ccaccac"
         id="rect3601"
         d="M 576.84021,241.25673 680,240.62837 c 0,0 20,72.7322 20,110 0,37.2678 -20,110 -20,110 l -100.64633,-3.14183 c 0,0 22.88961,-70.02693 22.62119,-106.22982 C 601.696,313.64607 576.84021,241.25673 576.84021,241.25673 z"
         style="fill:url(#radialGradient3632);fill-opacity:1;fill-rule:evenodd;stroke:#9a9a9b;stroke-width:5;stroke-linecap:round;stroke-linejoin:miter;stroke-miterlimit:4;stroke-opacity:1;stroke-dasharray:none;stroke-dashoffset:0" />
    </g>
    <g
       id="g3627"
       transform="translate(1.3066406e-5,1.3767542e-5)" />
    <path
       sodipodi:type="arc"
       style="fill:none;stroke:#000000;stroke-width:5;stroke-linecap:round;stroke-linejoin:miter;stroke-miterlimit:4;stroke-opacity:1;stroke-dasharray:none;stroke-dashoffset:0"
       id="path2861"
       sodipodi:cx="350.62836"
       sodipodi:cy="350.62836"
       sodipodi:rx="247.57629"
       sodipodi:ry="247.57629"
       d="m 598.20465,350.62836 a 247.57629,247.57629 0 1 1 -495.15259,0 247.57629,247.57629 0 1 1 495.15259,0 z" />
  </g>
</svg>
