<?xml version="1.0" encoding="UTF-8" standalone="no"?>
<!-- Created with Inkscape (http://www.inkscape.org/) -->

<svg
   width="566.92914"
   height="850.39368"
   id="svg2"
   version="1.1"
   inkscape:version="1.3.2 (091e20e, 2023-11-25, custom)"
   sodipodi:docname="chemical_storage.svg"
   xmlns:inkscape="http://www.inkscape.org/namespaces/inkscape"
   xmlns:sodipodi="http://sodipodi.sourceforge.net/DTD/sodipodi-0.dtd"
   xmlns="http://www.w3.org/2000/svg"
   xmlns:svg="http://www.w3.org/2000/svg"
   xmlns:rdf="http://www.w3.org/1999/02/22-rdf-syntax-ns#"
   xmlns:cc="http://creativecommons.org/ns#"
   xmlns:dc="http://purl.org/dc/elements/1.1/">
  <defs
     id="defs4" />
  <sodipodi:namedview
     id="base"
     pagecolor="#ffffff"
     bordercolor="#666666"
     borderopacity="1.0"
     inkscape:pageopacity="0.0"
     inkscape:pageshadow="2"
     inkscape:zoom="0.7"
     inkscape:cx="129.28571"
     inkscape:cy="332.14286"
     inkscape:document-units="mm"
     inkscape:current-layer="layer1"
     showgrid="false"
     units="mm"
     inkscape:window-width="1852"
     inkscape:window-height="929"
     inkscape:window-x="0"
     inkscape:window-y="0"
     inkscape:window-maximized="0"
     inkscape:showpageshadow="0"
     inkscape:pagecheckerboard="0"
     inkscape:deskcolor="#505050" />
  <metadata
     id="metadata7">
    <rdf:RDF>
      <cc:Work
         rdf:about="">
        <dc:format>image/svg+xml</dc:format>
        <dc:type
           rdf:resource="http://purl.org/dc/dcmitype/StillImage" />
      </cc:Work>
    </rdf:RDF>
  </metadata>
  <g
     inkscape:label="Layer 1"
     inkscape:groupmode="layer"
     id="layer1"
     transform="translate(0,-201.96853)">
    <rect
       style="fill:#f0f0f0;fill-opacity:1;stroke:#000000;stroke-width:5.31496048;stroke-miterlimit:4;stroke-opacity:1;stroke-dasharray:none"
       id="rect3787"
       width="836.40631"
       height="551.54327"
       x="-1047.3318"
       y="9.0913858"
       transform="matrix(0,-1,1,0,0,0)"
       ry="0.033404823" />
    <rect
       style="fill:#fff402;fill-opacity:1;stroke:#000000;stroke-width:1.14227438;stroke-miterlimit:4;stroke-opacity:1;stroke-dasharray:none"
       id="rect2985"
       width="183.50011"
       height="116.39999"
       x="-1019.1302"
       y="425.90591"
       ry="0.035075065"
       transform="matrix(0,-1,1,0,0,0)" />
    <rect
       ry="0.035075065"
       y="425.90591"
       x="-821.36603"
       height="116.39999"
       width="183.50011"
       id="rect3757"
       style="fill:#fff402;fill-opacity:1;stroke:#000000;stroke-width:1.14227438;stroke-miterlimit:4;stroke-opacity:1;stroke-dasharray:none"
       transform="matrix(0,-1,1,0,0,0)" />
    <rect
       ry="0.035075065"
       y="425.90591"
       x="-623.62427"
       height="116.39999"
       width="183.50011"
       id="rect3759"
       style="fill:#fff402;fill-opacity:1;stroke:#000000;stroke-width:1.14227438;stroke-miterlimit:4;stroke-opacity:1;stroke-dasharray:none"
       transform="matrix(0,-1,1,0,0,0)" />
    <rect
       style="fill:#fff402;fill-opacity:1;stroke:#000000;stroke-width:1.14227438;stroke-miterlimit:4;stroke-opacity:1;stroke-dasharray:none"
       id="rect3761"
       width="183.50011"
       height="116.39999"
       x="-425.86023"
       y="425.90591"
       ry="0.035075065"
       transform="matrix(0,-1,1,0,0,0)" />
    <rect
       ry="0.035075065"
       y="293.60583"
       x="-1019.1302"
       height="116.39999"
       width="183.50011"
       id="rect3763"
       style="fill:#fff402;fill-opacity:1;stroke:#000000;stroke-width:1.14227438;stroke-miterlimit:4;stroke-opacity:1;stroke-dasharray:none"
       transform="matrix(0,-1,1,0,0,0)" />
    <rect
       style="fill:#fff402;fill-opacity:1;stroke:#000000;stroke-width:1.14227438;stroke-miterlimit:4;stroke-opacity:1;stroke-dasharray:none"
       id="rect3765"
       width="183.50011"
       height="116.39999"
       x="-821.36603"
       y="293.60583"
       ry="0.035075065"
       transform="matrix(0,-1,1,0,0,0)" />
    <rect
       style="fill:#fff402;fill-opacity:1;stroke:#000000;stroke-width:1.14227438;stroke-miterlimit:4;stroke-opacity:1;stroke-dasharray:none"
       id="rect3767"
       width="183.50011"
       height="116.39999"
       x="-623.62427"
       y="293.60583"
       ry="0.035075065"
       transform="matrix(0,-1,1,0,0,0)" />
    <rect
       ry="0.035075065"
       y="293.60583"
       x="-425.86023"
       height="116.39999"
       width="183.50011"
       id="rect3769"
       style="fill:#fff402;fill-opacity:1;stroke:#000000;stroke-width:1.14227438;stroke-miterlimit:4;stroke-opacity:1;stroke-dasharray:none"
       transform="matrix(0,-1,1,0,0,0)" />
    <rect
       ry="0.035075065"
       y="163.40588"
       x="-1019.1302"
       height="116.39999"
       width="183.50011"
       id="rect3771"
       style="fill:#fff402;fill-opacity:1;stroke:#000000;stroke-width:1.14227438;stroke-miterlimit:4;stroke-opacity:1;stroke-dasharray:none"
       transform="matrix(0,-1,1,0,0,0)" />
    <rect
       style="fill:#fff402;fill-opacity:1;stroke:#000000;stroke-width:1.14227438;stroke-miterlimit:4;stroke-opacity:1;stroke-dasharray:none"
       id="rect3773"
       width="183.50011"
       height="116.39999"
       x="-821.36603"
       y="163.40588"
       ry="0.035075065"
       transform="matrix(0,-1,1,0,0,0)" />
    <rect
       style="fill:#fff402;fill-opacity:1;stroke:#000000;stroke-width:1.14227438;stroke-miterlimit:4;stroke-opacity:1;stroke-dasharray:none"
       id="rect3775"
       width="183.50011"
       height="116.39999"
       x="-623.62427"
       y="163.40588"
       ry="0.035075065"
       transform="matrix(0,-1,1,0,0,0)" />
    <rect
       ry="0.035075065"
       y="163.40588"
       x="-425.86023"
       height="116.39999"
       width="183.50011"
       id="rect3777"
       style="fill:#fff402;fill-opacity:1;stroke:#000000;stroke-width:1.14227438;stroke-miterlimit:4;stroke-opacity:1;stroke-dasharray:none"
       transform="matrix(0,-1,1,0,0,0)" />
    <rect
       style="fill:#fff402;fill-opacity:1;stroke:#000000;stroke-width:1.14094484;stroke-miterlimit:4;stroke-opacity:1;stroke-dasharray:none"
       id="rect3779"
       width="183.50011"
       height="116.39999"
       x="-1019.1302"
       y="31.105835"
       ry="0.035075065"
       transform="matrix(0,-1,1,0,0,0)" />
    <rect
       ry="0.035075065"
       y="31.105835"
       x="-821.36603"
       height="116.39999"
       width="183.50011"
       id="rect3781"
       style="fill:#fff402;fill-opacity:1;stroke:#000000;stroke-width:1.14227438;stroke-miterlimit:4;stroke-opacity:1;stroke-dasharray:none"
       transform="matrix(0,-1,1,0,0,0)" />
    <rect
       ry="0.035075065"
       y="31.105835"
       x="-623.62427"
       height="116.39999"
       width="183.50011"
       id="rect3783"
       style="fill:#fff402;fill-opacity:1;stroke:#000000;stroke-width:1.14227438;stroke-miterlimit:4;stroke-opacity:1;stroke-dasharray:none"
       transform="matrix(0,-1,1,0,0,0)" />
    <rect
       style="fill:#fff402;fill-opacity:1;stroke:#000000;stroke-width:1.14227438;stroke-miterlimit:4;stroke-opacity:1;stroke-dasharray:none"
       id="rect3785"
       width="183.50011"
       height="116.39999"
       x="-425.86023"
       y="31.105835"
       ry="0.035075065"
       transform="matrix(0,-1,1,0,0,0)" />
  </g>
</svg>
