<?xml version="1.0" encoding="UTF-8" standalone="no"?>
<!-- Created with Inkscape (http://www.inkscape.org/) -->

<svg
   xmlns:dc="http://purl.org/dc/elements/1.1/"
   xmlns:cc="http://creativecommons.org/ns#"
   xmlns:rdf="http://www.w3.org/1999/02/22-rdf-syntax-ns#"
   xmlns:svg="http://www.w3.org/2000/svg"
   xmlns="http://www.w3.org/2000/svg"
   xmlns:sodipodi="http://sodipodi.sourceforge.net/DTD/sodipodi-0.dtd"
   xmlns:inkscape="http://www.inkscape.org/namespaces/inkscape"
   width="566.92914"
   height="850.39368"
   id="svg2"
   version="1.1"
   inkscape:version="0.48.3.1 r9886"
   sodipodi:docname="cement_storage_bin.svg">
  <defs
     id="defs4" />
  <sodipodi:namedview
     id="base"
     pagecolor="#ffffff"
     bordercolor="#666666"
     borderopacity="1.0"
     inkscape:pageopacity="0.0"
     inkscape:pageshadow="2"
     inkscape:zoom="1.0689167"
     inkscape:cx="283.46457"
     inkscape:cy="425.19684"
     inkscape:document-units="mm"
     inkscape:current-layer="layer1"
     showgrid="false"
     units="mm"
     inkscape:window-width="1871"
     inkscape:window-height="1056"
     inkscape:window-x="49"
     inkscape:window-y="24"
     inkscape:window-maximized="1" />
  <metadata
     id="metadata7">
    <rdf:RDF>
      <cc:Work
         rdf:about="">
        <dc:format>image/svg+xml</dc:format>
        <dc:type
           rdf:resource="http://purl.org/dc/dcmitype/StillImage" />
        <dc:title></dc:title>
      </cc:Work>
    </rdf:RDF>
  </metadata>
  <g
     inkscape:label="Layer 1"
     inkscape:groupmode="layer"
     id="layer1"
     transform="translate(0,-201.96853)">
    <rect
       style="fill:#f0f0f0;fill-opacity:1;stroke:#000000;stroke-width:5.31496048;stroke-miterlimit:4;stroke-opacity:1;stroke-dasharray:none"
       id="rect3787"
       width="836.40631"
       height="551.54327"
       x="-1047.3318"
       y="9.0913858"
       transform="matrix(0,-1,1,0,0,0)"
       ry="0.033404823" />
    <rect
       style="fill:#939393;fill-opacity:1;stroke:#000000;stroke-width:1.14227437999999992;stroke-miterlimit:4;stroke-opacity:1;stroke-dasharray:none"
       id="rect2985"
       width="183.50011"
       height="116.39999"
       x="-1019.1302"
       y="425.90591"
       ry="0.035075065"
       transform="matrix(0,-1,1,0,0,0)" />
    <rect
       ry="0.035075065"
       y="425.90591"
       x="-821.36603"
       height="116.39999"
       width="183.50011"
       id="rect3757"
       style="fill:#939393;fill-opacity:1;stroke:#000000;stroke-width:1.14227437999999992;stroke-miterlimit:4;stroke-opacity:1;stroke-dasharray:none"
       transform="matrix(0,-1,1,0,0,0)" />
    <rect
       ry="0.035075065"
       y="425.90591"
       x="-623.62427"
       height="116.39999"
       width="183.50011"
       id="rect3759"
       style="fill:#939393;fill-opacity:1;stroke:#000000;stroke-width:1.14227437999999992;stroke-miterlimit:4;stroke-opacity:1;stroke-dasharray:none"
       transform="matrix(0,-1,1,0,0,0)" />
    <rect
       style="fill:#ffffff;fill-opacity:1;stroke:#000000;stroke-width:1.14227437999999992;stroke-miterlimit:4;stroke-opacity:1;stroke-dasharray:none"
       id="rect3761"
       width="183.50011"
       height="116.39999"
       x="-425.86023"
       y="425.90591"
       ry="0.035075065"
       transform="matrix(0,-1,1,0,0,0)" />
    <rect
       ry="0.035075065"
       y="293.60583"
       x="-1019.1302"
       height="116.39999"
       width="183.50011"
       id="rect3763"
       style="fill:#939393;fill-opacity:1;stroke:#000000;stroke-width:1.14227437999999992;stroke-miterlimit:4;stroke-opacity:1;stroke-dasharray:none"
       transform="matrix(0,-1,1,0,0,0)" />
    <rect
       style="fill:#939393;fill-opacity:1;stroke:#000000;stroke-width:1.14227437999999992;stroke-miterlimit:4;stroke-opacity:1;stroke-dasharray:none"
       id="rect3765"
       width="183.50011"
       height="116.39999"
       x="-821.36603"
       y="293.60583"
       ry="0.035075065"
       transform="matrix(0,-1,1,0,0,0)" />
    <rect
       style="fill:#939393;fill-opacity:1;stroke:#000000;stroke-width:1.14227437999999992;stroke-miterlimit:4;stroke-opacity:1;stroke-dasharray:none"
       id="rect3767"
       width="183.50011"
       height="116.39999"
       x="-623.62427"
       y="293.60583"
       ry="0.035075065"
       transform="matrix(0,-1,1,0,0,0)" />
    <rect
       ry="0.035075065"
       y="293.60583"
       x="-425.86023"
       height="116.39999"
       width="183.50011"
       id="rect3769"
       style="fill:#ffffff;fill-opacity:1;stroke:#000000;stroke-width:1.14227437999999992;stroke-miterlimit:4;stroke-opacity:1;stroke-dasharray:none"
       transform="matrix(0,-1,1,0,0,0)" />
    <rect
       ry="0.035075065"
       y="163.40588"
       x="-1019.1302"
       height="116.39999"
       width="183.50011"
       id="rect3771"
       style="fill:#939393;fill-opacity:1;stroke:#000000;stroke-width:1.14227437999999992;stroke-miterlimit:4;stroke-opacity:1;stroke-dasharray:none"
       transform="matrix(0,-1,1,0,0,0)" />
    <rect
       style="fill:#939393;fill-opacity:1;stroke:#000000;stroke-width:1.14227437999999992;stroke-miterlimit:4;stroke-opacity:1;stroke-dasharray:none"
       id="rect3773"
       width="183.50011"
       height="116.39999"
       x="-821.36603"
       y="163.40588"
       ry="0.035075065"
       transform="matrix(0,-1,1,0,0,0)" />
    <rect
       style="fill:#939393;fill-opacity:1;stroke:#000000;stroke-width:1.14227437999999992;stroke-miterlimit:4;stroke-opacity:1;stroke-dasharray:none"
       id="rect3775"
       width="183.50011"
       height="116.39999"
       x="-623.62427"
       y="163.40588"
       ry="0.035075065"
       transform="matrix(0,-1,1,0,0,0)" />
    <rect
       ry="0.035075065"
       y="163.40588"
       x="-425.86023"
       height="116.39999"
       width="183.50011"
       id="rect3777"
       style="fill:#ffffff;fill-opacity:1;stroke:#000000;stroke-width:1.14227437999999992;stroke-miterlimit:4;stroke-opacity:1;stroke-dasharray:none"
       transform="matrix(0,-1,1,0,0,0)" />
    <rect
       style="fill:#939393;fill-opacity:1;stroke:#000000;stroke-width:1.14094483999999996;stroke-miterlimit:4;stroke-opacity:1;stroke-dasharray:none"
       id="rect3779"
       width="183.50011"
       height="116.39999"
       x="-1019.1302"
       y="31.105835"
       ry="0.035075065"
       transform="matrix(0,-1,1,0,0,0)" />
    <rect
       ry="0.035075065"
       y="31.105835"
       x="-821.36603"
       height="116.39999"
       width="183.50011"
       id="rect3781"
       style="fill:#939393;fill-opacity:1;stroke:#000000;stroke-width:1.14227437999999992;stroke-miterlimit:4;stroke-opacity:1;stroke-dasharray:none"
       transform="matrix(0,-1,1,0,0,0)" />
    <rect
       ry="0.035075065"
       y="31.105835"
       x="-623.62427"
       height="116.39999"
       width="183.50011"
       id="rect3783"
       style="fill:#939393;fill-opacity:1;stroke:#000000;stroke-width:1.14227437999999992;stroke-miterlimit:4;stroke-opacity:1;stroke-dasharray:none"
       transform="matrix(0,-1,1,0,0,0)" />
    <rect
       style="fill:#939393;fill-opacity:1;stroke:#000000;stroke-width:1.14227437999999992;stroke-miterlimit:4;stroke-opacity:1;stroke-dasharray:none"
       id="rect3785"
       width="183.50011"
       height="116.39999"
       x="-425.86023"
       y="31.105835"
       ry="0.035075065"
       transform="matrix(0,-1,1,0,0,0)" />
    <path
       style="fill:#ffffff;fill-opacity:1;stroke:none"
       d="m 32.182125,132.18991 0,-90.746082 57.067123,0 57.067122,0 0,90.746082 0,90.74608 -57.067122,0 -57.067123,0 0,-90.74608 z"
       id="path3767"
       inkscape:connector-curvature="0"
       transform="translate(0,201.96853)" />
    <path
       style="fill:#ffffff;fill-opacity:1;stroke:none"
       d="m 32.182125,329.58602 0,-90.74608 57.067123,0 57.067122,0 0,90.74608 0,90.74608 -57.067122,0 -57.067123,0 0,-90.74608 z"
       id="path3769"
       inkscape:connector-curvature="0"
       transform="translate(0,201.96853)" />
    <path
       style="fill:#ffffff;fill-opacity:1;stroke:none"
       d="m 164.09138,329.58602 0,-90.74608 57.53488,0 57.53489,0 0,90.74608 0,90.74608 -57.53489,0 -57.53488,0 0,-90.74608 z"
       id="path3771"
       inkscape:connector-curvature="0"
       transform="translate(0,201.96853)" />
    <path
       style="fill:#ffffff;fill-opacity:1;stroke:none"
       d="m 295.0651,329.58602 0,-90.74608 57.06712,0 57.06712,0 0,90.74608 0,90.74608 -57.06712,0 -57.06712,0 0,-90.74608 z"
       id="path3773"
       inkscape:connector-curvature="0"
       transform="translate(0,201.96853)" />
    <path
       style="fill:#ffffff;fill-opacity:1;stroke:none"
       d="m 426.97435,329.58602 0,-90.74608 57.06712,0 57.06712,0 0,90.74608 0,90.74608 -57.06712,0 -57.06712,0 0,-90.74608 z"
       id="path3775"
       inkscape:connector-curvature="0"
       transform="translate(0,201.96853)" />
    <path
       style="fill:#ffffff;fill-opacity:1;stroke:none"
       d="m 426.97435,527.91766 0,-90.74608 57.06712,0 57.06712,0 0,90.74608 0,90.74608 -57.06712,0 -57.06712,0 0,-90.74608 z"
       id="path3777"
       inkscape:connector-curvature="0"
       transform="translate(0,201.96853)" />
    <path
       style="fill:#ffffff;fill-opacity:1;stroke:none"
       d="m 295.0651,527.91766 0,-90.74608 57.06712,0 57.06712,0 0,90.74608 0,90.74608 -57.06712,0 -57.06712,0 0,-90.74608 z"
       id="path3779"
       inkscape:connector-curvature="0"
       transform="translate(0,201.96853)" />
    <path
       style="fill:#ffffff;fill-opacity:1;stroke:none"
       d="m 164.09138,527.91766 0,-90.74608 57.53488,0 57.53489,0 0,90.74608 0,90.74608 -57.53489,0 -57.53488,0 0,-90.74608 z"
       id="path3781"
       inkscape:connector-curvature="0"
       transform="translate(0,201.96853)" />
    <path
       style="fill:#ffffff;fill-opacity:1;stroke:none"
       d="m 32.182125,527.91766 0,-90.74608 57.067123,0 57.067122,0 0,90.74608 0,90.74608 -57.067122,0 -57.067123,0 0,-90.74608 z"
       id="path3783"
       inkscape:connector-curvature="0"
       transform="translate(0,201.96853)" />
    <path
       style="fill:#ffffff;fill-opacity:1;stroke:none"
       d="m 32.182125,725.31377 0,-90.74608 57.067123,0 57.067122,0 0,90.74608 0,90.74608 -57.067122,0 -57.067123,0 0,-90.74608 z"
       id="path3785"
       inkscape:connector-curvature="0"
       transform="translate(0,201.96853)" />
    <path
       style="fill:#ffffff;fill-opacity:1;stroke:none"
       d="m 164.09138,725.31377 0,-90.74608 57.53488,0 57.53489,0 0,90.74608 0,90.74608 -57.53489,0 -57.53488,0 0,-90.74608 z"
       id="path3787"
       inkscape:connector-curvature="0"
       transform="translate(0,201.96853)" />
    <path
       style="fill:#ffffff;fill-opacity:1;stroke:none"
       d="m 295.0651,725.31377 0,-90.74608 57.06712,0 57.06712,0 0,90.74608 0,90.74608 -57.06712,0 -57.06712,0 0,-90.74608 z"
       id="path3789"
       inkscape:connector-curvature="0"
       transform="translate(0,201.96853)" />
    <path
       style="fill:#ffffff;fill-opacity:1;stroke:none"
       d="m 426.97435,725.31377 0,-90.74608 57.06712,0 57.06712,0 0,90.74608 0,90.74608 -57.06712,0 -57.06712,0 0,-90.74608 z"
       id="path3791"
       inkscape:connector-curvature="0"
       transform="translate(0,201.96853)" />
  </g>
</svg>
