<?xml version="1.0" encoding="UTF-8" standalone="no"?>
<!-- Created with Inkscape (http://www.inkscape.org/) -->

<svg
   xmlns:dc="http://purl.org/dc/elements/1.1/"
   xmlns:cc="http://creativecommons.org/ns#"
   xmlns:rdf="http://www.w3.org/1999/02/22-rdf-syntax-ns#"
   xmlns:svg="http://www.w3.org/2000/svg"
   xmlns="http://www.w3.org/2000/svg"
   xmlns:sodipodi="http://sodipodi.sourceforge.net/DTD/sodipodi-0.dtd"
   xmlns:inkscape="http://www.inkscape.org/namespaces/inkscape"
   width="566.92914"
   height="850.39368"
   id="svg2"
   version="1.1"
   inkscape:version="0.48.0 r9654"
   sodipodi:docname="regolith_storage_bin.svg">
  <defs
     id="defs4" />
  <sodipodi:namedview
     id="base"
     pagecolor="#ffffff"
     bordercolor="#666666"
     borderopacity="1.0"
     inkscape:pageopacity="0.0"
     inkscape:pageshadow="2"
     inkscape:zoom="0.49497475"
     inkscape:cx="-275.30451"
     inkscape:cy="409.66927"
     inkscape:document-units="mm"
     inkscape:current-layer="layer1"
     showgrid="false"
     units="mm"
     inkscape:window-width="1280"
     inkscape:window-height="688"
     inkscape:window-x="0"
     inkscape:window-y="0"
     inkscape:window-maximized="0" />
  <metadata
     id="metadata7">
    <rdf:RDF>
      <cc:Work
         rdf:about="">
        <dc:format>image/svg+xml</dc:format>
        <dc:type
           rdf:resource="http://purl.org/dc/dcmitype/StillImage" />
        <dc:title></dc:title>
      </cc:Work>
    </rdf:RDF>
  </metadata>
  <g
     inkscape:label="Layer 1"
     inkscape:groupmode="layer"
     id="layer1"
     transform="translate(0,-201.96853)">
    <rect
       style="fill:#f0f0f0;fill-opacity:1;stroke:#000000;stroke-width:5.31496048;stroke-miterlimit:4;stroke-opacity:1;stroke-dasharray:none"
       id="rect3787"
       width="836.40631"
       height="551.54327"
       x="-1047.3114"
       y="9.0913858"
       transform="matrix(0,-1,1,0,0,0)"
       ry="0.033404823" />
    <rect
       style="fill:#404040;fill-opacity:1;stroke:#000000;stroke-width:1.14227437999999992;stroke-miterlimit:4;stroke-opacity:1;stroke-dasharray:none"
       id="rect2985"
       width="183.50011"
       height="116.39999"
       x="-1019.1099"
       y="425.90591"
       ry="0.035075065"
       transform="matrix(0,-1,1,0,0,0)" />
    <rect
       ry="0.035075065"
       y="425.90591"
       x="-821.34576"
       height="116.39999"
       width="183.50011"
       id="rect3757"
       style="fill:#404040;fill-opacity:1;stroke:#000000;stroke-width:1.14227437999999992;stroke-miterlimit:4;stroke-opacity:1;stroke-dasharray:none"
       transform="matrix(0,-1,1,0,0,0)" />
    <rect
       ry="0.035075065"
       y="425.90591"
       x="-623.604"
       height="116.39999"
       width="183.50011"
       id="rect3759"
       style="fill:#404040;fill-opacity:1;stroke:#000000;stroke-width:1.14227437999999992;stroke-miterlimit:4;stroke-opacity:1;stroke-dasharray:none"
       transform="matrix(0,-1,1,0,0,0)" />
    <rect
       style="fill:#404040;fill-opacity:1;stroke:#000000;stroke-width:1.14227437999999992;stroke-miterlimit:4;stroke-opacity:1;stroke-dasharray:none"
       id="rect3761"
       width="183.50011"
       height="116.39999"
       x="-425.83994"
       y="425.90591"
       ry="0.035075065"
       transform="matrix(0,-1,1,0,0,0)" />
    <rect
       ry="0.035075065"
       y="293.60583"
       x="-1019.1099"
       height="116.39999"
       width="183.50011"
       id="rect3763"
       style="fill:#404040;fill-opacity:1;stroke:#000000;stroke-width:1.14227437999999992;stroke-miterlimit:4;stroke-opacity:1;stroke-dasharray:none"
       transform="matrix(0,-1,1,0,0,0)" />
    <rect
       style="fill:#404040;fill-opacity:1;stroke:#000000;stroke-width:1.14227437999999992;stroke-miterlimit:4;stroke-opacity:1;stroke-dasharray:none"
       id="rect3765"
       width="183.50011"
       height="116.39999"
       x="-821.34576"
       y="293.60583"
       ry="0.035075065"
       transform="matrix(0,-1,1,0,0,0)" />
    <rect
       style="fill:#404040;fill-opacity:1;stroke:#000000;stroke-width:1.14227437999999992;stroke-miterlimit:4;stroke-opacity:1;stroke-dasharray:none"
       id="rect3767"
       width="183.50011"
       height="116.39999"
       x="-623.604"
       y="293.60583"
       ry="0.035075065"
       transform="matrix(0,-1,1,0,0,0)" />
    <rect
       ry="0.035075065"
       y="293.60583"
       x="-425.83994"
       height="116.39999"
       width="183.50011"
       id="rect3769"
       style="fill:#404040;fill-opacity:1;stroke:#000000;stroke-width:1.14227437999999992;stroke-miterlimit:4;stroke-opacity:1;stroke-dasharray:none"
       transform="matrix(0,-1,1,0,0,0)" />
    <rect
       ry="0.035075065"
       y="163.40588"
       x="-1019.1099"
       height="116.39999"
       width="183.50011"
       id="rect3771"
       style="fill:#404040;fill-opacity:1;stroke:#000000;stroke-width:1.14227437999999992;stroke-miterlimit:4;stroke-opacity:1;stroke-dasharray:none"
       transform="matrix(0,-1,1,0,0,0)" />
    <rect
       style="fill:#404040;fill-opacity:1;stroke:#000000;stroke-width:1.14227437999999992;stroke-miterlimit:4;stroke-opacity:1;stroke-dasharray:none"
       id="rect3773"
       width="183.50011"
       height="116.39999"
       x="-821.34576"
       y="163.40588"
       ry="0.035075065"
       transform="matrix(0,-1,1,0,0,0)" />
    <rect
       style="fill:#404040;fill-opacity:1;stroke:#000000;stroke-width:1.14227437999999992;stroke-miterlimit:4;stroke-opacity:1;stroke-dasharray:none"
       id="rect3775"
       width="183.50011"
       height="116.39999"
       x="-623.604"
       y="163.40588"
       ry="0.035075065"
       transform="matrix(0,-1,1,0,0,0)" />
    <rect
       ry="0.035075065"
       y="163.40588"
       x="-425.83994"
       height="116.39999"
       width="183.50011"
       id="rect3777"
       style="fill:#404040;fill-opacity:1;stroke:#000000;stroke-width:1.14227437999999992;stroke-miterlimit:4;stroke-opacity:1;stroke-dasharray:none"
       transform="matrix(0,-1,1,0,0,0)" />
    <rect
       style="fill:#404040;fill-opacity:1;stroke:#000000;stroke-width:1.14094483999999996;stroke-miterlimit:4;stroke-opacity:1;stroke-dasharray:none"
       id="rect3779"
       width="183.50011"
       height="116.39999"
       x="-1019.1099"
       y="31.105835"
       ry="0.035075065"
       transform="matrix(0,-1,1,0,0,0)" />
    <rect
       ry="0.035075065"
       y="31.105835"
       x="-821.34576"
       height="116.39999"
       width="183.50011"
       id="rect3781"
       style="fill:#404040;fill-opacity:1;stroke:#000000;stroke-width:1.14227437999999992;stroke-miterlimit:4;stroke-opacity:1;stroke-dasharray:none"
       transform="matrix(0,-1,1,0,0,0)" />
    <rect
       ry="0.035075065"
       y="31.105835"
       x="-623.604"
       height="116.39999"
       width="183.50011"
       id="rect3783"
       style="fill:#404040;fill-opacity:1;stroke:#000000;stroke-width:1.14227437999999992;stroke-miterlimit:4;stroke-opacity:1;stroke-dasharray:none"
       transform="matrix(0,-1,1,0,0,0)" />
    <rect
       style="fill:#404040;fill-opacity:1;stroke:#000000;stroke-width:1.14227437999999992;stroke-miterlimit:4;stroke-opacity:1;stroke-dasharray:none"
       id="rect3785"
       width="183.50011"
       height="116.39999"
       x="-425.83994"
       y="31.105835"
       ry="0.035075065"
       transform="matrix(0,-1,1,0,0,0)" />
  </g>
</svg>
