<?xml version="1.0" encoding="UTF-8" standalone="no"?>
<svg
   xmlns:dc="http://purl.org/dc/elements/1.1/"
   xmlns:cc="http://creativecommons.org/ns#"
   xmlns:rdf="http://www.w3.org/1999/02/22-rdf-syntax-ns#"
   xmlns:svg="http://www.w3.org/2000/svg"
   xmlns="http://www.w3.org/2000/svg"
   xmlns:xlink="http://www.w3.org/1999/xlink"
   xmlns:sodipodi="http://sodipodi.sourceforge.net/DTD/sodipodi-0.dtd"
   xmlns:inkscape="http://www.inkscape.org/namespaces/inkscape"
   width="614.65582"
   height="591.54071"
   id="svg2396"
   sodipodi:version="0.32"
   inkscape:version="1.0.1 (3bc2e813f5, 2020-09-07)"
   sodipodi:docname="residential_hab.svg"
   inkscape:output_extension="org.inkscape.output.svg.inkscape"
   version="1.0"
   inkscape:export-filename="/home/scud/Documents/msp/concept_art/lander_hab_color.png"
   inkscape:export-xdpi="99.859245"
   inkscape:export-ydpi="99.859245"
   style="enable-background:new">
  <defs
     id="defs2398">
    <linearGradient
       id="linearGradient3282">
      <stop
         style="stop-color:#000000;stop-opacity:1;"
         offset="0"
         id="stop3284" />
      <stop
         style="stop-color:#7b7b7b;stop-opacity:1;"
         offset="1"
         id="stop3286" />
    </linearGradient>
    <linearGradient
       id="linearGradient3273">
      <stop
         style="stop-color:#000002;stop-opacity:1;"
         offset="0"
         id="stop3275" />
      <stop
         style="stop-color:#777779;stop-opacity:0.99137932;"
         offset="1"
         id="stop3277" />
    </linearGradient>
    <linearGradient
       id="linearGradient3264">
      <stop
         style="stop-color:#040000;stop-opacity:1;"
         offset="0"
         id="stop3266" />
      <stop
         style="stop-color:#848484;stop-opacity:1;"
         offset="1"
         id="stop3268" />
    </linearGradient>
    <linearGradient
       id="linearGradient3255">
      <stop
         style="stop-color:#000000;stop-opacity:1;"
         offset="0"
         id="stop3257" />
      <stop
         style="stop-color:#828282;stop-opacity:1;"
         offset="1"
         id="stop3259" />
    </linearGradient>
    <radialGradient
       inkscape:collect="always"
       xlink:href="#linearGradient3255"
       id="radialGradient3261"
       cx="295.45956"
       cy="93.1082"
       fx="295.45956"
       fy="93.1082"
       r="9.4972916"
       gradientTransform="matrix(-1.0875542,12.2633,12.938335,1.1474183,-485.56071,-3161.3396)"
       gradientUnits="userSpaceOnUse" />
    <radialGradient
       inkscape:collect="always"
       xlink:href="#linearGradient3264"
       id="radialGradient3270"
       cx="337.68759"
       cy="93.485535"
       fx="337.68759"
       fy="93.485535"
       r="9.3880892"
       gradientTransform="matrix(14.881064,0.26575787,0.21413572,-11.990492,-4253.1247,1592.1154)"
       gradientUnits="userSpaceOnUse" />
    <radialGradient
       inkscape:collect="always"
       xlink:href="#linearGradient3273"
       id="radialGradient3279"
       cx="336.77481"
       cy="134.02927"
       fx="336.77481"
       fy="134.02927"
       r="9.4417067"
       gradientTransform="matrix(0.16248377,-11.71654,-11.46115,-0.15894216,2272.3787,4161.1054)"
       gradientUnits="userSpaceOnUse" />
    <radialGradient
       inkscape:collect="always"
       xlink:href="#linearGradient3282"
       id="radialGradient3319"
       gradientUnits="userSpaceOnUse"
       gradientTransform="matrix(-11.432266,0.1713539,0.1728504,11.53296,3724.5991,-1402.3961)"
       cx="293.59091"
       cy="134.23401"
       fx="293.59091"
       fy="134.23401"
       r="9.5718613" />
    <filter
       inkscape:collect="always"
       id="filter3702"
       color-interpolation-filters="sRGB">
      <feBlend
         inkscape:collect="always"
         mode="multiply"
         in2="BackgroundImage"
         id="feBlend3704" />
    </filter>
  </defs>
  <sodipodi:namedview
     id="base"
     pagecolor="#ffffff"
     bordercolor="#666666"
     borderopacity="1.0"
     gridtolerance="10000"
     guidetolerance="10"
     objecttolerance="10"
     inkscape:pageopacity="0.0"
     inkscape:pageshadow="2"
     inkscape:zoom="1.1328507"
     inkscape:cx="549.89417"
     inkscape:cy="310.71793"
     inkscape:document-units="px"
     inkscape:current-layer="layer6"
     showgrid="true"
     inkscape:snap-global="false"
     inkscape:window-width="1920"
     inkscape:window-height="1057"
     inkscape:window-x="-8"
     inkscape:window-y="-8"
     inkscape:snap-to-guides="false"
     showguides="true"
     inkscape:guide-bbox="true"
     inkscape:snap-grids="true"
     inkscape:snap-object-midpoints="true"
     inkscape:window-maximized="1"
     fit-margin-top="0"
     fit-margin-left="0"
     fit-margin-right="0"
     fit-margin-bottom="0"
     inkscape:document-rotation="0">
    <inkscape:grid
       type="xygrid"
       id="grid2427"
       visible="true"
       enabled="true"
       empspacing="5"
       snapvisiblegridlinesonly="true"
       originx="-0.004942895"
       originy="-0.010977786"
       spacingx="1"
       spacingy="1" />
    <sodipodi:guide
       orientation="1,0"
       position="31.552615,37.725682"
       id="guide2842" />
    <sodipodi:guide
       orientation="0,1"
       position="-8.059844,30.001804"
       id="guide2844" />
  </sodipodi:namedview>
  <metadata
     id="metadata2401">
    <rdf:RDF>
      <cc:Work
         rdf:about="">
        <dc:format>image/svg+xml</dc:format>
        <dc:type
           rdf:resource="http://purl.org/dc/dcmitype/StillImage" />
        <dc:title></dc:title>
      </cc:Work>
    </rdf:RDF>
  </metadata>
  <g
     inkscape:label="foot pads"
     inkscape:groupmode="layer"
     id="layer1"
     style="display:inline"
     transform="translate(-286.65647,-83.38369)">
    <path
       style="display:inline;fill:url(#radialGradient3261);fill-opacity:1;fill-rule:evenodd;stroke:#000000;stroke-width:2.99603px;stroke-linecap:butt;stroke-linejoin:miter;stroke-opacity:1"
       d="m 323.80079,488.69247 c 0,0 -74.49622,74.40301 4.65601,153.95034 81.51773,72.56621 150.52253,-5.79092 150.52253,-5.79092"
       id="path2415"
       sodipodi:nodetypes="ccc"
       inkscape:connector-curvature="0" />
    <path
       style="display:inline;fill:url(#radialGradient3270);fill-opacity:1;fill-rule:evenodd;stroke:#000000;stroke-width:2.99603px;stroke-linecap:butt;stroke-linejoin:miter;stroke-opacity:1"
       d="m 715.0011,637.5926 c 0,0 74.40312,77.83122 153.95044,-1.32101 72.56621,-81.51773 -5.79091,-149.41073 -5.79091,-149.41073"
       id="path2417"
       sodipodi:nodetypes="ccc"
       inkscape:connector-curvature="0" />
    <path
       style="display:inline;fill:url(#radialGradient3279);fill-opacity:1;fill-rule:evenodd;stroke:#000000;stroke-width:2.99603px;stroke-linecap:butt;stroke-linejoin:miter;stroke-opacity:1"
       d="m 865.92274,269.34594 c 0,0 74.49621,-74.40314 -4.65602,-153.95047 -81.51773,-72.566201 -149.41082,6.90262 -149.41082,6.90262"
       id="path2419"
       sodipodi:nodetypes="ccc"
       inkscape:connector-curvature="0" />
    <path
       style="display:inline;fill:url(#radialGradient3319);fill-opacity:1;fill-rule:evenodd;stroke:#000000;stroke-width:2.99603px;stroke-linecap:butt;stroke-linejoin:miter;stroke-opacity:1"
       d="m 476.55402,122.87109 c 0,0 -78.84982,-77.831315 -158.39725,1.32091 -72.56611,81.51773 9.12603,152.74596 9.12603,152.74596"
       id="path2421"
       sodipodi:nodetypes="ccc"
       inkscape:connector-curvature="0" />
  </g>
  <g
     inkscape:groupmode="layer"
     id="layer2"
     style="display:inline"
     transform="translate(-286.65647,-83.38369)"
     inkscape:label="frame">
    <circle
       style="fill:#ffffff;fill-opacity:1;fill-rule:evenodd;stroke:#000000;stroke-width:3.15001;stroke-linecap:round;stroke-linejoin:miter;stroke-miterlimit:4;stroke-dasharray:none;stroke-dashoffset:0;stroke-opacity:1"
       id="path3634"
       cx="595.97437"
       cy="379.7388"
       r="289.91461" />
    <circle
       style="fill:#ffffff;fill-opacity:1;fill-rule:evenodd;stroke:#000000;stroke-width:3.15001;stroke-linecap:round;stroke-linejoin:miter;stroke-miterlimit:4;stroke-dasharray:none;stroke-dashoffset:0;stroke-opacity:1"
       id="path3632"
       cx="595.97437"
       cy="379.7388"
       r="268.70132" />
    <path
       style="color:#000000;display:inline;overflow:visible;visibility:visible;fill:#73797a;fill-opacity:1;fill-rule:nonzero;stroke:none;stroke-width:10;marker:none;enable-background:accumulate"
       d="M 555.96988,664.12603 C 450.18334,648.67907 362.76083,577.5171 325.85145,476.80954 c -22.04794,-60.158 -22.26244,-131.74219 -0.57739,-192.68716 28.47571,-80.0298 92.93852,-145.31642 171.58463,-173.7774 105.73813,-38.265222 221.73037,-12.943489 300.89332,65.68664 45.33528,45.03013 73.18382,100.41855 82.78857,164.65947 2.99316,20.01961 2.56532,61.98568 -0.8451,82.89266 -12.43931,76.25762 -51.07128,140.00862 -113.2516,186.88934 -58.11859,43.81838 -138.13536,64.21584 -210.47404,53.65294 v 0 z m 87.11439,-17.59815 c 8.96187,-1.46311 25.9205,-5.82116 37.68582,-9.68455 87.49484,-28.73073 154.84988,-100.46283 177.657,-189.20204 10.50739,-40.88272 10.52607,-95.57801 0.046,-135.77882 C 835.62895,224.22964 769.11877,152.35863 684.24253,123.58824 604.41077,96.527772 516.73614,107.42563 447.96216,152.95762 349.45527,218.17437 304.7645,334.14144 334.01996,448.62369 361.488,556.11136 454.94783,636.65627 566.68569,649.13805 c 18.31708,2.04612 55.70103,0.7689 76.39858,-2.61017 z"
       id="path3637"
       inkscape:connector-curvature="0" />
  </g>
  <g
     inkscape:groupmode="layer"
     id="layer4"
     inkscape:label="central ladder"
     style="display:inline;opacity:0.5"
     transform="translate(-0.00494289,-0.52118285)">
    <circle
       style="display:inline;fill:#3771c8;fill-opacity:1;stroke:#000000;stroke-width:10;stroke-opacity:1"
       id="path2850"
       cx="314.62616"
       cy="293.34076"
       r="53.033161" />
    <rect
       style="display:inline;fill:#4e4f4f;fill-opacity:1;fill-rule:nonzero;stroke:#000000;stroke-width:1.50788;stroke-linecap:round;stroke-linejoin:miter;stroke-miterlimit:4;stroke-dasharray:none;stroke-dashoffset:0;stroke-opacity:1"
       id="rect3627"
       width="44.112789"
       height="20.78751"
       x="406.19342"
       y="1.0003417"
       transform="matrix(0.67005441,0.74231199,-0.73510777,0.67795027,0,0)" />
    <circle
       style="display:inline;fill:#2c2ea8;fill-opacity:1;fill-rule:nonzero;stroke:#000000;stroke-width:2.30142;stroke-linecap:round;stroke-linejoin:miter;stroke-miterlimit:4;stroke-dasharray:none;stroke-dashoffset:0;stroke-opacity:1"
       id="path3640"
       cx="314.1228"
       cy="293.51465"
       r="31.293625" />
    <rect
       style="display:inline;fill:#4e4f4f;fill-opacity:1;fill-rule:nonzero;stroke:#000000;stroke-width:2.37639;stroke-linecap:round;stroke-linejoin:miter;stroke-miterlimit:4;stroke-dasharray:none;stroke-dashoffset:0;stroke-opacity:1"
       id="rect3633"
       width="31.777485"
       height="6.4372549"
       x="101.56864"
       y="445.21921"
       transform="matrix(0.80296261,-0.5960294,0.52213113,0.85286522,0,0)"
       ry="3.0292964" />
    <rect
       ry="2.5039778"
       transform="rotate(-34.146954)"
       y="432.43277"
       x="106.51584"
       height="15.962858"
       width="7.5119333"
       id="rect3631"
       style="display:inline;fill:#4e4f4f;fill-opacity:1;fill-rule:nonzero;stroke:#000000;stroke-width:2.00001;stroke-linecap:round;stroke-linejoin:miter;stroke-miterlimit:4;stroke-dasharray:none;stroke-dashoffset:0;stroke-opacity:1" />
    <rect
       style="display:inline;fill:#4e4f4f;fill-opacity:1;fill-rule:nonzero;stroke:#000000;stroke-width:2.00001;stroke-linecap:round;stroke-linejoin:miter;stroke-miterlimit:4;stroke-dasharray:none;stroke-dashoffset:0;stroke-opacity:1"
       id="rect3629"
       width="7.5119333"
       height="15.962858"
       x="78.044502"
       y="432.0321"
       transform="rotate(-34.146954)"
       ry="2.5039778" />
  </g>
  <g
     inkscape:groupmode="layer"
     id="layer6"
     inkscape:label="interior"
     style="display:inline;opacity:0.5;filter:url(#filter3702)"
     transform="translate(-0.00494289,-0.52118285)">
    <g
       style="display:inline;fill:#e5f30c;fill-opacity:1;fill-rule:nonzero;stroke:#000000;stroke-opacity:1"
       id="g3633"
       transform="matrix(10.000029,0,0,10.000029,3.7127364,-3.5198322)">
      <path
         sodipodi:nodetypes="czzszcscss"
         d="m 31.234023,39.739363 c 4.756986,-0.003 10.000517,-4.05859 10.01675,-10.13657 0.01653,-6.18832 -4.633125,-10.316948 -9.961299,-10.221646 -5.214793,0.09327 -10.096025,4.311886 -10.113236,10.205526 -0.01616,5.755846 5.300799,10.155678 10.057785,10.15269 z m 0.07394,16.670744 C 18.328818,56.410109 4.1538888,47.601656 4.2323752,29.658777 4.3006747,14.140763 16.911841,3.6602591 31.115593,3.5511584 45.974603,3.7836219 56.350498,15.732446 56.996457,29.797234 57.753046,46.400069 43.844672,56.410105 31.307963,56.410107 Z"
         style="fill:#e5f30c;fill-opacity:1;fill-rule:nonzero;stroke:#000000;stroke-opacity:1"
         id="path3635"
         inkscape:connector-curvature="0" />
    </g>
    <path
       style="fill:none;stroke:#000000;stroke-width:10px;stroke-linecap:butt;stroke-linejoin:miter;stroke-opacity:1"
       d="M 250.98635,210.25544 157.29443,82.975864"
       id="path3645"
       sodipodi:nodetypes="cc"
       inkscape:connector-curvature="0" />
    <path
       style="fill:none;stroke:#000000;stroke-width:10px;stroke-linecap:butt;stroke-linejoin:miter;stroke-opacity:1"
       d="M 356.33765,196.77449 423.19412,60.763425"
       id="path3651"
       sodipodi:nodetypes="cc"
       inkscape:connector-curvature="0" />
    <path
       style="fill:none;stroke:#000000;stroke-width:10px;stroke-linecap:butt;stroke-linejoin:miter;stroke-opacity:1"
       d="M 398.9122,241.18282 526.78281,152.99934"
       id="path3653"
       sodipodi:nodetypes="cc"
       inkscape:connector-curvature="0" />
    <rect
       style="display:inline;fill:#4e4f4f;fill-opacity:1;fill-rule:nonzero;stroke:#000000;stroke-width:1.37453;stroke-linecap:round;stroke-linejoin:miter;stroke-miterlimit:4;stroke-dasharray:none;stroke-dashoffset:0;stroke-opacity:1"
       id="rect3654"
       width="40.211525"
       height="18.949099"
       x="273.74274"
       y="-431.41873"
       transform="matrix(-0.01252587,0.99992155,-0.99999831,-0.00183757,0,0)" />
    <rect
       style="display:inline;fill:#4e4f4f;fill-opacity:1;fill-rule:nonzero;stroke:#000000;stroke-width:1.37453;stroke-linecap:round;stroke-linejoin:miter;stroke-miterlimit:4;stroke-dasharray:none;stroke-dashoffset:0;stroke-opacity:1"
       id="rect3670"
       width="40.211525"
       height="18.949099"
       x="409.00302"
       y="-96.422318"
       transform="matrix(0.7530426,0.65797176,-0.64988535,0.76003226,0,0)" />
    <rect
       transform="matrix(0.9993872,-0.03500326,0.04568313,0.99895598,0,0)"
       y="191.12978"
       x="283.25095"
       height="18.949099"
       width="40.211525"
       id="rect3672"
       style="display:inline;fill:#4e4f4f;fill-opacity:1;fill-rule:nonzero;stroke:#000000;stroke-width:1.37453;stroke-linecap:round;stroke-linejoin:miter;stroke-miterlimit:4;stroke-dasharray:none;stroke-dashoffset:0;stroke-opacity:1" />
    <rect
       transform="matrix(0.39862636,-0.91711342,0.92132172,0.38880109,0,0)"
       y="296.57843"
       x="-163.48329"
       height="18.949099"
       width="40.211525"
       id="rect3676"
       style="display:inline;fill:#4e4f4f;fill-opacity:1;fill-rule:nonzero;stroke:#000000;stroke-width:1.37453;stroke-linecap:round;stroke-linejoin:miter;stroke-miterlimit:4;stroke-dasharray:none;stroke-dashoffset:0;stroke-opacity:1" />
    <g
       id="g3682"
       transform="matrix(9.9985378,-0.17266929,0.17266929,9.9985378,-6.6114725,3.8230952)">
      <path
         sodipodi:nodetypes="ccccc"
         transform="translate(0,-1.7737665)"
         id="path3678"
         d="m 43.033033,38.288365 1.103412,-2.758527 11.696157,2.868869 -2.758528,6.620467 z"
         style="fill:#9d2e33;fill-opacity:1;stroke:#000000;stroke-width:0.2;stroke-linecap:butt;stroke-linejoin:miter;stroke-miterlimit:4;stroke-dasharray:none;stroke-opacity:1"
         inkscape:connector-curvature="0" />
      <path
         sodipodi:nodetypes="ccccc"
         transform="translate(0,-1.7737665)"
         id="path3680"
         d="m 50.977594,43.584739 2.317163,-5.848079 2.537845,0.662047 -2.758527,6.510125 z"
         style="fill:#ffffff;fill-opacity:1;stroke:#000000;stroke-width:0.2;stroke-linecap:butt;stroke-linejoin:miter;stroke-miterlimit:4;stroke-dasharray:none;stroke-opacity:1"
         inkscape:connector-curvature="0" />
    </g>
    <g
       transform="rotate(-108.29372,31.68423,29.981089)"
       id="g3692" />
    <g
       id="g3698"
       transform="matrix(-7.6248376,-6.4701177,6.4701177,-7.6248376,362.62546,729.03781)">
      <path
         style="fill:#9d2e33;fill-opacity:1;stroke:#000000;stroke-width:0.2;stroke-linecap:butt;stroke-linejoin:miter;stroke-miterlimit:4;stroke-dasharray:none;stroke-opacity:1"
         d="m 43.033033,38.288365 1.103412,-2.758527 11.696157,2.868869 -2.758528,6.620467 z"
         id="path3700"
         transform="translate(0,-1.7737665)"
         sodipodi:nodetypes="ccccc"
         inkscape:connector-curvature="0" />
      <path
         style="fill:#ffffff;fill-opacity:1;stroke:#000000;stroke-width:0.2;stroke-linecap:butt;stroke-linejoin:miter;stroke-miterlimit:4;stroke-dasharray:none;stroke-opacity:1"
         d="m 50.977594,43.584739 2.317163,-5.848079 2.537845,0.662047 -2.758527,6.510125 z"
         id="path3702"
         transform="translate(0,-1.7737665)"
         sodipodi:nodetypes="ccccc"
         inkscape:connector-curvature="0" />
    </g>
    <path
       sodipodi:nodetypes="caaaaaaacaaacc"
       id="path3706"
       d="m 369.77832,157.77914 c 0,0 -8.58419,-10.92588 -9.56573,-17.50133 -1.44283,-9.66571 3.25391,-19.3136 5.93523,-28.71139 3.08734,-10.82085 11.31711,-20.439948 11.63923,-31.687993 0.1268,-4.427141 -1.04309,-9.296026 -3.85983,-12.713871 -3.74998,-4.550244 -10.05975,-6.351851 -15.63267,-8.277857 -6.71386,-2.320309 -14.93161,-0.04565 -20.97182,-3.784032 -5.05265,-3.127158 -9.26909,-8.511525 -10.65839,-14.288893 -0.4631,-1.925786 0.9988,-5.857514 0.9988,-5.857514 0,0 11.74125,0.577411 17.55908,1.363073 7.27422,0.982332 14.51124,2.352682 21.62035,4.180254 11.10582,2.855022 22.03316,6.45569 32.73723,10.568279 6.5047,2.499159 19.0762,8.550446 19.0762,8.550446 l -48.87772,98.160828 z"
       style="fill:#858480;fill-opacity:1;stroke:#000000;stroke-width:2.00001;stroke-linecap:butt;stroke-linejoin:miter;stroke-miterlimit:4;stroke-dasharray:none;stroke-opacity:1"
       inkscape:connector-curvature="0" />
    <path
       style="fill:#858480;fill-opacity:1;stroke:#000000;stroke-width:2.00001;stroke-linecap:butt;stroke-linejoin:miter;stroke-miterlimit:4;stroke-dasharray:none;stroke-opacity:1"
       d="m 440.02889,218.6915 c 0,0 11.96406,7.06574 18.61155,7.17009 9.77161,0.153 18.71454,-5.77659 27.67579,-9.67579 10.31821,-4.48965 18.76593,-13.91793 29.87285,-15.72302 4.37161,-0.71041 9.35238,-0.1939 13.11234,2.14658 5.00571,3.11608 7.62502,9.13258 10.27029,14.40225 3.18683,6.34852 2.01795,14.7947 6.52112,20.2882 3.76717,4.5953 9.66131,8.06356 15.57158,8.67754 1.97009,0.2046 5.67425,-1.7638 5.67425,-1.7638 0,0 -2.12329,-11.5621 -3.67057,-17.22517 -1.93458,-7.08072 -4.2489,-14.0733 -6.99952,-20.87871 -4.29702,-10.63138 -9.30956,-20.98733 -14.80005,-31.05436 -3.33649,-6.11757 -10.99537,-17.77958 -10.99537,-17.77958 l -90.84426,61.41581 z"
       id="path3708"
       sodipodi:nodetypes="caaaaaaacaaacc"
       inkscape:connector-curvature="0" />
    <circle
       style="fill:#85d1cc;fill-opacity:1;fill-rule:nonzero;stroke:#378581;stroke-width:5.00001;stroke-linecap:round;stroke-linejoin:miter;stroke-miterlimit:4;stroke-dasharray:none;stroke-dashoffset:0;stroke-opacity:1"
       id="path3712"
       cx="440.22504"
       cy="109.90215"
       r="30.895601" />
    <path
       style="fill:#378581;fill-opacity:1;stroke:#378581;stroke-width:5.00001;stroke-linecap:butt;stroke-linejoin:miter;stroke-miterlimit:4;stroke-dasharray:none;stroke-opacity:1"
       d="m 463.84098,130.19927 21.16906,-23.02161 c 0,0 -4.4891,-4.3117 -12.03245,-10.451071 -8.02255,-6.529388 5.92109,5.708511 -10.57084,-8.675395 0,0 9.14869,12.276446 9.55088,19.504346 0.4455,8.00578 -8.11665,22.64373 -8.11665,22.64373 z"
       id="path3716"
       sodipodi:nodetypes="ccscac"
       inkscape:connector-curvature="0" />
    <path
       style="fill:#378581;fill-opacity:1;stroke:#378581;stroke-width:5.00001;stroke-linecap:butt;stroke-linejoin:miter;stroke-miterlimit:4;stroke-dasharray:none;stroke-opacity:1"
       d="m 414.51783,93.130029 12.67578,-26.503885 24.77535,14.692361 c 0,0 -14.33742,-3.272449 -21.03025,-1.152323 -6.64822,2.105996 -16.42088,12.963847 -16.42088,12.963847 z"
       id="path3720"
       sodipodi:nodetypes="cccac"
       inkscape:connector-curvature="0" />
    <rect
       style="fill:#51999b;fill-opacity:1;fill-rule:nonzero;stroke:#234d5e;stroke-width:2.00001;stroke-linecap:butt;stroke-linejoin:miter;stroke-miterlimit:4;stroke-dasharray:none;stroke-dashoffset:0;stroke-opacity:1"
       id="rect3722"
       width="23.046846"
       height="6.914053"
       x="428.34595"
       y="135.76668" />
    <ellipse
       style="fill:#ffffff;fill-opacity:1;fill-rule:nonzero;stroke:#bcc0c0;stroke-width:1.47668;stroke-linecap:butt;stroke-linejoin:miter;stroke-miterlimit:4;stroke-dasharray:none;stroke-dashoffset:0;stroke-opacity:1"
       id="path3724"
       cx="436.37933"
       cy="174.84663"
       rx="13.192107"
       ry="13.575198" />
    <rect
       style="fill:#ffffff;fill-opacity:1;fill-rule:nonzero;stroke:#aeb5b3;stroke-width:1.47694;stroke-linecap:butt;stroke-linejoin:miter;stroke-miterlimit:4;stroke-dasharray:none;stroke-dashoffset:0;stroke-opacity:1"
       id="rect3730"
       width="27.629473"
       height="13.292771"
       x="252.18144"
       y="408.68845"
       transform="matrix(0.81664788,-0.57713624,0.55511648,0.83177262,0,0)"
       ry="4.6524701" />
    <path
       style="fill:#9a9ba1;fill-opacity:1;stroke:#aeaeae;stroke-width:1;stroke-linecap:butt;stroke-linejoin:miter;stroke-miterlimit:4;stroke-dasharray:none;stroke-opacity:1"
       d="m 375.28036,169.56303 c 0,0 10.26147,-0.094 14.63067,-2.40436 3.25338,-1.72011 5.91332,-4.73135 7.61364,-7.99511 1.92762,-3.70004 3.01746,-8.13014 2.48172,-12.26766 -0.6748,-5.21175 -6.95877,-14.14694 -6.95877,-14.14694"
       id="path3732"
       sodipodi:nodetypes="caaac"
       inkscape:connector-curvature="0" />
    <ellipse
       style="fill:#4d4c4c;fill-opacity:1;fill-rule:nonzero;stroke:#aeaeae;stroke-width:1;stroke-linecap:butt;stroke-linejoin:miter;stroke-miterlimit:4;stroke-dasharray:none;stroke-dashoffset:0;stroke-opacity:1"
       id="path3734"
       transform="rotate(29.529941)"
       cx="415.89441"
       cy="-57.808205"
       rx="6.2678685"
       ry="8.5063925" />
    <ellipse
       style="fill:#2eab2e;fill-opacity:1;fill-rule:nonzero;stroke:#00004d;stroke-width:0.625;stroke-linecap:round;stroke-linejoin:miter;stroke-miterlimit:4;stroke-dasharray:none;stroke-dashoffset:0;stroke-opacity:1"
       id="path3723"
       transform="matrix(0.02702588,-0.99963473,0.99999985,5.4807779e-4,0,0)"
       cx="-297.86145"
       cy="513.92822"
       rx="26.138435"
       ry="12.063366" />
    <rect
       style="fill:#994c1c;fill-opacity:1;fill-rule:nonzero;stroke:#00004d;stroke-width:1;stroke-linecap:round;stroke-linejoin:miter;stroke-miterlimit:4;stroke-dasharray:none;stroke-dashoffset:0;stroke-opacity:1"
       id="rect3725"
       width="36.41267"
       height="30.895601"
       x="238.99129"
       y="-583.96478"
       transform="rotate(94.477228)"
       ry="2.2068286" />
    <rect
       style="fill:#434c1c;fill-opacity:1;fill-rule:nonzero;stroke:#00004d;stroke-width:1;stroke-linecap:round;stroke-linejoin:miter;stroke-miterlimit:4;stroke-dasharray:none;stroke-dashoffset:0;stroke-opacity:1"
       id="rect3727"
       width="23.171698"
       height="22.068285"
       x="549.01361"
       y="-42.382202"
       transform="rotate(27.032191)"
       ry="5.1353154" />
    <rect
       ry="2.2068286"
       transform="rotate(-8.6630686)"
       y="84.036812"
       x="264.05179"
       height="30.895601"
       width="36.41267"
       id="rect3729"
       style="fill:#994c1c;fill-opacity:1;fill-rule:nonzero;stroke:#00004d;stroke-width:1;stroke-linecap:round;stroke-linejoin:miter;stroke-miterlimit:4;stroke-dasharray:none;stroke-dashoffset:0;stroke-opacity:1" />
    <ellipse
       transform="matrix(-0.98568335,0.16860704,-0.19464686,-0.98087339,0,0)"
       id="path3731"
       style="fill:#2eab2e;fill-opacity:1;fill-rule:nonzero;stroke:#00004d;stroke-width:0.625;stroke-linecap:round;stroke-linejoin:miter;stroke-miterlimit:4;stroke-dasharray:none;stroke-dashoffset:0;stroke-opacity:1"
       cx="-277.57983"
       cy="-144.57318"
       rx="26.138433"
       ry="12.063366" />
    <rect
       ry="5.1353154"
       transform="rotate(67.822837)"
       y="-308.84772"
       x="197.51262"
       height="22.068285"
       width="23.171698"
       id="rect3733"
       style="fill:#434c1c;fill-opacity:1;fill-rule:nonzero;stroke:#00004d;stroke-width:1;stroke-linecap:round;stroke-linejoin:miter;stroke-miterlimit:4;stroke-dasharray:none;stroke-dashoffset:0;stroke-opacity:1" />
    <path
       sodipodi:nodetypes="cc"
       id="path3735"
       d="M 528.57562,444.04433 398.30989,354.5507"
       style="fill:none;stroke:#000000;stroke-width:10px;stroke-linecap:butt;stroke-linejoin:miter;stroke-opacity:1"
       inkscape:connector-curvature="0" />
    <path
       style="fill:none;stroke:#000000;stroke-width:10.1555px;stroke-linecap:butt;stroke-linejoin:miter;stroke-opacity:1"
       d="M 271.77711,552.39733 295.39535,389.64156"
       id="path3737"
       sodipodi:nodetypes="cc"
       inkscape:connector-curvature="0" />
    <rect
       transform="matrix(-0.92565997,0.37835648,-0.38822871,-0.92156306,0,0)"
       y="-497.95187"
       x="-197.95058"
       height="18.949099"
       width="40.211525"
       id="rect3739"
       style="display:inline;fill:#4e4f4f;fill-opacity:1;fill-rule:nonzero;stroke:#000000;stroke-width:1.37453;stroke-linecap:round;stroke-linejoin:miter;stroke-miterlimit:4;stroke-dasharray:none;stroke-dashoffset:0;stroke-opacity:1" />
    <g
       transform="matrix(4.4967943,8.9319322,-8.9319322,4.4967943,433.05984,-119.67483)"
       id="g3741">
      <path
         style="fill:#9d2e33;fill-opacity:1;stroke:#000000;stroke-width:0.2;stroke-linecap:butt;stroke-linejoin:miter;stroke-miterlimit:4;stroke-dasharray:none;stroke-opacity:1"
         d="m 43.033033,38.288365 1.103412,-2.758527 11.696157,2.868869 -2.758528,6.620467 z"
         id="path3743"
         transform="translate(0,-1.7737665)"
         sodipodi:nodetypes="ccccc"
         inkscape:connector-curvature="0" />
      <path
         style="fill:#ffffff;fill-opacity:1;stroke:#000000;stroke-width:0.2;stroke-linecap:butt;stroke-linejoin:miter;stroke-miterlimit:4;stroke-dasharray:none;stroke-opacity:1"
         d="m 50.977594,43.584739 2.317163,-5.848079 2.537845,0.662047 -2.758527,6.510125 z"
         id="path3745"
         transform="translate(0,-1.7737665)"
         sodipodi:nodetypes="ccccc"
         inkscape:connector-curvature="0" />
    </g>
    <rect
       ry="2.2068286"
       transform="rotate(152.33879)"
       y="-660.31232"
       x="-146.81682"
       height="30.895601"
       width="36.41267"
       id="rect3747"
       style="fill:#994c1c;fill-opacity:1;fill-rule:nonzero;stroke:#00004d;stroke-width:1;stroke-linecap:round;stroke-linejoin:miter;stroke-miterlimit:4;stroke-dasharray:none;stroke-dashoffset:0;stroke-opacity:1" />
    <ellipse
       transform="matrix(0.88362301,-0.46819907,0.49143149,0.87091624,0,0)"
       id="path3749"
       style="fill:#2eab2e;fill-opacity:1;fill-rule:nonzero;stroke:#00004d;stroke-width:0.625;stroke-linecap:round;stroke-linejoin:miter;stroke-miterlimit:4;stroke-dasharray:none;stroke-dashoffset:0;stroke-opacity:1"
       cx="109.08855"
       cy="607.80011"
       rx="26.138435"
       ry="12.063366" />
    <path
       sodipodi:nodetypes="caaaaaaacaaacc"
       id="path3751"
       d="m 434.68146,384.37452 c 0,0 -2.19212,13.72072 0.1458,19.94439 3.43706,9.14848 12.23036,15.29775 19.14111,22.20784 7.95723,7.95644 19.82466,12.36334 25.57284,22.03705 2.26237,3.80753 3.60626,8.6313 2.80575,12.98725 -1.06586,5.79923 -5.7047,10.44036 -9.63911,14.8321 -4.7399,5.29083 -13.02718,7.2971 -16.48932,13.49958 -2.89594,5.18862 -3.96407,11.94353 -2.3704,17.66791 0.5313,1.9081 3.71971,4.63376 3.71971,4.63376 0,0 9.9807,-6.211 14.68336,-9.72515 5.87992,-4.39384 11.53873,-9.10874 16.86353,-14.16104 8.31842,-7.8927 16.11843,-16.35031 23.47453,-25.1468 4.47018,-5.34549 12.51611,-16.74392 12.51611,-16.74392 l -90.42396,-62.03295 z"
       style="fill:#858480;fill-opacity:1;stroke:#000000;stroke-width:2.00001;stroke-linecap:butt;stroke-linejoin:miter;stroke-miterlimit:4;stroke-dasharray:none;stroke-opacity:1"
       inkscape:connector-curvature="0" />
    <rect
       ry="5.1353154"
       transform="rotate(91.445361)"
       y="-483.74194"
       x="433.66486"
       height="22.068285"
       width="23.171698"
       id="rect3753"
       style="fill:#434c1c;fill-opacity:1;fill-rule:nonzero;stroke:#00004d;stroke-width:1;stroke-linecap:round;stroke-linejoin:miter;stroke-miterlimit:4;stroke-dasharray:none;stroke-dashoffset:0;stroke-opacity:1" />
    <path
       sodipodi:nodetypes="cc"
       id="path3755"
       d="M 50.296162,332.97078 212.58592,306.33821"
       style="fill:none;stroke:#000000;stroke-width:10.1555px;stroke-linecap:butt;stroke-linejoin:miter;stroke-opacity:1"
       inkscape:connector-curvature="0" />
    <g
       id="g3757"
       transform="matrix(-7.2668814,6.8697166,-6.8697166,-7.2668814,741.67414,292.60304)">
      <path
         sodipodi:nodetypes="ccccc"
         transform="translate(0,-1.7737665)"
         id="path3759"
         d="m 43.033033,38.288365 1.103412,-2.758527 11.696157,2.868869 -2.758528,6.620467 z"
         style="fill:#9d2e33;fill-opacity:1;stroke:#000000;stroke-width:0.2;stroke-linecap:butt;stroke-linejoin:miter;stroke-miterlimit:4;stroke-dasharray:none;stroke-opacity:1"
         inkscape:connector-curvature="0" />
      <path
         sodipodi:nodetypes="ccccc"
         transform="translate(0,-1.7737665)"
         id="path3761"
         d="m 50.977594,43.584739 2.317163,-5.848079 2.537845,0.662047 -2.758527,6.510125 z"
         style="fill:#ffffff;fill-opacity:1;stroke:#000000;stroke-width:0.2;stroke-linecap:butt;stroke-linejoin:miter;stroke-miterlimit:4;stroke-dasharray:none;stroke-opacity:1"
         inkscape:connector-curvature="0" />
    </g>
    <rect
       style="fill:#994c1c;fill-opacity:1;fill-rule:nonzero;stroke:#00004d;stroke-width:1;stroke-linecap:round;stroke-linejoin:miter;stroke-miterlimit:4;stroke-dasharray:none;stroke-dashoffset:0;stroke-opacity:1"
       id="rect3763"
       width="36.41267"
       height="30.895601"
       x="-440.76987"
       y="-237.30779"
       transform="rotate(-134.19744)"
       ry="2.2068286" />
    <ellipse
       style="fill:#2eab2e;fill-opacity:1;fill-rule:nonzero;stroke:#00004d;stroke-width:0.625;stroke-linecap:round;stroke-linejoin:miter;stroke-miterlimit:4;stroke-dasharray:none;stroke-dashoffset:0;stroke-opacity:1"
       id="path3765"
       transform="matrix(0.67597697,0.73692275,-0.71876586,0.69525221,0,0)"
       cx="427.58032"
       cy="163.99738"
       rx="26.138435"
       ry="12.063366" />
    <path
       style="fill:#858480;fill-opacity:1;stroke:#000000;stroke-width:2.00001;stroke-linecap:butt;stroke-linejoin:miter;stroke-miterlimit:4;stroke-dasharray:none;stroke-opacity:1"
       d="m 282.46446,442.60067 c 0,0 -13.3034,4.01038 -17.88469,8.82823 -6.73409,7.08238 -8.43346,17.6771 -11.63844,26.90942 -3.69026,10.63036 -2.48115,23.23173 -8.68011,32.62295 -2.43991,3.69628 -6.19489,7.00913 -10.46395,8.18823 -5.68358,1.56964 -11.88305,-0.5811 -17.55089,-2.20666 -6.8282,-1.95836 -12.24746,-8.54136 -19.33888,-8.95232 -5.93214,-0.3435 -12.47677,1.64083 -16.93327,5.57117 -1.48547,1.31019 -2.54797,5.36806 -2.54797,5.36806 0,0 9.94159,6.27339 15.15469,8.97299 6.51811,3.37543 13.22872,6.41189 20.09732,9.00064 10.73013,4.04416 21.74255,7.37546 32.8664,10.15949 6.75978,1.69182 20.52593,3.96203 20.52593,3.96203 l 16.39382,-108.42427 z"
       id="path3767"
       sodipodi:nodetypes="caaaaaaacaaacc"
       inkscape:connector-curvature="0" />
    <rect
       style="fill:#434c1c;fill-opacity:1;fill-rule:nonzero;stroke:#00004d;stroke-width:1;stroke-linecap:round;stroke-linejoin:miter;stroke-miterlimit:4;stroke-dasharray:none;stroke-dashoffset:0;stroke-opacity:1"
       id="rect3769"
       width="23.171698"
       height="22.068285"
       x="-19.895515"
       y="-556.98016"
       transform="rotate(156.36619)"
       ry="5.1353154" />
    <g
       transform="matrix(-9.2914601,3.6972073,-3.6972073,-9.2914601,712.19681,451.07527)"
       id="g3771">
      <path
         sodipodi:nodetypes="ccccc"
         transform="translate(0,-1.7737665)"
         id="path3773"
         d="m 43.033033,38.288365 1.103412,-2.758527 11.696157,2.868869 -2.758528,6.620467 z"
         style="fill:#9d2e33;fill-opacity:1;stroke:#000000;stroke-width:0.2;stroke-linecap:butt;stroke-linejoin:miter;stroke-miterlimit:4;stroke-dasharray:none;stroke-opacity:1"
         inkscape:connector-curvature="0" />
      <path
         sodipodi:nodetypes="ccccc"
         transform="translate(0,-1.7737665)"
         id="path3775"
         d="m 50.977594,43.584739 2.317163,-5.848079 2.537845,0.662047 -2.758527,6.510125 z"
         style="fill:#ffffff;fill-opacity:1;stroke:#000000;stroke-width:0.2;stroke-linecap:butt;stroke-linejoin:miter;stroke-miterlimit:4;stroke-dasharray:none;stroke-opacity:1"
         inkscape:connector-curvature="0" />
    </g>
    <path
       style="fill:#858480;fill-opacity:1;stroke:#000000;stroke-width:2.00001;stroke-linecap:butt;stroke-linejoin:miter;stroke-miterlimit:4;stroke-dasharray:none;stroke-opacity:1"
       d="m 219.12976,177.63727 c 0,0 -13.65463,2.57185 -19.94076,0.4075 -9.24042,-3.18158 -15.63112,-11.80132 -22.73024,-18.51775 -8.17409,-7.73346 -12.90849,-19.47409 -22.73793,-24.95171 -3.86878,-2.15597 -8.72795,-3.36554 -13.06007,-2.44443 -5.76743,1.22631 -10.2781,5.9921 -14.55902,10.04682 -5.15732,4.88484 -6.93295,13.22458 -13.03698,16.85743 -5.10631,3.03877 -11.82899,4.29384 -17.595356,2.85957 -1.922118,-0.4781 -4.735165,-3.58975 -4.735165,-3.58975 0,0 5.931746,-10.14913 9.314111,-14.94747 4.22903,-5.99953 8.78517,-11.78694 13.68782,-17.24985 7.65893,-8.53413 15.8969,-16.56574 24.48597,-24.16301 5.21944,-4.616754 16.3903,-12.97576 16.3903,-12.97576 l 64.5173,88.66848 z"
       id="path3777"
       sodipodi:nodetypes="caaaaaaacaaacc"
       inkscape:connector-curvature="0" />
    <rect
       style="fill:#434c1c;fill-opacity:1;fill-rule:nonzero;stroke:#00004d;stroke-width:1;stroke-linecap:round;stroke-linejoin:miter;stroke-miterlimit:4;stroke-dasharray:none;stroke-dashoffset:0;stroke-opacity:1"
       id="rect3779"
       width="23.171698"
       height="22.068285"
       x="143.82536"
       y="132.08971"
       transform="rotate(4.3722111)"
       ry="5.1353154" />
    <rect
       style="fill:#994c1c;fill-opacity:1;fill-rule:nonzero;stroke:#00004d;stroke-width:1;stroke-linecap:round;stroke-linejoin:miter;stroke-miterlimit:4;stroke-dasharray:none;stroke-dashoffset:0;stroke-opacity:1"
       id="rect3781"
       width="36.41267"
       height="30.895601"
       x="-155.81915"
       y="155.59128"
       transform="rotate(-64.028753)"
       ry="2.2068286" />
    <ellipse
       style="fill:#2eab2e;fill-opacity:1;fill-rule:nonzero;stroke:#00004d;stroke-width:0.625;stroke-linecap:round;stroke-linejoin:miter;stroke-miterlimit:4;stroke-dasharray:none;stroke-dashoffset:0;stroke-opacity:1"
       id="path3783"
       transform="matrix(-0.42430506,0.90551931,-0.91643658,-0.40017995,0,0)"
       cx="146.19899"
       cy="-208.79601"
       rx="26.138433"
       ry="12.063366" />
    <rect
       style="display:inline;fill:#4e4f4f;fill-opacity:1;fill-rule:nonzero;stroke:#000000;stroke-width:1.37453;stroke-linecap:round;stroke-linejoin:miter;stroke-miterlimit:4;stroke-dasharray:none;stroke-dashoffset:0;stroke-opacity:1"
       id="rect3785"
       width="40.211525"
       height="18.949099"
       x="-447.41174"
       y="-86.789185"
       transform="matrix(-0.69813908,-0.71596217,0.70845926,-0.70575171,0,0)" />
  </g>
</svg>
