<?xml version="1.0" encoding="UTF-8" standalone="no"?>
<!-- Created with Inkscape (http://www.inkscape.org/) -->

<svg
   width="1000"
   height="1000"
   id="svg2480"
   sodipodi:version="0.32"
   inkscape:version="1.1 (c68e22c387, 2021-05-23)"
   sodipodi:docname="starting_erv_base.svg"
   inkscape:output_extension="org.inkscape.output.svg.inkscape"
   version="1.1"
   xmlns:inkscape="http://www.inkscape.org/namespaces/inkscape"
   xmlns:sodipodi="http://sodipodi.sourceforge.net/DTD/sodipodi-0.dtd"
   xmlns:xlink="http://www.w3.org/1999/xlink"
   xmlns="http://www.w3.org/2000/svg"
   xmlns:svg="http://www.w3.org/2000/svg"
   xmlns:rdf="http://www.w3.org/1999/02/22-rdf-syntax-ns#"
   xmlns:cc="http://creativecommons.org/ns#"
   xmlns:dc="http://purl.org/dc/elements/1.1/">
  <defs
     id="defs2482">
    <linearGradient
       inkscape:collect="always"
       id="linearGradient1229">
      <stop
         style="stop-color:#ff6600;stop-opacity:1;"
         offset="0"
         id="stop1225" />
      <stop
         style="stop-color:#ff6600;stop-opacity:0;"
         offset="1"
         id="stop1227" />
    </linearGradient>
    <linearGradient
       inkscape:collect="always"
       id="linearGradient1030">
      <stop
         style="stop-color:#ffffff;stop-opacity:1;"
         offset="0"
         id="stop1026" />
      <stop
         style="stop-color:#ffffff;stop-opacity:0;"
         offset="1"
         id="stop1028" />
    </linearGradient>
    <linearGradient
       inkscape:collect="always"
       id="linearGradient1022">
      <stop
         style="stop-color:#ffffff;stop-opacity:1;"
         offset="0"
         id="stop1018" />
      <stop
         style="stop-color:#ffffff;stop-opacity:0;"
         offset="1"
         id="stop1020" />
    </linearGradient>
    <linearGradient
       inkscape:collect="always"
       id="linearGradient1014">
      <stop
         style="stop-color:#ffffff;stop-opacity:1;"
         offset="0"
         id="stop1010" />
      <stop
         style="stop-color:#ffffff;stop-opacity:0;"
         offset="1"
         id="stop1012" />
    </linearGradient>
    <linearGradient
       inkscape:collect="always"
       id="linearGradient1006">
      <stop
         style="stop-color:#803300;stop-opacity:1;"
         offset="0"
         id="stop1002" />
      <stop
         style="stop-color:#803300;stop-opacity:0;"
         offset="1"
         id="stop1004" />
    </linearGradient>
    <linearGradient
       inkscape:collect="always"
       id="linearGradient996">
      <stop
         style="stop-color:#c8ab37;stop-opacity:1;"
         offset="0"
         id="stop992" />
      <stop
         style="stop-color:#c8ab37;stop-opacity:0;"
         offset="1"
         id="stop994" />
    </linearGradient>
    <linearGradient
       id="linearGradient3833">
      <stop
         style="stop-color:#ffff00;stop-opacity:1;"
         offset="0"
         id="stop3835" />
      <stop
         style="stop-color:#727200;stop-opacity:1;"
         offset="1"
         id="stop3837" />
    </linearGradient>
    <linearGradient
       id="linearGradient3810">
      <stop
         style="stop-color:#ffffff;stop-opacity:1;"
         offset="0"
         id="stop3812" />
      <stop
         style="stop-color:#cececc;stop-opacity:1;"
         offset="1"
         id="stop3814" />
    </linearGradient>
    <linearGradient
       id="linearGradient3798">
      <stop
         style="stop-color:#ff0000;stop-opacity:1;"
         offset="0"
         id="stop3800" />
      <stop
         style="stop-color:#660000;stop-opacity:0.97600001;"
         offset="1"
         id="stop3802" />
    </linearGradient>
    <linearGradient
       id="linearGradient3732">
      <stop
         id="stop3734"
         offset="0"
         style="stop-color:#4d4d4d;stop-opacity:1;" />
      <stop
         id="stop3736"
         offset="1"
         style="stop-color:#4d4d4d;stop-opacity:0;" />
    </linearGradient>
    <linearGradient
       id="linearGradient3716">
      <stop
         id="stop3718"
         offset="0"
         style="stop-color:#4d4d4d;stop-opacity:1;" />
      <stop
         id="stop3720"
         offset="1"
         style="stop-color:#c6c4c6;stop-opacity:1;" />
    </linearGradient>
    <linearGradient
       id="linearGradient3708">
      <stop
         style="stop-color:#4d4d4d;stop-opacity:1;"
         offset="0"
         id="stop3710" />
      <stop
         style="stop-color:#c6c4c6;stop-opacity:1;"
         offset="1"
         id="stop3712" />
    </linearGradient>
    <linearGradient
       id="linearGradient3692">
      <stop
         style="stop-color:#b3b3b3;stop-opacity:1;"
         offset="0"
         id="stop3694" />
      <stop
         style="stop-color:#b3b3b3;stop-opacity:0;"
         offset="1"
         id="stop3696" />
    </linearGradient>
    <linearGradient
       id="linearGradient3682">
      <stop
         style="stop-color:#000000;stop-opacity:1;"
         offset="0"
         id="stop3684" />
      <stop
         style="stop-color:#ffffff;stop-opacity:1;"
         offset="1"
         id="stop3686" />
    </linearGradient>
    <linearGradient
       id="linearGradient3672">
      <stop
         style="stop-color:#000000;stop-opacity:1;"
         offset="0"
         id="stop3674" />
      <stop
         style="stop-color:#ffffff;stop-opacity:1;"
         offset="1"
         id="stop3676" />
    </linearGradient>
    <linearGradient
       inkscape:collect="always"
       id="linearGradient3662">
      <stop
         style="stop-color:#ffffff;stop-opacity:1;"
         offset="0"
         id="stop3664" />
      <stop
         style="stop-color:#ffffff;stop-opacity:0;"
         offset="1"
         id="stop3666" />
    </linearGradient>
    <linearGradient
       id="linearGradient3654">
      <stop
         style="stop-color:#000000;stop-opacity:1;"
         offset="0"
         id="stop3656" />
      <stop
         style="stop-color:#ffffff;stop-opacity:1;"
         offset="1"
         id="stop3658" />
    </linearGradient>
    <linearGradient
       id="linearGradient3634">
      <stop
         style="stop-color:#000000;stop-opacity:1;"
         offset="0"
         id="stop3636" />
      <stop
         style="stop-color:#ffffff;stop-opacity:0.99199998;"
         offset="1"
         id="stop3638" />
    </linearGradient>
    <inkscape:perspective
       sodipodi:type="inkscape:persp3d"
       inkscape:vp_x="0 : 971.39576 : 1"
       inkscape:vp_y="0 : 1000 : 0"
       inkscape:vp_z="64 : 971.39576 : 1"
       inkscape:persp3d-origin="32 : 960.72909 : 1"
       id="perspective2488" />
    <radialGradient
       inkscape:collect="always"
       xlink:href="#linearGradient3634"
       id="radialGradient3646"
       cx="-40.069717"
       cy="412.57178"
       fx="-40.069717"
       fy="412.57178"
       r="39.020557"
       gradientTransform="matrix(1.4942896,-0.03142739,0.0326683,1.5532913,6.3280273,-229.53169)"
       gradientUnits="userSpaceOnUse" />
    <radialGradient
       inkscape:collect="always"
       xlink:href="#linearGradient3654"
       id="radialGradient3660"
       cx="50.330933"
       cy="50.210442"
       fx="50.330933"
       fy="50.210442"
       r="9.3565722"
       gradientTransform="matrix(26.453139,0.0519043,-0.0489999,24.973087,-490.98549,-420.69515)"
       gradientUnits="userSpaceOnUse" />
    <radialGradient
       inkscape:collect="always"
       xlink:href="#linearGradient3662"
       id="radialGradient3668"
       cx="-40.069717"
       cy="412.57178"
       fx="-40.069717"
       fy="412.57178"
       r="39.020557"
       gradientTransform="matrix(1,0,0,0.99781143,0,0.90294393)"
       gradientUnits="userSpaceOnUse" />
    <radialGradient
       inkscape:collect="always"
       xlink:href="#linearGradient3672"
       id="radialGradient3678"
       cx="50.561401"
       cy="10.463711"
       fx="50.561401"
       fy="10.463711"
       r="9.3519659"
       gradientTransform="matrix(25.513447,-0.1044669,0.1070158,26.136028,-449.32226,-92.511216)"
       gradientUnits="userSpaceOnUse" />
    <radialGradient
       inkscape:collect="always"
       xlink:href="#linearGradient3682"
       id="radialGradient3688"
       cx="9.6504917"
       cy="9.6781912"
       fx="9.6504917"
       fy="9.6781912"
       r="9.4182739"
       gradientTransform="matrix(27.581711,-0.4003455,0.3510153,24.183105,-107.25693,-67.544993)"
       gradientUnits="userSpaceOnUse" />
    <linearGradient
       inkscape:collect="always"
       xlink:href="#linearGradient3716"
       id="linearGradient3714"
       x1="8.452363"
       y1="8.504488"
       x2="12.061526"
       y2="12.134704"
       gradientUnits="userSpaceOnUse"
       gradientTransform="matrix(16.60867,0,0,16.60867,2.035506,1.898306)" />
    <linearGradient
       inkscape:collect="always"
       xlink:href="#linearGradient3716"
       id="linearGradient3730"
       x1="51.765003"
       y1="9.3197365"
       x2="48.022457"
       y2="13.12282"
       gradientUnits="userSpaceOnUse"
       gradientTransform="matrix(16.60867,0,0,16.60867,2.035506,1.898306)" />
    <linearGradient
       inkscape:collect="always"
       xlink:href="#linearGradient3716"
       id="linearGradient3746"
       x1="51.319027"
       y1="51.186432"
       x2="47.676121"
       y2="47.556217"
       gradientUnits="userSpaceOnUse"
       gradientTransform="matrix(16.60867,0,0,16.60867,2.035506,1.898306)" />
    <linearGradient
       inkscape:collect="always"
       xlink:href="#linearGradient3716"
       id="linearGradient3756"
       x1="8.4522238"
       y1="52.18013"
       x2="12.162503"
       y2="48.204178"
       gradientUnits="userSpaceOnUse"
       gradientTransform="matrix(16.60867,0,0,16.60867,2.035506,1.898306)" />
    <linearGradient
       inkscape:collect="always"
       xlink:href="#linearGradient3833"
       id="linearGradient3839"
       x1="30.241339"
       y1="13.11085"
       x2="30.241341"
       y2="3.9488764"
       gradientUnits="userSpaceOnUse"
       gradientTransform="matrix(16.60867,0,0,16.60867,-0.02898302,-0.03092664)" />
    <linearGradient
       inkscape:collect="always"
       xlink:href="#linearGradient3833"
       id="linearGradient3849"
       x1="48.219555"
       y1="30.311159"
       x2="54.269913"
       y2="30.311159"
       gradientUnits="userSpaceOnUse"
       gradientTransform="matrix(22.395179,0,0,16.411543,-293.6861,5.9442185)" />
    <linearGradient
       inkscape:collect="always"
       xlink:href="#linearGradient3833"
       id="linearGradient3859"
       x1="-360.25574"
       y1="1075.6819"
       x2="-358.8728"
       y2="1077.2377"
       gradientUnits="userSpaceOnUse"
       gradientTransform="matrix(16.60867,0,0,16.60867,-0.02898302,-0.03092664)" />
    <linearGradient
       inkscape:collect="always"
       xlink:href="#linearGradient3833"
       id="linearGradient3869"
       x1="12.986103"
       y1="30.161701"
       x2="4.4501739"
       y2="30.161699"
       gradientUnits="userSpaceOnUse"
       gradientTransform="matrix(16.60867,0,0,16.60867,-0.02898302,-0.03092664)" />
    <linearGradient
       inkscape:collect="always"
       xlink:href="#linearGradient3833"
       id="linearGradient3879"
       x1="30.202635"
       y1="46.582512"
       x2="30.202635"
       y2="55.697144"
       gradientUnits="userSpaceOnUse"
       gradientTransform="matrix(16.60867,0,0,16.60867,-0.02898302,-0.03092664)" />
    <radialGradient
       inkscape:collect="always"
       xlink:href="#linearGradient3634"
       id="radialGradient98"
       gradientUnits="userSpaceOnUse"
       gradientTransform="matrix(1.4942896,-0.03142739,0.0326683,1.5532913,6.3280273,-229.53169)"
       cx="-40.069717"
       cy="412.57178"
       fx="-40.069717"
       fy="412.57178"
       r="39.020557" />
    <radialGradient
       inkscape:collect="always"
       xlink:href="#linearGradient3634"
       id="radialGradient100"
       gradientUnits="userSpaceOnUse"
       gradientTransform="matrix(1.4942896,-0.03142739,0.0326683,1.5532913,6.3280273,-229.53169)"
       cx="-40.069717"
       cy="412.57178"
       fx="-40.069717"
       fy="412.57178"
       r="39.020557" />
    <linearGradient
       inkscape:collect="always"
       xlink:href="#linearGradient3798"
       id="linearGradient5101"
       x1="81.776047"
       y1="500.07666"
       x2="906.63995"
       y2="500.07666"
       gradientUnits="userSpaceOnUse" />
    <linearGradient
       inkscape:collect="always"
       xlink:href="#linearGradient996"
       id="linearGradient1000"
       gradientUnits="userSpaceOnUse"
       x1="411.84693"
       y1="506.78331"
       x2="587.75633"
       y2="506.78331" />
    <linearGradient
       inkscape:collect="always"
       xlink:href="#linearGradient1006"
       id="linearGradient1008"
       x1="210.64517"
       y1="500.28171"
       x2="788.11104"
       y2="500.28171"
       gradientUnits="userSpaceOnUse" />
    <linearGradient
       inkscape:collect="always"
       xlink:href="#linearGradient1014"
       id="linearGradient1016"
       x1="205.94379"
       y1="499.82343"
       x2="794.41723"
       y2="499.82343"
       gradientUnits="userSpaceOnUse" />
    <linearGradient
       inkscape:collect="always"
       xlink:href="#linearGradient1022"
       id="linearGradient1024"
       x1="407.20483"
       y1="506.31564"
       x2="593.15619"
       y2="506.31564"
       gradientUnits="userSpaceOnUse" />
    <linearGradient
       inkscape:collect="always"
       xlink:href="#linearGradient1030"
       id="linearGradient1032"
       x1="76.097965"
       y1="499.82343"
       x2="911.27844"
       y2="499.82343"
       gradientUnits="userSpaceOnUse" />
    <linearGradient
       inkscape:collect="always"
       xlink:href="#linearGradient1229"
       id="linearGradient1231"
       x1="214.17872"
       y1="500.45947"
       x2="784.44296"
       y2="500.45947"
       gradientUnits="userSpaceOnUse" />
  </defs>
  <sodipodi:namedview
     id="base"
     pagecolor="#ffffff"
     bordercolor="#666666"
     borderopacity="1.0"
     inkscape:pageopacity="0.0"
     inkscape:pageshadow="2"
     inkscape:zoom="0.43199758"
     inkscape:cx="291.6683"
     inkscape:cy="501.16021"
     inkscape:current-layer="layer2"
     showgrid="true"
     inkscape:document-units="px"
     inkscape:grid-bbox="true"
     inkscape:window-width="1287"
     inkscape:window-height="1041"
     inkscape:window-x="1956"
     inkscape:window-y="0"
     inkscape:window-maximized="0"
     showborder="true"
     inkscape:snap-global="false"
     inkscape:pagecheckerboard="0"
     width="100.6px">
    <inkscape:grid
       type="xygrid"
       id="grid2852"
       empspacing="5"
       visible="true"
       enabled="true"
       snapvisiblegridlinesonly="true" />
  </sodipodi:namedview>
  <metadata
     id="metadata2485">
    <rdf:RDF>
      <cc:Work
         rdf:about="">
        <dc:format>image/svg+xml</dc:format>
        <dc:type
           rdf:resource="http://purl.org/dc/dcmitype/StillImage" />
      </cc:Work>
    </rdf:RDF>
  </metadata>
  <g
     id="layer1"
     inkscape:label="Layer 1"
     inkscape:groupmode="layer"
     transform="translate(-2.0644883,-1.9292334)"
     style="display:inline">
    <g
       style="display:inline"
       id="g3285"
       transform="matrix(4.1672332,0,0,4.1672332,1002.1514,-884.2478)">
      <path
         sodipodi:open="true"
         sodipodi:end="2.9304993"
         sodipodi:start="4.9434797"
         d="m -31.585657,374.13663 a 38.948448,38.948448 0 0 1 29.8913816,41.16911 38.948448,38.948448 0 0 1 -36.3328236,35.61343 38.948448,38.948448 0 0 1 -40.563173,-30.70862"
         sodipodi:ry="38.948448"
         sodipodi:rx="38.948448"
         sodipodi:cy="412.04971"
         sodipodi:cx="-40.506386"
         id="path3281"
         style="fill:#ffffff;fill-opacity:0;stroke:#000000"
         sodipodi:type="arc"
         sodipodi:arc-type="arc" />
      <rect
         transform="rotate(45)"
         ry="1.5579379"
         y="314.32455"
         x="248.28221"
         height="12.463503"
         width="23.369068"
         id="rect3283"
         style="fill:#ffffff;fill-opacity:0;stroke:#000000;stroke-width:1" />
    </g>
    <g
       style="display:inline"
       id="g3289"
       transform="matrix(0,-4.1672332,4.1672332,0,-879.43543,10.155139)">
      <path
         sodipodi:open="true"
         sodipodi:end="2.9304993"
         sodipodi:start="4.9434797"
         d="m -31.585657,374.13663 a 38.948448,38.948448 0 0 1 29.8913816,41.16911 38.948448,38.948448 0 0 1 -36.3328236,35.61343 38.948448,38.948448 0 0 1 -40.563173,-30.70862"
         sodipodi:ry="38.948448"
         sodipodi:rx="38.948448"
         sodipodi:cy="412.04971"
         sodipodi:cx="-40.506386"
         id="path3291"
         style="fill:url(#radialGradient3668);fill-opacity:1;stroke:#000000"
         sodipodi:type="arc"
         sodipodi:arc-type="arc" />
      <rect
         transform="rotate(45)"
         ry="1.5579379"
         y="314.32455"
         x="248.28221"
         height="12.463503"
         width="23.369068"
         id="rect3293"
         style="fill:#ffffff;fill-opacity:0;stroke:#000000;stroke-width:1" />
    </g>
    <g
       style="display:inline"
       id="g3295"
       transform="matrix(-4.1672332,0,0,-4.1672332,-2.3365912,1883.433)">
      <path
         sodipodi:open="true"
         sodipodi:end="2.9304993"
         sodipodi:start="4.9434797"
         d="m -31.585657,374.13663 a 38.948448,38.948448 0 0 1 29.8913816,41.16911 38.948448,38.948448 0 0 1 -36.3328236,35.61343 38.948448,38.948448 0 0 1 -40.563173,-30.70862"
         sodipodi:ry="38.948448"
         sodipodi:rx="38.948448"
         sodipodi:cy="412.04971"
         sodipodi:cx="-40.506386"
         id="path3297"
         style="fill:#ffffff;fill-opacity:0;stroke:#000000"
         sodipodi:type="arc"
         sodipodi:arc-type="arc" />
      <rect
         transform="rotate(45)"
         ry="1.5579379"
         y="314.32455"
         x="248.28221"
         height="12.463503"
         width="23.369068"
         id="rect3299"
         style="fill:#ffffff;fill-opacity:0;stroke:#000000;stroke-width:1" />
    </g>
    <g
       style="display:inline;fill:url(#radialGradient3646);fill-opacity:1"
       id="g3301"
       transform="matrix(0,4.1672332,-4.1672332,0,1883.9259,1012.8263)">
      <path
         sodipodi:open="true"
         sodipodi:end="2.9304993"
         sodipodi:start="4.9434797"
         d="m -31.585657,374.13663 a 38.948448,38.948448 0 0 1 29.8913816,41.16911 38.948448,38.948448 0 0 1 -36.3328236,35.61343 38.948448,38.948448 0 0 1 -40.563173,-30.70862"
         sodipodi:ry="38.948448"
         sodipodi:rx="38.948448"
         sodipodi:cy="412.04971"
         sodipodi:cx="-40.506386"
         id="path3303"
         style="fill:url(#radialGradient98);fill-opacity:1;stroke:#000000"
         sodipodi:type="arc"
         sodipodi:arc-type="arc" />
      <rect
         transform="rotate(45)"
         ry="1.5579379"
         y="314.32455"
         x="248.28221"
         height="12.463503"
         width="23.369068"
         id="rect3305"
         style="fill:url(#radialGradient100);fill-opacity:1;stroke:#000000;stroke-width:1" />
    </g>
    <path
       style="fill:url(#radialGradient3660);fill-opacity:1;stroke:#3f3f44;stroke-width:2.87109;stroke-opacity:1"
       d="m 798.61328,987.61858 c -43.62471,-11.06027 -83.13282,-41.01693 -102.7265,-77.89142 -16.98655,-31.96798 -17.44993,-29.78776 9.67653,-45.5294 13.06034,-7.57898 33.55501,-21.23762 45.5437,-30.35251 l 21.79763,-16.57254 31.26873,31.36599 c 17.19779,17.25129 33.26919,31.36597 35.7142,31.36597 5.60807,0 37.28338,-31.74263 37.28338,-37.3626 0,-2.29816 -14.16854,-18.41063 -31.48562,-35.80547 l -31.48564,-31.62701 15.4771,-20.40162 c 14.52047,-19.1406 44.62305,-68.64188 44.62305,-73.379 0,-1.18055 5.33901,-0.2627 11.86445,2.03956 61.20646,21.59491 105.76571,84.4375 105.76571,149.16303 0,68.02458 -47.56265,131.64135 -113.90753,152.35542 -20.57424,6.4236 -59.37996,7.7097 -79.40919,2.6316 z"
       id="path3652" />
    <path
       style="fill:url(#radialGradient3678);fill-opacity:1;stroke:#3f3f44;stroke-width:2.87109;stroke-opacity:1"
       d="m 866.02884,306.91078 c -6.89278,-13.46102 -19.55283,-34.2597 -28.13341,-46.21925 l -15.60109,-21.74467 31.74495,-32.17531 c 17.45973,-17.69644 31.74495,-33.11563 31.74495,-34.26487 0,-5.2291 -32.954,-36.11644 -38.53297,-36.11644 -3.87633,0 -16.43431,10.39653 -34.68004,28.71098 -15.73179,15.79105 -30.01727,28.71098 -31.74552,28.71098 -1.72825,0 -6.27445,-3.34163 -10.1027,-7.42587 -9.17925,-9.79303 -39.65609,-31.98762 -62.94686,-45.84068 -10.26418,-6.10501 -19.17503,-11.45002 -19.80189,-11.87781 -0.6268,-0.4278 3.07051,-9.33005 8.21638,-19.7828 18.77411,-38.135607 57.67158,-70.199415 100.39288,-82.755453 19.86852,-5.839471 59.85202,-5.930797 81.90366,-0.18708 61.62257,16.050637 109.07492,71.127473 116.22692,134.901743 7.1577,63.82452 -25.92342,126.899 -82.26039,156.84284 -32.7105,17.38607 -31.90895,17.57212 -46.42487,-10.77631 z"
       id="path3670" />
    <path
       style="fill:url(#radialGradient3688);fill-opacity:1;stroke:#3f3f44;stroke-width:2.87109;stroke-opacity:1"
       d="M 96.232224,308.12785 C 70.98322,295.95826 37.322311,262.33328 24.906891,236.87868 15.217338,217.01275 7.3278838,185.44333 7.3278838,166.53677 c 0,-6.31641 1.898804,-20.52835 4.2195652,-31.58208 13.21034,-62.92055 61.03698,-110.32022 124.880141,-123.765289 60.10887,-12.6586428 124.58512,14.120394 161.13064,66.922693 7.96224,11.504116 19.74857,35.991676 19.74857,41.030076 0,1.30546 -9.36696,7.51886 -20.81546,13.80755 -11.44851,6.2887 -30.62805,18.47933 -42.62121,27.0903 -11.99313,8.61096 -23.43724,16.66464 -25.43131,17.89705 -2.41425,1.49209 -13.95335,-8.05497 -34.53681,-28.5746 -24.64157,-24.56517 -32.08156,-30.44389 -36.68142,-28.98395 -6.89957,2.18983 -35.14849,31.41776 -35.14849,36.36661 0,1.90961 13.63073,17.3044 30.29051,34.21061 l 30.29052,30.7386 -18.93228,25.10185 c -10.41275,13.806 -24.86386,35.31039 -32.11357,47.78754 -7.2497,12.47713 -13.9759,22.65268 -14.9471,22.61234 -0.9712,-0.04 -10.16378,-4.12103 -20.427956,-9.06822 z"
       id="path3680" />
    <path
       style="fill:url(#linearGradient3714);fill-opacity:1;stroke:#3f3f44;stroke-width:2.87109;stroke-opacity:1"
       d="m 159.0935,186.24159 -29.59543,-29.69651 14.16778,-14.38407 c 7.79228,-7.91123 15.53258,-14.38406 17.20068,-14.38406 1.66809,0 15.88582,12.90134 31.59496,28.66964 l 28.56207,28.66965 -16.16732,15.41091 -16.16731,15.41092 z"
       id="path3690" />
    <path
       style="fill:url(#linearGradient3730);fill-opacity:1;stroke:#3f3f44;stroke-width:2.87109;stroke-opacity:1"
       d="m 803.24609,217.51404 -14.67572,-16.94043 29.34509,-29.24523 29.3451,-29.24522 15.65965,15.85662 15.65967,15.85663 -30.32903,30.32901 -30.32903,30.32903 z"
       id="path3722" />
    <path
       style="fill:url(#linearGradient3746);fill-opacity:1;stroke:#3f3f44;stroke-width:2.87109;stroke-opacity:1"
       d="m 808.3447,841.23628 -30.05247,-30.15512 15.03925,-15.03925 15.03925,-15.03925 30.7929,30.79291 30.79291,30.7929 -14.1849,14.40145 c -7.80169,7.92081 -14.90256,14.40146 -15.77968,14.40146 -0.8771,0 -15.11839,-13.5698 -31.64726,-30.1551 z"
       id="path3738" />
    <path
       style="fill:url(#linearGradient3756);fill-opacity:1;stroke:#3f3f44;stroke-width:2.87109;stroke-opacity:1"
       d="m 140.7936,865.61943 -14.16894,-14.38525 31.43399,-31.53176 31.43399,-31.53177 15.16845,14.98002 15.16845,14.98003 -30.84107,30.937 c -16.96257,17.01533 -31.55765,30.93697 -32.43349,30.93697 -0.8758,0 -7.96847,-6.47335 -15.76138,-14.38524 z"
       id="path3748" />
  </g>
  <g
     inkscape:groupmode="layer"
     id="layer2"
     inkscape:label="Layer"
     style="display:inline">
    <circle
       style="display:inline;fill:url(#linearGradient1032);fill-opacity:1;stroke:#000000;stroke-width:4.16723"
       id="path3267"
       cx="493.6882"
       cy="499.82343"
       r="415.50662"
       inkscape:label="outer circle 2" />
    <path
       style="fill:url(#linearGradient5101);fill-opacity:1.0;stroke:#3f3f44;stroke-width:2.87109;stroke-opacity:1"
       d="M 469.22182,910.75733 C 353.81279,901.12247 256.0855,852.98516 184.29018,770.40927 136.15187,715.0426 105.52715,652.95473 89.955664,579.15747 81.751243,540.27465 80.918112,467.88146 88.217468,428.12077 124.21983,232.01038 295.51345,88.523434 493.62616,88.523434 c 141.17038,0 270.74949,71.976436 349.36451,194.059096 46.04637,71.50624 69.85801,174.16011 60.01177,258.71556 -17.37846,149.23928 -105.44447,271.39785 -240.20041,333.18808 -56.7135,26.00509 -136.80191,41.01129 -193.58021,36.27116 z m 89.98861,-121.8855 c 90.56221,-18.45215 165.68748,-76.52671 205.87181,-159.14639 17.03152,-35.01712 24.65239,-61.93883 28.64537,-101.19328 6.89351,-67.76932 -9.96221,-135.2594 -48.14777,-192.78292 C 643.56019,182.0647 424.79734,159.66328 293.93239,289.50031 c -47.48057,47.1076 -73.43363,96.08926 -84.48175,159.44383 -27.90305,160.00799 78.36605,312.69638 237.76175,341.61815 32.30302,5.86127 78.34514,5.16633 111.99804,-1.69046 z"
       id="path3769"
       inkscape:label="outer circle" />
    <circle
       style="display:inline;fill:url(#linearGradient1024);fill-opacity:1;stroke:#000000;stroke-width:4.16723"
       id="path3279"
       cx="500.18051"
       cy="506.31564"
       r="90.892067"
       inkscape:label="inner circle 2" />
    <circle
       style="display:inline;fill:url(#linearGradient1016);fill-opacity:1;stroke:#000000;stroke-width:4.16723"
       id="path3269"
       cx="500.18051"
       cy="499.82343"
       r="292.15311"
       inkscape:label="mid circle 3" />
    <path
       style="opacity:0.75;fill:url(#linearGradient1008);fill-opacity:1;stroke:#3f3f44;stroke-width:2.87109;stroke-opacity:1"
       d="M 464.91517,785.96209 C 368.72754,772.93086 284.81549,712.96182 242.45767,626.97942 203.39632,547.68853 201.96357,461.92259 238.32677,379.69894 276.75439,292.80728 366.09078,227.0779 464.1974,213.51428 c 12.46859,-1.72383 13.63772,-1.37818 13.63772,4.03266 0,5.53837 1.65805,5.91811 25.83989,5.91811 23.81678,0 25.83988,-0.4439 25.83988,-5.67041 0,-6.48683 2.78772,-6.28489 41.24499,2.98778 99.76267,24.0544 180.36908,104.33502 209.07403,208.22906 8.4755,30.67606 9.24332,107.29423 1.36407,136.11426 -23.31266,85.27057 -71.50338,147.87259 -145.45242,188.9495 -47.34109,26.29682 -116.62879,39.22991 -170.83035,31.88685 z m 77.51966,-195.67531 c 58.08747,-30.09815 69.09132,-108.16205 21.51894,-152.66045 -23.74447,-22.21019 -64.46046,-31.04255 -94.4025,-20.47839 -37.18635,13.12012 -63.4936,50.04524 -63.4936,89.12028 0,38.7774 25.32594,74.90495 62.48256,89.13152 17.55699,6.72228 56.21575,4.04737 73.8946,-5.11296 z"
       id="path3776"
       inkscape:label="mid circle 2" />
    <path
       style="fill:url(#linearGradient1231);fill-opacity:1;stroke:#3f3f44;stroke-width:2.87109;stroke-opacity:1"
       d="M 477.54801,784.3172 C 373.09419,771.91469 288.63138,713.04412 243.88495,621.45413 176.52063,483.56835 233.58483,316.59168 371.90541,246.85094 c 25.84835,-13.03266 51.33932,-22.1264 76.75896,-27.3833 27.69062,-5.72653 26.47527,-5.77493 28.27998,1.12624 1.35261,5.17212 3.91622,5.7422 25.82321,5.7422 18.69399,0 25.19524,-1.05266 28.09745,-4.54968 4.59296,-5.53414 18.28115,-3.96311 50.92421,5.84469 87.15268,26.18558 159.20226,96.01417 188.7819,182.96257 10.42612,30.64728 13.62821,58.09656 12.0622,103.40128 -1.18769,34.36222 -2.70458,45.07367 -9.27337,65.48622 -16.20666,50.36245 -42.55366,92.94215 -78.48115,126.83435 -47.49291,44.8024 -101.22702,69.36473 -168.04661,76.81555 -27.26662,3.0404 -32.58853,3.16848 -49.28418,1.18602 v 0 z m 59.41602,-189.17606 c 19.54412,-6.67992 37.75994,-24.06109 48.86243,-46.62352 8.32003,-16.90796 9.43216,-21.9169 9.39916,-42.33396 -0.033,-20.29229 -1.19433,-25.50714 -9.39006,-42.15488 -10.73885,-21.81376 -23.77666,-34.44266 -46.42793,-44.97194 -13.3406,-6.20128 -20.11154,-7.41209 -41.76193,-7.46806 -23.33547,-0.06 -27.32818,0.7575 -41.19552,8.4387 -55.52282,30.75416 -69.44522,102.94159 -28.7667,149.15483 12.48471,14.18337 31.71575,26.87523 46.51104,30.69578 12.78069,3.30029 46.75573,0.7363 62.76951,-4.73695 z"
       id="path3796"
       inkscape:label="mid circle" />
    <path
       style="fill:url(#linearGradient1000);fill-opacity:1;stroke:#3f3f44;stroke-width:2.87109;stroke-opacity:1"
       d="m 477.54801,589.99285 c -28.62176,-9.48129 -48.53831,-28.09213 -58.46989,-54.63667 -7.77092,-20.76964 -7.76152,-37.43139 0.033,-58.2638 13.10292,-35.02066 44.50106,-56.87239 81.40579,-56.65485 49.09461,0.2895 85.80388,37.01015 85.80388,85.83069 0,24.27397 -6.75299,41.16807 -23.88532,59.75444 -20.41173,22.14414 -58.19355,32.81283 -84.88734,23.97019 z"
       id="path3808"
       inkscape:label="inner circle" />
  </g>
  <g
     inkscape:groupmode="layer"
     id="layer3"
     inkscape:label="Layer#1"
     style="display:inline">
    <rect
       style="display:inline;fill:#ffffff;fill-opacity:0;stroke:#000000;stroke-width:4.16723"
       id="rect3275"
       width="45.446014"
       height="149.32266"
       x="480.70364"
       y="71.331993" />
    <rect
       style="display:inline;fill:#ffffff;fill-opacity:0;stroke:#000000;stroke-width:4.59833"
       id="rect3277"
       width="151.63339"
       height="45.01553"
       x="66.912888"
       y="480.5618" />
    <rect
       style="display:inline;fill:#ffffff;fill-opacity:0;stroke:#000000;stroke-width:4.16723"
       id="rect3273"
       width="103.87662"
       height="45.446026"
       x="798.82587"
       y="480.34619" />
    <rect
       style="display:inline;fill:#ffffff;fill-opacity:0;stroke:#000000;stroke-width:4.78841"
       id="rect3271"
       width="44.824833"
       height="156.43546"
       x="481.01428"
       y="772.93921" />
    <path
       style="fill:url(#linearGradient3839);fill-opacity:1;stroke:#3f3f44;stroke-width:2.87109;stroke-opacity:1"
       d="M 483.57732,145.9454 V 74.167944 h 20.09769 20.09768 v 71.777456 71.77745 h -20.09768 -20.09769 z"
       id="path3823" />
    <path
       style="fill:url(#linearGradient3849);fill-opacity:1;stroke:#3f3f44;stroke-width:3.31409;stroke-opacity:1"
       d="m 788.13522,503.39713 v -18.44064 h 65.81375 65.81378 v 18.44064 18.44064 h -65.81378 -65.81375 z"
       id="path3841" />
    <path
       style="fill:url(#linearGradient3859);fill-opacity:1;stroke:#3f3f44;stroke-width:2.87109;stroke-opacity:1"
       d="m 70.139172,503.39713 v -18.66214 h 71.777458 71.77744 v 18.66214 18.66213 H 141.91663 70.139172 Z"
       id="path3851" />
    <path
       style="fill:url(#linearGradient3869);fill-opacity:1;stroke:#3f3f44;stroke-width:2.40289;stroke-opacity:1"
       d="m 72.681061,503.3177 v -15.61877 h 69.683759 69.68375 v 15.61877 15.61876 H 142.36482 72.681061 Z"
       id="path3861" />
    <path
       style="fill:url(#linearGradient3879);fill-opacity:1;stroke:#3f3f44;stroke-width:2.40289;stroke-opacity:1"
       d="M 483.57495,850.53504 V 776.0455 h 19.2231 19.22311 v 74.48954 74.48953 h -19.22311 -19.2231 z"
       id="path3871" />
  </g>
</svg>
