<svg id="Capa_1" enable-background="new 0 0 512 512" height="512" viewBox="0 0 512 512" width="512" xmlns="http://www.w3.org/2000/svg"><g><g><path d="m102.063 235.405c2.111-2.992 2.814-6.473 1.956-9.675l-12.941-48.296c-1.787-6.668-9.722-10.336-17.724-8.192l-57.956 15.529c-8.002 2.144-12.751 10.369-10.607 18.371l11.647 43.467c2.144 8.002 10.369 12.751 18.371 10.607l57.956-15.529c3.843-1.03 7.187-3.29 9.298-6.282z" fill="#ff5e82"/><g><g><path d="m16.438 246.609c2.144 8.002 10.369 12.751 18.371 10.607l57.956-15.529c3.843-1.03 7.187-3.289 9.297-6.282 2.111-2.992 2.814-6.473 1.956-9.675l-6.471-24.148-86.934 23.294z" fill="#b7457d"/></g></g><path d="m60.806 180.369c-4.995-18.641 6.108-37.871 24.749-42.866l38.637-10.353c8.002-2.144 16.227 2.605 18.371 10.607l25.882 96.592c1.03 3.842.49 7.937-1.499 11.382s-5.265 5.959-9.108 6.989l-38.637 10.353c-18.642 4.995-37.871-6.108-42.866-24.749z" fill="#5e54ac"/><g><path d="m76.335 238.324c4.995 18.641 24.224 29.744 42.866 24.749l38.637-10.353c3.842-1.03 7.119-3.544 9.108-6.989s2.528-7.54 1.499-11.382l-12.941-48.296-86.934 23.294z" fill="#453d81"/></g><path d="m112.291 140.692c-4.288-16.004 5.209-32.454 21.213-36.742l236.652-63.411c8.002-2.144 16.227 2.605 18.371 10.607l36.235 135.23c2.144 8.002-2.605 16.227-10.607 18.371l-236.651 63.41c-16.004 4.288-32.454-5.209-36.742-21.213z" fill="#ff5e82"/><path d="m424.762 186.375-18.117-67.615-280.118 75.057 14.235 53.126c4.288 16.004 20.738 25.501 36.742 21.213l236.651-63.41c8.002-2.144 12.751-10.369 10.607-18.371z" fill="#b7457d"/><path d="m354.373 39.591c-1.03-3.842-.49-7.937 1.499-11.382s5.265-5.959 9.108-6.989l77.274-20.705c8.002-2.144 16.227 2.605 18.371 10.607l46.588 173.867c1.03 3.842.491 7.937-1.499 11.382-1.989 3.445-5.265 5.959-9.108 6.989l-77.274 20.706c-8.002 2.144-16.227-2.605-18.371-10.607z" fill="#5e54ac"/><path d="m505.714 196.37c1.99-3.445 2.528-7.54 1.499-11.382l-23.294-86.933-106.252 28.47 23.294 86.933c2.144 8.002 10.369 12.751 18.371 10.607l77.274-20.706c3.843-1.03 7.119-3.544 9.108-6.989z" fill="#453d81"/></g><g><path d="m389.523 490.506-107.015-222.949c-2.497-5.201-7.754-8.509-13.523-8.509h-25.97c-5.769 0-11.026 3.308-13.523 8.509l-107.015 222.949c-3.585 7.468-.437 16.429 7.032 20.014 7.468 3.584 16.428.437 20.014-7.032l91.477-190.578v184.087c0 8.284 6.716 15 15 15s15-6.716 15-15v-184.087l91.477 190.578c2.58 5.375 7.945 8.513 13.534 8.513 2.176 0 4.387-.476 6.48-1.48 7.468-3.586 10.617-12.547 7.032-20.015z" fill="#5e54ac"/><path d="m282.508 267.557c-2.497-5.201-7.754-8.509-13.523-8.509h-12.985v252.949c8.284 0 15-6.716 15-15v-184.087l91.477 190.578c2.58 5.375 7.945 8.513 13.534 8.513 2.176 0 4.387-.476 6.48-1.48 7.469-3.585 10.617-12.545 7.032-20.014z" fill="#453d81"/><path d="m256 292c-24.813 0-45-20.187-45-45s20.187-45 45-45 45 20.187 45 45-20.187 45-45 45z" fill="#f2faff"/></g><g><path d="m256 202v90c24.813 0 45-20.187 45-45s-20.187-45-45-45z" fill="#c8eafa"/></g></g></svg>