<?xml version="1.0" encoding="UTF-8" standalone="no"?>
<!-- Uploaded to: SVG Repo, www.svgrepo.com, Generator: SVG Repo Mixer Tools -->

<svg
   height="800px"
   width="800px"
   version="1.1"
   id="Layer_1"
   viewBox="0 0 512 512"
   xml:space="preserve"
   sodipodi:docname="wiki.svg"
   inkscape:version="1.3 (0e150ed6c4, 2023-07-21)"
   xmlns:inkscape="http://www.inkscape.org/namespaces/inkscape"
   xmlns:sodipodi="http://sodipodi.sourceforge.net/DTD/sodipodi-0.dtd"
   xmlns="http://www.w3.org/2000/svg"
   xmlns:svg="http://www.w3.org/2000/svg"><defs
   id="defs4" /><sodipodi:namedview
   id="namedview4"
   pagecolor="#505050"
   bordercolor="#eeeeee"
   borderopacity="1"
   inkscape:showpageshadow="0"
   inkscape:pageopacity="0"
   inkscape:pagecheckerboard="0"
   inkscape:deskcolor="#d1d1d1"
   inkscape:zoom="1.07625"
   inkscape:cx="399.53542"
   inkscape:cy="400"
   inkscape:window-width="1350"
   inkscape:window-height="1041"
   inkscape:window-x="2154"
   inkscape:window-y="47"
   inkscape:window-maximized="0"
   inkscape:current-layer="Layer_1" />&#10;<path
   style="display:inline;fill:#2b1100"
   d="m 161.392,407.284 c 0.024,0.067 0.051,0.133 0.078,0.198 2.3,5.65 9.296,22.849 24.588,22.849 13.121,0 21.336,-12.811 26.374,-22.446 0.045,-0.088 0.094,-0.18 0.137,-0.269 10.564,-21.549 29.648,-64.052 44.626,-97.806 19.679,47.421 33.456,80.033 41.013,97.086 2.498,5.68 10.098,22.968 25.288,22.969 h 0.003 c 14.765,0 22.679,-16.584 25.279,-22.032 0.095,-0.2 0.183,-0.401 0.268,-0.605 26.626,-65.046 104.797,-261.683 105.584,-263.662 0.059,-0.151 0.117,-0.302 0.17,-0.457 2.715,-7.758 6.324,-13.57 10.984,-17.728 1.388,-1.226 3.135,-2.258 5.184,-3.12 h 18.367 c 6.857,0 12.466,-5.611 12.466,-12.466 V 94.138 c 0,-6.857 -5.611,-12.466 -12.466,-12.466 H 383.49 c -6.857,0 -12.466,5.611 -12.466,12.466 v 15.657 c 0,6.857 5.611,12.466 12.466,12.466 h 28.915 c 0.07,0.064 -78.973,207.054 -78.973,207.054 l -42.584,-95.768 c 0,0 55.916,-110.986 56.117,-111.288 h 11.789 c 6.857,0 12.466,-5.611 12.466,-12.466 V 94.137 c 0,-6.857 -5.611,-12.466 -12.466,-12.466 h -84.167 c -6.857,0 -12.466,5.611 -12.466,12.466 v 15.657 c 0,6.857 5.611,12.466 12.466,12.466 h 18.284 c -0.467,1.527 -25.799,57.729 -25.799,57.729 0,0 -24.051,-53.879 -25.587,-57.729 h 8.395 c 6.858,0 12.466,-5.611 12.466,-12.466 V 94.137 c 0,-6.857 -5.609,-12.466 -12.466,-12.466 h -86.948 c -6.857,0 -12.466,5.611 -12.466,12.466 v 15.657 c 0,6.857 5.611,12.466 12.466,12.466 h 10.877 c 2.119,3.161 55.807,120.814 59.908,130.758 l -34.988,76.665 C 178.643,282.849 130.488,169.944 114.17,126.215 c -0.596,-1.556 -1.028,-2.851 -1.365,-3.955 h 24.883 c 6.857,0 12.466,-5.611 12.466,-12.466 V 94.137 c 0,-6.857 -5.611,-12.466 -12.466,-12.466 H 22.666 c -6.856,0 -12.466,5.61 -12.466,12.466 v 15.657 c 0,6.857 5.611,12.466 12.466,12.466 h 19.627 z"
   id="path1" />&#10;<g
   id="g4"
   style="fill:#ff6600;fill-opacity:1">&#10;	<path
   style="display:inline;fill:#ff6600;fill-opacity:1"
   d="m 186.058,440.53 c -14.696,0 -26.146,-9.823 -34.033,-29.197 -0.035,-0.086 -0.067,-0.167 -0.098,-0.246 L 35.502,132.461 H 22.667 C 10.169,132.461 0,122.293 0,109.794 V 94.137 C 0,81.639 10.169,71.47 22.667,71.47 H 137.69 c 4.668,0 9.011,1.419 12.622,3.847 3.609,-2.429 7.952,-3.847 12.622,-3.847 h 86.948 c 4.553,0 8.797,1.349 12.353,3.67 3.555,-2.32 7.799,-3.67 12.353,-3.67 h 84.167 c 4.56,0 8.809,1.353 12.368,3.68 3.56,-2.326 7.809,-3.68 12.369,-3.68 H 489.335 C 501.831,71.47 512,81.638 512,94.137 v 15.656 c 0,12.498 -10.169,22.666 -22.667,22.666 h -16.009 c -0.394,0.239 -0.644,0.436 -0.79,0.565 -3.316,2.959 -5.981,7.37 -8.109,13.453 -0.077,0.226 -0.186,0.516 -0.299,0.806 -0.006,0.017 -0.039,0.097 -0.045,0.113 -3.231,8.127 -79.426,199.758 -105.598,263.694 -0.183,0.439 -0.338,0.788 -0.503,1.136 -8.813,18.47 -20.415,27.837 -34.482,27.837 -14.498,-10e-4 -26.147,-9.778 -34.626,-29.06 -6.358,-14.347 -17.1,-39.663 -31.998,-75.403 -12.649,28.302 -26.641,59.151 -35.147,76.503 -0.053,0.11 -0.136,0.272 -0.217,0.428 -3.651,6.984 -14.638,27.999 -35.452,27.999 z m -15.136,-36.88 c 1.679,4.125 6.727,16.482 15.136,16.482 5.693,0 11.364,-5.551 17.336,-16.974 10.636,-21.693 30.056,-64.984 44.479,-97.487 1.637,-3.69 5.293,-6.062 9.322,-6.062 0.042,0 0.083,0 0.124,0.001 4.078,0.049 7.734,2.522 9.297,6.289 19.619,47.277 33.385,79.868 40.917,96.864 1.848,4.202 7.432,16.9 15.964,16.901 8.334,0 14.161,-12.213 16.075,-16.226 l 0.067,-0.158 c 26.1,-63.76 102.257,-255.299 105.487,-263.421 l 0.04,-0.101 c 3.307,-9.45 7.827,-16.636 13.826,-21.988 2.216,-1.958 4.903,-3.599 8.021,-4.911 1.252,-0.526 2.597,-0.798 3.954,-0.798 h 18.367 c 1.229,0 2.268,-1.038 2.268,-2.267 V 94.138 c 0,-1.23 -1.039,-2.268 -2.268,-2.268 H 383.49 c -0.923,0 -1.738,0.585 -2.087,1.396 0.011,0.289 0.016,0.58 0.016,0.871 v 15.656 c 0,0.293 -0.005,0.583 -0.016,0.872 0.349,0.812 1.165,1.397 2.087,1.397 h 28.915 c 2.535,0 4.978,0.943 6.856,2.648 5.148,4.673 2.975,10.413 1.808,13.498 -0.576,1.524 -1.424,3.755 -2.504,6.595 -2.155,5.668 -5.238,13.762 -8.94,23.471 -7.401,19.415 -17.275,45.297 -27.152,71.176 -19.753,51.757 -39.514,103.505 -39.514,103.505 -1.474,3.857 -5.127,6.446 -9.255,6.557 -4.125,0.106 -7.915,-2.279 -9.592,-6.052 l -42.584,-95.768 c -1.243,-2.796 -1.166,-6.001 0.211,-8.734 56.188,-111.526 56.25,-111.618 56.724,-112.334 1.89,-2.851 5.081,-4.564 8.501,-4.564 h 11.789 c 0.922,0 1.738,-0.584 2.087,-1.396 -0.011,-0.289 -0.016,-0.578 -0.016,-0.87 V 94.137 c 0,-0.292 0.005,-0.582 0.016,-0.871 -0.349,-0.811 -1.165,-1.396 -2.087,-1.396 h -84.167 c -0.899,0 -1.695,0.555 -2.059,1.334 0.012,0.309 0.019,0.621 0.019,0.934 v 15.657 c 0,0.313 -0.006,0.625 -0.019,0.934 0.363,0.779 1.161,1.334 2.059,1.334 h 18.283 c 3.233,0 6.276,1.533 8.199,4.134 1.924,2.6 2.5,5.957 1.553,9.05 -0.229,0.75 -0.657,2.145 -26.254,58.936 -1.648,3.656 -5.288,6.008 -9.299,6.008 -0.006,0 -0.012,0 -0.018,0 -4.017,-0.007 -7.658,-2.373 -9.295,-6.042 -2.47,-5.534 -24.179,-54.179 -25.746,-58.105 -1.253,-3.142 -0.869,-6.701 1.029,-9.502 1.898,-2.801 5.061,-4.478 8.444,-4.478 h 8.396 c 0.899,0 1.695,-0.555 2.059,-1.334 -0.012,-0.309 -0.019,-0.621 -0.019,-0.934 V 94.137 c 0,-0.313 0.006,-0.625 0.019,-0.934 -0.363,-0.779 -1.161,-1.334 -2.059,-1.334 H 162.93 c -1.229,0 -2.267,1.038 -2.267,2.268 v 15.657 c 0,1.23 1.038,2.268 2.267,2.268 h 10.877 c 3.4,0 6.576,1.694 8.47,4.518 3.725,5.553 60.419,131.464 60.867,132.55 1.077,2.612 1.023,5.553 -0.15,8.124 l -34.988,76.665 c -1.659,3.636 -5.288,5.964 -9.277,5.964 -0.04,0 -0.079,0 -0.118,0 -4.037,-0.047 -7.666,-2.469 -9.257,-6.179 -20.011,-46.658 -68.324,-159.929 -84.741,-203.923 -0.586,-1.533 -1.108,-3.045 -1.566,-4.547 -0.942,-3.091 -0.363,-6.447 1.559,-9.044 1.924,-2.597 4.964,-4.129 8.196,-4.129 h 24.884 c 1.23,0 2.268,-1.038 2.268,-2.268 V 94.137 c 0,-1.23 -1.038,-2.268 -2.268,-2.268 H 22.667 c -1.229,0 -2.268,1.038 -2.268,2.268 v 15.657 c 0,1.23 1.039,2.268 2.268,2.268 h 19.627 c 4.113,0 7.825,2.471 9.411,6.267 l 119.098,285.023 c 0.041,0.098 0.081,0.197 0.119,0.298 z M 127.469,132.461 c 16.33,42.084 50.501,122.715 71.56,172.004 l 23.532,-51.561 C 213.52,232.367 177.475,153.591 167.47,132.462 h -4.537 c -4.668,0 -9.011,-1.419 -12.622,-3.847 -3.611,2.429 -7.953,3.847 -12.622,3.847 h -10.221 v -10e-4 z m 174.662,101.358 30.583,68.781 c 22.129,-57.958 52.831,-138.394 64.916,-170.14 h -14.14 c -4.56,0 -8.811,-1.354 -12.37,-3.681 -3.559,2.326 -7.807,3.679 -12.367,3.679 h -5.525 c -8.544,16.915 -34.817,69.048 -51.097,101.361 z m -45.5,-102.384 c 2.936,6.636 6.688,15.076 10.484,23.604 3.617,-8.048 7.224,-16.094 10.121,-22.577 h -2.649 c -4.553,0 -8.797,-1.349 -12.353,-3.67 -1.721,1.121 -3.603,2.017 -5.603,2.643 z"
   id="path2" />&#10;	<path
   style="display:none;fill:#ff6600;fill-opacity:1"
   d="m 175.43,376.353 c -4.005,0 -7.805,-2.374 -9.43,-6.307 l -36.667,-88.733 c -2.151,-5.206 0.325,-11.17 5.531,-13.321 5.205,-2.151 11.17,0.325 13.321,5.531 l 36.667,88.733 c 2.151,5.206 -0.325,11.17 -5.531,13.321 -1.273,0.527 -2.593,0.776 -3.891,0.776 z"
   id="path3" />&#10;	<path
   style="display:none;fill:#ff6600;fill-opacity:1"
   d="m 125.454,255.412 c -4.006,0 -7.805,-2.374 -9.43,-6.307 l -1.02,-2.468 c -2.151,-5.206 0.325,-11.17 5.532,-13.321 5.205,-2.151 11.17,0.325 13.321,5.532 l 1.02,2.468 c 2.151,5.206 -0.325,11.17 -5.532,13.321 -1.274,0.526 -2.593,0.775 -3.891,0.775 z"
   id="path4" />&#10;</g>&#10;</svg>
