<?xml version="1.0" encoding="UTF-8" standalone="no"?>
<svg
   width="24"
   height="24"
   fill="none"
   id="volume"
   version="1.1"
   sodipodi:docname="volume.svg"
   inkscape:version="1.4.2 (ebf0e940, 2025-05-08)"
   xmlns:inkscape="http://www.inkscape.org/namespaces/inkscape"
   xmlns:sodipodi="http://sodipodi.sourceforge.net/DTD/sodipodi-0.dtd"
   xmlns="http://www.w3.org/2000/svg"
   xmlns:svg="http://www.w3.org/2000/svg">
  <defs
     id="defs2" />
  <sodipodi:namedview
     id="namedview2"
     pagecolor="#ffffff"
     bordercolor="#000000"
     borderopacity="0.25"
     inkscape:showpageshadow="2"
     inkscape:pageopacity="0.0"
     inkscape:pagecheckerboard="0"
     inkscape:deskcolor="#d1d1d1"
     inkscape:zoom="34.666667"
     inkscape:cx="12.014423"
     inkscape:cy="12"
     inkscape:window-width="976"
     inkscape:window-height="987"
     inkscape:window-x="0"
     inkscape:window-y="31"
     inkscape:window-maximized="0"
     inkscape:current-layer="volume" />
  <path
     fill="#000"
     fill-rule="evenodd"
     d="M10.837 3.919c1.129-1.003 2.913-.202 2.913 1.308v13.546c0 1.51-1.784 2.311-2.913 1.308L7.09 16.75H4A1.75 1.75 0 0 1 2.25 15V9c0-.967.784-1.75 1.75-1.75h3.09l3.747-3.331zm1.413 1.308a.25.25 0 0 0-.416-.187l-3.96 3.52a.75.75 0 0 1-.499.19H4a.25.25 0 0 0-.25.25v6c0 .138.112.25.25.25h3.375a.75.75 0 0 1 .498.19l3.96 3.52a.25.25 0 0 0 .417-.187V5.227zm2.915 3.102a.75.75 0 0 1 1.006.336l.382.763a5.75 5.75 0 0 1 0 5.143l-.382.764a.75.75 0 0 1-1.342-.67l.382-.764a4.25 4.25 0 0 0 0-3.802l-.382-.764a.75.75 0 0 1 .336-1.006z"
     clip-rule="evenodd"
     id="path1"
     style="fill:#ccaa00;fill-opacity:1" />
  <path
     fill="#000"
     fill-rule="evenodd"
     d="M17.721 6.304a.75.75 0 0 1 .975.417l.96 2.4a7.75 7.75 0 0 1 0 5.757l-.96 2.4a.75.75 0 1 1-1.392-.557l.96-2.4a6.25 6.25 0 0 0 0-4.642l-.96-2.4a.75.75 0 0 1 .417-.975Z"
     clip-rule="evenodd"
     id="path2"
     style="fill:#ccaa00;fill-opacity:1" />
</svg>
