<?xml version="1.0" encoding="UTF-8" standalone="no"?>
<!-- Created with Inkscape (http://www.inkscape.org/) -->

<svg
   xmlns:dc="http://purl.org/dc/elements/1.1/"
   xmlns:cc="http://creativecommons.org/ns#"
   xmlns:rdf="http://www.w3.org/1999/02/22-rdf-syntax-ns#"
   xmlns:svg="http://www.w3.org/2000/svg"
   xmlns="http://www.w3.org/2000/svg"
   xmlns:sodipodi="http://sodipodi.sourceforge.net/DTD/sodipodi-0.dtd"
   xmlns:inkscape="http://www.inkscape.org/namespaces/inkscape"
   width="178.8125"
   height="269.9375"
   id="svg2443"
   sodipodi:version="0.32"
   inkscape:version="0.48.3.1 r9886"
   sodipodi:docname="inflatable_greenhouse_const.svg"
   inkscape:output_extension="org.inkscape.output.svg.inkscape"
   version="1.0">
  <defs
     id="defs2445" />
  <sodipodi:namedview
     id="base"
     pagecolor="#ffffff"
     bordercolor="#666666"
     borderopacity="1.0"
     gridtolerance="10000"
     guidetolerance="10"
     objecttolerance="10"
     inkscape:pageopacity="0.0"
     inkscape:pageshadow="2"
     inkscape:zoom="3.379607"
     inkscape:cx="130.58199"
     inkscape:cy="151.11563"
     inkscape:document-units="px"
     inkscape:current-layer="layer3"
     showgrid="true"
     inkscape:snap-global="true"
     inkscape:window-width="1871"
     inkscape:window-height="1056"
     inkscape:window-x="49"
     inkscape:window-y="24"
     inkscape:window-maximized="1"
     showguides="true"
     inkscape:guide-bbox="true"
     inkscape:snap-grids="false"
     fit-margin-top="0"
     fit-margin-left="0"
     fit-margin-right="0"
     fit-margin-bottom="0">
    <inkscape:grid
       type="xygrid"
       id="grid2459"
       visible="true"
       enabled="true"
       empspacing="5"
       snapvisiblegridlinesonly="true"
       originx="-0.15625px"
       originy="0.78381348px" />
  </sodipodi:namedview>
  <metadata
     id="metadata2448">
    <rdf:RDF>
      <cc:Work
         rdf:about="">
        <dc:format>image/svg+xml</dc:format>
        <dc:type
           rdf:resource="http://purl.org/dc/dcmitype/StillImage" />
        <dc:title />
      </cc:Work>
    </rdf:RDF>
  </metadata>
  <g
     inkscape:groupmode="layer"
     id="layer4"
     inkscape:label="Floor"
     sodipodi:insensitive="true"
     transform="translate(-0.15625,0.1875)">
    <rect
       style="fill:#ffffff;fill-opacity:1;stroke:none;display:inline"
       id="rect3595"
       width="177.21829"
       height="259.79141"
       x="0.96576726"
       y="9.1747894"
       ry="24.14286" />
  </g>
  <g
     inkscape:label="Interior"
     inkscape:groupmode="layer"
     id="layer1"
     style="opacity:0.5;display:inline"
     transform="translate(-287.69515,-367.26306)"
     sodipodi:insensitive="true">
    <rect
       ry="24.14286"
       y="9.1747894"
       x="0.96576726"
       height="259.79141"
       width="177.21829"
       id="rect4148"
       style="fill:#e7e5e7;fill-opacity:1;stroke:none;display:inline"
       transform="translate(287.5389,367.45056)" />
    <rect
       style="fill:#8c480b;fill-opacity:1;fill-rule:evenodd;stroke:#000000;stroke-width:1;stroke-miterlimit:4;stroke-opacity:1;stroke-dasharray:none"
       id="rect2457"
       width="59.339314"
       height="220"
       x="303.19958"
       y="401.41675"
       ry="0.7863937" />
    <rect
       style="fill:#8c480b;fill-opacity:1;fill-rule:evenodd;stroke:#000000;stroke-width:1.03864193;stroke-miterlimit:4;stroke-opacity:1;stroke-dasharray:none"
       id="rect2461"
       width="59.999989"
       height="220"
       x="392.53891"
       y="401.41675"
       ry="0.78440291" />
  </g>
  <g
     inkscape:groupmode="layer"
     id="layer3"
     inkscape:label="Frame"
     style="display:inline"
     transform="translate(-0.15625,0.1875)">
    <path
       style="color:#000000;fill:#dfe0e2;fill-opacity:1;fill-rule:nonzero;stroke:none;stroke-width:1px;marker:none;visibility:visible;display:inline;overflow:visible;enable-background:accumulate"
       d="M 19.755588,267.18446 C 11.759755,264.95675 5.8360526,259.20893 3.1009088,251.02427 l -1.1031297,-3.30101 0,-112.88818 c 0,-108.12145 0.03745,-113.014736 0.8869062,-115.885217 C 5.4289626,10.352248 11.741959,4.1584419 20.136766,2.0235065 22.802634,1.3455332 26.582185,1.2174273 43.918786,1.2174273 l 20.612424,0 0,1.9980214 0,1.9980204 -21.145426,0 c -22.90946,0 -24.511974,0.1542136 -28.834936,2.774842 -2.864774,1.7366583 -5.8690105,5.2362209 -7.4053328,8.6262929 l -1.284667,2.834765 0,115.385711 0,115.38571 1.3878872,3.1081 c 2.2611611,5.06377 6.9707466,9.08576 12.3742966,10.56768 1.646456,0.45155 18.84612,0.56134 70.983895,0.45315 l 68.810923,-0.14279 3.23566,-1.58562 c 5.67929,-2.78312 9.34518,-7.70518 10.52282,-14.12864 0.67051,-3.65725 0.67051,-223.657931 0,-227.315187 -1.1584,-6.318494 -4.96898,-11.4053906 -10.61836,-14.1748794 l -3.14012,-1.5393817 -21.36761,-0.1490043 -21.3676,-0.1490032 0,-2.0029111 0,-2.0029101 20.88472,0.1716798 c 19.92376,0.163781 21.01074,0.2207187 23.62351,1.2374299 7.62661,2.967745 12.79798,8.6615481 15.07405,16.5968971 0.7056,2.460025 0.77818,13.224856 0.77818,115.41993 0,102.19506 -0.0726,112.95989 -0.77818,115.41992 -2.50247,8.72469 -8.63995,14.9492 -16.91677,17.15666 -2.64094,0.70435 -10.33587,0.7877 -70.018132,0.75844 -56.049851,-0.0275 -67.465132,-0.14821 -69.57443,-0.73589 l 0,0 z"
       id="path3608"
       inkscape:connector-curvature="0" />
    <path
       style="color:#000000;fill:#a1a6a2;fill-opacity:0.37320575;fill-rule:nonzero;stroke:none;stroke-width:1px;marker:none;visibility:visible;display:inline;overflow:visible;enable-background:accumulate"
       d="m 20.494892,262.097 c -4.702036,-1.14653 -9.230072,-5.06746 -11.4096294,-9.87987 l -1.2928799,-2.85465 0,-114.75716 0,-114.75718 1.3091552,-2.891439 C 10.818889,13.163708 14.508045,9.4754822 18.075865,7.9846381 20.832107,6.832919 21.128253,6.8171554 42.775226,6.6699111 l 21.909669,-0.1490302 0,7.7911571 0,7.791155 26.146347,0 26.146338,0 0,-7.796517 0,-7.7965184 20.94129,0.1543924 20.94129,0.1543924 3.01282,1.4403098 c 3.87087,1.8505058 7.33593,5.5888738 8.89542,9.5970548 l 1.16494,2.994079 0.13391,111.499864 c 0.091,75.84249 -0.0283,112.59344 -0.37307,114.9194 -0.63113,4.25685 -2.20706,7.50378 -4.92514,10.14738 -2.83335,2.75573 -4.24062,3.59412 -7.51373,4.47647 -2.40383,0.64803 -11.80118,0.74197 -69.857324,0.69841 -37.140846,-0.0278 -67.893601,-0.24876 -68.903094,-0.49491 l 0,0 z M 138.95362,244.11288 c 8.71236,-1.47665 15.8285,-8.84163 17.25527,-17.85865 0.63104,-3.9881 0.63104,-179.810862 0,-183.798955 -1.36421,-8.621651 -7.63864,-15.643294 -15.74801,-17.623407 -4.51415,-1.102247 -96.592124,-1.062018 -100.694924,0.044 -6.180967,1.666233 -11.145658,5.980339 -13.960943,12.131467 l -1.550116,3.386854 -0.137655,92.707761 c -0.1048,70.58065 1.72e-4,93.24598 0.439811,94.96281 2.208187,8.62317 8.263499,14.19686 17.612933,16.21207 2.112397,0.45531 94.048824,0.29959 96.783634,-0.16394 l 0,0 z"
       id="path3614"
       inkscape:connector-curvature="0" />
    <path
       style="fill:#d4d6d5;fill-opacity:1;stroke:none"
       d="m 64.638807,3.2240641 0,-1.7013812 25.964557,0 25.964556,0 0,1.7013812 0,1.7013813 -25.964556,0 -25.964557,0 0,-1.7013813 z"
       id="path3765"
       inkscape:connector-curvature="0" />
    <path
       style="fill:#d4d6d5;fill-opacity:1;stroke:none"
       d="m 64.638807,15.429625 0,-6.2137399 26.112503,0 26.1125,0 0,6.2137399 0,6.213741 -26.1125,0 -26.112503,0 0,-6.213741 z"
       id="path3767"
       inkscape:connector-curvature="0" />
    <path
       style="fill:#dfe0e2;fill-opacity:1;stroke:none"
       d="m 64.638807,7.8103963 0,-1.2575427 25.964557,0 25.964556,0 0,1.2575427 0,1.2575426 -25.964556,0 -25.964557,0 0,-1.2575426 z"
       id="path3769"
       inkscape:connector-curvature="0" />
    <path
       style="fill:#dfe0e2;fill-opacity:1;stroke:none"
       d="m 64.638807,3.2240641 0,-1.7013812 25.964557,0 25.964556,0 0,1.7013812 0,1.7013813 -25.964556,0 -25.964557,0 0,-1.7013813 z"
       id="path3771"
       inkscape:connector-curvature="0" />
    <path
       style="fill:none;stroke:#1a1a21;stroke-width:1.59868824;stroke-linecap:round;stroke-linejoin:miter;stroke-miterlimit:4;stroke-opacity:1;stroke-dashoffset:0;display:inline"
       d="m 25.108628,0.62031264 128.932572,0 c 13.37514,0 24.14286,11.12227736 24.14286,24.93784236 l 0,218.470205 c 0,13.81557 -10.76772,24.93784 -24.14286,24.93784 l -128.932572,0 c -13.375145,0 -24.14286074,-11.12227 -24.14286074,-24.93784 l 0,-218.470205 C 0.96576726,11.74259 11.733483,0.62031264 25.108628,0.62031264 z"
       id="rect3600"
       inkscape:connector-curvature="0" />
    <path
       style="fill:none;stroke:#1a1a21;stroke-width:1.60177076;stroke-linecap:round;stroke-linejoin:miter;stroke-miterlimit:4;stroke-opacity:1;stroke-dashoffset:0;display:inline"
       d="m 24.314024,5.7502834 130.406216,0 c 9.89742,0 17.86537,8.2620966 17.86537,18.5248796 l 0,220.854427 c 0,10.26279 -7.96795,18.52488 -17.86537,18.52488 l -130.406216,0 c -9.897417,0 -17.8653732,-8.26209 -17.8653732,-18.52488 l 0,-220.854427 c 0,-10.262783 7.9679562,-18.5248796 17.8653732,-18.5248796 z"
       id="rect3597"
       inkscape:connector-curvature="0" />
    <rect
       style="fill:none;stroke:#4e4c4d;stroke-width:2.05163503;stroke-miterlimit:4;stroke-opacity:1;stroke-dasharray:none"
       id="rect3610"
       width="130"
       height="220.98329"
       x="25"
       y="22.982901"
       rx="20"
       ry="21.046028" />
  </g>
</svg>
