<?xml version="1.0" encoding="UTF-8" standalone="no"?>
<!-- Created with Inkscape (http://www.inkscape.org/) -->

<svg
   xmlns:dc="http://purl.org/dc/elements/1.1/"
   xmlns:cc="http://creativecommons.org/ns#"
   xmlns:rdf="http://www.w3.org/1999/02/22-rdf-syntax-ns#"
   xmlns:svg="http://www.w3.org/2000/svg"
   xmlns="http://www.w3.org/2000/svg"
   xmlns:xlink="http://www.w3.org/1999/xlink"
   xmlns:sodipodi="http://sodipodi.sourceforge.net/DTD/sodipodi-0.dtd"
   xmlns:inkscape="http://www.inkscape.org/namespaces/inkscape"
   width="160"
   height="240"
   id="svg2"
   version="1.1"
   inkscape:version="0.47 r22583"
   sodipodi:docname="md1_nuclear_reactor_const.svg">
  <defs
     id="defs4">
    <linearGradient
       id="linearGradient3797">
      <stop
         style="stop-color:#d56666;stop-opacity:1;"
         offset="0"
         id="stop3799" />
      <stop
         style="stop-color:#832424;stop-opacity:0.99215686;"
         offset="1"
         id="stop3801" />
    </linearGradient>
    <linearGradient
       id="linearGradient3641">
      <stop
         style="stop-color:#c87137;stop-opacity:1;"
         offset="0"
         id="stop3643" />
      <stop
         style="stop-color:#ffffff;stop-opacity:1;"
         offset="1"
         id="stop3645" />
    </linearGradient>
    <linearGradient
       id="linearGradient3623">
      <stop
         style="stop-color:#666666;stop-opacity:1;"
         offset="0"
         id="stop3625" />
      <stop
         id="stop3631"
         offset="0.40580109"
         style="stop-color:#ffffff;stop-opacity:1;" />
      <stop
         style="stop-color:#000000;stop-opacity:1;"
         offset="1"
         id="stop3627" />
    </linearGradient>
    <linearGradient
       inkscape:collect="always"
       xlink:href="#linearGradient3623"
       id="linearGradient3629"
       x1="130.30968"
       y1="109.18524"
       x2="4.0406108"
       y2="109.18525"
       gradientUnits="userSpaceOnUse" />
    <linearGradient
       inkscape:collect="always"
       xlink:href="#linearGradient3641"
       id="linearGradient3647"
       x1="150.81473"
       y1="34.999996"
       x2="119.69037"
       y2="34.999996"
       gradientUnits="userSpaceOnUse" />
    <linearGradient
       inkscape:collect="always"
       xlink:href="#linearGradient3641"
       id="linearGradient3655"
       x1="9.5"
       y1="35"
       x2="40.5"
       y2="35"
       gradientUnits="userSpaceOnUse" />
    <linearGradient
       inkscape:collect="always"
       xlink:href="#linearGradient3641"
       id="linearGradient3663"
       x1="149.2995"
       y1="204.49495"
       x2="119.69035"
       y2="205.00003"
       gradientUnits="userSpaceOnUse" />
    <linearGradient
       inkscape:collect="always"
       xlink:href="#linearGradient3641"
       id="linearGradient3671"
       x1="9.5"
       y1="205"
       x2="40.5"
       y2="205"
       gradientUnits="userSpaceOnUse" />
    <radialGradient
       inkscape:collect="always"
       xlink:href="#linearGradient3797"
       id="radialGradient3803"
       cx="80"
       cy="80"
       fx="80"
       fy="80"
       r="5.5"
       gradientUnits="userSpaceOnUse" />
    <radialGradient
       inkscape:collect="always"
       xlink:href="#linearGradient3797"
       id="radialGradient3811"
       cx="80"
       cy="80"
       fx="80"
       fy="80"
       r="5.5"
       gradientUnits="userSpaceOnUse" />
    <radialGradient
       inkscape:collect="always"
       xlink:href="#linearGradient3797"
       id="radialGradient3819"
       cx="80"
       cy="80"
       fx="80"
       fy="80"
       r="5.5"
       gradientUnits="userSpaceOnUse" />
    <radialGradient
       inkscape:collect="always"
       xlink:href="#linearGradient3797"
       id="radialGradient3827"
       cx="80"
       cy="80"
       fx="80"
       fy="80"
       r="5.5"
       gradientUnits="userSpaceOnUse" />
    <radialGradient
       inkscape:collect="always"
       xlink:href="#linearGradient3797"
       id="radialGradient3835"
       cx="80"
       cy="80"
       fx="80"
       fy="80"
       r="5.5"
       gradientUnits="userSpaceOnUse" />
    <radialGradient
       inkscape:collect="always"
       xlink:href="#linearGradient3797"
       id="radialGradient3843"
       cx="80"
       cy="80"
       fx="80"
       fy="80"
       r="5.5"
       gradientUnits="userSpaceOnUse" />
    <radialGradient
       inkscape:collect="always"
       xlink:href="#linearGradient3797"
       id="radialGradient3851"
       cx="80"
       cy="80"
       fx="80"
       fy="80"
       r="5.5"
       gradientUnits="userSpaceOnUse" />
    <radialGradient
       inkscape:collect="always"
       xlink:href="#linearGradient3797"
       id="radialGradient3859"
       cx="80"
       cy="80"
       fx="80"
       fy="80"
       r="5.5"
       gradientUnits="userSpaceOnUse" />
  </defs>
  <sodipodi:namedview
     id="base"
     pagecolor="#ffffff"
     bordercolor="#666666"
     borderopacity="1.0"
     inkscape:pageopacity="0.0"
     inkscape:pageshadow="2"
     inkscape:zoom="1.979899"
     inkscape:cx="-45.701069"
     inkscape:cy="123.12712"
     inkscape:document-units="px"
     inkscape:current-layer="layer2"
     showgrid="true"
     inkscape:snap-global="true"
     inkscape:window-width="1440"
     inkscape:window-height="825"
     inkscape:window-x="0"
     inkscape:window-y="24"
     inkscape:window-maximized="1">
    <inkscape:grid
       type="xygrid"
       id="grid3590"
       empspacing="5"
       visible="true"
       enabled="true"
       snapvisiblegridlinesonly="true" />
  </sodipodi:namedview>
  <metadata
     id="metadata7">
    <rdf:RDF>
      <cc:Work
         rdf:about="">
        <dc:format>image/svg+xml</dc:format>
        <dc:type
           rdf:resource="http://purl.org/dc/dcmitype/StillImage" />
        <dc:title></dc:title>
      </cc:Work>
    </rdf:RDF>
  </metadata>
  <g
     inkscape:groupmode="layer"
     id="layer4"
     inkscape:label="Layer#2"
     sodipodi:insensitive="true"
     style="display:inline">
    <rect
       style="fill:#fff8f8;fill-opacity:0;stroke:#050505;stroke-width:0;stroke-linejoin:miter;stroke-miterlimit:4;stroke-opacity:1;stroke-dasharray:none"
       id="rect2876"
       width="160"
       height="240"
       x="0"
       y="0"
       ry="0.76656449" />
  </g>
  <g
     inkscape:label="Layer 1"
     inkscape:groupmode="layer"
     id="layer1"
     transform="translate(-299.45155,-232.91063)"
     style="display:inline"
     sodipodi:insensitive="true">
    <rect
       style="fill:none;stroke:#3f3f44;stroke-width:0.76866567;stroke-opacity:1"
       id="rect2816"
       width="100.00001"
       height="220"
       x="329.45154"
       y="242.91063"
       ry="0.16702412" />
    <path
       style="fill:url(#linearGradient3629);fill-opacity:1;stroke:#3f3f44;stroke-width:0.50507629;stroke-opacity:1"
       d="m 30.415922,119.99659 0,-109.349011 49.497475,0 49.497473,0 0,109.349011 0,109.34902 -49.497473,0 -49.497475,0 0,-109.34902 z"
       id="path3621"
       transform="translate(299.45155,232.91063)" />
  </g>
  <g
     inkscape:groupmode="layer"
     id="layer2"
     inkscape:label="Layer"
     style="display:inline">
    <rect
       style="fill:url(#linearGradient3663);fill-opacity:1;stroke:#3f3f44;stroke-opacity:1"
       id="rect3606"
       width="30.000004"
       height="10.000069"
       x="120"
       y="200"
       ry="0.16702412" />
    <rect
       style="fill:url(#linearGradient3671);fill-opacity:1;stroke:#3f3f44;stroke-opacity:1"
       id="rect3604"
       width="30"
       height="10"
       x="10"
       y="200"
       ry="0.16702412" />
    <rect
       style="fill:url(#linearGradient3655);fill-opacity:1;stroke:#3f3f44;stroke-opacity:1"
       id="rect3602"
       width="30"
       height="10"
       x="10"
       y="30"
       ry="0.16702412" />
    <rect
       style="fill:url(#linearGradient3647);fill-opacity:1;stroke:#3f3f44;stroke-opacity:1"
       id="rect3600"
       width="30.000006"
       height="9.9999943"
       x="120"
       y="30"
       ry="0.16702412" />
    <path
       sodipodi:type="arc"
       style="fill:none;stroke:#3f3f44;stroke-opacity:1"
       id="path3596"
       sodipodi:cx="80"
       sodipodi:cy="120"
       sodipodi:rx="70"
       sodipodi:ry="70"
       d="m 150,120 a 70,70 0 1 1 -140,0 70,70 0 1 1 140,0 z" />
    <path
       sodipodi:type="arc"
       style="fill:none;stroke:#3f3f44;stroke-opacity:1"
       id="path3598"
       sodipodi:cx="80"
       sodipodi:cy="120"
       sodipodi:rx="60"
       sodipodi:ry="60"
       d="m 140,120 a 60,60 0 1 1 -120,0 60,60 0 1 1 120,0 z" />
    <path
       style="fill:#e6e6e6;fill-opacity:1;stroke:#3f3f44;stroke-width:0.50507629;stroke-opacity:1"
       d="m 74.30705,188.92193 c -9.383706,-0.82168 -17.392341,-3.15591 -26.003237,-7.57903 -18.66891,-9.58956 -31.722239,-26.87629 -36.21628,-47.96179 -1.28851,-6.04553 -1.28851,-20.72351 0,-26.76904 6.579888,-30.872039 31.931124,-53.249862 62.892385,-55.515817 20.685126,-1.513878 40.355192,6.089576 54.902482,21.222524 9.27347,9.646823 15.09805,20.784341 17.96411,34.350243 1.56842,7.4238 1.56842,19.23134 0,26.65514 -4.30528,20.37814 -16.15591,36.65838 -34.22648,47.01986 -7.56952,4.34028 -17.976543,7.66678 -26.064041,8.3311 -7.437289,0.61091 -8.800798,0.63631 -13.248939,0.24681 z m 17.425132,-9.39458 c 12.210878,-2.45485 22.365168,-7.87414 31.076248,-16.58522 11.86294,-11.86294 17.64766,-25.94005 17.64766,-42.94554 0,-17.00527 -5.78408,-31.081001 -17.64766,-42.946129 -8.94841,-8.94957 -19.59217,-14.470814 -32.663789,-16.94371 -5.307801,-1.004133 -16.542011,-0.768028 -22.45413,0.471909 -24.535408,5.145765 -43.169858,24.416 -47.464196,49.08362 -1.214401,6.97579 -0.777378,18.69777 0.942175,25.27132 2.872461,10.98091 7.607421,19.41172 15.408442,27.43542 14.214451,14.62021 35.241926,21.16168 55.15525,17.15833 z"
       id="path3673" />
    <path
       style="fill:#d35f5f;fill-opacity:1;stroke:#3f3f44;stroke-width:0.50507629;stroke-opacity:1"
       d="m 73.501923,178.80166 c -17.729062,-1.88141 -34.393489,-12.48652 -43.931167,-27.95744 -11.498142,-18.65096 -11.498142,-43.04429 0,-61.695255 15.138123,-24.555323 45.616763,-34.716367 72.262954,-24.091201 8.24428,3.287406 14.45998,7.539437 20.96621,14.342549 19.18693,20.062423 21.79458,50.053407 6.38425,73.426237 -2.71224,4.11366 -9.21819,11.06976 -13.20833,14.12222 -8.66148,6.62606 -18.847833,10.65504 -30.052036,11.88642 -5.085456,0.5589 -6.884982,0.55404 -12.421881,-0.0335 l 0,1e-5 z"
       id="path3675" />
    <path
       style="fill:#d35f5f;fill-opacity:1;stroke:#3f3f44;stroke-width:0.50507629;stroke-opacity:1"
       d=""
       id="path3677" />
    <path
       style="fill:#de8787;fill-opacity:1;stroke:#3f3f44;stroke-width:0.50507629;stroke-opacity:1"
       d="M 68.678778,187.6713 C 50.784409,184.53241 33.576697,173.45692 23.557694,158.62977 14.299251,144.92818 10.738215,131.18256 11.958043,113.85504 c 1.114646,-15.83342 7.968174,-30.403289 19.91905,-42.34577 8.08349,-8.077811 17.252979,-13.634412 27.782745,-16.83601 8.5727,-2.606548 10.447831,-2.863582 20.708127,-2.838579 9.110086,0.0222 9.911168,0.104904 15.806095,1.631832 19.79726,5.127964 36.10674,18.151305 45.0499,35.972965 4.91915,9.802743 7.07676,19.119202 7.07676,30.557112 0,8.50352 -0.83713,13.86807 -3.32404,21.30117 -3.33236,9.96004 -7.86263,17.64721 -14.65546,24.86803 -10.39536,11.05033 -22.21002,17.83799 -36.568733,21.00917 -5.28772,1.16781 -19.627481,1.45167 -25.073709,0.49634 z m 22.353686,-7.59485 c 24.693616,-4.30621 44.728656,-24.25766 48.882336,-48.67838 1.04593,-6.14936 1.04593,-16.65359 0,-22.80296 -3.39563,-19.963966 -17.66725,-37.487215 -36.82145,-45.210813 -8.667334,-3.494953 -11.514444,-3.985361 -22.977923,-3.9579 -9.506156,0.02277 -10.750048,0.131705 -15.189547,1.330211 -22.472972,6.0669 -38.409841,22.113253 -44.288517,44.592772 -1.182707,4.52256 -1.320463,5.97512 -1.31725,13.8896 0.0039,9.69922 0.464149,13.01225 2.806403,20.20305 3.341543,10.25865 8.166769,17.66069 16.835343,25.8259 3.003121,2.82873 9.636759,7.39804 13.770424,9.48518 4.677726,2.36184 13.670879,5.15759 18.54431,5.76497 4.239276,0.52835 15.657263,0.27311 19.755871,-0.44163 l 0,0 z"
       id="path3679" />
    <path
       style="fill:#c83737;fill-opacity:1;stroke:#3f3f44;stroke-width:0.50507629;stroke-opacity:1"
       d="M 76.074817,178.53529 C 60.520195,176.81255 48.831178,171.35014 38.41658,160.93719 16.317669,138.84175 15.846036,103.04858 37.35039,80.021929 48.4271,68.161096 63.543952,61.639187 80.059121,61.595973 c 16.396463,-0.0429 30.358809,5.971146 42.024269,18.101259 17.21078,17.896312 21.36106,42.871878 10.82586,65.147868 -3.10414,6.5635 -5.35321,9.74682 -11.12503,15.74628 -8.88281,9.23315 -18.75408,14.63325 -30.934821,16.92298 -4.260591,0.80089 -11.958468,1.33283 -14.774582,1.02093 l 0,0 z"
       id="path3681" />
    <path
       sodipodi:type="arc"
       style="fill:#c83737;fill-opacity:1;stroke:#3f3f44;stroke-opacity:1"
       id="path3687"
       sodipodi:cx="80"
       sodipodi:cy="120"
       sodipodi:rx="40"
       sodipodi:ry="40"
       d="m 120,120 a 40,40 0 1 1 -80,0 40,40 0 1 1 80,0 z" />
    <path
       style="fill:#8787de;fill-opacity:1;stroke:#3f3f44;stroke-width:0.25253814;stroke-opacity:1"
       d="M 70.041461,187.49674 C 59.232263,185.96757 46.725072,180.35912 37.337772,172.83182 33.9784,170.13808 29.401043,165.59097 26.917914,162.48083 21.090315,155.18171 16.224511,145.50195 14.100992,136.98356 11.375479,126.05031 11.535131,112.27826 14.5134,101.40811 18.644629,86.329848 29.107046,72.211476 43.006877,62.957956 c 6.486296,-4.318117 16.054347,-8.24107 24.207212,-9.92509 2.964568,-0.612349 10.614408,-0.980222 16.716969,-0.803904 4.457066,0.128775 6.142758,0.282427 8.523541,0.776921 22.068851,4.583758 40.412881,19.019431 49.515351,38.965667 2.86445,6.276873 4.40444,11.56989 5.38186,18.49775 0.53889,3.81954 0.60968,14.39129 0.12259,18.30677 -0.94768,7.61792 -4.14093,17.27321 -8.00228,24.19613 -6.21669,11.14577 -16.55762,21.19261 -28.18395,27.38243 -6.11111,3.25353 -14.372156,6.05835 -20.286044,6.88758 -2.492816,0.34954 -18.882286,0.54856 -20.960665,0.25453 z m 19.066629,-6.82557 c 6.280793,-0.77236 13.47572,-3.07549 19.44544,-6.22459 16.93862,-8.93533 28.89241,-25.32547 31.81545,-43.62295 0.96478,-6.03927 0.77744,-17.68358 -0.38001,-23.61967 -2.27242,-11.654389 -7.83921,-21.922956 -16.6476,-30.70838 -6.77592,-6.758247 -13.98719,-11.305079 -23.16641,-14.606834 -6.811398,-2.450052 -8.97394,-2.737458 -20.53705,-2.729414 -9.798737,0.0068 -10.85963,0.116445 -16.230179,1.677159 -21.949367,6.378621 -37.450497,22.468831 -43.218003,44.860399 -1.248015,4.84525 -1.596833,11.87069 -1.019804,20.53958 0.454411,6.82676 1.943166,12.55713 5.181841,19.94543 4.706754,10.73737 14.759426,21.39345 26.244259,27.81954 5.618113,3.14349 15.380181,6.29579 21.465742,6.93156 2.55462,0.26689 14.201586,0.088 17.046324,-0.26183 z"
       id="path3791" />
    <path
       style="fill:#3737c8;fill-opacity:1;stroke:#3f3f44;stroke-width:0.25253814;stroke-opacity:1"
       d="M 72.566842,177.66964 C 58.503185,175.34461 48.458398,170.2688 38.663104,160.5375 c -9.433971,-9.37234 -15.23045,-21.76759 -16.496389,-35.27606 -0.360256,-3.84419 -0.180867,-10.2225 0.391231,-13.9105 3.593229,-23.163561 20.736116,-42.048569 43.218108,-47.610086 5.132012,-1.269539 8.273937,-1.621238 14.493201,-1.62233 6.29991,-0.0011 9.274337,0.337621 14.495379,1.650734 15.664566,3.939702 29.862666,15.767349 37.717126,31.420047 8.05826,16.058845 7.57926,35.590635 -1.27889,52.148325 -2.63047,4.91688 -4.71569,7.71467 -9.32543,12.51217 -8.28086,8.61815 -16.71909,13.68593 -27.306187,16.39937 -4.789563,1.22754 -8.398189,1.68265 -14.175729,1.7878 -4.027705,0.0733 -5.613443,-0.001 -7.828682,-0.36733 z m 12.879445,-17.47518 c 16.228553,-2.03446 29.950383,-14.33093 33.933063,-30.40823 1.59978,-6.45801 1.51311,-14.28194 -0.22691,-20.483 -1.16551,-4.1536 -2.97716,-8.14966 -5.25415,-11.589347 -8.63515,-13.044496 -23.676504,-19.936392 -39.108804,-17.919521 -8.95082,1.169797 -16.401425,4.754631 -22.982193,11.05781 -6.454757,6.182482 -10.548284,14.144238 -11.967683,23.276688 -0.417272,2.68475 -0.420439,9.06746 -0.0058,11.74303 1.389328,8.96554 5.353289,16.72856 11.793005,23.09542 8.850169,8.75004 21.111054,12.82032 33.819498,11.22715 l 0,0 z"
       id="path3793" />
    <path
       style="fill:#3737c8;fill-opacity:1;stroke:#3f3f44;stroke-width:0.25253814;stroke-opacity:1"
       d="m 77.870143,159.30171 c -14.403092,-0.91731 -26.7333,-9.1075 -33.214479,-22.0623 -1.585996,-3.17015 -2.954307,-7.48556 -3.564325,-11.24126 -0.463817,-2.85558 -0.398615,-9.80502 0.118471,-12.6269 2.277333,-12.42805 9.584396,-22.398976 20.75043,-28.315223 11.402739,-6.041663 26.104736,-5.771949 37.366624,0.685504 16.554796,9.492351 23.963046,28.923219 17.899816,46.948879 -3.69826,10.99473 -12.73392,20.26885 -23.572903,24.19502 -4.93403,1.78724 -11.023429,2.71945 -15.783634,2.41628 z"
       id="path3795" />
    <path
       style="fill:#6f7c91;fill-opacity:1;stroke:#3f3f44;stroke-width:0.50507629;stroke-opacity:1"
       d="m 73.865643,158.49434 c -3.918423,-0.62481 -10.508051,-3.11619 -14.242476,-5.38473 -3.939396,-2.39306 -9.751195,-8.08326 -12.230947,-11.97505 -2.191624,-3.43958 -4.357488,-8.48371 -5.342894,-12.44316 -1.114097,-4.47656 -0.875238,-14.10096 0.469348,-18.91151 3.996705,-14.299106 15.361653,-24.900361 29.838919,-27.83383 5.001414,-1.013416 13.204665,-0.790495 17.951519,0.487828 10.330448,2.78198 19.889898,10.80461 24.750928,20.771852 5.14085,10.54101 4.99941,23.65024 -0.37004,34.29767 -4.99075,9.89645 -14.38372,17.43614 -25.138502,20.17853 -3.981671,1.0153 -11.855852,1.42312 -15.685855,0.8124 l 0,0 z"
       id="path3882" />
    <path
       style="fill:#939dac;fill-opacity:1;stroke:#3f3f44;stroke-width:0.50507629;stroke-opacity:1"
       d="m 70.863676,176.97859 c -14.030614,-2.84292 -23.946479,-8.2863 -33.2584,-18.25742 -20.893988,-22.37307 -20.160974,-57.39604 1.65983,-79.305619 11.931607,-11.98015 26.375112,-17.472286 44.041391,-16.746718 14.695296,0.603547 26.604283,6.035814 37.618153,17.159459 8.53869,8.623794 14.2931,19.734998 16.13442,31.153998 0.82818,5.13597 0.68674,14.47032 -0.29199,19.26954 -2.39307,11.73451 -7.09986,20.82117 -15.10346,29.15791 -8.98833,9.36245 -19.37653,15.17403 -30.849432,17.25843 -4.898214,0.8899 -16.221095,1.06609 -19.950512,0.31042 z M 90.56165,159.43607 c 2.08344,-0.53157 5.606347,-1.87971 7.828683,-2.99585 14.482817,-7.27383 23.333347,-22.68062 22.310717,-38.83797 -0.37642,-5.94735 -1.30814,-9.56532 -3.87265,-15.03782 C 110.46267,88.980293 97.51744,80.256337 82.373334,79.344703 60.514793,78.028878 41.936444,93.667033 39.510376,115.4242 c -3.187718,28.5877 23.004067,51.16793 51.051274,44.01187 l 0,0 z"
       id="path3884" />
    <path
       style="fill:#aaaaff;fill-opacity:1;stroke:#3f3f44;stroke-width:0.50507629;stroke-opacity:1"
       d="M 65.055299,186.08357 C 51.889316,182.5436 41.71548,176.77721 32.492663,167.62751 22.570354,157.78387 15.803382,145.11953 13.597039,132.26447 12.54686,126.14569 12.528797,114.3552 13.559862,107.99741 15.628708,95.240426 21.544031,83.79167 31.339266,73.586429 39.363775,65.226034 47.813432,59.731408 58.320477,56.04114 c 7.730054,-2.714937 11.294978,-3.238152 22.139648,-3.24938 9.064407,-0.0094 10.2373,0.09515 14.723539,1.312209 13.089636,3.551057 23.643316,9.514928 32.486426,18.358042 9.43238,9.432384 15.92882,21.261329 18.50974,33.703219 1.37791,6.64252 1.49929,20.75016 0.22846,26.55265 -1.12393,5.13171 -3.93267,13.39387 -5.8722,17.27361 -7.10291,14.20829 -20.54718,26.62874 -35.38273,32.68827 -8.665018,3.53919 -11.950317,4.1296 -24.440697,4.39231 -10.562367,0.22215 -11.336397,0.17329 -15.657364,-0.9885 l 0,0 z m 27.147652,-5.58155 c 7.591686,-1.45253 15.306399,-4.64647 22.290419,-9.22837 4.40865,-2.89232 13.53027,-11.89938 16.44308,-16.23657 4.40341,-6.55671 7.7763,-14.5722 9.38286,-22.29789 0.89912,-4.32375 1.08607,-19.1968 0.29846,-23.7455 -2.25104,-13.000646 -7.75721,-23.51643 -17.1472,-32.748097 -6.92839,-6.811575 -13.25459,-10.831462 -22.79378,-14.483965 -6.595758,-2.525479 -9.862501,-2.907994 -22.742046,-2.662947 l -11.364217,0.216216 -5.351831,1.811915 c -21.488942,7.27529 -36.054973,23.155828 -41.588371,45.341498 -0.80244,3.21731 -1.195889,13.05885 -0.754956,18.8841 1.106747,14.62144 6.174925,26.26499 15.960281,36.66689 8.5519,9.09072 18.105095,14.67683 30.724725,17.96589 3.936357,1.02593 5.77532,1.18807 13.718897,1.20958 5.930737,0.0161 10.498899,-0.22881 12.923679,-0.69275 l 0,0 z"
       id="path3886" />
    <path
       style="fill:#8080ff;fill-opacity:1;stroke:#3f3f44;stroke-width:0.50507629;stroke-opacity:1"
       d="M 74.146671,176.67948 C 68.83588,176.2623 63.252707,174.77489 57.178491,172.15899 42.43744,165.81067 29.685604,151.26807 25.214462,135.70618 22.826572,127.39509 22.351469,120.37737 23.611033,112.02205 27.163954,88.453737 44.65522,69.452875 67.328142,64.531907 c 9.070432,-1.968661 19.967938,-1.74937 28.34635,0.570417 14.353518,3.974156 28.549668,15.971003 35.501798,30.001771 4.69563,9.476705 6.1572,16.514425 5.70469,27.469215 -0.58123,14.07116 -5.6658,25.82519 -15.72775,36.35794 -9.56319,10.01066 -22.037865,16.56605 -33.25216,17.4739 -7.227268,0.58507 -9.277953,0.62597 -13.754399,0.27433 l 0,0 z m 18.912981,-17.61395 c 2.623967,-0.89734 6.146874,-2.45484 7.828678,-3.46111 13.89152,-8.31169 21.85834,-24.15304 20.06745,-39.90244 C 119.80994,105.62529 116.22537,98.309482 108.7444,90.779545 104.49201,86.499329 103.34288,85.655491 98.642871,83.36174 91.865308,80.054077 87.063224,78.961397 79.449972,78.994536 72.2387,79.025923 68.266432,79.969032 61.519765,83.251583 51.823602,87.969192 44.749645,95.8961 41.24654,105.96928 c -1.756352,5.05039 -2.239103,8.14648 -2.24351,14.38863 -0.01204,17.0514 10.149524,31.78886 26.304807,38.15022 5.080731,2.00062 8.419581,2.49074 15.909902,2.33548 6.435783,-0.1334 7.499691,-0.29315 11.841913,-1.77808 z"
       id="path3888" />
    <path
       style="fill:#000000;fill-opacity:1;stroke:#303233;stroke-width:0.50507628999999998;stroke-opacity:1"
       d="m 74.396015,157.95847 c -2.980146,-0.43975 -9.073483,-2.48211 -12.371174,-4.14657 -6.160281,-3.1093 -12.998703,-10.19853 -16.192589,-16.78647 -3.063325,-6.31864 -3.757924,-9.40408 -3.757924,-16.69284 0,-7.07597 1.013131,-11.89344 3.568264,-16.96723 5.25585,-10.436658 13.253297,-17.038339 24.716007,-20.402408 4.340799,-1.273934 14.909994,-1.307646 19.628956,-0.06261 13.365985,3.526443 24.675275,15.730807 27.553185,29.733858 3.45873,16.82912 -5.30734,34.22704 -21.096875,41.87077 -6.150436,2.97743 -15.426962,4.43048 -22.04785,3.4535 z"
       id="path3890" />
  </g>
</svg>
