<svg xmlns="http://www.w3.org/2000/svg" width="1024" height="1024" viewBox="0 0 1024 1024" version="1.1"><path d="M 700.496 504.064 C 672.448 532.150, 599.192 605.126, 537.705 666.233 L 425.909 777.338 338.186 689.669 L 250.464 602.001 239.992 612.508 L 229.520 623.016 325.510 719.071 C 378.304 771.902, 422.699 816.002, 424.165 817.071 L 426.830 819.015 599.975 646.335 L 773.120 473.654 762.828 463.327 C 757.167 457.647, 752.301 453, 752.014 453 C 751.727 453, 728.544 475.979, 700.496 504.064 M 85.144 553 C 84.773 606.863, 94.905 661.061, 114.681 711 C 166.744 842.473, 279.265 939.290, 416.784 970.939 C 478.010 985.029, 545.990 985.029, 607.216 970.939 C 714.555 946.235, 807.837 881.461, 868.509 789.500 C 914.931 719.137, 939.433 636.765, 938.856 553 C 938.736 535.647, 938.626 534.436, 937.855 542 C 931.346 605.832, 920.017 648.022, 896.101 697.500 C 858.732 774.809, 799.063 838.970, 724.500 882.016 C 632.414 935.180, 521.349 951.703, 416.500 927.837 C 323.262 906.614, 238.542 853.271, 178.613 778.056 C 142.716 733.001, 116.681 682.460, 101.572 628.500 C 93.761 600.605, 89.932 579.130, 86.145 542 C 85.374 534.436, 85.264 535.647, 85.144 553" stroke="none" fill="#27ae60" fill-rule="evenodd"/><path d="M 554.001 469.499 L 426.505 596.998 373.335 543.835 L 320.166 490.673 275.083 535.051 C 250.287 559.460, 230 579.672, 230 579.967 C 230 581.214, 425.843 776.215, 426.753 775.875 C 427.303 775.669, 505.526 697.949, 600.581 603.164 L 773.409 430.828 728.455 386.467 C 703.730 362.069, 683.049 342.082, 682.499 342.053 C 681.948 342.024, 624.124 399.375, 554.001 469.499" stroke="none" fill="#ebf3f3" fill-rule="evenodd"/><path d="M 476 86.553 C 371.556 95.940, 279.077 139.710, 206.469 214.121 C 135.921 286.420, 95.309 375.716, 86.455 478 C 83.939 507.060, 84.475 528.545, 88.585 563.500 C 101.553 673.765, 158.176 775.124, 246.251 845.730 C 283.126 875.292, 328.855 900.420, 373.500 915.656 C 448.291 941.178, 530.163 945.440, 607.500 927.837 C 700.863 906.585, 785.120 853.520, 845.413 778 C 895.170 715.675, 926.221 641.672, 935.415 563.500 C 938.429 537.869, 939 529.673, 938.987 512.214 C 938.931 437.831, 919.230 363.531, 882.715 300 C 845.131 234.609, 789.391 178.869, 724 141.285 C 650.132 98.829, 560.211 78.984, 476 86.553 M 554.001 469.499 L 426.505 596.998 373.335 543.835 L 320.166 490.673 275.083 535.051 C 250.287 559.460, 230 579.670, 230 579.963 C 230 580.256, 273.538 624.147, 326.750 677.498 L 423.500 774.500 336.990 688.242 L 250.480 601.984 240 612.500 L 229.520 623.016 325.510 719.071 C 378.304 771.902, 422.699 816.002, 424.165 817.071 L 426.830 819.015 599.975 646.334 L 773.120 473.653 762.565 463.066 L 752.010 452.478 762.755 441.715 L 773.500 430.953 728.500 386.529 C 703.750 362.097, 683.049 342.082, 682.499 342.053 C 681.948 342.024, 624.124 399.375, 554.001 469.499 M 616.998 586.750 L 537.500 666.500 617.250 587.002 C 661.112 543.279, 697 507.391, 697 507.252 C 697 507.114, 696.886 507, 696.748 507 C 696.609 507, 660.721 542.888, 616.998 586.750" stroke="none" fill="#2bc872" fill-rule="evenodd"/></svg>