<?xml version="1.0" encoding="UTF-8" standalone="no"?>
<!DOCTYPE svg PUBLIC "-//W3C//DTD SVG 1.1//EN" "http://www.w3.org/Graphics/SVG/1.1/DTD/svg11.dtd">
<svg width="100%" height="100%" viewBox="0 0 417 234" version="1.1" xmlns="http://www.w3.org/2000/svg" xmlns:xlink="http://www.w3.org/1999/xlink" xml:space="preserve" xmlns:serif="http://www.serif.com/" style="fill-rule:evenodd;clip-rule:evenodd;stroke-linejoin:round;stroke-miterlimit:2;">
    <g transform="matrix(1.19867,0,0,1.19867,-634.269,-3847.96)">
        <g transform="matrix(-3.75223,-1.8116,-1.8116,3.75223,1224.17,3403.26)">
            <path d="M142.344,34.933C140.069,36.029 138.134,37.87 136.955,40.312C134.185,46.05 136.605,52.989 142.344,55.76C144.417,56.761 146.646,57.083 148.78,56.817C148.539,50.332 145.38,40.515 142.344,34.933" style="fill:rgb(0,46,110);"/>
        </g>
        <g transform="matrix(4.16667,0,0,4.16667,0,3090.39)">
            <path d="M141.372,40.275C144.116,40.275 146.641,41.239 148.628,42.846L144.431,47.085L134.026,58.37L133.103,59.92C131.063,57.833 129.803,54.981 129.803,51.844C129.803,45.472 135,40.275 141.372,40.275" style="fill:rgb(0,46,110);"/>
        </g>
        <g transform="matrix(4.16667,0,0,4.16667,0,3107.3)">
            <path d="M153.399,57.602L161.294,38.536L165.971,38.536L173.862,57.602L169.099,57.602L167.259,53.187L160.007,53.187L158.162,57.602L153.399,57.602ZM163.64,43.118L160.918,49.793L166.348,49.793L163.64,43.118ZM190.219,38.536L190.219,41.931L184.927,41.931C183.54,41.931 182.529,42.026 181.9,42.217C181.275,42.408 180.751,42.779 180.331,43.328C180.05,43.699 179.859,44.076 179.759,44.458C179.654,44.839 179.569,45.492 179.492,46.412L190.219,46.412L190.219,49.807L179.492,49.807C179.63,51.456 180.112,52.601 180.932,53.244C181.752,53.888 183.144,54.208 185.108,54.208L190.219,54.208L190.219,57.602L184.927,57.602C183.492,57.602 182.229,57.511 181.142,57.335C179.425,57.058 178.062,56.31 177.046,55.089C175.602,53.335 174.882,50.961 174.882,47.966C174.882,44.639 175.902,42.055 177.943,40.215C178.639,39.59 179.383,39.151 180.174,38.908C180.97,38.66 182.029,38.536 183.364,38.536L190.219,38.536ZM193.433,57.602L193.433,38.536L204.217,38.536C205.905,38.536 207.13,38.727 207.907,39.108C208.799,39.566 209.476,40.305 209.929,41.33C210.258,42.04 210.42,42.775 210.42,43.538C210.42,44.524 210.158,45.449 209.628,46.303C209.104,47.161 208.441,47.752 207.64,48.076C209.485,48.925 210.405,50.422 210.405,52.563C210.405,53.807 210.11,54.851 209.523,55.69C209.023,56.415 208.369,56.915 207.564,57.192C206.758,57.464 205.561,57.602 203.979,57.602L193.433,57.602ZM197.485,46.374L203.016,46.374C203.593,46.374 204.017,46.346 204.284,46.284C204.546,46.222 204.803,46.098 205.042,45.912C205.638,45.459 205.938,44.83 205.938,44.029C205.938,43.252 205.657,42.684 205.099,42.322C204.699,42.06 204.031,41.931 203.101,41.931L197.485,41.931L197.485,46.374ZM197.485,54.208L203.016,54.208C203.593,54.208 204.017,54.179 204.288,54.117C204.555,54.055 204.808,53.931 205.042,53.745C205.638,53.292 205.933,52.663 205.933,51.862C205.933,51.089 205.652,50.522 205.094,50.16C204.694,49.897 204.031,49.769 203.101,49.769L197.485,49.769L197.485,54.208Z" style="fill:rgb(0,46,110);"/>
        </g>
        <g transform="matrix(4.16667,0,0,4.16667,0,3231.79)">
            <path d="M133.373,35.202L134.735,31.912L135.543,31.912L136.904,35.202L136.082,35.202L135.765,34.44L134.513,34.44L134.195,35.202L133.373,35.202ZM135.14,32.702L134.67,33.854L135.607,33.854L135.14,32.702ZM138.31,33.247L139.928,33.247L139.928,35.202L138.457,35.202C138.201,35.202 137.999,35.183 137.851,35.145C137.702,35.107 137.567,35.042 137.445,34.946C137.099,34.68 136.926,34.221 136.926,33.57C136.926,33.143 137.009,32.788 137.172,32.507C137.294,32.3 137.46,32.149 137.67,32.054C137.88,31.96 138.153,31.912 138.491,31.912L139.928,31.912L139.928,32.498L138.57,32.498C138.278,32.498 138.065,32.562 137.932,32.69C137.776,32.842 137.698,33.112 137.698,33.503C137.698,33.704 137.719,33.885 137.76,34.046C137.8,34.207 137.856,34.327 137.927,34.406C137.991,34.479 138.078,34.531 138.188,34.565C138.296,34.599 138.432,34.616 138.595,34.616L139.228,34.616L139.228,33.833L138.31,33.833L138.31,33.247ZM142.986,31.912L142.986,32.498L142.072,32.498C141.833,32.498 141.659,32.514 141.55,32.547C141.442,32.58 141.352,32.644 141.279,32.739C141.231,32.803 141.198,32.868 141.181,32.934C141.163,33 141.148,33.112 141.134,33.271L142.986,33.271L142.986,33.857L141.134,33.857C141.159,34.142 141.242,34.339 141.383,34.45C141.525,34.561 141.765,34.616 142.104,34.616L142.986,34.616L142.986,35.202L142.072,35.202C141.825,35.202 141.607,35.186 141.419,35.156C141.123,35.108 140.888,34.979 140.712,34.768C140.463,34.466 140.339,34.056 140.339,33.539C140.339,32.965 140.515,32.519 140.867,32.202C140.987,32.094 141.116,32.018 141.252,31.976C141.39,31.933 141.572,31.912 141.803,31.912L142.986,31.912ZM141.993,31.311L141.684,31.664L141.185,31.664L141.72,31.056L142.263,31.056L142.797,31.664L142.299,31.664L141.993,31.311ZM144.208,32.789L144.208,35.202L143.54,35.202L143.54,31.912L144.437,31.912L145.745,34.363L145.745,31.912L146.413,31.912L146.413,35.202L145.55,35.202L144.208,32.789ZM149.576,34.616L149.576,35.202L148.428,35.202C148.21,35.202 148.043,35.19 147.927,35.168C147.524,35.089 147.237,34.864 147.067,34.491C146.954,34.242 146.898,33.933 146.898,33.566C146.898,33.124 146.984,32.763 147.156,32.485C147.279,32.286 147.446,32.141 147.654,32.049C147.861,31.958 148.131,31.912 148.462,31.912L149.576,31.912L149.576,32.498L148.542,32.498C148.228,32.498 147.999,32.582 147.852,32.749C147.731,32.887 147.671,33.137 147.671,33.501C147.671,33.985 147.765,34.304 147.953,34.457C148.085,34.564 148.29,34.616 148.568,34.616L149.576,34.616ZM150.073,35.202L150.073,31.912L150.772,31.912L150.772,35.202L150.073,35.202ZM151.126,35.202L152.488,31.912L153.295,31.912L154.657,35.202L153.835,35.202L153.517,34.44L152.266,34.44L151.948,35.202L151.126,35.202ZM152.893,32.702L152.423,33.854L153.36,33.854L152.893,32.702ZM158.714,31.912L158.714,32.498L157.801,32.498C157.561,32.498 157.387,32.514 157.278,32.547C157.17,32.58 157.08,32.644 157.007,32.739C156.959,32.803 156.926,32.868 156.909,32.934C156.891,33 156.876,33.112 156.863,33.271L158.714,33.271L158.714,33.857L156.863,33.857C156.886,34.142 156.97,34.339 157.111,34.45C157.253,34.561 157.493,34.616 157.832,34.616L158.714,34.616L158.714,35.202L157.801,35.202C157.553,35.202 157.335,35.186 157.147,35.156C156.851,35.108 156.616,34.979 156.44,34.768C156.191,34.466 156.067,34.056 156.067,33.539C156.067,32.965 156.243,32.519 156.595,32.202C156.715,32.094 156.844,32.018 156.98,31.976C157.118,31.933 157.3,31.912 157.531,31.912L158.714,31.912ZM159.258,35.202L159.258,34.616L160.76,34.616C161.002,34.616 161.162,34.592 161.243,34.544C161.359,34.475 161.416,34.371 161.416,34.233C161.416,34.074 161.349,33.957 161.214,33.883C161.137,33.841 161.013,33.821 160.845,33.821L160.235,33.821C159.862,33.821 159.594,33.753 159.43,33.618C159.327,33.533 159.247,33.426 159.188,33.297C159.131,33.167 159.102,33.029 159.102,32.883C159.102,32.651 159.169,32.44 159.304,32.249C159.436,32.065 159.647,31.957 159.938,31.927C160.036,31.917 160.182,31.912 160.376,31.912L162.009,31.912L162.009,32.498L160.536,32.498C160.316,32.499 160.169,32.509 160.098,32.526C159.949,32.564 159.875,32.676 159.875,32.861C159.875,33.019 159.937,33.125 160.061,33.18C160.144,33.217 160.283,33.235 160.476,33.235L161.003,33.235C161.273,33.235 161.476,33.258 161.609,33.305C161.842,33.384 162.002,33.522 162.088,33.72C162.159,33.878 162.195,34.049 162.195,34.23C162.195,34.43 162.148,34.609 162.057,34.768C161.929,34.993 161.735,35.127 161.476,35.171C161.351,35.191 161.163,35.202 160.912,35.202L159.258,35.202ZM163.4,34.053L163.4,35.202L162.701,35.202L162.701,31.912L164.343,31.912C164.641,31.912 164.856,31.933 164.986,31.975C165.202,32.047 165.372,32.197 165.497,32.425C165.59,32.594 165.637,32.78 165.637,32.982C165.637,33.15 165.606,33.308 165.546,33.457C165.484,33.607 165.399,33.729 165.29,33.826C165.193,33.911 165.09,33.97 164.979,34.003C164.868,34.036 164.717,34.053 164.525,34.053L163.4,34.053ZM163.4,33.467L164.354,33.467C164.525,33.467 164.645,33.44 164.714,33.384C164.817,33.303 164.868,33.161 164.868,32.958C164.868,32.736 164.79,32.594 164.634,32.532C164.578,32.509 164.489,32.498 164.369,32.498L163.4,32.498L163.4,33.467ZM165.458,35.202L166.82,31.912L167.627,31.912L168.989,35.202L168.167,35.202L167.849,34.44L166.598,34.44L166.279,35.202L165.458,35.202ZM167.225,32.702L166.755,33.854L167.692,33.854L167.225,32.702ZM171.686,34.616L171.686,35.202L170.539,35.202C170.321,35.202 170.154,35.19 170.038,35.168C169.635,35.089 169.347,34.864 169.177,34.491C169.064,34.242 169.008,33.933 169.008,33.566C169.008,33.124 169.095,32.763 169.267,32.485C169.39,32.286 169.556,32.141 169.765,32.049C169.972,31.958 170.242,31.912 170.573,31.912L171.686,31.912L171.686,32.498L170.652,32.498C170.339,32.498 170.109,32.582 169.963,32.749C169.842,32.887 169.782,33.137 169.782,33.501C169.782,33.985 169.875,34.304 170.064,34.457C170.195,34.564 170.401,34.616 170.679,34.616L171.686,34.616ZM172.183,35.202L172.183,31.912L172.883,31.912L172.883,35.202L172.183,35.202ZM173.236,35.202L174.599,31.912L175.406,31.912L176.767,35.202L175.946,35.202L175.628,34.44L174.377,34.44L174.058,35.202L173.236,35.202ZM175.004,32.702L174.534,33.854L175.471,33.854L175.004,32.702ZM177.083,31.912L177.783,31.912L177.783,33.758C177.793,33.993 177.803,34.149 177.814,34.226C177.836,34.375 177.909,34.478 178.03,34.533C178.151,34.588 178.364,34.616 178.67,34.616L179.342,34.616L179.342,35.202L178.597,35.202C178.245,35.204 177.99,35.184 177.831,35.142C177.468,35.036 177.238,34.806 177.141,34.45C177.104,34.313 177.085,34.083 177.083,33.758L177.083,31.912ZM180.986,35.202L180.986,31.912L182.847,31.912C183.138,31.912 183.349,31.945 183.484,32.011C183.637,32.09 183.754,32.217 183.832,32.394C183.889,32.517 183.917,32.643 183.917,32.775C183.917,32.945 183.872,33.105 183.78,33.252C183.69,33.4 183.576,33.502 183.437,33.558C183.756,33.705 183.914,33.963 183.914,34.332C183.914,34.547 183.863,34.727 183.762,34.872C183.676,34.997 183.563,35.084 183.424,35.131C183.285,35.178 183.079,35.202 182.805,35.202L180.986,35.202ZM181.685,33.265L182.639,33.265C182.739,33.265 182.812,33.259 182.858,33.249C182.903,33.238 182.948,33.217 182.989,33.185C183.092,33.106 183.144,32.998 183.144,32.86C183.144,32.726 183.095,32.628 182.999,32.565C182.93,32.52 182.814,32.498 182.654,32.498L181.685,32.498L181.685,33.265ZM181.685,34.616L182.639,34.616C182.739,34.616 182.812,34.611 182.859,34.601C182.905,34.59 182.949,34.569 182.989,34.536C183.092,34.458 183.143,34.35 183.143,34.211C183.143,34.078 183.094,33.98 182.998,33.918C182.929,33.872 182.814,33.85 182.654,33.85L181.685,33.85L181.685,34.616ZM185.134,33.951L185.134,35.202L184.434,35.202L184.434,31.912L186.04,31.912C186.501,31.912 186.824,31.97 187.006,32.088C187.131,32.167 187.226,32.271 187.294,32.4C187.362,32.53 187.397,32.672 187.397,32.827C187.397,33.141 187.317,33.382 187.159,33.552C187.061,33.655 186.931,33.733 186.768,33.788C186.897,33.83 186.994,33.878 187.06,33.93C187.125,33.981 187.185,34.057 187.238,34.156C187.278,34.234 187.307,34.309 187.324,34.382C187.34,34.455 187.354,34.563 187.366,34.706C187.385,34.942 187.412,35.107 187.445,35.202L186.66,35.202C186.635,35.125 186.611,34.969 186.587,34.735C186.568,34.542 186.533,34.394 186.482,34.292C186.432,34.19 186.355,34.11 186.252,34.053C186.125,33.984 185.94,33.95 185.698,33.951L185.134,33.951ZM185.134,33.366L186.117,33.366C186.282,33.366 186.398,33.342 186.467,33.293C186.571,33.219 186.624,33.093 186.624,32.912C186.624,32.712 186.545,32.583 186.388,32.526C186.333,32.507 186.243,32.498 186.117,32.498L185.134,32.498L185.134,33.366ZM187.645,35.202L189.007,31.912L189.814,31.912L191.176,35.202L190.354,35.202L190.036,34.44L188.785,34.44L188.467,35.202L187.645,35.202ZM189.412,32.702L188.942,33.854L189.879,33.854L189.412,32.702ZM191.521,35.202L191.521,34.616L193.022,34.616C193.264,34.616 193.424,34.592 193.505,34.544C193.621,34.475 193.679,34.371 193.679,34.233C193.679,34.074 193.611,33.957 193.476,33.883C193.399,33.841 193.275,33.821 193.107,33.821L192.497,33.821C192.124,33.821 191.856,33.753 191.692,33.618C191.589,33.533 191.509,33.426 191.451,33.297C191.393,33.167 191.364,33.029 191.364,32.883C191.364,32.651 191.432,32.44 191.567,32.249C191.698,32.065 191.91,31.957 192.2,31.927C192.298,31.917 192.444,31.912 192.639,31.912L194.271,31.912L194.271,32.498L192.798,32.498C192.578,32.499 192.431,32.509 192.36,32.526C192.212,32.564 192.138,32.676 192.138,32.861C192.138,33.019 192.199,33.125 192.324,33.18C192.407,33.217 192.545,33.235 192.738,33.235L193.266,33.235C193.535,33.235 193.738,33.258 193.871,33.305C194.104,33.384 194.264,33.522 194.351,33.72C194.422,33.878 194.457,34.049 194.457,34.23C194.457,34.43 194.411,34.609 194.319,34.768C194.191,34.993 193.997,35.127 193.739,35.171C193.613,35.191 193.425,35.202 193.174,35.202L191.521,35.202ZM194.963,35.202L194.963,31.912L195.662,31.912L195.662,35.202L194.963,35.202ZM196.295,31.912L196.995,31.912L196.995,33.758C197.005,33.993 197.015,34.149 197.026,34.226C197.048,34.375 197.121,34.478 197.242,34.533C197.364,34.588 197.576,34.616 197.882,34.616L198.554,34.616L198.554,35.202L197.809,35.202C197.457,35.204 197.202,35.184 197.044,35.142C196.68,35.036 196.45,34.806 196.353,34.45C196.316,34.313 196.297,34.083 196.295,33.758L196.295,31.912ZM201.432,31.912L201.432,32.498L200.519,32.498C200.279,32.498 200.105,32.514 199.996,32.547C199.888,32.58 199.798,32.644 199.725,32.739C199.677,32.803 199.644,32.868 199.627,32.934C199.609,33 199.594,33.112 199.581,33.271L201.432,33.271L201.432,33.857L199.581,33.857C199.605,34.142 199.688,34.339 199.829,34.45C199.971,34.561 200.211,34.616 200.55,34.616L201.432,34.616L201.432,35.202L200.519,35.202C200.271,35.202 200.053,35.186 199.866,35.156C199.569,35.108 199.334,34.979 199.159,34.768C198.909,34.466 198.785,34.056 198.785,33.539C198.785,32.965 198.961,32.519 199.313,32.202C199.433,32.094 199.562,32.018 199.699,31.976C199.836,31.933 200.019,31.912 200.249,31.912L201.432,31.912ZM201.986,35.202L201.986,31.912L202.686,31.912L202.686,35.202L201.986,35.202ZM204.057,33.951L204.057,35.202L203.358,35.202L203.358,31.912L204.964,31.912C205.425,31.912 205.747,31.97 205.93,32.088C206.054,32.167 206.149,32.271 206.218,32.4C206.286,32.53 206.321,32.672 206.321,32.827C206.321,33.141 206.241,33.382 206.082,33.552C205.984,33.655 205.854,33.733 205.691,33.788C205.82,33.83 205.917,33.878 205.983,33.93C206.049,33.981 206.108,34.057 206.162,34.156C206.201,34.234 206.23,34.309 206.247,34.382C206.264,34.455 206.278,34.563 206.289,34.706C206.308,34.942 206.335,35.107 206.369,35.202L205.583,35.202C205.559,35.125 205.535,34.969 205.511,34.735C205.491,34.542 205.457,34.394 205.405,34.292C205.355,34.19 205.278,34.11 205.175,34.053C205.049,33.984 204.863,33.95 204.622,33.951L204.057,33.951ZM204.057,33.366L205.04,33.366C205.205,33.366 205.321,33.342 205.39,33.293C205.494,33.219 205.547,33.093 205.547,32.912C205.547,32.712 205.468,32.583 205.311,32.526C205.256,32.507 205.166,32.498 205.04,32.498L204.057,32.498L204.057,33.366ZM206.568,35.202L207.931,31.912L208.738,31.912L210.099,35.202L209.277,35.202L208.96,34.44L207.708,34.44L207.39,35.202L206.568,35.202ZM208.335,32.702L207.866,33.854L208.803,33.854L208.335,32.702Z" style="fill:rgb(0,46,110);"/>
        </g>
        <g transform="matrix(4.16667,0,0,4.16667,0,3108.14)">
            <path d="M132.021,71.146C132.299,70.904 133.504,70.915 133.783,70.673C130.993,70.585 129.364,69.738 129.132,67.751C128.913,61.855 136.716,49.978 152.523,36.782C158.738,31.799 164.803,27.525 170.74,25.501L171.931,24.49C166.403,26.16 159.616,29.846 152.453,35.417C137.711,46.937 126.242,62.147 127.033,68.789C127.516,70.935 128.576,71.446 132.021,71.146" style="fill:rgb(255,203,3);"/>
        </g>
    </g>
</svg>
