<?xml version="1.0" encoding="UTF-8" standalone="no"?>
<svg
   viewBox="0 0 513.25 240.28"
   version="1.1"
   id="svg29"
   sodipodi:docname="ASI_Italy.svg"
   inkscape:version="1.4.2 (ebf0e940, 2025-05-08)"
   xmlns:inkscape="http://www.inkscape.org/namespaces/inkscape"
   xmlns:sodipodi="http://sodipodi.sourceforge.net/DTD/sodipodi-0.dtd"
   xmlns="http://www.w3.org/2000/svg"
   xmlns:svg="http://www.w3.org/2000/svg">
  <sodipodi:namedview
     id="namedview29"
     pagecolor="#ffffff"
     bordercolor="#000000"
     borderopacity="0.25"
     inkscape:showpageshadow="2"
     inkscape:pageopacity="0.0"
     inkscape:pagecheckerboard="0"
     inkscape:deskcolor="#d1d1d1"
     inkscape:zoom="1.6639065"
     inkscape:cx="256.3245"
     inkscape:cy="119.89857"
     inkscape:window-width="1760"
     inkscape:window-height="968"
     inkscape:window-x="72"
     inkscape:window-y="30"
     inkscape:window-maximized="0"
     inkscape:current-layer="svg29" />
  <defs
     id="defs2">
    <style
       id="style1">.cls-1{fill:#003571;}.cls-2{fill:url(#linear-gradient);}</style>
    <linearGradient
       id="linear-gradient"
       x1="208.23"
       y1="226.43"
       x2="208.23"
       y2="9"
       gradientTransform="rotate(0.23,105.90194,635.02496)"
       gradientUnits="userSpaceOnUse">
      <stop
         offset="0"
         stop-color="#127fbf"
         id="stop1" />
      <stop
         offset="1"
         stop-color="#49bfea"
         id="stop2" />
    </linearGradient>
  </defs>
  <rect
     style="fill:#ffffff;fill-opacity:1;stroke:#ffffff;stroke-width:0;stroke-miterlimit:1;stroke-dasharray:none;stroke-opacity:1"
     id="rect29"
     width="513"
     height="242.02484"
     x="0"
     y="0" />
  <g
     id="Layer_2"
     data-name="Layer 2"
     transform="scale(0.99953238)">
    <g
       id="area_di_rispetto"
       data-name="area di rispetto">
      <path
         class="cls-1"
         d="M 248.61,69.46 A 10.63,10.63 0 1 0 259.28,58.88 10.64,10.64 0 0 0 248.61,69.46 Z"
         id="path2" />
      <path
         class="cls-1"
         d="m 189.94,105.69 a 7.61,7.61 0 0 1 5.95,2.26 8,8 0 0 1 1.78,6.08 l 19.91,0.08 c -0.19,-7.07 -2.33,-12.68 -6.87,-16.82 -4.54,-4.14 -10.12,-6.22 -18.4,-6.26 q -11.16,0 -19.17,4.9 -8.01,4.9 -9.57,13.48 a 30.7,30.7 0 0 0 -0.46,5.25 17.81,17.81 0 0 0 2.69,10.19 20.25,20.25 0 0 0 6.6,6.31 c 3.21,1.93 12.93,7.11 14.57,8 a 14.1,14.1 0 0 1 4.09,3.24 6.9,6.9 0 0 1 1.62,4.66 8.31,8.31 0 0 1 -2.49,6.22 8.76,8.76 0 0 1 -6.41,2.39 c -2.92,0 -5.14,-0.86 -6.66,-2.55 -1.52,-1.69 -2.17,-4 -1.94,-6.9 l -19.92,-0.08 q 0.06,11.06 7.48,17.59 7.42,6.53 20.76,6.6 a 36.09,36.09 0 0 0 14.35,-2.62 26.51,26.51 0 0 0 10,-7.13 21,21 0 0 0 4.8,-9.94 32.67,32.67 0 0 0 0.46,-5.36 17.5,17.5 0 0 0 -2.8,-10.3 21.24,21.24 0 0 0 -6.71,-6.31 82.11,82.11 0 0 0 -10.1,-4.81 q -4.48,-1.87 -6.88,-3.09 a 13,13 0 0 1 -4,-3 6.28,6.28 0 0 1 -1.57,-4.33 7.2,7.2 0 0 1 2.37,-5.74 10.19,10.19 0 0 1 6.52,-2.01 z"
         id="path3" />
      <path
         class="cls-1"
         d="m 242.39,66.15 a 386.84,386.84 0 0 0 -56.32,-4.08 c -9.57,0 -19.38,0.22 -29.16,0.78 -64.28,3.65 -120.56,19.71 -140.06,40 -5.24,5.44 -7.63,11 -7.11,16.5 1.84,19.57 30.84,34.13 93.73,37.17 v 0 a 0.54,0.54 0 0 0 0.57,-0.48 0.54,0.54 0 0 0 -0.54,-0.54 c -16.69,-0.81 -31,-5.13 -48.12,-10.69 -21.61,-7 -31.2,-15.87 -31.88,-23.06 -0.49,-5.23 1.81,-10.52 6.84,-15.75 19.31,-20 83.82,-35.93 147.81,-39.58 a 450.42,450.42 0 0 1 64.1,0.79 h 0.08 a 0.56,0.56 0 0 0 0.58,-0.51 0.54,0.54 0 0 0 -0.52,-0.55 z"
         id="path4" />
      <path
         class="cls-1"
         d="m 0.39,233.63 119.3,-118.32 -9.78,54.2 h 6.61 l 12.2,0.05 q 7,-38.65 14,-77.3 l -18.14,-0.08 h -0.47 c -0.18,0 -0.27,0.09 -0.42,0.26 L 0.07,233.31 a 0.22,0.22 0 0 0 -0.07,0.16 0.23,0.23 0 0 0 0.23,0.23 0.24,0.24 0 0 0 0.16,-0.07 z"
         id="path5" />
      <polygon
         class="cls-1"
         points="231.82,169.51 250.71,169.59 264.66,92.29 245.95,92.21 "
         id="polygon5" />
      <path
         class="cls-2"
         d="m 314.37,114.65 a 118.87,118.87 0 0 0 -25,-68.09 120.93,120.93 0 0 0 -34,-29.84 A 118.6,118.6 0 0 0 217.58,2.29 111,111 0 0 0 199.73,0.12 C 198.57,0 197.35,0 195.92,0 h -2.69 -1.73 -1.06 l -6.8,0.41 a 112.27,112.27 0 0 0 -25.49,5.17 l -0.88,0.27 c -0.56,0.17 -1.1,0.33 -1.62,0.53 l -2.32,0.86 -1.43,0.54 c -1,0.36 -1.88,0.71 -2.75,1.08 l -2.57,1.15 c -1.47,0.65 -2.75,1.22 -3.85,1.78 l -5.15,2.7 a 0.38,0.38 0 0 0 -0.18,0.5 0.4,0.4 0 0 0 0.5,0.2 l 5.44,-2.1 c 1.12,-0.43 2.41,-0.85 3.9,-1.33 l 2.68,-0.88 c 0.79,-0.25 1.64,-0.47 2.53,-0.71 l 1.7,-0.45 2.34,-0.64 c 0.51,-0.14 1,-0.25 1.58,-0.37 l 0.91,-0.19 a 120.07,120.07 0 0 1 24.92,-3 l 6.52,0.08 2.6,0.17 c 2.07,0.13 4.22,0.27 6.28,0.56 2.24,0.22 4.52,0.59 6.93,1 l 1.23,0.2 c 0.89,0.15 1.78,0.35 2.67,0.54 l 1.52,0.32 2.12,0.45 2.14,0.57 c 2.44,0.59 4.84,1.35 7.37,2.16 l 1.24,0.39 4.34,1.62 c 0.93,0.34 1.87,0.74 2.77,1.14 l 1.55,0.66 a 120.32,120.32 0 0 1 17.15,9.19 115.57,115.57 0 0 1 30.12,28.49 114.42,114.42 0 0 1 11.14,18.73 113.11,113.11 0 0 1 7.38,21 111.53,111.53 0 0 1 3.03,22.33 l 0.1,4.82 -0.12,3.74 c 0,0.32 0,0.65 0,1 0,0.66 0,1.34 -0.1,1.93 -0.1,0.59 -0.12,1.39 -0.18,2.08 -0.08,1.13 -0.18,2.3 -0.33,3.46 -0.1,0.69 -0.19,1.37 -0.28,2.06 -0.15,1.18 -0.3,2.39 -0.53,3.58 a 111.28,111.28 0 0 1 -16.34,42 115.22,115.22 0 0 1 -68.42,48.88 114.34,114.34 0 0 1 -19.26,3.16 c -1,0.12 -2,0.17 -3,0.21 l -1.67,0.08 -2.21,0.12 h -5.39 c -0.56,0 -1.1,0 -1.63,-0.05 l -4.4,-0.22 a 130.69,130.69 0 0 1 -16.75,-2.42 114.78,114.78 0 0 1 -14.75,-4.2 119.93,119.93 0 0 1 -22.61,-10.79 136.81,136.81 0 0 1 -13.28,-9.36 l -4.43,-3.74 a 0.4,0.4 0 0 0 -0.54,0 0.38,0.38 0 0 0 0,0.53 l 4,4.24 1,0.92 a 111.61,111.61 0 0 0 11.47,9.85 c 0.94,0.69 1.93,1.38 3,2.09 l 1.65,1.21 c 1.07,0.71 2.2,1.42 3.36,2.15 l 1.9,1.21 1.48,0.84 c 1.42,0.81 2.89,1.65 4.45,2.45 0.59,0.28 1.19,0.58 1.79,0.88 1.54,0.77 3.13,1.57 4.8,2.25 a 117.47,117.47 0 0 0 15.13,5.54 125.13,125.13 0 0 0 17.6,3.64 l 4.77,0.51 c 0.75,0.09 1.53,0.15 2.41,0.19 l 4.76,0.27 h 2.57 3 c 0.82,0 1.48,0 2.08,0 l 5.14,-0.25 5.2,-0.52 c 3.37,-0.44 7,-0.95 10.56,-1.74 a 121.39,121.39 0 0 0 42,-17.33 120.6,120.6 0 0 0 52.92,-80.61 c 0.25,-1.36 0.43,-2.75 0.6,-4.1 0.09,-0.72 0.18,-1.44 0.28,-2.16 0.17,-1.41 0.28,-2.89 0.39,-4.31 0,-0.7 0.1,-1.4 0.16,-2.09 0.06,-0.69 0.09,-1.45 0.1,-2.11 0,-0.32 0,-0.64 0,-1 l 0.08,-3 v -1.1 z"
         id="path6"
         style="fill:url(#linear-gradient)" />
      <path
         class="cls-1"
         d="m 371.87,106.51 a 13.84,13.84 0 0 0 -2.73,-1.14 10.29,10.29 0 0 0 -3.06,-0.49 5.78,5.78 0 0 0 -3.43,0.84 2.77,2.77 0 0 0 -1.14,2.38 2.44,2.44 0 0 0 0.6,1.71 4.57,4.57 0 0 0 1.74,1.1 27.7,27.7 0 0 0 3.35,1 l 0.7,0.15 a 30,30 0 0 1 4.89,1.73 7.35,7.35 0 0 1 2.94,2.44 8,8 0 0 1 -1.82,10.1 12.63,12.63 0 0 1 -7.33,2 20.75,20.75 0 0 1 -6.12,-0.93 18.88,18.88 0 0 1 -5.43,-2.63 l 2.37,-4.5 a 7.43,7.43 0 0 0 2,1.4 18.43,18.43 0 0 0 3.42,1.41 13,13 0 0 0 3.87,0.6 6.32,6.32 0 0 0 3.39,-0.73 2.66,2.66 0 0 0 0.51,-3.92 4.83,4.83 0 0 0 -1.75,-1.14 32.41,32.41 0 0 0 -3.12,-1 l -1.66,-0.46 a 22.42,22.42 0 0 1 -4.5,-1.69 6.4,6.4 0 0 1 -2.54,-2.29 6.63,6.63 0 0 1 -0.83,-3.47 8.1,8.1 0 0 1 1.32,-4.68 8.2,8.2 0 0 1 3.6,-3 12.58,12.58 0 0 1 5.12,-1 17.1,17.1 0 0 1 9.57,3.1 l -2.33,4.27 a 5.75,5.75 0 0 0 -1.6,-1.16 z"
         id="path7" />
      <path
         class="cls-1"
         d="m 380,107.71 h 5.08 V 120 a 7.22,7.22 0 0 0 2.21,3 5,5 0 0 0 3.1,1.16 4.81,4.81 0 0 0 2.83,-0.87 5.78,5.78 0 0 0 1.92,-2.33 7.25,7.25 0 0 0 0.68,-3.08 6.33,6.33 0 0 0 -0.76,-3.1 6,6 0 0 0 -2.06,-2.28 5.27,5.27 0 0 0 -2.93,-0.83 5,5 0 0 0 -1.92,0.4 5.59,5.59 0 0 0 -1.72,1.11 V 109 a 8,8 0 0 1 2.32,-1.24 8.7,8.7 0 0 1 2.72,-0.42 8.79,8.79 0 0 1 4.86,1.41 9.63,9.63 0 0 1 3.41,3.82 11.28,11.28 0 0 1 1.22,5.23 12.62,12.62 0 0 1 -1.12,5.37 9.2,9.2 0 0 1 -3.18,3.82 8,8 0 0 1 -4.61,1.39 7.9,7.9 0 0 1 -7,-4 V 136.2 H 380 Z"
         id="path8" />
      <path
         class="cls-1"
         d="m 407.69,127 a 9.5,9.5 0 0 1 -3.41,-3.82 12.3,12.3 0 0 1 0,-10.64 9.72,9.72 0 0 1 3.27,-3.8 8.11,8.11 0 0 1 4.63,-1.39 7.82,7.82 0 0 1 4.07,1.08 7.53,7.53 0 0 1 2.83,2.91 V 108 h 5 v 20 h -5 v -12.23 a 7,7 0 0 0 -2.19,-3 5,5 0 0 0 -3.16,-1.14 4.59,4.59 0 0 0 -2.79,0.91 6.37,6.37 0 0 0 -1.95,2.34 6.84,6.84 0 0 0 0,6.15 5.58,5.58 0 0 0 2,2.22 5.35,5.35 0 0 0 2.93,0.82 4.93,4.93 0 0 0 2.05,-0.43 5.1,5.1 0 0 0 1.71,-1.2 v 4 a 7,7 0 0 1 -5.08,2 9,9 0 0 1 -4.91,-1.44 z"
         id="path9" />
      <path
         class="cls-1"
         d="m 427.24,124.92 11.36,-13.64 h -10.89 v -3.57 H 444 v 3.1 L 429.8,128 h -2.56 z m 7.25,-0.46 h 9.69 V 128 h -12.64 z"
         id="path10" />
      <path
         class="cls-1"
         d="m 460.4,127 a 9.5,9.5 0 0 1 -3.4,-3.8 12.3,12.3 0 0 1 0,-10.64 9.72,9.72 0 0 1 3.27,-3.8 8.14,8.14 0 0 1 4.64,-1.39 7.81,7.81 0 0 1 4.06,1.08 7.53,7.53 0 0 1 2.83,2.91 V 108 h 5 v 20 h -5 v -12.23 a 7,7 0 0 0 -2.19,-3 5,5 0 0 0 -3.15,-1.14 4.55,4.55 0 0 0 -2.79,0.91 6.39,6.39 0 0 0 -2,2.34 6.84,6.84 0 0 0 0,6.15 5.66,5.66 0 0 0 2,2.22 5.35,5.35 0 0 0 2.93,0.82 4.93,4.93 0 0 0 2,-0.43 5.1,5.1 0 0 0 1.71,-1.2 v 4 a 7,7 0 0 1 -5.08,2 9,9 0 0 1 -4.83,-1.44 z"
         id="path11" />
      <path
         class="cls-1"
         d="m 482.63,127 a 4.87,4.87 0 0 1 -1.32,-3.63 V 99.73 h 5.08 v 21.9 a 3,3 0 0 0 0.44,1.84 1.62,1.62 0 0 0 1.34,0.56 5.73,5.73 0 0 0 2.36,-0.54 l 0.7,3.84 a 13.26,13.26 0 0 1 -2.38,0.71 11.79,11.79 0 0 1 -2.5,0.29 5.07,5.07 0 0 1 -3.72,-1.33 z"
         id="path12" />
      <path
         class="cls-1"
         d="m 497.53,127 a 11.09,11.09 0 0 1 -4,-3.9 9.87,9.87 0 0 1 -1.49,-5.27 10,10 0 0 1 1.43,-5.23 10.72,10.72 0 0 1 13.27,-4.38 10.84,10.84 0 0 1 3.45,2.25 9.11,9.11 0 0 1 2.23,3.29 l -11.96,8.24 -1.83,-2.68 8.1,-5.62 a 5.38,5.38 0 0 0 -1.84,-1.45 5,5 0 0 0 -2.15,-0.49 5.22,5.22 0 0 0 -2.83,0.82 5.53,5.53 0 0 0 -2,2.21 6.57,6.57 0 0 0 -0.72,3.06 6.5,6.5 0 0 0 0.77,3.1 5.92,5.92 0 0 0 2.14,2.27 5.48,5.48 0 0 0 2.9,0.83 5.6,5.6 0 0 0 2.1,-0.41 6.93,6.93 0 0 0 1.88,-1.1 5.87,5.87 0 0 0 1.33,-1.59 l 4.93,1.51 a 8.62,8.62 0 0 1 -2.27,3 12.45,12.45 0 0 1 -3.7,2.19 12,12 0 0 1 -4.27,0.81 10.83,10.83 0 0 1 -5.47,-1.46 z"
         id="path13" />
      <path
         class="cls-1"
         d="m 447.43,107.71 h 5.08 V 128 h -5.08 z m -0.27,-6 a 2.81,2.81 0 1 0 2.84,-2.79 2.81,2.81 0 0 0 -2.84,2.81 z"
         id="path14" />
      <path
         class="cls-1"
         d="m 365.19,58.93 h 5.39 l 10.11,27.52 h -5.39 l -2.55,-6.94 h -8.3 l 1.16,-3.68 h 6.21 l -4,-11.55 -7.44,22.17 H 355 Z"
         id="path15" />
      <path
         class="cls-1"
         d="m 394.94,84.94 a 10.48,10.48 0 0 0 5.06,-1.28 9.79,9.79 0 0 0 3.72,-3.47 9,9 0 0 0 0,-9.57 c -0.09,-0.14 -0.19,-0.27 -0.29,-0.41 l 2,-2.4 -3.18,-2.33 -1.58,2.07 c -0.21,-0.13 -0.42,-0.28 -0.65,-0.4 a 10.78,10.78 0 0 0 -10.19,0 9.74,9.74 0 0 0 -3.7,3.47 8.85,8.85 0 0 0 -1.36,4.78 9,9 0 0 0 1,4 9.46,9.46 0 0 0 2.62,3.21 l 2.83,-4.11 a 4.15,4.15 0 0 1 -0.89,-1.43 4.67,4.67 0 0 1 -0.33,-1.67 5.34,5.34 0 0 1 0.65,-2.65 5,5 0 0 1 1.81,-1.88 4.65,4.65 0 0 1 2.5,-0.7 4.7,4.7 0 0 1 2.5,0.7 5.13,5.13 0 0 1 1.82,1.88 5.48,5.48 0 0 1 0,5.29 5.19,5.19 0 0 1 -1.82,1.9 4.79,4.79 0 0 1 -2.5,0.7 4.31,4.31 0 0 1 -2.87,-1 l -6.16,9 2.24,3.88 a 14.64,14.64 0 0 1 3.32,-1.24 15.22,15.22 0 0 1 3.51,-0.39 14.3,14.3 0 0 1 3.45,0.41 18,18 0 0 1 3.33,1.22 L 404,88.58 a 16,16 0 0 0 -4.21,-1.43 21.83,21.83 0 0 0 -4.48,-0.51 11.28,11.28 0 0 0 -3.81,0.62 l -0.59,0.24 2.27,-2.73 a 10.27,10.27 0 0 0 1.76,0.17 z"
         id="path16" />
      <path
         class="cls-1"
         d="m 415.19,85.38 a 11,11 0 0 1 -4,-3.89 10.17,10.17 0 0 1 -0.09,-10.49 10.68,10.68 0 0 1 13.27,-4.38 11,11 0 0 1 3.45,2.24 9.23,9.23 0 0 1 2.23,3.3 l -11.94,8.24 -1.82,-2.67 8.1,-5.62 a 5.26,5.26 0 0 0 -1.84,-1.45 4.87,4.87 0 0 0 -2.15,-0.49 5.11,5.11 0 0 0 -2.83,0.82 5.46,5.46 0 0 0 -2,2.21 6.74,6.74 0 0 0 0.05,6.16 6,6 0 0 0 2.14,2.27 5.48,5.48 0 0 0 2.9,0.83 5.81,5.81 0 0 0 2.1,-0.41 6.93,6.93 0 0 0 1.88,-1.1 5.87,5.87 0 0 0 1.36,-1.59 l 4.93,1.51 a 8.62,8.62 0 0 1 -2.27,3 12,12 0 0 1 -3.7,2.19 11.8,11.8 0 0 1 -4.27,0.82 10.84,10.84 0 0 1 -5.5,-1.5 z"
         id="path17" />
      <path
         class="cls-1"
         d="m 435.36,66.14 h 5.08 v 20.31 h -5.08 z m 13.72,8.92 a 6.4,6.4 0 0 0 -0.83,-3.63 2.79,2.79 0 0 0 -2.43,-1.18 4.66,4.66 0 0 0 -2.11,0.54 7,7 0 0 0 -1.92,1.44 v -4.38 a 8.52,8.52 0 0 1 2.85,-1.53 11,11 0 0 1 3.43,-0.53 q 3.42,0 4.75,2.23 a 11.19,11.19 0 0 1 1.34,5.8 v 12.63 h -5.08 z"
         id="path18" />
      <path
         class="cls-1"
         d="m 459,83.35 11.36,-13.64 h -10.93 v -3.57 h 16.28 v 3.1 L 461.52,86.45 H 459 Z m 7.25,-0.47 h 9.69 v 3.57 h -12.67 z"
         id="path19" />
      <path
         class="cls-1"
         d="m 481,66.14 h 5.07 V 86.45 H 481 Z m -0.27,-6 a 2.81,2.81 0 1 0 2.81,-2.81 2.81,2.81 0 0 0 -2.79,2.83 z"
         id="path20" />
      <path
         class="cls-1"
         d="m 495.84,85.44 a 9.47,9.47 0 0 1 -3.41,-3.81 12.3,12.3 0 0 1 0,-10.64 9.59,9.59 0 0 1 3.28,-3.8 8.1,8.1 0 0 1 4.63,-1.4 7.75,7.75 0 0 1 4.07,1.09 7.65,7.65 0 0 1 2.83,2.9 v -3.41 h 5 v 20.08 h -5 V 74.2 a 7,7 0 0 0 -2.19,-3 5,5 0 0 0 -3.16,-1.15 4.64,4.64 0 0 0 -2.79,0.91 6.42,6.42 0 0 0 -2,2.35 6.82,6.82 0 0 0 0,6.14 5.57,5.57 0 0 0 2,2.23 5.4,5.4 0 0 0 2.92,0.82 5.15,5.15 0 0 0 3.76,-1.63 v 4 a 7,7 0 0 1 -5.08,2 9,9 0 0 1 -4.86,-1.43 z"
         id="path21" />
      <path
         class="cls-1"
         d="m 356.34,142.12 h 5.2 v 27.52 h -5.2 z"
         id="path22" />
      <path
         class="cls-1"
         d="m 371.48,168.76 a 4.54,4.54 0 0 1 -1.46,-3.7 V 153.2 h -2.67 v -3.87 H 370 v -6.59 h 5 v 6.59 h 5 l -1.94,3.87 h -3.1 v 10.16 a 2,2 0 0 0 0.58,1.49 2.11,2.11 0 0 0 1.44,0.49 5,5 0 0 0 1.47,-0.24 6.88,6.88 0 0 0 1.36,-0.54 l 1,4 a 0.67,0.67 0 0 1 -0.21,0.1 l -0.21,0.06 a 20.73,20.73 0 0 1 -2.62,0.89 10.74,10.74 0 0 1 -2.69,0.35 5.58,5.58 0 0 1 -3.6,-1.2 z"
         id="path23" />
      <path
         class="cls-1"
         d="m 389.42,168.63 a 9.5,9.5 0 0 1 -3.41,-3.82 12.3,12.3 0 0 1 0,-10.64 9.66,9.66 0 0 1 3.28,-3.8 8.09,8.09 0 0 1 4.61,-1.37 7.84,7.84 0 0 1 4.07,1.08 7.74,7.74 0 0 1 2.83,2.92 v -3.41 h 5 v 20.08 h -5 v -12.28 a 7.13,7.13 0 0 0 -2.19,-3 5,5 0 0 0 -3.16,-1.14 4.66,4.66 0 0 0 -2.79,0.91 6.42,6.42 0 0 0 -2,2.35 6.82,6.82 0 0 0 0,6.14 5.64,5.64 0 0 0 2,2.23 5.39,5.39 0 0 0 2.92,0.81 5.13,5.13 0 0 0 2.06,-0.42 5.47,5.47 0 0 0 1.7,-1.2 v 4 a 6.93,6.93 0 0 1 -5.08,2 9,9 0 0 1 -4.84,-1.44 z"
         id="path24" />
      <path
         class="cls-1"
         d="M 414.29,168.65 A 4.86,4.86 0 0 1 413,165 v -23.66 h 5.08 v 21.9 a 2.94,2.94 0 0 0 0.44,1.84 1.59,1.59 0 0 0 1.34,0.56 5.73,5.73 0 0 0 2.36,-0.54 l 0.7,3.84 a 14.08,14.08 0 0 1 -2.38,0.72 12.47,12.47 0 0 1 -2.5,0.29 5,5 0 0 1 -3.75,-1.3 z"
         id="path25" />
      <path
         class="cls-1"
         d="m 443.14,168.63 a 9.43,9.43 0 0 1 -3.41,-3.82 12.3,12.3 0 0 1 0,-10.64 9.66,9.66 0 0 1 3.28,-3.8 8.09,8.09 0 0 1 4.63,-1.39 7.75,7.75 0 0 1 6.9,4 v -3.41 h 5 v 20.08 h -5 v -12.26 a 7.13,7.13 0 0 0 -2.19,-3 5,5 0 0 0 -3.16,-1.14 4.61,4.61 0 0 0 -2.79,0.91 6.42,6.42 0 0 0 -2,2.35 6.82,6.82 0 0 0 0,6.14 5.68,5.68 0 0 0 2,2.23 5.45,5.45 0 0 0 2.93,0.81 5.16,5.16 0 0 0 2.06,-0.42 5.47,5.47 0 0 0 1.7,-1.2 v 4 a 6.94,6.94 0 0 1 -5.08,2 9,9 0 0 1 -4.87,-1.44 z"
         id="path26" />
      <path
         class="cls-1"
         d="m 466.69,149.33 h 5.07 v 20.31 h -5.07 z m 13.72,8.91 a 6.37,6.37 0 0 0 -0.83,-3.62 2.79,2.79 0 0 0 -2.43,-1.18 4.66,4.66 0 0 0 -2.15,0.56 7.18,7.18 0 0 0 -1.92,1.43 V 151 a 8.89,8.89 0 0 1 2.92,-1.5 11,11 0 0 1 3.43,-0.52 c 2.27,0 3.86,0.74 4.75,2.23 a 11.15,11.15 0 0 1 1.34,5.79 v 12.64 h -5.08 z"
         id="path27" />
      <path
         class="cls-1"
         d="m 495.85,168.63 a 9.5,9.5 0 0 1 -3.41,-3.82 12.3,12.3 0 0 1 0,-10.64 9.74,9.74 0 0 1 3.28,-3.8 8.09,8.09 0 0 1 4.63,-1.39 7.75,7.75 0 0 1 6.9,4 v -3.41 h 5 v 20.08 h -5 v -12.26 a 7.13,7.13 0 0 0 -2.19,-3 5,5 0 0 0 -3.16,-1.14 4.66,4.66 0 0 0 -2.79,0.91 6.42,6.42 0 0 0 -2,2.35 6.9,6.9 0 0 0 0,6.14 5.64,5.64 0 0 0 2,2.23 5.39,5.39 0 0 0 2.92,0.81 5.13,5.13 0 0 0 2.06,-0.42 5.47,5.47 0 0 0 1.7,-1.2 v 4 a 6.92,6.92 0 0 1 -5.07,2 9,9 0 0 1 -4.87,-1.44 z"
         id="path28" />
      <path
         class="cls-1"
         d="m 427.54,149.33 h 5.08 v 20.31 h -5.08 z m -0.27,-6 a 2.81,2.81 0 1 0 2.81,-2.8 2.81,2.81 0 0 0 -2.81,2.81 z"
         id="path29" />
    </g>
  </g>
</svg>
