<svg xmlns="http://www.w3.org/2000/svg" viewBox="0 0 110 56.05" height="225.3" width="442">
    <defs>
        <style>.cls-1{fill:#03d;fill-rule:evenodd;}</style>
    </defs>
    <title>FeatherFooter</title>
    <g id="Layer_2">
        <g id="Layer_1-2">
            <path class="cls-1" d="M63.11,48.58Z" />
            <path class="cls-1" d="M110,13.09l0-.64v0l0-.25a0,0,0,0,0,0,0h0l-.4.16s0,0,0,0l.23-.25s0,0,0,0l-.1.06s0,0,0,0l.22-.31s0-.05,0,0a4.86,4.86,0,0,1-.5.18s.35-.27.56-.41a0,0,0,0,0,0,0s0,0,0,0l-.27,0a.05.05,0,0,1,0-.09l.22-.19a.14.14,0,0,0,.06-.15l-.12-1-.07-.44a.3.3,0,0,0-.17-.22l-.48-.15a.05.05,0,0,1,0-.1h.47a.08.08,0,0,0,.08-.08l-.07-.43a2.43,2.43,0,0,0-.21-.68L109,7.41s0,0-.06-.09a.15.15,0,0,0-.15-.09l-.43,0a.06.06,0,0,1-.07-.08.09.09,0,0,0-.09-.11h-.32s0-.09,0-.09a6.92,6.92,0,0,0,.79-.21h0v0h-.09s-.89-1.43-.93-1.47l-.74-.72-.1-.07-.48-.29a.27.27,0,0,0-.26,0,2.21,2.21,0,0,0-.58.38s-.1,0-.08-.06a1.94,1.94,0,0,0,.16-.59.33.33,0,0,0-.13-.31h0l-.37-.27-1-.59-.06,0-.05,0a.31.31,0,0,0-.28,0c-.29.17-.62.36-.92.55a0,0,0,0,1-.05,0c.11-.19.21-.4.3-.6,0,0,0-.07-.06,0-.29.24-.61.53-.77.69s-.06,0,0,0l.46-.91a.07.07,0,0,0-.06-.11L102,2.15l-.08,0L101.73,2a.1.1,0,0,0-.09,0,.33.33,0,0,1-.13,0c-.38,0-.58.76-.71,1.12a.58.58,0,0,1-.15.25,18.38,18.38,0,0,0-1.4,2,.08.08,0,0,1-.14-.07L100.49,2a.35.35,0,0,0-.21-.46l-.07,0a.31.31,0,0,0-.23,0l-.07,0a.32.32,0,0,1-.22,0l-.22-.06a.09.09,0,0,0-.11,0,22.82,22.82,0,0,0-3.47,7.57c0,.06-.1,0-.09,0,.67-4.17,1.45-7.65,1.6-8.28,0,0,0-.05,0,0l0,0s0,0,0,0h0a0,0,0,0,0,0,0l0,.06h0a21.92,21.92,0,0,0-1,3.46c-.27,1,.32-2.55.49-3.53A.11.11,0,0,0,96.54.6h0a.11.11,0,0,0-.14.07c-.09.23-.2.51-.33.86a2.87,2.87,0,0,0,0-.65.49.49,0,0,0-.42-.46l-.17,0a.16.16,0,0,0-.18.12c-.22.92-.66,2.68-1.46,5.81a.12.12,0,0,1-.23,0A21.13,21.13,0,0,0,93.41.2.25.25,0,0,0,93.23,0H93l-.33,0a.08.08,0,0,0-.08.08c-.06.72-.2,2.25-.54,4.44a.05.05,0,0,1-.1,0C92.05,3,92,1.21,92,.35a.21.21,0,0,0-.23-.21L90.44.49a.42.42,0,0,0-.28.19v0c-.92,1.63-1.65,5-2.25,7.81,0,.06-.1,0-.09,0a35.64,35.64,0,0,1,1.66-7.36A.08.08,0,0,0,89.35,1l-.61.31-.32.21a1.27,1.27,0,0,0-.46.54,35.14,35.14,0,0,0-1.49,5,.1.1,0,0,1-.2,0,18.44,18.44,0,0,1,1.17-4.75,0,0,0,0,0,0,0h0l-1.2,1L84.5,5a1.9,1.9,0,0,0-.35.49l-.32.63a.06.06,0,0,1-.11,0h0s0,0,0,0l0-.16a.2.2,0,0,1,0-.11,7.44,7.44,0,0,1,.2-.78.65.65,0,0,1,0-.13c.07-.18.18-.43.24-.57h0l-.18.1a2.78,2.78,0,0,0-.21.46s0,0,0,0v0l.06-.31h0l-.26.21a4.7,4.7,0,0,1-.16.49s-.06,0-.06,0,0-.18,0-.28h0a3.34,3.34,0,0,0-.35.45c-.09.32-.15.66-.25,1h0a4.07,4.07,0,0,0-.28.55l0,.05c-.18.77-.42,1.54-.58,2.31-.06.28-.14.56-.2.83a.16.16,0,0,1-.06.08s0,0,0,0a.59.59,0,0,0,0,.08l0,.06a1.12,1.12,0,0,0-.16.22l0,.09a.12.12,0,0,1-.22,0l-.29-.49a.65.65,0,0,0-.39-.3h0a.91.91,0,0,1-.36-.2h0a.06.06,0,0,0-.1,0h0a1,1,0,0,1-.15.53l-.26.42a0,0,0,0,1,0,0h0a0,0,0,1,0,0,0l-.26.48,0,0-.07.16,0,.05,0-.24s0,0,0,0l-.55,1.66c-.06,0-.1,0-.08-.16s.09-.42.13-.64a.08.08,0,0,0-.13-.08h0a1.29,1.29,0,0,0-.45.63l-.09.24a.07.07,0,0,1-.12,0s0-.1-.11,0a.08.08,0,0,0,0,.06c-.06.29-.09.29-.18.62l-.15.27a3.6,3.6,0,0,0-.12.44l-.09.36a0,0,0,1,1-.08,0v0l0-.08s0-.09,0-.11-.08,0-.08,0l0,.06h0a13.57,13.57,0,0,0-.86,1.29.07.07,0,0,1-.06,0h0a.07.07,0,0,1-.07-.09v-.06c.15-.64.3-1.27.44-1.91a4,4,0,0,0,.18-.53c.08-.5.61-1.92.58-1.89.41-1.29.45-1.76.33-1.84h0c-.14-.08-.48.35-.69.64-1,1.94-2.67,3.52-5.3,5.19h0l-.13.08h0L70,16c-2.12,1.24-4.34,2.35-4.38,2.37a5.9,5.9,0,0,0-2,1.53s0,0,0,0v0s0,0,0,0,0,0,0,0a4.9,4.9,0,0,0-.3.54.25.25,0,0,1,0,.07c-.34.59-.57,1.21-.9,1.79-.13.23-.18.52-.31.75s-.33.77-.53,1.13a21.2,21.2,0,0,0-1.13,2.53,14.16,14.16,0,0,0-.62,1.8c0,.11-.08.22-.13.33-.11.51-.27,1-.41,1.52a.05.05,0,0,1-.05,0h0a0,0,0,0,1,0,0c.05-.22.09-.45.14-.67.21-1.09.44-2.16.68-3.23.1-.44.31-.88.42-1.32A7.86,7.86,0,0,1,60.7,24l.16-.46c.24-.44.43-.9.69-1.33s.4-.59.61-.88a5.5,5.5,0,0,0,.27-.82.08.08,0,0,0-.13-.09h0a2.52,2.52,0,0,0-.47.38c-.14.12-.3.23-.47.36h0l-.15.12a27.47,27.47,0,0,1-2.62,1.66,9.38,9.38,0,0,0-1.8,1.31h0l-.15.15h0a6.31,6.31,0,0,0-.89.9c-.42.61-.82,1.23-1.19,1.87-.15.26-.26.55-.41.82,0,.08,0,.16-.08.24a4.62,4.62,0,0,0-.29.73,2.39,2.39,0,0,0-.13.28c-.14.6-.37,1.19-.51,1.8-.29,1.29-.53,2.59-.8,3.89-.14.69-.39,1.35-.55,2a4.35,4.35,0,0,1-.4,1c-.07.18-.14.35-.2.53-.26.46-.51.94-.81,1.38a4.78,4.78,0,0,1-.34.42c-.09.1-.22.16-.29.26h0a.05.05,0,0,1-.06-.05c.11-.44.43-.84.53-1.28.18-.76.4-1.5.51-2.28.15-1.09.12-2.21.17-3.34a38,38,0,0,1,.57-5.71,8.2,8.2,0,0,1,.81-2.32c.13-.24.19-.53.32-.76s.34-.66.52-1l.05-.1,0-.15a.3.3,0,0,1,0-.08s0-.08,0-.11-.07-.19-.14-.14-.11.14-.17.15a.14.14,0,0,1-.11,0s-.41.47-.51.61l-.06.11,0,.12,0,0c-.13.17-.3.27-.42.44s-.32.54-.47.8c0,0,0,0,0,0a.05.05,0,0,1-.05-.07.14.14,0,0,0,0-.06c0-.11,0-.23.07-.34a0,0,0,0,0-.07,0l0,.05a.46.46,0,0,1-.17.14c-.27.14-.58.79-.7,1a2.2,2.2,0,0,1-.3.31l-.28.7v0l-.07.07s0,0,0,0,0,0,0,0v-.1l.16-.74a.06.06,0,0,0-.07-.07l0,0a10.35,10.35,0,0,0-2.4,1.17s-.08,0,0-.05.18-.25.21-.31h0s0,0,0,0a3.46,3.46,0,0,0-.46.32l-1,.7a.11.11,0,0,0-.13,0l0,0c-.12.13-.23.29-.35.42a.73.73,0,0,1-.26.2h0a.72.72,0,0,0-.25.18l-1,1.09h0A15.67,15.67,0,0,0,43,31.6a5.88,5.88,0,0,0-.33.72l-.06.17a.14.14,0,0,1-.09.09h0a.13.13,0,0,1-.15-.14c0-.12,0-.23,0-.35A3.63,3.63,0,0,1,43,30.77l.08-.13.13-.28a0,0,0,0,0,0-.06H43a.61.61,0,0,0-.24.07h0l-.34.19a1.23,1.23,0,0,0-.41.34,4.72,4.72,0,0,0-.51.75c-.14.26-.19.59-.35.85-.06.07-.14.11-.19.19s-.16.3-.25.43-.21.22-.3.36-.19.47-.31.69a8.48,8.48,0,0,0-.87,2.94c0,.16,0,.3,0,.47a6.2,6.2,0,0,0-.06.62c0,1.28,0,2.63,0,3.9,0,.3,0,.68,0,1a.08.08,0,0,1-.16,0h0c0-.52-.15-1.06-.22-1.59-.05-.34-.17-.61-.22-1-.09-.66-.24-1.34-.32-2a10.58,10.58,0,0,1-.18-1.18,44.67,44.67,0,0,1,.23-4.81,6.33,6.33,0,0,0,0-.87l-.06-.45c0-.19,0-.41,0-.59a3.44,3.44,0,0,1,0-.78,0,0,0,0,0,0,0h0a0,0,0,0,0-.06,0c-.06.15-.14.4-.2.62s0,.39,0,.39-.07.09-.09.06l0-.15a0,0,0,0,0-.08,0c-.09.14-.16.28-.24.42v.06a.25.25,0,0,1-.13.14h0a1.63,1.63,0,0,0-.22.38l0,0-.09.06a1.58,1.58,0,0,0-.13.22,0,0,0,0,1-.07,0h0a0,0,0,0,1,0-.06,4,4,0,0,0,.15-.4c0-.23.12-.47.16-.71a3.16,3.16,0,0,1,0-.32,0,0,0,0,0,0,0h0a0,0,0,0,0,0,0,7.46,7.46,0,0,0-.61,1.15,1.88,1.88,0,0,0-.22.42,4.18,4.18,0,0,1-.2.68c-.09.14-.24.22-.33.35s-.29.46-.43.69A8.73,8.73,0,0,0,34.39,37a9.54,9.54,0,0,0-.07,1.22,1.55,1.55,0,0,0,0,.43c0-.05-.06-.2-.08-.29-.05-.28-.16-.51-.21-.79-.13-.79-.31-1.59-.44-2.34a.42.42,0,0,0-.16-.27,1.52,1.52,0,0,1-.09-.52.08.08,0,0,0-.07-.07h0a.08.08,0,0,0-.07,0c0,.1,0,.2-.05.29a0,0,0,0,1-.09,0h0a.05.05,0,0,0,0,0,.07.07,0,0,0-.11,0,1.62,1.62,0,0,0-.16.5.83.83,0,0,0,0,.22.42.42,0,0,1-.1.32l0,0h0a.06.06,0,0,0-.11,0,.25.25,0,0,0-.05.15h0c-.06-.16-.1-.32-.15-.48a.08.08,0,0,0-.15,0c0,.14,0,.29,0,.43,0,.5,0,1,0,1.56,0,1.07.09,2.16.12,3.26,0,.71.19,1.39.26,2.1s.14,1.11.2,1.7a3,3,0,0,0,.08.65,2.46,2.46,0,0,1-.22-.71l-.55-1.65a3.9,3.9,0,0,1-.32-.89c-.05-.25-.22-.48-.26-.7l-.15-.33a6.37,6.37,0,0,1-.36-.91l-.21-.48c-.1-.54-.48-1-.58-1.55a4.06,4.06,0,0,0-.42-.89c-.15-.33-.3-.66-.46-1-.08-.11-.12-.27-.21-.39L29,35.49a.11.11,0,0,0-.2.06,3.58,3.58,0,0,0,0,.58.07.07,0,0,1,0,.07.14.14,0,0,0,0,.07c0,.34,0,.71,0,1.06a.08.08,0,0,1-.15,0l-.09-.17a.08.08,0,0,0-.14,0,6.7,6.7,0,0,0-.08.92,3.94,3.94,0,0,0-.14.7,9.69,9.69,0,0,0,.21,1.46c0,.15.08.3.13.45.07.51.34,1.05.44,1.58l.19.49c.06.3.27.61.32.93s.22.49.27.76.19.4.23.62.2.4.24.61a8,8,0,0,0,.37,1,.06.06,0,0,1-.06.09h0c-.2.06-.37-.27-.5-.39-.43-.43-.84-.91-1.29-1.33a9.78,9.78,0,0,0-1.53-1.24l-.59-.25c-.05,0-.08,0-.12,0-.19-.11-.33-.27-.51-.38l-.37-.11c-.24-.14-.48-.42-.75-.46-.1,0-.18,0-.27,0s-.39-.14-.58-.18a.86.86,0,0,0-.16,0,.14.14,0,0,0-.13.17h0c0,.36.23.34.45.5s.12.15.2.19v0h0a.08.08,0,0,0-.05.13c.5.64,1.13,1.11,1.65,1.68a5.89,5.89,0,0,1,.6.74l.3.67.35.5c.1.14,0,.22,0,.32s.1.13.15.23a5.73,5.73,0,0,1-.69.16c-.37.07-.72.21-1.07.27-.64.1-1.27.36-1.89.46-.39.07-.7.23-1.08.3-1.28.22-2.57.7-3.85.91-.18,0-.28.11-.46.14-.76.13-1.5.42-2.27.54s-1.38.37-2.1.49c-1.72.29-3.43.83-5.14,1.13-.15,0-.23.09-.36.11-.66.1-1.35.34-2,.45l-.59.17c-1,.18-2.12.64-3.19.84-.42.07-.8.27-1.2.34l-.53.19c-.7.14-.94.5-.87,1,.14,1,1.07.63,1.67.57,1.1-.11,2.23-.31,3.35-.47.55-.08,1-.26,1.59-.33,1.48-.22,3-.67,4.46-.92.57-.09,1.11-.3,1.66-.39l.47-.13c.59-.1,1.23-.32,1.82-.42l.71-.2c.82-.14,1.67-.45,2.48-.59l.86-.24c.92-.16,1.86-.52,2.78-.68l1-.27c1.31-.23,2.65-.79,4-1a10.9,10.9,0,0,1,1.94-.47.15.15,0,0,1,.14.12h0a.09.09,0,0,0,0,.08.1.1,0,0,0,.08,0s.07,0,.08,0,.06.3.18.34h0s0,0,0,0,0-.12,0-.18a1.21,1.21,0,0,0,0-.25s0,0,0,0h0a0,0,0,0,1,0,0,.07.07,0,0,0,0,0c.05,0,.06,0,.07,0s0,0,.05,0a3.05,3.05,0,0,0,.24.51.76.76,0,0,1,.08.15h0a1.83,1.83,0,0,0-.09-.71s0-.06.05-.07h0s0,0,.06,0a.54.54,0,0,1,.09.15l.17.47c.06.36.15.74.2,1.08s.15.19.17.38a5.62,5.62,0,0,1,0,.58,1.48,1.48,0,0,1,0,.42h0l.07-.07s.06,0,.08,0h0a.11.11,0,0,1,0,.11c0,.2.05.42,0,.63a0,0,0,0,0,.06,0,1.87,1.87,0,0,0,.15-.32v0h0a1.71,1.71,0,0,1,.06.66s0,.07.07,0a.5.5,0,0,0,.16-.35h0v0c0,.05.05.09.1.05s.13-.3.22-.45v0h.07a2.56,2.56,0,0,0,.3-1.12.75.75,0,0,0,0-.15.19.19,0,0,1,0-.16l0,0,0-.06a2.14,2.14,0,0,0,.06-.27c0-.12.1-.25.13-.37A5.71,5.71,0,0,0,32,48.72a.05.05,0,0,1,0-.07h0a.05.05,0,0,1,.07,0c.08.17.15.34.23.52.28.38.43.84.71,1.19.43.54.8,1.15,1.23,1.7.15.2.25.45.39.65l.18.33c.32.43.52,1,.84,1.46l.21.41c.19.25.39.47.57.69a.09.09,0,0,0,.15,0,.13.13,0,0,0,0-.06h0a.06.06,0,0,0,0-.06,0,0,0,0,1,0,0h0a0,0,0,0,1,0,0c.11.08.18.25.29.34a1.71,1.71,0,0,0,.43.29A.06.06,0,0,0,37.5,56a5.83,5.83,0,0,1-.46-1.2.75.75,0,0,0-.11-.2,3.25,3.25,0,0,1-.19-.6c-.08-.36-.42-.66-.46-.94a3.07,3.07,0,0,0-.53-1.3c-.08-.11-.11-.28-.19-.38s0-.05,0,0,.18.13.28.17a2,2,0,0,0,.35.07.06.06,0,0,0,.05-.1c-.13-.1-.29-.18-.41-.29s-.38-.33-.51-.48a1.6,1.6,0,0,0-.1-.23l-.09-.13s0,0,0,0h0s0,0,0,0l.17.2a8.4,8.4,0,0,0,1.52,1.07c.18.1.77.49.94.27.12.06.31.09.4,0,.12.08.24.06.37.11s.18.12.28.18l.1,0a.16.16,0,0,0,.14-.28h0c-.25-.16-.55-.28-.8-.45a.94.94,0,0,1-.12-.09.13.13,0,0,1,0-.2h0a.16.16,0,0,1,.09,0l.12,0a3.83,3.83,0,0,1,.61.3,3.77,3.77,0,0,0,1.21.45,5.76,5.76,0,0,0,1.53-.25,1.25,1.25,0,0,0,.25-.09h0a2.33,2.33,0,0,1,.5-.24c.14,0,.08-.21-.09-.19h0a2.53,2.53,0,0,1-1.62-.48l-.26-.16L40,49.93h0l-.81-.87h0c-.29-.35-.56-.75-.85-1.13a2.69,2.69,0,0,1-.26-.44,0,0,0,0,1,0,0h0s0,0,.06,0a12.91,12.91,0,0,0,1.33,1.49l.22.24.86.74c2,1.37,5.88.64,5.88.64s1.59-.21,1.63-.24l.09,0h.15a.11.11,0,0,0,0-.2h0l-.2-.07c-.33-.1-.62-.2-.86-.29l-.39-.15a11.09,11.09,0,0,1-3-1.92c-.41-.37-.77-.82-1.16-1.22l-.13-.15s0-.1.06-.06h0l1,1a9.6,9.6,0,0,0,3.94,2.4c.23.05.86.28,1.3.43a1.43,1.43,0,0,0,.65,0h0a4.58,4.58,0,0,1,.64,0l.35-.06.05,0s0,0,0,0a.06.06,0,0,1,0-.09h0A.55.55,0,0,1,51,49.7a4.31,4.31,0,0,1,1.12-.09l.29,0c.06,0,.06-.11,0-.11h0a0,0,0,0,1,0,0,5.81,5.81,0,0,0,.59,0c.11,0,.22,0,.31,0h0l0,0a0,0,0,0,1,0,0,4,4,0,0,1,.59,0c.08,0,.14-.06.2-.05l.11,0a.06.06,0,0,0,0-.11,4,4,0,0,1-.51-.05c-.16,0-.29,0-.44,0-.38-.05-.76-.13-1.13-.21a12.4,12.4,0,0,1-1.92-.54l-.46-.17c-.26-.14-.53-.25-.77-.39-.46-.27-.89-.59-1.33-.9l-.1-.07a.11.11,0,0,1,0-.13.1.1,0,0,1,.15,0l.61.43A10.05,10.05,0,0,0,51.3,48.3a15.35,15.35,0,0,0,1.52.38,5.23,5.23,0,0,0,1.19,0c.14,0,.41-.09.58-.11a.73.73,0,0,0,.24-.07l.08,0a0,0,0,0,0,0-.09h0s0,0,0-.05a2.43,2.43,0,0,0,.8-.29,2,2,0,0,1,.58-.4,2,2,0,0,0,.5-.18l.15,0,.06,0,.39-.18a.06.06,0,0,0,0-.11L57,47h0l-.1,0-.16.05a3.46,3.46,0,0,1-1.51-.23h0l-.32-.11-.24-.11-.89-.5c-.51-.24-.95-.48-1.15-.58a.1.1,0,0,1,0-.15h0a.08.08,0,0,1,.1,0,14.47,14.47,0,0,0,3.36,1.12l1.3.33s1,.2,2.29.54c.89.24,1.74.62,2.6.93.17.06.38.13.55.17l.32.06a0,0,0,0,0,0,0,.06.06,0,0,0,0-.07c-.13-.09-.29-.13-.41-.21s-.11-.11-.18-.16h0a.57.57,0,0,1-.11-.11h0s-.13,0-.17-.08l-.07-.08-.06-.11L62,47.64l-.22-.14,0,0h0s0,0,0,0h0a.08.08,0,0,1,.08,0,2.84,2.84,0,0,0,.32.14c.26.06.52.15.77.21l.22,0s0,0,0,0,0,0,0,0a4,4,0,0,0-.45-.15,2,2,0,0,1-.25-.13l-.82-.3a37.33,37.33,0,0,1-4-1.76,20.69,20.69,0,0,1-3-2.46l-.21-.2h0a.17.17,0,0,1,.23-.26c1,.67,1.91,1.4,2.91,2,.38.21.82.32,1.19.52a19.26,19.26,0,0,0,2.7.94,3.43,3.43,0,0,0,.55.06c.11,0,.22-.06.33,0l.05,0h0l.61-.33.64-.41.16-.14h0a.32.32,0,0,0-.12-.08v0a2.4,2.4,0,0,0,.83-.25h0a.1.1,0,0,0-.07-.17,3.56,3.56,0,0,1-.67-.05,2.42,2.42,0,0,1-.5-.14l-.47-.14a10.81,10.81,0,0,1-3.49-1.86,7.11,7.11,0,0,1-.6-.49,0,0,0,0,1,0,0,.06.06,0,0,1,.09-.05c.25.16.5.32.76.47.63.39,1.3.7,1.95,1.06.2.12.46.17.67.28l.16.09a4.94,4.94,0,0,0,3.23.15,4.16,4.16,0,0,1,1.15-.5,5.15,5.15,0,0,1,.94-.2L68,43h.09c.43,0,1,0,1.23,0a0,0,0,0,0,0,0s0,0,0,0,0,0-.06-.05h0a.24.24,0,0,1,.07-.33l.19-.13a.21.21,0,0,1,.11,0h0a2.24,2.24,0,0,0,.29-.11c.27,0,.79-.21,1.07-.25s1.42-.6,1.6-.58a8.44,8.44,0,0,1,.89-.26l.22-.12a3.51,3.51,0,0,0,.5-.15.15.15,0,0,0,.09-.22l0,0a.13.13,0,0,0-.1-.07h-.23s-.06,0-.06,0a.1.1,0,0,1,0-.08,5.55,5.55,0,0,1,.59-.18c.18,0,.37-.25.51-.25l.21-.09h0l-.16,0v0h0l.26-.14.66-.28.83-.41.7-.42,1.26-.88.37-.29,1.42-1.11a.71.71,0,0,1,.14-.1h0a3.51,3.51,0,0,1,1.26-.4h0c.09,0,.13-.07.19-.09a2.06,2.06,0,0,1,.36,0,2,2,0,0,1,.33,0l.33.07.13,0,.28,0h.26a.93.93,0,0,0,.39-.12.71.71,0,0,0,.14-.1l.1-.09,0,0,.32-.3,0,0L85,35l.09-.09,0,0a1,1,0,0,1,.2-.13l.12-.06a.54.54,0,0,1,.6.07c.08.07.12,0,.11-.06a.79.79,0,0,0-.69-.39h0s-.6,0-.83,0a.11.11,0,0,1-.13-.11.12.12,0,0,1,.1-.11l.17,0h0l.44-.08a2.54,2.54,0,0,0,1.27-.57l.06-.06.72-.87.59-.73h0a.15.15,0,0,1,.06-.11,9.49,9.49,0,0,0,.77-.79,3.42,3.42,0,0,1,.45-.2.57.57,0,0,0,.19-.13l.06,0a0,0,0,1,0,0,0l-.09,0s0,0,0,0h0A7.24,7.24,0,0,1,90,30l.24-.13a.46.46,0,0,0,.15-.09,4,4,0,0,1,.86-.47l.17-.08a1,1,0,0,1,.29-.08,4.09,4.09,0,0,1,1.21,0h0l.63.2.09,0a2.44,2.44,0,0,0,.51.18h.12a.49.49,0,0,0,.17,0h.15l.06,0c.17-.09-.17-.23-.28-.26L94,29.12l-1-.44h0a.28.28,0,0,1,.16-.45c.25-.06.5-.12.75-.16h0a.16.16,0,0,0,.11-.09l0,0a.13.13,0,0,0-.13-.2h-.09s-.15,0-.18-.08.1-.14.12-.15l.06,0,.29-.09.1,0a5.79,5.79,0,0,0,1.45-.61h0l1.15-.87.2-.14h0l.2-.17,5.1-3.75.17-.08a.08.08,0,0,0,.06-.08h0a.09.09,0,0,0-.12-.09l-.14,0s-.07,0-.07-.05a.13.13,0,0,1,0-.1,2.48,2.48,0,0,1,.25-.18h0l.8-.54.83-.43.23-.15.06,0h0l.38-.25.87-.62.05,0h0l.49-.44.07-.11h0a0,0,0,0,0,0-.07.22.22,0,0,0-.11,0s0,0,0,0,.18-.12.11-.12a.07.07,0,0,1,0-.13l.21-.05.06,0,.24-.11a0,0,0,0,0,0,0h-.23s0,0,0,0a3.16,3.16,0,0,0,.83-.44h0a.21.21,0,0,1,0-.11,3.37,3.37,0,0,0,.63-.68l.18-.33h0a0,0,0,0,0,0,0v-.06a.07.07,0,0,1,0-.05v0h0a2.36,2.36,0,0,0-.37,0s0,0,0,0l.13,0a1.06,1.06,0,0,0,.52-.33l0,0s.29-.37,0-.34h-.17l-.06,0s0,0,0,0a1.19,1.19,0,0,0,.36-.28l0,0s0,0,0,0a.46.46,0,0,0-.16.06h0s0,0,0,0a4.42,4.42,0,0,0,.41-.52.08.08,0,0,0,0-.07h0l0,0a0,0,0,0,1-.07,0v0a.08.08,0,0,1,0,0,1.47,1.47,0,0,1,.14-.28h0s0,0,0,0h0a0,0,0,0,1-.06,0v0l.06-.1a.52.52,0,0,1,.38-.3.89.89,0,0,0,.62-.27.08.08,0,0,0,.05-.05l0-.09A1,1,0,0,0,110,13.09Z" />
        </g>
    </g>
</svg>