<?xml version="1.0" encoding="UTF-8" standalone="no"?>
<!-- Created with Inkscape (http://www.inkscape.org/) -->

<svg
   width="21.182507mm"
   height="23.193974mm"
   viewBox="0 0 21.182507 23.193974"
   version="1.1"
   id="svg1"
   inkscape:version="1.3.2 (091e20e, 2023-11-25, custom)"
   sodipodi:docname="CNES logo.svg"
   xmlns:inkscape="http://www.inkscape.org/namespaces/inkscape"
   xmlns:sodipodi="http://sodipodi.sourceforge.net/DTD/sodipodi-0.dtd"
   xmlns="http://www.w3.org/2000/svg"
   xmlns:svg="http://www.w3.org/2000/svg">
  <sodipodi:namedview
     id="namedview1"
     pagecolor="#ffffff"
     bordercolor="#000000"
     borderopacity="0.25"
     inkscape:showpageshadow="2"
     inkscape:pageopacity="0.0"
     inkscape:pagecheckerboard="0"
     inkscape:deskcolor="#d1d1d1"
     inkscape:document-units="mm"
     inkscape:zoom="8.9441638"
     inkscape:cx="14.36691"
     inkscape:cy="59.31242"
     inkscape:window-width="2560"
     inkscape:window-height="1511"
     inkscape:window-x="-9"
     inkscape:window-y="-9"
     inkscape:window-maximized="1"
     inkscape:current-layer="layer1" />
  <defs
     id="defs1">
    <clipPath
       clipPathUnits="userSpaceOnUse"
       id="clipPath17">
      <path
         d="M 0,0 H 510.236 V 680.315 H 0 Z"
         transform="translate(-451.98401,-629.80642)"
         id="path17" />
    </clipPath>
    <clipPath
       clipPathUnits="userSpaceOnUse"
       id="clipPath19">
      <path
         d="M 0,0 H 510.236 V 680.315 H 0 Z"
         transform="translate(-445.04321,-648.71922)"
         id="path19" />
    </clipPath>
    <clipPath
       clipPathUnits="userSpaceOnUse"
       id="clipPath21">
      <path
         d="M 0,0 H 510.236 V 680.315 H 0 Z"
         transform="translate(-436.23201,-620.10812)"
         id="path21" />
    </clipPath>
    <clipPath
       clipPathUnits="userSpaceOnUse"
       id="clipPath23">
      <path
         d="M 0,0 H 510.236 V 680.315 H 0 Z"
         transform="translate(-414.28341,-613.12132)"
         id="path23" />
    </clipPath>
    <clipPath
       clipPathUnits="userSpaceOnUse"
       id="clipPath25">
      <path
         d="M 0,0 H 510.236 V 680.315 H 0 Z"
         transform="translate(-455.89361,-614.05152)"
         id="path25" />
    </clipPath>
    <clipPath
       clipPathUnits="userSpaceOnUse"
       id="clipPath27">
      <path
         d="M 0,0 H 510.236 V 680.315 H 0 Z"
         transform="translate(-468.89831,-614.15382)"
         id="path27" />
    </clipPath>
    <clipPath
       clipPathUnits="userSpaceOnUse"
       id="clipPath29">
      <path
         d="M 0,0 H 510.236 V 680.315 H 0 Z"
         transform="translate(-417.75421,-602.77642)"
         id="path29" />
    </clipPath>
    <clipPath
       clipPathUnits="userSpaceOnUse"
       id="clipPath31">
      <path
         d="M 0,0 H 510.236 V 680.315 H 0 Z"
         transform="translate(-421.87991,-602.77642)"
         id="path31" />
    </clipPath>
    <clipPath
       clipPathUnits="userSpaceOnUse"
       id="clipPath33">
      <path
         d="M 0,0 H 510.236 V 680.315 H 0 Z"
         transform="translate(-423.71971,-602.77642)"
         id="path33" />
    </clipPath>
    <clipPath
       clipPathUnits="userSpaceOnUse"
       id="clipPath35">
      <path
         d="M 0,0 H 510.236 V 680.315 H 0 Z"
         transform="translate(-430.97861,-602.77642)"
         id="path35" />
    </clipPath>
    <clipPath
       clipPathUnits="userSpaceOnUse"
       id="clipPath37">
      <path
         d="M 0,0 H 510.236 V 680.315 H 0 Z"
         transform="translate(-434.39811,-602.77582)"
         id="path37" />
    </clipPath>
    <clipPath
       clipPathUnits="userSpaceOnUse"
       id="clipPath39">
      <path
         d="M 0,0 H 510.236 V 680.315 H 0 Z"
         transform="translate(-439.35501,-602.77642)"
         id="path39" />
    </clipPath>
    <clipPath
       clipPathUnits="userSpaceOnUse"
       id="clipPath41">
      <path
         d="M 0,0 H 510.236 V 680.315 H 0 Z"
         transform="translate(-443.11871,-602.77642)"
         id="path41" />
    </clipPath>
    <clipPath
       clipPathUnits="userSpaceOnUse"
       id="clipPath43">
      <path
         d="M 0,0 H 510.236 V 680.315 H 0 Z"
         transform="translate(-448.99731,-602.77582)"
         id="path43" />
    </clipPath>
    <clipPath
       clipPathUnits="userSpaceOnUse"
       id="clipPath45">
      <path
         d="M 0,0 H 510.236 V 680.315 H 0 Z"
         transform="translate(-454.51931,-602.77642)"
         id="path45" />
    </clipPath>
    <clipPath
       clipPathUnits="userSpaceOnUse"
       id="clipPath47">
      <path
         d="M 0,0 H 510.236 V 680.315 H 0 Z"
         transform="translate(-456.04181,-602.77642)"
         id="path47" />
    </clipPath>
    <clipPath
       clipPathUnits="userSpaceOnUse"
       id="clipPath49">
      <path
         d="M 0,0 H 510.236 V 680.315 H 0 Z"
         transform="translate(-459.71021,-602.77642)"
         id="path49" />
    </clipPath>
    <clipPath
       clipPathUnits="userSpaceOnUse"
       id="clipPath51">
      <path
         d="M 0,0 H 510.236 V 680.315 H 0 Z"
         transform="translate(-462.70771,-602.77642)"
         id="path51" />
    </clipPath>
    <clipPath
       clipPathUnits="userSpaceOnUse"
       id="clipPath53">
      <path
         d="M 0,0 H 510.236 V 680.315 H 0 Z"
         transform="translate(-468.58631,-602.77582)"
         id="path53" />
    </clipPath>
    <clipPath
       clipPathUnits="userSpaceOnUse"
       id="clipPath55">
      <path
         d="M 0,0 H 510.236 V 680.315 H 0 Z"
         transform="translate(-471.74981,-602.77642)"
         id="path55" />
    </clipPath>
    <clipPath
       clipPathUnits="userSpaceOnUse"
       id="clipPath57">
      <path
         d="M 0,0 H 510.236 V 680.315 H 0 Z"
         transform="translate(-416.66641,-596.05471)"
         id="path57" />
    </clipPath>
    <clipPath
       clipPathUnits="userSpaceOnUse"
       id="clipPath59">
      <path
         d="M 0,0 H 510.236 V 680.315 H 0 Z"
         transform="translate(-418.94681,-596.27142)"
         id="path59" />
    </clipPath>
    <clipPath
       clipPathUnits="userSpaceOnUse"
       id="clipPath61">
      <path
         d="M 0,0 H 510.236 V 680.315 H 0 Z"
         transform="translate(-422.59231,-596.05471)"
         id="path61" />
    </clipPath>
    <clipPath
       clipPathUnits="userSpaceOnUse"
       id="clipPath63">
      <path
         d="M 0,0 H 510.236 V 680.315 H 0 Z"
         transform="translate(-426.48731,-596.05471)"
         id="path63" />
    </clipPath>
    <clipPath
       clipPathUnits="userSpaceOnUse"
       id="clipPath65">
      <path
         d="M 0,0 H 510.236 V 680.315 H 0 Z"
         transform="translate(-427.56141,-596.05471)"
         id="path65" />
    </clipPath>
    <clipPath
       clipPathUnits="userSpaceOnUse"
       id="clipPath67">
      <path
         d="M 0,0 H 510.236 V 680.315 H 0 Z"
         transform="translate(-433.40201,-596.05471)"
         id="path67" />
    </clipPath>
    <clipPath
       clipPathUnits="userSpaceOnUse"
       id="clipPath69">
      <path
         d="M 0,0 H 510.236 V 680.315 H 0 Z"
         transform="translate(-438.35831,-596.05471)"
         id="path69" />
    </clipPath>
    <clipPath
       clipPathUnits="userSpaceOnUse"
       id="clipPath71">
      <path
         d="M 0,0 H 510.236 V 680.315 H 0 Z"
         transform="translate(-441.96541,-596.05471)"
         id="path71" />
    </clipPath>
    <clipPath
       clipPathUnits="userSpaceOnUse"
       id="clipPath73">
      <path
         d="M 0,0 H 510.236 V 680.315 H 0 Z"
         transform="translate(-447.11711,-596.05471)"
         id="path73" />
    </clipPath>
    <clipPath
       clipPathUnits="userSpaceOnUse"
       id="clipPath75">
      <path
         d="M 0,0 H 510.236 V 680.315 H 0 Z"
         transform="translate(-450.27101,-596.05471)"
         id="path75" />
    </clipPath>
    <clipPath
       clipPathUnits="userSpaceOnUse"
       id="clipPath77">
      <path
         d="M 0,0 H 510.236 V 680.315 H 0 Z"
         transform="translate(-453.11651,-596.05471)"
         id="path77" />
    </clipPath>
    <clipPath
       clipPathUnits="userSpaceOnUse"
       id="clipPath79">
      <path
         d="M 0,0 H 510.236 V 680.315 H 0 Z"
         transform="translate(-458.15621,-596.05471)"
         id="path79" />
    </clipPath>
    <clipPath
       clipPathUnits="userSpaceOnUse"
       id="clipPath81">
      <path
         d="M 0,0 H 510.236 V 680.315 H 0 Z"
         transform="translate(-459.19641,-596.05471)"
         id="path81" />
    </clipPath>
    <clipPath
       clipPathUnits="userSpaceOnUse"
       id="clipPath83">
      <path
         d="M 0,0 H 510.236 V 680.315 H 0 Z"
         transform="translate(-461.78531,-596.05471)"
         id="path83" />
    </clipPath>
    <clipPath
       clipPathUnits="userSpaceOnUse"
       id="clipPath85">
      <path
         d="M 0,0 H 510.236 V 680.315 H 0 Z"
         transform="translate(-464.46541,-596.05471)"
         id="path85" />
    </clipPath>
    <clipPath
       clipPathUnits="userSpaceOnUse"
       id="clipPath87">
      <path
         d="M 0,0 H 510.236 V 680.315 H 0 Z"
         transform="translate(-470.47081,-596.05471)"
         id="path87" />
    </clipPath>
    <clipPath
       clipPathUnits="userSpaceOnUse"
       id="clipPath89">
      <path
         d="M 0,0 H 510.236 V 680.315 H 0 Z"
         transform="translate(-474.07791,-596.05471)"
         id="path89" />
    </clipPath>
    <clipPath
       clipPathUnits="userSpaceOnUse"
       id="clipPath91">
      <path
         d="M 0,0 H 510.236 V 680.315 H 0 Z"
         transform="translate(-451.98401,-629.80642)"
         id="path91" />
    </clipPath>
    <clipPath
       clipPathUnits="userSpaceOnUse"
       id="clipPath93">
      <path
         d="M 0,0 H 510.236 V 680.315 H 0 Z"
         transform="translate(-445.04321,-648.71922)"
         id="path93" />
    </clipPath>
    <clipPath
       clipPathUnits="userSpaceOnUse"
       id="clipPath95">
      <path
         d="M 0,0 H 510.236 V 680.315 H 0 Z"
         transform="translate(-436.23201,-620.10812)"
         id="path95" />
    </clipPath>
    <clipPath
       clipPathUnits="userSpaceOnUse"
       id="clipPath97">
      <path
         d="M 0,0 H 510.236 V 680.315 H 0 Z"
         transform="translate(-414.28341,-613.12132)"
         id="path97" />
    </clipPath>
    <clipPath
       clipPathUnits="userSpaceOnUse"
       id="clipPath99">
      <path
         d="M 0,0 H 510.236 V 680.315 H 0 Z"
         transform="translate(-455.89361,-614.05152)"
         id="path99" />
    </clipPath>
    <clipPath
       clipPathUnits="userSpaceOnUse"
       id="clipPath101">
      <path
         d="M 0,0 H 510.236 V 680.315 H 0 Z"
         transform="translate(-468.89831,-614.15382)"
         id="path101" />
    </clipPath>
    <clipPath
       clipPathUnits="userSpaceOnUse"
       id="clipPath103">
      <path
         d="M 0,0 H 510.236 V 680.315 H 0 Z"
         transform="translate(-417.75421,-602.77642)"
         id="path103" />
    </clipPath>
    <clipPath
       clipPathUnits="userSpaceOnUse"
       id="clipPath105">
      <path
         d="M 0,0 H 510.236 V 680.315 H 0 Z"
         transform="translate(-421.87991,-602.77642)"
         id="path105" />
    </clipPath>
    <clipPath
       clipPathUnits="userSpaceOnUse"
       id="clipPath107">
      <path
         d="M 0,0 H 510.236 V 680.315 H 0 Z"
         transform="translate(-423.71971,-602.77642)"
         id="path107" />
    </clipPath>
    <clipPath
       clipPathUnits="userSpaceOnUse"
       id="clipPath109">
      <path
         d="M 0,0 H 510.236 V 680.315 H 0 Z"
         transform="translate(-430.97861,-602.77642)"
         id="path109" />
    </clipPath>
    <clipPath
       clipPathUnits="userSpaceOnUse"
       id="clipPath111">
      <path
         d="M 0,0 H 510.236 V 680.315 H 0 Z"
         transform="translate(-434.39811,-602.77582)"
         id="path111" />
    </clipPath>
    <clipPath
       clipPathUnits="userSpaceOnUse"
       id="clipPath113">
      <path
         d="M 0,0 H 510.236 V 680.315 H 0 Z"
         transform="translate(-439.35501,-602.77642)"
         id="path113" />
    </clipPath>
    <clipPath
       clipPathUnits="userSpaceOnUse"
       id="clipPath115">
      <path
         d="M 0,0 H 510.236 V 680.315 H 0 Z"
         transform="translate(-443.11871,-602.77642)"
         id="path115" />
    </clipPath>
    <clipPath
       clipPathUnits="userSpaceOnUse"
       id="clipPath117">
      <path
         d="M 0,0 H 510.236 V 680.315 H 0 Z"
         transform="translate(-448.99731,-602.77582)"
         id="path117" />
    </clipPath>
    <clipPath
       clipPathUnits="userSpaceOnUse"
       id="clipPath119">
      <path
         d="M 0,0 H 510.236 V 680.315 H 0 Z"
         transform="translate(-454.51931,-602.77642)"
         id="path119" />
    </clipPath>
    <clipPath
       clipPathUnits="userSpaceOnUse"
       id="clipPath121">
      <path
         d="M 0,0 H 510.236 V 680.315 H 0 Z"
         transform="translate(-456.04181,-602.77642)"
         id="path121" />
    </clipPath>
    <clipPath
       clipPathUnits="userSpaceOnUse"
       id="clipPath123">
      <path
         d="M 0,0 H 510.236 V 680.315 H 0 Z"
         transform="translate(-459.71021,-602.77642)"
         id="path123" />
    </clipPath>
    <clipPath
       clipPathUnits="userSpaceOnUse"
       id="clipPath125">
      <path
         d="M 0,0 H 510.236 V 680.315 H 0 Z"
         transform="translate(-462.70771,-602.77642)"
         id="path125" />
    </clipPath>
    <clipPath
       clipPathUnits="userSpaceOnUse"
       id="clipPath127">
      <path
         d="M 0,0 H 510.236 V 680.315 H 0 Z"
         transform="translate(-468.58631,-602.77582)"
         id="path127" />
    </clipPath>
    <clipPath
       clipPathUnits="userSpaceOnUse"
       id="clipPath129">
      <path
         d="M 0,0 H 510.236 V 680.315 H 0 Z"
         transform="translate(-471.74981,-602.77642)"
         id="path129" />
    </clipPath>
    <clipPath
       clipPathUnits="userSpaceOnUse"
       id="clipPath131">
      <path
         d="M 0,0 H 510.236 V 680.315 H 0 Z"
         transform="translate(-416.66641,-596.05471)"
         id="path131" />
    </clipPath>
    <clipPath
       clipPathUnits="userSpaceOnUse"
       id="clipPath133">
      <path
         d="M 0,0 H 510.236 V 680.315 H 0 Z"
         transform="translate(-418.94681,-596.27142)"
         id="path133" />
    </clipPath>
    <clipPath
       clipPathUnits="userSpaceOnUse"
       id="clipPath135">
      <path
         d="M 0,0 H 510.236 V 680.315 H 0 Z"
         transform="translate(-422.59231,-596.05471)"
         id="path135" />
    </clipPath>
    <clipPath
       clipPathUnits="userSpaceOnUse"
       id="clipPath137">
      <path
         d="M 0,0 H 510.236 V 680.315 H 0 Z"
         transform="translate(-426.48731,-596.05471)"
         id="path137" />
    </clipPath>
    <clipPath
       clipPathUnits="userSpaceOnUse"
       id="clipPath139">
      <path
         d="M 0,0 H 510.236 V 680.315 H 0 Z"
         transform="translate(-427.56141,-596.05471)"
         id="path139" />
    </clipPath>
    <clipPath
       clipPathUnits="userSpaceOnUse"
       id="clipPath141">
      <path
         d="M 0,0 H 510.236 V 680.315 H 0 Z"
         transform="translate(-433.40201,-596.05471)"
         id="path141" />
    </clipPath>
    <clipPath
       clipPathUnits="userSpaceOnUse"
       id="clipPath143">
      <path
         d="M 0,0 H 510.236 V 680.315 H 0 Z"
         transform="translate(-438.35831,-596.05471)"
         id="path143" />
    </clipPath>
    <clipPath
       clipPathUnits="userSpaceOnUse"
       id="clipPath145">
      <path
         d="M 0,0 H 510.236 V 680.315 H 0 Z"
         transform="translate(-441.96541,-596.05471)"
         id="path145" />
    </clipPath>
    <clipPath
       clipPathUnits="userSpaceOnUse"
       id="clipPath147">
      <path
         d="M 0,0 H 510.236 V 680.315 H 0 Z"
         transform="translate(-447.11711,-596.05471)"
         id="path147" />
    </clipPath>
    <clipPath
       clipPathUnits="userSpaceOnUse"
       id="clipPath149">
      <path
         d="M 0,0 H 510.236 V 680.315 H 0 Z"
         transform="translate(-450.27101,-596.05471)"
         id="path149" />
    </clipPath>
    <clipPath
       clipPathUnits="userSpaceOnUse"
       id="clipPath151">
      <path
         d="M 0,0 H 510.236 V 680.315 H 0 Z"
         transform="translate(-453.11651,-596.05471)"
         id="path151" />
    </clipPath>
    <clipPath
       clipPathUnits="userSpaceOnUse"
       id="clipPath153">
      <path
         d="M 0,0 H 510.236 V 680.315 H 0 Z"
         transform="translate(-458.15621,-596.05471)"
         id="path153" />
    </clipPath>
    <clipPath
       clipPathUnits="userSpaceOnUse"
       id="clipPath155">
      <path
         d="M 0,0 H 510.236 V 680.315 H 0 Z"
         transform="translate(-459.19641,-596.05471)"
         id="path155" />
    </clipPath>
    <clipPath
       clipPathUnits="userSpaceOnUse"
       id="clipPath157">
      <path
         d="M 0,0 H 510.236 V 680.315 H 0 Z"
         transform="translate(-461.78531,-596.05471)"
         id="path157" />
    </clipPath>
    <clipPath
       clipPathUnits="userSpaceOnUse"
       id="clipPath159">
      <path
         d="M 0,0 H 510.236 V 680.315 H 0 Z"
         transform="translate(-464.46541,-596.05471)"
         id="path159" />
    </clipPath>
    <clipPath
       clipPathUnits="userSpaceOnUse"
       id="clipPath161">
      <path
         d="M 0,0 H 510.236 V 680.315 H 0 Z"
         transform="translate(-470.47081,-596.05471)"
         id="path161" />
    </clipPath>
    <clipPath
       clipPathUnits="userSpaceOnUse"
       id="clipPath163">
      <path
         d="M 0,0 H 510.236 V 680.315 H 0 Z"
         transform="translate(-474.07791,-596.05471)"
         id="path163" />
    </clipPath>
  </defs>
  <g
     inkscape:label="Layer 1"
     inkscape:groupmode="layer"
     id="layer1"
     transform="translate(-94.456246,-136.78958)">
    <path
       id="path16"
       d="m 0,0 c -4.128,0.06 -8.727,3.633 -8.727,9.502 v 19.446 h -1.372 V 18.587 c -5.949,-1.291 -10.379,-6.221 -10.379,-12.123 0,-6.872 6.016,-12.446 13.452,-12.446 5.652,0 10.476,3.239 12.469,7.823 C 4.17,0.735 1.984,-0.025 0,0"
       style="fill:#26367c icc-color(sRGB-IEC61966-2, 0.1, 0.14898682, 0.21199036, 0.48599243);fill-opacity:1;fill-rule:nonzero;stroke:none"
       transform="matrix(0.35277776,0,0,-0.35277776,107.75618,147.00179)"
       clip-path="url(#clipPath17)" />
    <path
       id="path18"
       d="m 0,0 c 0.569,0.068 7.462,-0.023 11.489,-6.12 1.357,-2.054 0.035,-4.618 -4.05,-4.756 C 5.983,-10.922 0.773,-9.6 0,0"
       style="fill:#26367c icc-color(sRGB-IEC61966-2, 0.1, 0.14898682, 0.21199036, 0.48599243);fill-opacity:1;fill-rule:nonzero;stroke:none"
       transform="matrix(0.35277776,0,0,-0.35277776,105.30762,140.32978)"
       clip-path="url(#clipPath19)" />
    <path
       id="path20"
       d="m 0,0 c -3.478,0 -6.997,-1.436 -6.997,-6.604 v -6.994 h 3.108 v 6.946 c 0,3.485 2.249,4.29 3.889,4.29 1.64,0 3.889,-0.805 3.889,-4.29 v -6.946 h 3.107 v 6.994 C 6.996,-1.436 3.478,0 0,0"
       style="fill:#26367c icc-color(sRGB-IEC61966-2, 0.1, 0.14898682, 0.21199036, 0.48599243);fill-opacity:1;fill-rule:nonzero;stroke:none"
       transform="matrix(0.35277776,0,0,-0.35277776,102.19922,150.42314)"
       clip-path="url(#clipPath21)" />
    <path
       id="path22"
       d="m 0,0 c 0,-3.286 1.436,-6.612 6.603,-6.612 h 6.322 v 2.32 H 7.41 c -3.486,0 -4.173,2.689 -4.173,4.292 0,1.601 0.687,4.329 4.173,4.329 h 5.515 V 6.61 H 6.603 C 1.436,6.61 0,3.286 0,0"
       style="fill:#26367c icc-color(sRGB-IEC61966-2, 0.1, 0.14898682, 0.21199036, 0.48599243);fill-opacity:1;fill-rule:nonzero;stroke:none"
       transform="matrix(0.35277776,0,0,-0.35277776,94.456246,152.88792)"
       clip-path="url(#clipPath23)" />
    <path
       id="path24"
       d="m 0,0 h -7.498 c 0,1.13 0.079,4.035 3.713,4.035 C 0.534,4.035 0,0 0,0 M -7.502,-2.001 H 3.317 c 0.006,0.371 0,0.982 0,0.982 0,5.887 -3.861,7.075 -7.367,7.075 -4.933,0 -6.759,-3.528 -6.759,-6.798 l -0.003,-0.188 c 0,-3.286 1.437,-6.612 6.605,-6.612 h 7.135 v 2.319 h -6.327 c -2.898,0 -3.86,1.671 -4.103,3.222"
       style="fill:#26367c icc-color(sRGB-IEC61966-2, 0.1, 0.14898682, 0.21199036, 0.48599243);fill-opacity:1;fill-rule:nonzero;stroke:none"
       transform="matrix(0.35277776,0,0,-0.35277776,109.1354,152.55977)"
       clip-path="url(#clipPath25)" />
    <path
       id="path26"
       d="m 0,0 h -1.746 c -1.637,0 -2.657,0.521 -2.657,1.688 0,1.132 0.799,1.593 2.461,1.609 h 6.866 v 2.281 h -6.84 c -2.778,0 -5.927,-0.464 -5.927,-3.891 0,-3.742 4.192,-3.685 5.43,-3.685 h 1.745 c 1.637,0 2.657,-0.521 2.657,-1.689 0,-1.131 -0.801,-1.591 -2.462,-1.607 h -6.864 v -2.282 h 6.839 c 2.78,0 5.928,0.464 5.928,3.89 C 5.43,0.06 1.238,0 0,0"
       style="fill:#26367c icc-color(sRGB-IEC61966-2, 0.1, 0.14898682, 0.21199036, 0.48599243);fill-opacity:1;fill-rule:nonzero;stroke:none"
       transform="matrix(0.35277776,0,0,-0.35277776,113.72317,152.52368)"
       clip-path="url(#clipPath27)" />
    <path
       id="path28"
       d="m 0,0 c 0.063,0 0.096,-0.033 0.096,-0.096 v -0.427 c 0,-0.066 -0.033,-0.1 -0.096,-0.1 h -1.937 c -0.112,0 -0.206,-0.01 -0.28,-0.028 -0.074,-0.019 -0.133,-0.05 -0.176,-0.097 -0.043,-0.044 -0.075,-0.104 -0.094,-0.179 -0.018,-0.076 -0.028,-0.172 -0.028,-0.288 v -0.618 c 0,-0.116 0.01,-0.212 0.028,-0.289 0.019,-0.076 0.051,-0.138 0.094,-0.182 0.043,-0.046 0.102,-0.077 0.176,-0.097 0.074,-0.018 0.168,-0.027 0.28,-0.027 H 0 c 0.063,0 0.096,-0.033 0.096,-0.097 V -2.951 C 0.096,-3.015 0.063,-3.046 0,-3.046 h -1.963 c -0.22,0 -0.407,0.019 -0.561,0.061 -0.154,0.04 -0.279,0.105 -0.376,0.198 -0.097,0.091 -0.169,0.209 -0.213,0.357 -0.045,0.145 -0.068,0.323 -0.068,0.532 v 0.748 c 0,0.209 0.023,0.387 0.068,0.531 0.044,0.145 0.116,0.264 0.213,0.355 0.097,0.091 0.222,0.157 0.376,0.2 C -2.37,-0.022 -2.183,0 -1.963,0 Z"
       style="fill:#26367c icc-color(sRGB-IEC61966-2, 0.1, 0.14898682, 0.21199036, 0.48599243);fill-opacity:1;fill-rule:nonzero;stroke:none"
       transform="matrix(0.35277776,0,0,-0.35277776,95.680666,156.53737)"
       clip-path="url(#clipPath29)" />
    <path
       id="path30"
       d="M 0,0 C 0.066,0 0.1,-0.033 0.1,-0.096 V -0.51 C 0.1,-0.574 0.066,-0.605 0,-0.605 h -1.902 c -0.113,0 -0.206,-0.01 -0.28,-0.029 C -2.257,-0.652 -2.316,-0.685 -2.361,-0.729 -2.406,-0.775 -2.438,-0.835 -2.455,-0.912 -2.472,-0.99 -2.48,-1.084 -2.48,-1.197 V -1.24 h 2.458 c 0.063,0 0.095,-0.033 0.095,-0.097 V -1.68 c 0,-0.064 -0.032,-0.096 -0.095,-0.096 H -2.48 V -1.85 c 0,-0.114 0.008,-0.208 0.025,-0.286 0.017,-0.075 0.049,-0.137 0.094,-0.182 0.045,-0.045 0.104,-0.077 0.179,-0.095 0.074,-0.019 0.167,-0.029 0.28,-0.029 H 0 c 0.066,0 0.1,-0.033 0.1,-0.096 V -2.951 C 0.1,-3.015 0.066,-3.046 0,-3.046 h -1.915 c -0.221,0 -0.407,0.019 -0.562,0.061 -0.153,0.04 -0.279,0.105 -0.376,0.198 -0.097,0.091 -0.168,0.209 -0.213,0.357 -0.045,0.145 -0.067,0.323 -0.067,0.532 v 0.748 c 0,0.209 0.022,0.387 0.067,0.531 0.045,0.145 0.116,0.264 0.213,0.355 0.097,0.091 0.223,0.157 0.376,0.2 C -2.322,-0.022 -2.136,0 -1.915,0 Z"
       style="fill:#26367c icc-color(sRGB-IEC61966-2, 0.1, 0.14898682, 0.21199036, 0.48599243);fill-opacity:1;fill-rule:nonzero;stroke:none"
       transform="matrix(0.35277776,0,0,-0.35277776,97.136121,156.53737)"
       clip-path="url(#clipPath31)" />
    <path
       id="path32"
       d="m 0,0 c 0.069,0 0.128,-0.004 0.174,-0.01 0.046,-0.005 0.087,-0.018 0.122,-0.036 0.035,-0.019 0.068,-0.046 0.1,-0.078 0.032,-0.034 0.068,-0.078 0.109,-0.133 l 1.618,-2.124 c 0.012,-0.02 0.031,-0.03 0.057,-0.03 h 0.039 c 0.023,0 0.035,0.014 0.035,0.042 v 2.273 C 2.254,-0.033 2.286,0 2.35,0 H 2.807 C 2.871,0 2.902,-0.033 2.902,-0.096 V -2.594 C 2.902,-2.771 2.871,-2.891 2.807,-2.953 2.743,-3.015 2.644,-3.046 2.511,-3.046 H 2.136 c -0.066,0 -0.122,0.002 -0.167,0.008 -0.045,0.006 -0.085,0.018 -0.12,0.035 -0.034,0.018 -0.069,0.043 -0.101,0.075 -0.034,0.035 -0.072,0.08 -0.117,0.138 l -1.622,2.123 c -0.018,0.021 -0.036,0.03 -0.057,0.03 h -0.039 c -0.023,0 -0.034,-0.014 -0.034,-0.043 v -2.271 c 0,-0.064 -0.033,-0.095 -0.096,-0.095 h -0.457 c -0.067,0 -0.1,0.031 -0.1,0.095 v 2.498 c 0,0.177 0.031,0.296 0.096,0.359 C -0.615,-0.032 -0.516,0 -0.383,0 Z"
       style="fill:#26367c icc-color(sRGB-IEC61966-2, 0.1, 0.14898682, 0.21199036, 0.48599243);fill-opacity:1;fill-rule:nonzero;stroke:none"
       transform="matrix(0.35277776,0,0,-0.35277776,97.785162,156.53737)"
       clip-path="url(#clipPath33)" />
    <path
       id="path34"
       d="m 0,0 c 0.066,0 0.1,-0.033 0.1,-0.096 v -0.427 c 0,-0.066 -0.034,-0.1 -0.1,-0.1 h -1.366 v -2.328 c 0,-0.064 -0.033,-0.095 -0.096,-0.095 h -0.475 c -0.064,0 -0.096,0.031 -0.096,0.095 v 2.328 h -1.366 c -0.067,0 -0.1,0.034 -0.1,0.1 v 0.427 c 0,0.063 0.033,0.096 0.1,0.096 z"
       style="fill:#26367c icc-color(sRGB-IEC61966-2, 0.1, 0.14898682, 0.21199036, 0.48599243);fill-opacity:1;fill-rule:nonzero;stroke:none"
       transform="matrix(0.35277776,0,0,-0.35277776,100.34594,156.53737)"
       clip-path="url(#clipPath35)" />
    <path
       id="path36"
       d="m 0,0 c 0.334,0 0.574,-0.076 0.718,-0.226 0.145,-0.151 0.218,-0.375 0.218,-0.67 v -0.248 c 0,-0.25 -0.051,-0.448 -0.153,-0.592 C 0.682,-1.882 0.516,-1.975 0.288,-2.014 L 1.032,-2.938 C 1.046,-2.952 1.05,-2.974 1.045,-3.003 1.039,-3.031 1.016,-3.046 0.975,-3.046 H 0.414 c -0.038,0 -0.064,0.005 -0.078,0.014 -0.015,0.007 -0.03,0.022 -0.044,0.042 l -0.688,0.905 h -1.405 v -0.866 c 0,-0.064 -0.032,-0.095 -0.095,-0.095 h -0.471 c -0.067,0 -0.1,0.031 -0.1,0.095 v 2.82 c 0,0.088 0.044,0.131 0.131,0.131 z m -1.801,-1.553 h 1.667 c 0.147,0 0.252,0.031 0.313,0.095 0.061,0.064 0.091,0.162 0.091,0.292 v 0.183 c 0,0.13 -0.03,0.227 -0.091,0.292 -0.061,0.062 -0.166,0.095 -0.313,0.095 h -1.611 c -0.037,0 -0.056,-0.017 -0.056,-0.052 z"
       style="fill:#26367c icc-color(sRGB-IEC61966-2, 0.1, 0.14898682, 0.21199036, 0.48599243);fill-opacity:1;fill-rule:nonzero;stroke:none"
       transform="matrix(0.35277776,0,0,-0.35277776,101.55227,156.53759)"
       clip-path="url(#clipPath37)" />
    <path
       id="path38"
       d="M 0,0 C 0.066,0 0.1,-0.033 0.1,-0.096 V -0.51 C 0.1,-0.574 0.066,-0.605 0,-0.605 h -1.901 c -0.114,0 -0.207,-0.01 -0.281,-0.029 C -2.256,-0.652 -2.316,-0.685 -2.36,-0.729 -2.405,-0.775 -2.437,-0.835 -2.454,-0.912 -2.472,-0.99 -2.48,-1.084 -2.48,-1.197 V -1.24 h 2.459 c 0.062,0 0.095,-0.033 0.095,-0.097 V -1.68 c 0,-0.064 -0.033,-0.096 -0.095,-0.096 H -2.48 V -1.85 c 0,-0.114 0.008,-0.208 0.026,-0.286 0.017,-0.075 0.049,-0.137 0.094,-0.182 0.044,-0.045 0.104,-0.077 0.178,-0.095 0.074,-0.019 0.167,-0.029 0.281,-0.029 H 0 c 0.066,0 0.1,-0.033 0.1,-0.096 V -2.951 C 0.1,-3.015 0.066,-3.046 0,-3.046 h -1.915 c -0.22,0 -0.407,0.019 -0.562,0.061 -0.153,0.04 -0.278,0.105 -0.375,0.198 -0.098,0.091 -0.169,0.209 -0.213,0.357 -0.046,0.145 -0.068,0.323 -0.068,0.532 v 0.748 c 0,0.209 0.022,0.387 0.068,0.531 0.044,0.145 0.115,0.264 0.213,0.355 0.097,0.091 0.222,0.157 0.375,0.2 C -2.322,-0.022 -2.135,0 -1.915,0 Z"
       style="fill:#26367c icc-color(sRGB-IEC61966-2, 0.1, 0.14898682, 0.21199036, 0.48599243);fill-opacity:1;fill-rule:nonzero;stroke:none"
       transform="matrix(0.35277776,0,0,-0.35277776,103.30095,156.53737)"
       clip-path="url(#clipPath39)" />
    <path
       id="path40"
       d="M 0,0 C 0.069,0 0.127,-0.004 0.174,-0.01 0.22,-0.015 0.261,-0.028 0.296,-0.046 0.33,-0.065 0.364,-0.092 0.395,-0.124 0.428,-0.158 0.464,-0.202 0.505,-0.257 l 1.618,-2.124 c 0.012,-0.02 0.031,-0.03 0.057,-0.03 h 0.039 c 0.023,0 0.035,0.014 0.035,0.042 v 2.273 C 2.254,-0.033 2.286,0 2.35,0 H 2.806 C 2.87,0 2.902,-0.033 2.902,-0.096 V -2.594 C 2.902,-2.771 2.87,-2.891 2.806,-2.953 2.743,-3.015 2.644,-3.046 2.51,-3.046 H 2.136 c -0.066,0 -0.122,0.002 -0.167,0.008 -0.045,0.006 -0.085,0.018 -0.12,0.035 -0.034,0.018 -0.069,0.043 -0.102,0.075 -0.033,0.035 -0.071,0.08 -0.116,0.138 l -1.622,2.123 c -0.018,0.021 -0.037,0.03 -0.057,0.03 h -0.039 c -0.024,0 -0.035,-0.014 -0.035,-0.043 v -2.271 c 0,-0.064 -0.032,-0.095 -0.096,-0.095 h -0.456 c -0.067,0 -0.101,0.031 -0.101,0.095 v 2.498 c 0,0.177 0.032,0.296 0.096,0.359 C -0.615,-0.032 -0.517,0 -0.383,0 Z"
       style="fill:#26367c icc-color(sRGB-IEC61966-2, 0.1, 0.14898682, 0.21199036, 0.48599243);fill-opacity:1;fill-rule:nonzero;stroke:none"
       transform="matrix(0.35277776,0,0,-0.35277776,104.6287,156.53737)"
       clip-path="url(#clipPath41)" />
    <path
       id="path42"
       d="M 0,0 C 0.11,0 0.203,-0.023 0.278,-0.067 0.354,-0.113 0.428,-0.2 0.501,-0.331 l 1.44,-2.615 C 1.955,-2.975 1.959,-2.999 1.952,-3.018 1.944,-3.036 1.923,-3.046 1.889,-3.046 H 1.336 c -0.05,0 -0.083,0.019 -0.1,0.057 l -0.309,0.562 h -2.045 l -0.3,-0.562 c -0.021,-0.038 -0.054,-0.057 -0.1,-0.057 h -0.566 c -0.038,0 -0.06,0.01 -0.068,0.028 -0.007,0.019 -0.003,0.043 0.011,0.072 l 1.428,2.615 C -0.641,-0.2 -0.57,-0.113 -0.5,-0.067 -0.431,-0.023 -0.349,0 -0.257,0 Z m -0.844,-1.923 h 1.497 l -0.692,1.275 c -0.012,0.019 -0.028,0.031 -0.048,0.031 h -0.026 c -0.02,0 -0.036,-0.012 -0.048,-0.031 z"
       style="fill:#26367c icc-color(sRGB-IEC61966-2, 0.1, 0.14898682, 0.21199036, 0.48599243);fill-opacity:1;fill-rule:nonzero;stroke:none"
       transform="matrix(0.35277776,0,0,-0.35277776,106.70254,156.53759)"
       clip-path="url(#clipPath43)" />
    <path
       id="path44"
       d="m 0,0 c 0.066,0 0.1,-0.033 0.1,-0.096 v -0.427 c 0,-0.066 -0.034,-0.1 -0.1,-0.1 h -1.366 v -2.328 c 0,-0.064 -0.033,-0.095 -0.096,-0.095 h -0.474 c -0.064,0 -0.096,0.031 -0.096,0.095 v 2.328 h -1.367 c -0.066,0 -0.1,0.034 -0.1,0.1 v 0.427 c 0,0.063 0.034,0.096 0.1,0.096 z"
       style="fill:#26367c icc-color(sRGB-IEC61966-2, 0.1, 0.14898682, 0.21199036, 0.48599243);fill-opacity:1;fill-rule:nonzero;stroke:none"
       transform="matrix(0.35277776,0,0,-0.35277776,108.65058,156.53737)"
       clip-path="url(#clipPath45)" />
    <path
       id="path46"
       d="M 0,0 C 0.063,0 0.096,-0.033 0.096,-0.096 V -2.951 C 0.096,-3.015 0.063,-3.046 0,-3.046 h -0.47 c -0.066,0 -0.1,0.031 -0.1,0.095 v 2.855 c 0,0.063 0.034,0.096 0.1,0.096 z"
       style="fill:#26367c icc-color(sRGB-IEC61966-2, 0.1, 0.14898682, 0.21199036, 0.48599243);fill-opacity:1;fill-rule:nonzero;stroke:none"
       transform="matrix(0.35277776,0,0,-0.35277776,109.18768,156.53737)"
       clip-path="url(#clipPath47)" />
    <path
       id="path48"
       d="m 0,0 c 0.22,0 0.408,-0.022 0.563,-0.064 0.155,-0.042 0.281,-0.109 0.378,-0.2 0.097,-0.091 0.168,-0.21 0.212,-0.355 C 1.196,-0.763 1.218,-0.94 1.218,-1.15 V -1.898 C 1.218,-2.107 1.196,-2.285 1.153,-2.431 1.109,-2.578 1.038,-2.696 0.941,-2.788 0.844,-2.88 0.718,-2.945 0.563,-2.985 0.408,-3.026 0.22,-3.046 0,-3.046 h -1.345 c -0.22,0 -0.407,0.02 -0.562,0.061 -0.153,0.04 -0.278,0.105 -0.375,0.197 -0.098,0.092 -0.169,0.21 -0.214,0.357 -0.045,0.146 -0.067,0.324 -0.067,0.533 v 0.748 c 0,0.21 0.022,0.387 0.067,0.531 0.045,0.145 0.116,0.264 0.214,0.355 0.097,0.091 0.222,0.158 0.375,0.2 C -1.752,-0.022 -1.565,0 -1.345,0 Z m -1.898,-1.85 c 0,-0.113 0.009,-0.208 0.029,-0.285 0.018,-0.076 0.05,-0.138 0.093,-0.182 0.043,-0.046 0.103,-0.078 0.177,-0.097 0.074,-0.018 0.167,-0.028 0.28,-0.028 h 1.292 c 0.113,0 0.207,0.01 0.281,0.028 0.074,0.019 0.132,0.051 0.177,0.097 0.043,0.044 0.073,0.106 0.093,0.182 0.019,0.077 0.029,0.172 0.029,0.285 v 0.653 c 0,0.113 -0.01,0.207 -0.029,0.285 -0.02,0.077 -0.05,0.137 -0.093,0.183 -0.045,0.044 -0.103,0.076 -0.177,0.095 -0.074,0.02 -0.168,0.029 -0.281,0.029 h -1.292 c -0.113,0 -0.206,-0.009 -0.28,-0.029 -0.074,-0.019 -0.134,-0.051 -0.177,-0.095 -0.043,-0.046 -0.075,-0.106 -0.093,-0.183 -0.02,-0.078 -0.029,-0.172 -0.029,-0.285 z"
       style="fill:#26367c icc-color(sRGB-IEC61966-2, 0.1, 0.14898682, 0.21199036, 0.48599243);fill-opacity:1;fill-rule:nonzero;stroke:none"
       transform="matrix(0.35277776,0,0,-0.35277776,110.48181,156.53737)"
       clip-path="url(#clipPath49)" />
    <path
       id="path50"
       d="m 0,0 c 0.07,0 0.128,-0.004 0.174,-0.01 0.046,-0.005 0.087,-0.018 0.122,-0.036 0.035,-0.019 0.068,-0.046 0.1,-0.078 0.032,-0.034 0.068,-0.078 0.109,-0.133 l 1.618,-2.124 c 0.012,-0.02 0.031,-0.03 0.057,-0.03 h 0.039 c 0.023,0 0.035,0.014 0.035,0.042 v 2.273 C 2.254,-0.033 2.286,0 2.35,0 H 2.807 C 2.871,0 2.902,-0.033 2.902,-0.096 V -2.594 C 2.902,-2.771 2.871,-2.891 2.807,-2.953 2.743,-3.015 2.644,-3.046 2.511,-3.046 H 2.136 c -0.066,0 -0.122,0.002 -0.167,0.008 -0.045,0.006 -0.085,0.018 -0.12,0.035 -0.034,0.018 -0.069,0.043 -0.101,0.075 -0.034,0.035 -0.072,0.08 -0.117,0.138 l -1.622,2.123 c -0.017,0.021 -0.037,0.03 -0.057,0.03 h -0.039 c -0.023,0 -0.034,-0.014 -0.034,-0.043 v -2.271 c 0,-0.064 -0.033,-0.095 -0.096,-0.095 h -0.456 c -0.068,0 -0.101,0.031 -0.101,0.095 v 2.498 c 0,0.177 0.031,0.296 0.096,0.359 C -0.615,-0.032 -0.516,0 -0.383,0 Z"
       style="fill:#26367c icc-color(sRGB-IEC61966-2, 0.1, 0.14898682, 0.21199036, 0.48599243);fill-opacity:1;fill-rule:nonzero;stroke:none"
       transform="matrix(0.35277776,0,0,-0.35277776,111.53926,156.53737)"
       clip-path="url(#clipPath51)" />
    <path
       id="path52"
       d="M 0,0 C 0.11,0 0.203,-0.023 0.279,-0.067 0.354,-0.113 0.428,-0.2 0.501,-0.331 l 1.44,-2.615 C 1.955,-2.975 1.959,-2.999 1.952,-3.018 1.945,-3.036 1.923,-3.046 1.889,-3.046 H 1.336 c -0.049,0 -0.083,0.019 -0.1,0.057 l -0.309,0.562 h -2.045 l -0.3,-0.562 c -0.021,-0.038 -0.054,-0.057 -0.1,-0.057 h -0.566 c -0.038,0 -0.06,0.01 -0.067,0.028 -0.007,0.019 -0.004,0.043 0.01,0.072 l 1.428,2.615 C -0.641,-0.2 -0.57,-0.113 -0.5,-0.067 -0.431,-0.023 -0.35,0 -0.257,0 Z m -0.844,-1.923 h 1.497 l -0.692,1.275 c -0.012,0.019 -0.028,0.031 -0.047,0.031 h -0.027 c -0.02,0 -0.037,-0.012 -0.048,-0.031 z"
       style="fill:#26367c icc-color(sRGB-IEC61966-2, 0.1, 0.14898682, 0.21199036, 0.48599243);fill-opacity:1;fill-rule:nonzero;stroke:none"
       transform="matrix(0.35277776,0,0,-0.35277776,113.6131,156.53759)"
       clip-path="url(#clipPath53)" />
    <path
       id="path54"
       d="m 0,0 c 0.063,0 0.096,-0.033 0.096,-0.096 v -1.737 c 0,-0.116 0.009,-0.212 0.028,-0.289 0.019,-0.076 0.05,-0.138 0.093,-0.182 0.044,-0.046 0.103,-0.077 0.177,-0.097 0.074,-0.018 0.168,-0.027 0.281,-0.027 h 1.762 c 0.063,0 0.095,-0.033 0.095,-0.097 V -2.951 C 2.532,-3.015 2.5,-3.046 2.437,-3.046 H 0.648 c -0.22,0 -0.407,0.019 -0.56,0.061 -0.155,0.04 -0.28,0.105 -0.377,0.198 -0.097,0.091 -0.168,0.209 -0.214,0.357 -0.045,0.145 -0.067,0.323 -0.067,0.532 v 1.802 c 0,0.063 0.033,0.096 0.1,0.096 z"
       style="fill:#26367c icc-color(sRGB-IEC61966-2, 0.1, 0.14898682, 0.21199036, 0.48599243);fill-opacity:1;fill-rule:nonzero;stroke:none"
       transform="matrix(0.35277776,0,0,-0.35277776,114.72911,156.53737)"
       clip-path="url(#clipPath55)" />
    <path
       id="path56"
       d="m 0,0 c 0.235,0 0.437,-0.024 0.605,-0.073 0.168,-0.047 0.306,-0.121 0.413,-0.221 0.108,-0.1 0.186,-0.228 0.237,-0.383 0.051,-0.155 0.077,-0.339 0.077,-0.551 V -1.82 C 1.332,-2.031 1.306,-2.215 1.255,-2.369 1.204,-2.525 1.126,-2.652 1.018,-2.753 0.911,-2.853 0.773,-2.927 0.605,-2.974 0.437,-3.022 0.235,-3.047 0,-3.047 h -2.037 c -0.087,0 -0.13,0.044 -0.13,0.131 v 2.784 c 0,0.089 0.043,0.132 0.13,0.132 z m -1.501,-2.385 c 0,-0.037 0.018,-0.057 0.056,-0.057 h 1.427 c 0.128,0 0.235,0.013 0.323,0.036 0.087,0.022 0.157,0.059 0.211,0.112 0.054,0.052 0.092,0.122 0.115,0.209 0.023,0.087 0.035,0.194 0.035,0.322 v 0.479 c 0,0.127 -0.012,0.234 -0.035,0.322 -0.023,0.087 -0.061,0.157 -0.115,0.209 -0.054,0.052 -0.124,0.09 -0.211,0.113 -0.088,0.023 -0.195,0.034 -0.323,0.034 h -1.427 c -0.038,0 -0.056,-0.019 -0.056,-0.061 z"
       style="fill:#26367c icc-color(sRGB-IEC61966-2, 0.1, 0.14898682, 0.21199036, 0.48599243);fill-opacity:1;fill-rule:nonzero;stroke:none"
       transform="matrix(0.35277776,0,0,-0.35277776,95.296915,158.90864)"
       clip-path="url(#clipPath57)" />
    <path
       id="path58"
       d="m 0,0 c 0.063,0 0.095,-0.031 0.095,-0.095 v -0.37 C 0.095,-0.503 0.094,-0.535 0.09,-0.561 0.088,-0.586 0.079,-0.623 0.065,-0.67 L -0.096,-1.262 C -0.108,-1.299 -0.121,-1.324 -0.138,-1.338 -0.153,-1.35 -0.179,-1.356 -0.214,-1.356 h -0.174 c -0.069,0 -0.097,0.031 -0.082,0.094 l 0.118,0.649 h -0.075 c -0.067,0 -0.1,0.032 -0.1,0.096 v 0.422 c 0,0.064 0.033,0.095 0.1,0.095 z"
       style="fill:#26367c icc-color(sRGB-IEC61966-2, 0.1, 0.14898682, 0.21199036, 0.48599243);fill-opacity:1;fill-rule:nonzero;stroke:none"
       transform="matrix(0.35277776,0,0,-0.35277776,96.101388,158.83219)"
       clip-path="url(#clipPath59)" />
    <path
       id="path60"
       d="M 0,0 C 0.067,0 0.1,-0.033 0.1,-0.096 V -0.51 C 0.1,-0.573 0.067,-0.605 0,-0.605 h -1.901 c -0.113,0 -0.207,-0.01 -0.281,-0.029 -0.074,-0.018 -0.134,-0.05 -0.179,-0.095 C -2.406,-0.775 -2.437,-0.835 -2.455,-0.912 -2.471,-0.989 -2.48,-1.083 -2.48,-1.197 V -1.24 h 2.458 c 0.064,0 0.095,-0.033 0.095,-0.096 V -1.68 c 0,-0.063 -0.031,-0.096 -0.095,-0.096 H -2.48 v -0.073 c 0,-0.114 0.009,-0.209 0.025,-0.287 0.018,-0.075 0.049,-0.137 0.094,-0.181 0.045,-0.046 0.105,-0.078 0.179,-0.096 0.074,-0.019 0.168,-0.029 0.281,-0.029 H 0 c 0.067,0 0.1,-0.032 0.1,-0.096 V -2.952 C 0.1,-3.015 0.067,-3.046 0,-3.046 h -1.914 c -0.221,0 -0.408,0.02 -0.562,0.061 -0.154,0.04 -0.279,0.106 -0.376,0.198 -0.098,0.091 -0.169,0.209 -0.214,0.356 -0.045,0.146 -0.067,0.324 -0.067,0.533 v 0.748 c 0,0.21 0.022,0.388 0.067,0.531 0.045,0.146 0.116,0.264 0.214,0.355 0.097,0.092 0.222,0.158 0.376,0.2 C -2.322,-0.021 -2.135,0 -1.914,0 Z m -0.805,0.94 c 0.032,0 0.055,-0.008 0.069,-0.022 0.015,-0.015 0.012,-0.035 -0.008,-0.061 L -1.188,0.217 C -1.205,0.188 -1.224,0.167 -1.242,0.154 -1.261,0.141 -1.287,0.135 -1.319,0.135 h -0.33 c -0.032,0 -0.056,0.007 -0.07,0.022 -0.014,0.014 -0.013,0.034 0.004,0.06 l 0.388,0.64 c 0.031,0.055 0.077,0.083 0.135,0.083 z"
       style="fill:#26367c icc-color(sRGB-IEC61966-2, 0.1, 0.14898682, 0.21199036, 0.48599243);fill-opacity:1;fill-rule:nonzero;stroke:none"
       transform="matrix(0.35277776,0,0,-0.35277776,97.387441,158.90864)"
       clip-path="url(#clipPath61)" />
    <path
       id="path62"
       d="m 0,0 c 0.066,0 0.1,-0.033 0.1,-0.096 v -0.427 c 0,-0.066 -0.034,-0.1 -0.1,-0.1 h -1.367 v -2.328 c 0,-0.064 -0.032,-0.096 -0.095,-0.096 h -0.475 c -0.063,0 -0.095,0.032 -0.095,0.096 v 2.328 h -1.367 c -0.067,0 -0.099,0.034 -0.099,0.1 v 0.427 c 0,0.063 0.032,0.096 0.099,0.096 z"
       style="fill:#26367c icc-color(sRGB-IEC61966-2, 0.1, 0.14898682, 0.21199036, 0.48599243);fill-opacity:1;fill-rule:nonzero;stroke:none"
       transform="matrix(0.35277776,0,0,-0.35277776,98.761509,158.90864)"
       clip-path="url(#clipPath63)" />
    <path
       id="path64"
       d="m 0,0 c 0.063,0 0.096,-0.033 0.096,-0.096 v -1.737 c 0,-0.116 0.009,-0.212 0.028,-0.289 C 0.143,-2.198 0.174,-2.26 0.217,-2.304 0.262,-2.35 0.319,-2.381 0.394,-2.4 0.468,-2.419 0.561,-2.428 0.674,-2.428 H 1.88 c 0.113,0 0.206,0.009 0.281,0.028 0.074,0.019 0.132,0.05 0.175,0.096 0.044,0.044 0.075,0.106 0.092,0.182 0.017,0.077 0.026,0.173 0.026,0.289 v 1.737 C 2.454,-0.033 2.486,0 2.55,0 H 3.025 C 3.088,0 3.12,-0.033 3.12,-0.096 V -1.898 C 3.12,-2.107 3.098,-2.285 3.055,-2.431 3.011,-2.578 2.941,-2.695 2.844,-2.788 2.746,-2.879 2.621,-2.946 2.466,-2.985 2.31,-3.026 2.122,-3.047 1.902,-3.047 H 0.648 c -0.22,0 -0.407,0.021 -0.56,0.062 -0.154,0.039 -0.28,0.106 -0.378,0.197 -0.096,0.093 -0.167,0.21 -0.213,0.357 -0.044,0.146 -0.067,0.324 -0.067,0.533 v 1.802 c 0,0.063 0.033,0.096 0.1,0.096 z"
       style="fill:#26367c icc-color(sRGB-IEC61966-2, 0.1, 0.14898682, 0.21199036, 0.48599243);fill-opacity:1;fill-rule:nonzero;stroke:none"
       transform="matrix(0.35277776,0,0,-0.35277776,99.14043,158.90864)"
       clip-path="url(#clipPath65)" />
    <path
       id="path66"
       d="m 0,0 c 0.235,0 0.437,-0.024 0.604,-0.073 0.169,-0.047 0.307,-0.121 0.414,-0.221 0.108,-0.1 0.186,-0.228 0.237,-0.383 0.051,-0.155 0.077,-0.339 0.077,-0.551 V -1.82 C 1.332,-2.031 1.306,-2.215 1.255,-2.369 1.204,-2.525 1.126,-2.652 1.018,-2.753 0.911,-2.853 0.773,-2.927 0.604,-2.974 0.437,-3.022 0.235,-3.047 0,-3.047 h -2.037 c -0.087,0 -0.13,0.044 -0.13,0.131 v 2.784 c 0,0.089 0.043,0.132 0.13,0.132 z m -1.501,-2.385 c 0,-0.037 0.018,-0.057 0.056,-0.057 h 1.427 c 0.128,0 0.235,0.013 0.323,0.036 0.086,0.022 0.157,0.059 0.211,0.112 0.054,0.052 0.092,0.122 0.115,0.209 0.023,0.087 0.035,0.194 0.035,0.322 v 0.479 c 0,0.127 -0.012,0.234 -0.035,0.322 -0.023,0.087 -0.061,0.157 -0.115,0.209 -0.054,0.052 -0.125,0.09 -0.211,0.113 -0.088,0.023 -0.195,0.034 -0.323,0.034 h -1.427 c -0.038,0 -0.056,-0.019 -0.056,-0.061 z"
       style="fill:#26367c icc-color(sRGB-IEC61966-2, 0.1, 0.14898682, 0.21199036, 0.48599243);fill-opacity:1;fill-rule:nonzero;stroke:none"
       transform="matrix(0.35277776,0,0,-0.35277776,101.20086,158.90864)"
       clip-path="url(#clipPath67)" />
    <path
       id="path68"
       d="M 0,0 C 0.066,0 0.1,-0.033 0.1,-0.096 V -0.51 C 0.1,-0.574 0.066,-0.605 0,-0.605 h -1.902 c -0.113,0 -0.206,-0.01 -0.281,-0.029 -0.074,-0.018 -0.133,-0.051 -0.178,-0.095 -0.045,-0.046 -0.077,-0.106 -0.094,-0.183 -0.017,-0.078 -0.026,-0.172 -0.026,-0.285 V -1.24 h 2.459 c 0.063,0 0.095,-0.032 0.095,-0.097 V -1.68 c 0,-0.064 -0.032,-0.097 -0.095,-0.097 H -2.481 V -1.85 c 0,-0.113 0.009,-0.208 0.026,-0.285 0.017,-0.076 0.049,-0.138 0.094,-0.182 0.045,-0.046 0.104,-0.077 0.178,-0.097 0.075,-0.018 0.168,-0.027 0.281,-0.027 H 0 c 0.066,0 0.1,-0.033 0.1,-0.097 V -2.951 C 0.1,-3.015 0.066,-3.047 0,-3.047 h -1.915 c -0.221,0 -0.407,0.021 -0.562,0.062 -0.153,0.039 -0.279,0.106 -0.376,0.197 -0.097,0.093 -0.168,0.21 -0.213,0.357 -0.045,0.146 -0.067,0.324 -0.067,0.533 v 0.748 c 0,0.21 0.022,0.387 0.067,0.532 0.045,0.144 0.116,0.263 0.213,0.354 0.097,0.091 0.223,0.158 0.376,0.2 C -2.322,-0.022 -2.136,0 -1.915,0 Z"
       style="fill:#26367c icc-color(sRGB-IEC61966-2, 0.1, 0.14898682, 0.21199036, 0.48599243);fill-opacity:1;fill-rule:nonzero;stroke:none"
       transform="matrix(0.35277776,0,0,-0.35277776,102.94933,158.90864)"
       clip-path="url(#clipPath69)" />
    <path
       id="path70"
       d="M 0,0 C 0.063,0 0.096,-0.033 0.096,-0.096 V -0.51 C 0.096,-0.574 0.063,-0.605 0,-0.605 h -2.18 c -0.084,0 -0.144,-0.022 -0.178,-0.065 -0.035,-0.045 -0.053,-0.103 -0.053,-0.179 v -0.148 c 0,-0.162 0.076,-0.243 0.226,-0.243 h 1.632 c 0.253,0 0.443,-0.065 0.57,-0.194 0.128,-0.128 0.192,-0.315 0.192,-0.555 v -0.348 c 0,-0.211 -0.063,-0.383 -0.188,-0.514 -0.124,-0.13 -0.319,-0.196 -0.583,-0.196 h -2.41 c -0.067,0 -0.1,0.032 -0.1,0.096 v 0.413 c 0,0.064 0.033,0.097 0.1,0.097 h 2.284 c 0.084,0 0.144,0.021 0.179,0.065 0.035,0.043 0.052,0.103 0.052,0.178 v 0.178 c 0,0.163 -0.076,0.243 -0.227,0.243 h -1.631 c -0.252,0 -0.442,0.066 -0.57,0.195 -0.128,0.129 -0.192,0.314 -0.192,0.554 v 0.318 c 0,0.212 0.063,0.383 0.188,0.513 C -2.765,-0.065 -2.57,0 -2.307,0 Z"
       style="fill:#26367c icc-color(sRGB-IEC61966-2, 0.1, 0.14898682, 0.21199036, 0.48599243);fill-opacity:1;fill-rule:nonzero;stroke:none"
       transform="matrix(0.35277776,0,0,-0.35277776,104.22184,158.90864)"
       clip-path="url(#clipPath71)" />
    <path
       id="path72"
       d="M 0,0 C 0.064,0 0.096,-0.033 0.096,-0.096 V -0.51 C 0.096,-0.574 0.064,-0.605 0,-0.605 h -2.18 c -0.084,0 -0.144,-0.022 -0.179,-0.065 -0.035,-0.045 -0.052,-0.103 -0.052,-0.179 v -0.148 c 0,-0.162 0.076,-0.243 0.226,-0.243 h 1.632 c 0.253,0 0.443,-0.065 0.57,-0.194 0.128,-0.128 0.192,-0.315 0.192,-0.555 v -0.348 c 0,-0.211 -0.063,-0.383 -0.188,-0.514 -0.124,-0.13 -0.319,-0.196 -0.582,-0.196 h -2.411 c -0.067,0 -0.1,0.032 -0.1,0.096 v 0.413 c 0,0.064 0.033,0.097 0.1,0.097 h 2.284 c 0.084,0 0.144,0.021 0.179,0.065 0.034,0.043 0.052,0.103 0.052,0.178 v 0.178 c 0,0.163 -0.076,0.243 -0.227,0.243 h -1.631 c -0.253,0 -0.442,0.066 -0.57,0.195 -0.128,0.129 -0.192,0.314 -0.192,0.554 v 0.318 c 0,0.212 0.063,0.383 0.188,0.513 C -2.765,-0.065 -2.571,0 -2.307,0 Z"
       style="fill:#26367c icc-color(sRGB-IEC61966-2, 0.1, 0.14898682, 0.21199036, 0.48599243);fill-opacity:1;fill-rule:nonzero;stroke:none"
       transform="matrix(0.35277776,0,0,-0.35277776,106.03924,158.90864)"
       clip-path="url(#clipPath73)" />
    <path
       id="path74"
       d="m 0,0 c 0.334,0 0.573,-0.076 0.718,-0.227 0.145,-0.151 0.218,-0.374 0.218,-0.67 v -0.321 c 0,-0.297 -0.073,-0.519 -0.218,-0.67 C 0.573,-2.04 0.334,-2.115 0,-2.115 h -1.801 v -0.837 c 0,-0.063 -0.032,-0.095 -0.095,-0.095 h -0.471 c -0.067,0 -0.1,0.032 -0.1,0.095 v 2.821 c 0,0.088 0.043,0.131 0.131,0.131 z m -1.801,-1.542 h 1.666 c 0.148,0 0.252,0.033 0.314,0.097 0.061,0.064 0.09,0.161 0.09,0.292 v 0.165 c 0,0.13 -0.029,0.228 -0.09,0.291 -0.062,0.064 -0.166,0.096 -0.314,0.096 h -1.61 c -0.037,0 -0.056,-0.017 -0.056,-0.052 z"
       style="fill:#26367c icc-color(sRGB-IEC61966-2, 0.1, 0.14898682, 0.21199036, 0.48599243);fill-opacity:1;fill-rule:nonzero;stroke:none"
       transform="matrix(0.35277776,0,0,-0.35277776,107.15187,158.90864)"
       clip-path="url(#clipPath75)" />
    <path
       id="path76"
       d="M 0,0 C 0.111,0 0.203,-0.023 0.279,-0.068 0.354,-0.114 0.428,-0.2 0.501,-0.331 l 1.44,-2.615 C 1.955,-2.975 1.959,-2.999 1.952,-3.019 1.945,-3.037 1.923,-3.046 1.889,-3.046 H 1.336 c -0.049,0 -0.083,0.019 -0.1,0.056 l -0.309,0.562 h -2.045 l -0.3,-0.562 c -0.021,-0.037 -0.054,-0.056 -0.1,-0.056 h -0.566 c -0.038,0 -0.06,0.009 -0.067,0.027 -0.007,0.02 -0.004,0.044 0.01,0.073 l 1.428,2.615 c 0.072,0.131 0.143,0.217 0.212,0.263 C -0.43,-0.023 -0.349,0 -0.257,0 Z m -0.844,-1.923 h 1.497 l -0.692,1.275 c -0.012,0.019 -0.028,0.029 -0.047,0.029 h -0.027 c -0.02,0 -0.036,-0.01 -0.048,-0.029 z"
       style="fill:#26367c icc-color(sRGB-IEC61966-2, 0.1, 0.14898682, 0.21199036, 0.48599243);fill-opacity:1;fill-rule:nonzero;stroke:none"
       transform="matrix(0.35277776,0,0,-0.35277776,108.1557,158.90864)"
       clip-path="url(#clipPath77)" />
    <path
       id="path78"
       d="m 0,0 c 0.066,0 0.1,-0.033 0.1,-0.096 v -0.427 c 0,-0.066 -0.034,-0.1 -0.1,-0.1 h -1.366 v -2.328 c 0,-0.064 -0.033,-0.096 -0.096,-0.096 h -0.474 c -0.065,0 -0.096,0.032 -0.096,0.096 v 2.328 h -1.367 c -0.066,0 -0.1,0.034 -0.1,0.1 v 0.427 c 0,0.063 0.034,0.096 0.1,0.096 z"
       style="fill:#26367c icc-color(sRGB-IEC61966-2, 0.1, 0.14898682, 0.21199036, 0.48599243);fill-opacity:1;fill-rule:nonzero;stroke:none"
       transform="matrix(0.35277776,0,0,-0.35277776,109.93359,158.90864)"
       clip-path="url(#clipPath79)" />
    <path
       id="path80"
       d="M 0,0 C 0.063,0 0.095,-0.033 0.095,-0.096 V -2.951 C 0.095,-3.015 0.063,-3.047 0,-3.047 h -0.47 c -0.067,0 -0.1,0.032 -0.1,0.096 v 2.855 c 0,0.063 0.033,0.096 0.1,0.096 z"
       style="fill:#26367c icc-color(sRGB-IEC61966-2, 0.1, 0.14898682, 0.21199036, 0.48599243);fill-opacity:1;fill-rule:nonzero;stroke:none"
       transform="matrix(0.35277776,0,0,-0.35277776,110.30055,158.90864)"
       clip-path="url(#clipPath81)" />
    <path
       id="path82"
       d="M 0,0 C 0.11,0 0.203,-0.023 0.278,-0.068 0.354,-0.114 0.427,-0.2 0.501,-0.331 L 1.94,-2.946 C 1.955,-2.975 1.959,-2.999 1.951,-3.019 1.944,-3.037 1.923,-3.046 1.889,-3.046 H 1.336 c -0.05,0 -0.083,0.019 -0.101,0.056 l -0.309,0.562 h -2.044 l -0.3,-0.562 c -0.021,-0.037 -0.054,-0.056 -0.1,-0.056 h -0.566 c -0.038,0 -0.061,0.009 -0.068,0.027 -0.007,0.02 -0.003,0.044 0.011,0.073 l 1.428,2.615 C -0.641,-0.2 -0.57,-0.114 -0.5,-0.068 -0.431,-0.023 -0.35,0 -0.257,0 Z m -0.844,-1.923 h 1.497 l -0.692,1.275 c -0.012,0.019 -0.028,0.029 -0.048,0.029 h -0.026 c -0.02,0 -0.036,-0.01 -0.048,-0.029 z"
       style="fill:#26367c icc-color(sRGB-IEC61966-2, 0.1, 0.14898682, 0.21199036, 0.48599243);fill-opacity:1;fill-rule:nonzero;stroke:none"
       transform="matrix(0.35277776,0,0,-0.35277776,111.21386,158.90864)"
       clip-path="url(#clipPath83)" />
    <path
       id="path84"
       d="m 0,0 c 0.064,0 0.096,-0.033 0.096,-0.096 v -1.737 c 0,-0.116 0.009,-0.212 0.028,-0.289 C 0.143,-2.198 0.174,-2.26 0.217,-2.304 0.261,-2.35 0.32,-2.381 0.394,-2.4 0.468,-2.419 0.561,-2.428 0.675,-2.428 h 1.762 c 0.063,0 0.095,-0.033 0.095,-0.097 V -2.951 C 2.532,-3.015 2.5,-3.047 2.437,-3.047 H 0.648 c -0.221,0 -0.406,0.021 -0.561,0.062 -0.154,0.039 -0.279,0.106 -0.376,0.197 -0.097,0.093 -0.168,0.21 -0.214,0.357 -0.045,0.146 -0.067,0.324 -0.067,0.533 v 1.802 c 0,0.063 0.033,0.096 0.1,0.096 z"
       style="fill:#26367c icc-color(sRGB-IEC61966-2, 0.1, 0.14898682, 0.21199036, 0.48599243);fill-opacity:1;fill-rule:nonzero;stroke:none"
       transform="matrix(0.35277776,0,0,-0.35277776,112.15934,158.90864)"
       clip-path="url(#clipPath85)" />
    <path
       id="path86"
       d="M 0,0 C 0.066,0 0.1,-0.033 0.1,-0.096 V -0.51 C 0.1,-0.574 0.066,-0.605 0,-0.605 h -1.902 c -0.113,0 -0.206,-0.01 -0.281,-0.029 -0.074,-0.018 -0.133,-0.051 -0.178,-0.095 -0.045,-0.046 -0.077,-0.106 -0.094,-0.183 -0.017,-0.078 -0.026,-0.172 -0.026,-0.285 V -1.24 h 2.459 c 0.063,0 0.095,-0.032 0.095,-0.097 V -1.68 c 0,-0.064 -0.032,-0.097 -0.095,-0.097 H -2.481 V -1.85 c 0,-0.113 0.009,-0.208 0.026,-0.285 0.017,-0.076 0.049,-0.138 0.094,-0.182 0.045,-0.046 0.104,-0.077 0.178,-0.097 0.075,-0.018 0.168,-0.027 0.281,-0.027 H 0 c 0.066,0 0.1,-0.033 0.1,-0.097 V -2.951 C 0.1,-3.015 0.066,-3.047 0,-3.047 h -1.915 c -0.221,0 -0.407,0.021 -0.561,0.062 -0.154,0.039 -0.28,0.106 -0.377,0.197 -0.097,0.093 -0.168,0.21 -0.213,0.357 -0.045,0.146 -0.067,0.324 -0.067,0.533 v 0.748 c 0,0.21 0.022,0.387 0.067,0.532 0.045,0.144 0.116,0.263 0.213,0.354 0.097,0.091 0.223,0.158 0.377,0.2 C -2.322,-0.022 -2.136,0 -1.915,0 Z"
       style="fill:#26367c icc-color(sRGB-IEC61966-2, 0.1, 0.14898682, 0.21199036, 0.48599243);fill-opacity:1;fill-rule:nonzero;stroke:none"
       transform="matrix(0.35277776,0,0,-0.35277776,114.27791,158.90864)"
       clip-path="url(#clipPath87)" />
    <path
       id="path88"
       d="M 0,0 C 0.063,0 0.096,-0.033 0.096,-0.096 V -0.51 C 0.096,-0.574 0.063,-0.605 0,-0.605 h -2.18 c -0.084,0 -0.144,-0.022 -0.178,-0.065 -0.035,-0.045 -0.053,-0.103 -0.053,-0.179 v -0.148 c 0,-0.162 0.076,-0.243 0.226,-0.243 h 1.632 c 0.253,0 0.443,-0.065 0.57,-0.194 0.128,-0.128 0.192,-0.315 0.192,-0.555 v -0.348 c 0,-0.211 -0.063,-0.383 -0.188,-0.514 -0.124,-0.13 -0.319,-0.196 -0.582,-0.196 h -2.411 c -0.067,0 -0.1,0.032 -0.1,0.096 v 0.413 c 0,0.064 0.033,0.097 0.1,0.097 h 2.284 c 0.084,0 0.144,0.021 0.179,0.065 0.035,0.043 0.052,0.103 0.052,0.178 v 0.178 c 0,0.163 -0.076,0.243 -0.227,0.243 h -1.631 c -0.252,0 -0.442,0.066 -0.57,0.195 -0.128,0.129 -0.192,0.314 -0.192,0.554 v 0.318 c 0,0.212 0.062,0.383 0.188,0.513 C -2.765,-0.065 -2.57,0 -2.307,0 Z"
       style="fill:#26367c icc-color(sRGB-IEC61966-2, 0.1, 0.14898682, 0.21199036, 0.48599243);fill-opacity:1;fill-rule:nonzero;stroke:none"
       transform="matrix(0.35277776,0,0,-0.35277776,115.55042,158.90864)"
       clip-path="url(#clipPath89)" />
    <path
       id="path90"
       d="m 0,0 c -4.128,0.06 -8.727,3.633 -8.727,9.502 v 19.446 h -1.372 V 18.587 c -5.949,-1.291 -10.379,-6.221 -10.379,-12.123 0,-6.872 6.016,-12.446 13.452,-12.446 5.652,0 10.476,3.239 12.469,7.823 C 4.17,0.735 1.984,-0.025 0,0"
       style="fill:#26367c icc-color(sRGB-IEC61966-2, 0.1, 0.14898682, 0.21199036, 0.48599243);fill-opacity:1;fill-rule:nonzero;stroke:none"
       transform="matrix(0.35277776,0,0,-0.35277776,107.75618,147.00179)"
       clip-path="url(#clipPath91)" />
    <path
       id="path92"
       d="m 0,0 c 0.569,0.068 7.462,-0.023 11.489,-6.12 1.357,-2.054 0.035,-4.618 -4.05,-4.756 C 5.983,-10.922 0.773,-9.6 0,0"
       style="fill:#26367c icc-color(sRGB-IEC61966-2, 0.1, 0.14898682, 0.21199036, 0.48599243);fill-opacity:1;fill-rule:nonzero;stroke:none"
       transform="matrix(0.35277776,0,0,-0.35277776,105.30762,140.32978)"
       clip-path="url(#clipPath93)" />
    <path
       id="path94"
       d="m 0,0 c -3.478,0 -6.997,-1.436 -6.997,-6.604 v -6.994 h 3.108 v 6.946 c 0,3.485 2.249,4.29 3.889,4.29 1.64,0 3.889,-0.805 3.889,-4.29 v -6.946 h 3.107 v 6.994 C 6.996,-1.436 3.478,0 0,0"
       style="fill:#26367c icc-color(sRGB-IEC61966-2, 0.1, 0.14898682, 0.21199036, 0.48599243);fill-opacity:1;fill-rule:nonzero;stroke:none"
       transform="matrix(0.35277776,0,0,-0.35277776,102.19922,150.42314)"
       clip-path="url(#clipPath95)" />
    <path
       id="path96"
       d="m 0,0 c 0,-3.286 1.436,-6.612 6.603,-6.612 h 6.322 v 2.32 H 7.41 c -3.486,0 -4.173,2.689 -4.173,4.292 0,1.601 0.687,4.329 4.173,4.329 h 5.515 V 6.61 H 6.603 C 1.436,6.61 0,3.286 0,0"
       style="fill:#26367c icc-color(sRGB-IEC61966-2, 0.1, 0.14898682, 0.21199036, 0.48599243);fill-opacity:1;fill-rule:nonzero;stroke:none"
       transform="matrix(0.35277776,0,0,-0.35277776,94.456246,152.88792)"
       clip-path="url(#clipPath97)" />
    <path
       id="path98"
       d="m 0,0 h -7.498 c 0,1.13 0.079,4.035 3.713,4.035 C 0.534,4.035 0,0 0,0 M -7.502,-2.001 H 3.317 c 0.006,0.371 0,0.982 0,0.982 0,5.887 -3.861,7.075 -7.367,7.075 -4.933,0 -6.759,-3.528 -6.759,-6.798 l -0.003,-0.188 c 0,-3.286 1.437,-6.612 6.605,-6.612 h 7.135 v 2.319 h -6.327 c -2.898,0 -3.86,1.671 -4.103,3.222"
       style="fill:#26367c icc-color(sRGB-IEC61966-2, 0.1, 0.14898682, 0.21199036, 0.48599243);fill-opacity:1;fill-rule:nonzero;stroke:none"
       transform="matrix(0.35277776,0,0,-0.35277776,109.1354,152.55977)"
       clip-path="url(#clipPath99)" />
    <path
       id="path100"
       d="m 0,0 h -1.746 c -1.637,0 -2.657,0.521 -2.657,1.688 0,1.132 0.799,1.593 2.461,1.609 h 6.866 v 2.281 h -6.84 c -2.778,0 -5.927,-0.464 -5.927,-3.891 0,-3.742 4.192,-3.685 5.43,-3.685 h 1.745 c 1.637,0 2.657,-0.521 2.657,-1.689 0,-1.131 -0.801,-1.591 -2.462,-1.607 h -6.864 v -2.282 h 6.839 c 2.78,0 5.928,0.464 5.928,3.89 C 5.43,0.06 1.238,0 0,0"
       style="fill:#26367c icc-color(sRGB-IEC61966-2, 0.1, 0.14898682, 0.21199036, 0.48599243);fill-opacity:1;fill-rule:nonzero;stroke:none"
       transform="matrix(0.35277776,0,0,-0.35277776,113.72317,152.52368)"
       clip-path="url(#clipPath101)" />
    <path
       id="path102"
       d="m 0,0 c 0.063,0 0.096,-0.033 0.096,-0.096 v -0.427 c 0,-0.066 -0.033,-0.1 -0.096,-0.1 h -1.937 c -0.112,0 -0.206,-0.01 -0.28,-0.028 -0.074,-0.019 -0.133,-0.05 -0.176,-0.097 -0.043,-0.044 -0.075,-0.104 -0.094,-0.179 -0.018,-0.076 -0.028,-0.172 -0.028,-0.288 v -0.618 c 0,-0.116 0.01,-0.212 0.028,-0.289 0.019,-0.076 0.051,-0.138 0.094,-0.182 0.043,-0.046 0.102,-0.077 0.176,-0.097 0.074,-0.018 0.168,-0.027 0.28,-0.027 H 0 c 0.063,0 0.096,-0.033 0.096,-0.097 V -2.951 C 0.096,-3.015 0.063,-3.046 0,-3.046 h -1.963 c -0.22,0 -0.407,0.019 -0.561,0.061 -0.154,0.04 -0.279,0.105 -0.376,0.198 -0.097,0.091 -0.169,0.209 -0.213,0.357 -0.045,0.145 -0.068,0.323 -0.068,0.532 v 0.748 c 0,0.209 0.023,0.387 0.068,0.531 0.044,0.145 0.116,0.264 0.213,0.355 0.097,0.091 0.222,0.157 0.376,0.2 C -2.37,-0.022 -2.183,0 -1.963,0 Z"
       style="fill:#26367c icc-color(sRGB-IEC61966-2, 0.1, 0.14898682, 0.21199036, 0.48599243);fill-opacity:1;fill-rule:nonzero;stroke:none"
       transform="matrix(0.35277776,0,0,-0.35277776,95.680666,156.53737)"
       clip-path="url(#clipPath103)" />
    <path
       id="path104"
       d="M 0,0 C 0.066,0 0.1,-0.033 0.1,-0.096 V -0.51 C 0.1,-0.574 0.066,-0.605 0,-0.605 h -1.902 c -0.113,0 -0.206,-0.01 -0.28,-0.029 C -2.257,-0.652 -2.316,-0.685 -2.361,-0.729 -2.406,-0.775 -2.438,-0.835 -2.455,-0.912 -2.472,-0.99 -2.48,-1.084 -2.48,-1.197 V -1.24 h 2.458 c 0.063,0 0.095,-0.033 0.095,-0.097 V -1.68 c 0,-0.064 -0.032,-0.096 -0.095,-0.096 H -2.48 V -1.85 c 0,-0.114 0.008,-0.208 0.025,-0.286 0.017,-0.075 0.049,-0.137 0.094,-0.182 0.045,-0.045 0.104,-0.077 0.179,-0.095 0.074,-0.019 0.167,-0.029 0.28,-0.029 H 0 c 0.066,0 0.1,-0.033 0.1,-0.096 V -2.951 C 0.1,-3.015 0.066,-3.046 0,-3.046 h -1.915 c -0.221,0 -0.407,0.019 -0.562,0.061 -0.153,0.04 -0.279,0.105 -0.376,0.198 -0.097,0.091 -0.168,0.209 -0.213,0.357 -0.045,0.145 -0.067,0.323 -0.067,0.532 v 0.748 c 0,0.209 0.022,0.387 0.067,0.531 0.045,0.145 0.116,0.264 0.213,0.355 0.097,0.091 0.223,0.157 0.376,0.2 C -2.322,-0.022 -2.136,0 -1.915,0 Z"
       style="fill:#26367c icc-color(sRGB-IEC61966-2, 0.1, 0.14898682, 0.21199036, 0.48599243);fill-opacity:1;fill-rule:nonzero;stroke:none"
       transform="matrix(0.35277776,0,0,-0.35277776,97.136121,156.53737)"
       clip-path="url(#clipPath105)" />
    <path
       id="path106"
       d="m 0,0 c 0.069,0 0.128,-0.004 0.174,-0.01 0.046,-0.005 0.087,-0.018 0.122,-0.036 0.035,-0.019 0.068,-0.046 0.1,-0.078 0.032,-0.034 0.068,-0.078 0.109,-0.133 l 1.618,-2.124 c 0.012,-0.02 0.031,-0.03 0.057,-0.03 h 0.039 c 0.023,0 0.035,0.014 0.035,0.042 v 2.273 C 2.254,-0.033 2.286,0 2.35,0 H 2.807 C 2.871,0 2.902,-0.033 2.902,-0.096 V -2.594 C 2.902,-2.771 2.871,-2.891 2.807,-2.953 2.743,-3.015 2.644,-3.046 2.511,-3.046 H 2.136 c -0.066,0 -0.122,0.002 -0.167,0.008 -0.045,0.006 -0.085,0.018 -0.12,0.035 -0.034,0.018 -0.069,0.043 -0.101,0.075 -0.034,0.035 -0.072,0.08 -0.117,0.138 l -1.622,2.123 c -0.018,0.021 -0.036,0.03 -0.057,0.03 h -0.039 c -0.023,0 -0.034,-0.014 -0.034,-0.043 v -2.271 c 0,-0.064 -0.033,-0.095 -0.096,-0.095 h -0.457 c -0.067,0 -0.1,0.031 -0.1,0.095 v 2.498 c 0,0.177 0.031,0.296 0.096,0.359 C -0.615,-0.032 -0.516,0 -0.383,0 Z"
       style="fill:#26367c icc-color(sRGB-IEC61966-2, 0.1, 0.14898682, 0.21199036, 0.48599243);fill-opacity:1;fill-rule:nonzero;stroke:none"
       transform="matrix(0.35277776,0,0,-0.35277776,97.785162,156.53737)"
       clip-path="url(#clipPath107)" />
    <path
       id="path108"
       d="m 0,0 c 0.066,0 0.1,-0.033 0.1,-0.096 v -0.427 c 0,-0.066 -0.034,-0.1 -0.1,-0.1 h -1.366 v -2.328 c 0,-0.064 -0.033,-0.095 -0.096,-0.095 h -0.475 c -0.064,0 -0.096,0.031 -0.096,0.095 v 2.328 h -1.366 c -0.067,0 -0.1,0.034 -0.1,0.1 v 0.427 c 0,0.063 0.033,0.096 0.1,0.096 z"
       style="fill:#26367c icc-color(sRGB-IEC61966-2, 0.1, 0.14898682, 0.21199036, 0.48599243);fill-opacity:1;fill-rule:nonzero;stroke:none"
       transform="matrix(0.35277776,0,0,-0.35277776,100.34594,156.53737)"
       clip-path="url(#clipPath109)" />
    <path
       id="path110"
       d="m 0,0 c 0.334,0 0.574,-0.076 0.718,-0.226 0.145,-0.151 0.218,-0.375 0.218,-0.67 v -0.248 c 0,-0.25 -0.051,-0.448 -0.153,-0.592 C 0.682,-1.882 0.516,-1.975 0.288,-2.014 L 1.032,-2.938 C 1.046,-2.952 1.05,-2.974 1.045,-3.003 1.039,-3.031 1.016,-3.046 0.975,-3.046 H 0.414 c -0.038,0 -0.064,0.005 -0.078,0.014 -0.015,0.007 -0.03,0.022 -0.044,0.042 l -0.688,0.905 h -1.405 v -0.866 c 0,-0.064 -0.032,-0.095 -0.095,-0.095 h -0.471 c -0.067,0 -0.1,0.031 -0.1,0.095 v 2.82 c 0,0.088 0.044,0.131 0.131,0.131 z m -1.801,-1.553 h 1.667 c 0.147,0 0.252,0.031 0.313,0.095 0.061,0.064 0.091,0.162 0.091,0.292 v 0.183 c 0,0.13 -0.03,0.227 -0.091,0.292 -0.061,0.062 -0.166,0.095 -0.313,0.095 h -1.611 c -0.037,0 -0.056,-0.017 -0.056,-0.052 z"
       style="fill:#26367c icc-color(sRGB-IEC61966-2, 0.1, 0.14898682, 0.21199036, 0.48599243);fill-opacity:1;fill-rule:nonzero;stroke:none"
       transform="matrix(0.35277776,0,0,-0.35277776,101.55227,156.53759)"
       clip-path="url(#clipPath111)" />
    <path
       id="path112"
       d="M 0,0 C 0.066,0 0.1,-0.033 0.1,-0.096 V -0.51 C 0.1,-0.574 0.066,-0.605 0,-0.605 h -1.901 c -0.114,0 -0.207,-0.01 -0.281,-0.029 C -2.256,-0.652 -2.316,-0.685 -2.36,-0.729 -2.405,-0.775 -2.437,-0.835 -2.454,-0.912 -2.472,-0.99 -2.48,-1.084 -2.48,-1.197 V -1.24 h 2.459 c 0.062,0 0.095,-0.033 0.095,-0.097 V -1.68 c 0,-0.064 -0.033,-0.096 -0.095,-0.096 H -2.48 V -1.85 c 0,-0.114 0.008,-0.208 0.026,-0.286 0.017,-0.075 0.049,-0.137 0.094,-0.182 0.044,-0.045 0.104,-0.077 0.178,-0.095 0.074,-0.019 0.167,-0.029 0.281,-0.029 H 0 c 0.066,0 0.1,-0.033 0.1,-0.096 V -2.951 C 0.1,-3.015 0.066,-3.046 0,-3.046 h -1.915 c -0.22,0 -0.407,0.019 -0.562,0.061 -0.153,0.04 -0.278,0.105 -0.375,0.198 -0.098,0.091 -0.169,0.209 -0.213,0.357 -0.046,0.145 -0.068,0.323 -0.068,0.532 v 0.748 c 0,0.209 0.022,0.387 0.068,0.531 0.044,0.145 0.115,0.264 0.213,0.355 0.097,0.091 0.222,0.157 0.375,0.2 C -2.322,-0.022 -2.135,0 -1.915,0 Z"
       style="fill:#26367c icc-color(sRGB-IEC61966-2, 0.1, 0.14898682, 0.21199036, 0.48599243);fill-opacity:1;fill-rule:nonzero;stroke:none"
       transform="matrix(0.35277776,0,0,-0.35277776,103.30095,156.53737)"
       clip-path="url(#clipPath113)" />
    <path
       id="path114"
       d="M 0,0 C 0.069,0 0.127,-0.004 0.174,-0.01 0.22,-0.015 0.261,-0.028 0.296,-0.046 0.33,-0.065 0.364,-0.092 0.395,-0.124 0.428,-0.158 0.464,-0.202 0.505,-0.257 l 1.618,-2.124 c 0.012,-0.02 0.031,-0.03 0.057,-0.03 h 0.039 c 0.023,0 0.035,0.014 0.035,0.042 v 2.273 C 2.254,-0.033 2.286,0 2.35,0 H 2.806 C 2.87,0 2.902,-0.033 2.902,-0.096 V -2.594 C 2.902,-2.771 2.87,-2.891 2.806,-2.953 2.743,-3.015 2.644,-3.046 2.51,-3.046 H 2.136 c -0.066,0 -0.122,0.002 -0.167,0.008 -0.045,0.006 -0.085,0.018 -0.12,0.035 -0.034,0.018 -0.069,0.043 -0.102,0.075 -0.033,0.035 -0.071,0.08 -0.116,0.138 l -1.622,2.123 c -0.018,0.021 -0.037,0.03 -0.057,0.03 h -0.039 c -0.024,0 -0.035,-0.014 -0.035,-0.043 v -2.271 c 0,-0.064 -0.032,-0.095 -0.096,-0.095 h -0.456 c -0.067,0 -0.101,0.031 -0.101,0.095 v 2.498 c 0,0.177 0.032,0.296 0.096,0.359 C -0.615,-0.032 -0.517,0 -0.383,0 Z"
       style="fill:#26367c icc-color(sRGB-IEC61966-2, 0.1, 0.14898682, 0.21199036, 0.48599243);fill-opacity:1;fill-rule:nonzero;stroke:none"
       transform="matrix(0.35277776,0,0,-0.35277776,104.6287,156.53737)"
       clip-path="url(#clipPath115)" />
    <path
       id="path116"
       d="M 0,0 C 0.11,0 0.203,-0.023 0.278,-0.067 0.354,-0.113 0.428,-0.2 0.501,-0.331 l 1.44,-2.615 C 1.955,-2.975 1.959,-2.999 1.952,-3.018 1.944,-3.036 1.923,-3.046 1.889,-3.046 H 1.336 c -0.05,0 -0.083,0.019 -0.1,0.057 l -0.309,0.562 h -2.045 l -0.3,-0.562 c -0.021,-0.038 -0.054,-0.057 -0.1,-0.057 h -0.566 c -0.038,0 -0.06,0.01 -0.068,0.028 -0.007,0.019 -0.003,0.043 0.011,0.072 l 1.428,2.615 C -0.641,-0.2 -0.57,-0.113 -0.5,-0.067 -0.431,-0.023 -0.349,0 -0.257,0 Z m -0.844,-1.923 h 1.497 l -0.692,1.275 c -0.012,0.019 -0.028,0.031 -0.048,0.031 h -0.026 c -0.02,0 -0.036,-0.012 -0.048,-0.031 z"
       style="fill:#26367c icc-color(sRGB-IEC61966-2, 0.1, 0.14898682, 0.21199036, 0.48599243);fill-opacity:1;fill-rule:nonzero;stroke:none"
       transform="matrix(0.35277776,0,0,-0.35277776,106.70254,156.53759)"
       clip-path="url(#clipPath117)" />
    <path
       id="path118"
       d="m 0,0 c 0.066,0 0.1,-0.033 0.1,-0.096 v -0.427 c 0,-0.066 -0.034,-0.1 -0.1,-0.1 h -1.366 v -2.328 c 0,-0.064 -0.033,-0.095 -0.096,-0.095 h -0.474 c -0.064,0 -0.096,0.031 -0.096,0.095 v 2.328 h -1.367 c -0.066,0 -0.1,0.034 -0.1,0.1 v 0.427 c 0,0.063 0.034,0.096 0.1,0.096 z"
       style="fill:#26367c icc-color(sRGB-IEC61966-2, 0.1, 0.14898682, 0.21199036, 0.48599243);fill-opacity:1;fill-rule:nonzero;stroke:none"
       transform="matrix(0.35277776,0,0,-0.35277776,108.65058,156.53737)"
       clip-path="url(#clipPath119)" />
    <path
       id="path120"
       d="M 0,0 C 0.063,0 0.096,-0.033 0.096,-0.096 V -2.951 C 0.096,-3.015 0.063,-3.046 0,-3.046 h -0.47 c -0.066,0 -0.1,0.031 -0.1,0.095 v 2.855 c 0,0.063 0.034,0.096 0.1,0.096 z"
       style="fill:#26367c icc-color(sRGB-IEC61966-2, 0.1, 0.14898682, 0.21199036, 0.48599243);fill-opacity:1;fill-rule:nonzero;stroke:none"
       transform="matrix(0.35277776,0,0,-0.35277776,109.18768,156.53737)"
       clip-path="url(#clipPath121)" />
    <path
       id="path122"
       d="m 0,0 c 0.22,0 0.408,-0.022 0.563,-0.064 0.155,-0.042 0.281,-0.109 0.378,-0.2 0.097,-0.091 0.168,-0.21 0.212,-0.355 C 1.196,-0.763 1.218,-0.94 1.218,-1.15 V -1.898 C 1.218,-2.107 1.196,-2.285 1.153,-2.431 1.109,-2.578 1.038,-2.696 0.941,-2.788 0.844,-2.88 0.718,-2.945 0.563,-2.985 0.408,-3.026 0.22,-3.046 0,-3.046 h -1.345 c -0.22,0 -0.407,0.02 -0.562,0.061 -0.153,0.04 -0.278,0.105 -0.375,0.197 -0.098,0.092 -0.169,0.21 -0.214,0.357 -0.045,0.146 -0.067,0.324 -0.067,0.533 v 0.748 c 0,0.21 0.022,0.387 0.067,0.531 0.045,0.145 0.116,0.264 0.214,0.355 0.097,0.091 0.222,0.158 0.375,0.2 C -1.752,-0.022 -1.565,0 -1.345,0 Z m -1.898,-1.85 c 0,-0.113 0.009,-0.208 0.029,-0.285 0.018,-0.076 0.05,-0.138 0.093,-0.182 0.043,-0.046 0.103,-0.078 0.177,-0.097 0.074,-0.018 0.167,-0.028 0.28,-0.028 h 1.292 c 0.113,0 0.207,0.01 0.281,0.028 0.074,0.019 0.132,0.051 0.177,0.097 0.043,0.044 0.073,0.106 0.093,0.182 0.019,0.077 0.029,0.172 0.029,0.285 v 0.653 c 0,0.113 -0.01,0.207 -0.029,0.285 -0.02,0.077 -0.05,0.137 -0.093,0.183 -0.045,0.044 -0.103,0.076 -0.177,0.095 -0.074,0.02 -0.168,0.029 -0.281,0.029 h -1.292 c -0.113,0 -0.206,-0.009 -0.28,-0.029 -0.074,-0.019 -0.134,-0.051 -0.177,-0.095 -0.043,-0.046 -0.075,-0.106 -0.093,-0.183 -0.02,-0.078 -0.029,-0.172 -0.029,-0.285 z"
       style="fill:#26367c icc-color(sRGB-IEC61966-2, 0.1, 0.14898682, 0.21199036, 0.48599243);fill-opacity:1;fill-rule:nonzero;stroke:none"
       transform="matrix(0.35277776,0,0,-0.35277776,110.48181,156.53737)"
       clip-path="url(#clipPath123)" />
    <path
       id="path124"
       d="m 0,0 c 0.07,0 0.128,-0.004 0.174,-0.01 0.046,-0.005 0.087,-0.018 0.122,-0.036 0.035,-0.019 0.068,-0.046 0.1,-0.078 0.032,-0.034 0.068,-0.078 0.109,-0.133 l 1.618,-2.124 c 0.012,-0.02 0.031,-0.03 0.057,-0.03 h 0.039 c 0.023,0 0.035,0.014 0.035,0.042 v 2.273 C 2.254,-0.033 2.286,0 2.35,0 H 2.807 C 2.871,0 2.902,-0.033 2.902,-0.096 V -2.594 C 2.902,-2.771 2.871,-2.891 2.807,-2.953 2.743,-3.015 2.644,-3.046 2.511,-3.046 H 2.136 c -0.066,0 -0.122,0.002 -0.167,0.008 -0.045,0.006 -0.085,0.018 -0.12,0.035 -0.034,0.018 -0.069,0.043 -0.101,0.075 -0.034,0.035 -0.072,0.08 -0.117,0.138 l -1.622,2.123 c -0.017,0.021 -0.037,0.03 -0.057,0.03 h -0.039 c -0.023,0 -0.034,-0.014 -0.034,-0.043 v -2.271 c 0,-0.064 -0.033,-0.095 -0.096,-0.095 h -0.456 c -0.068,0 -0.101,0.031 -0.101,0.095 v 2.498 c 0,0.177 0.031,0.296 0.096,0.359 C -0.615,-0.032 -0.516,0 -0.383,0 Z"
       style="fill:#26367c icc-color(sRGB-IEC61966-2, 0.1, 0.14898682, 0.21199036, 0.48599243);fill-opacity:1;fill-rule:nonzero;stroke:none"
       transform="matrix(0.35277776,0,0,-0.35277776,111.53926,156.53737)"
       clip-path="url(#clipPath125)" />
    <path
       id="path126"
       d="M 0,0 C 0.11,0 0.203,-0.023 0.279,-0.067 0.354,-0.113 0.428,-0.2 0.501,-0.331 l 1.44,-2.615 C 1.955,-2.975 1.959,-2.999 1.952,-3.018 1.945,-3.036 1.923,-3.046 1.889,-3.046 H 1.336 c -0.049,0 -0.083,0.019 -0.1,0.057 l -0.309,0.562 h -2.045 l -0.3,-0.562 c -0.021,-0.038 -0.054,-0.057 -0.1,-0.057 h -0.566 c -0.038,0 -0.06,0.01 -0.067,0.028 -0.007,0.019 -0.004,0.043 0.01,0.072 l 1.428,2.615 C -0.641,-0.2 -0.57,-0.113 -0.5,-0.067 -0.431,-0.023 -0.35,0 -0.257,0 Z m -0.844,-1.923 h 1.497 l -0.692,1.275 c -0.012,0.019 -0.028,0.031 -0.047,0.031 h -0.027 c -0.02,0 -0.037,-0.012 -0.048,-0.031 z"
       style="fill:#26367c icc-color(sRGB-IEC61966-2, 0.1, 0.14898682, 0.21199036, 0.48599243);fill-opacity:1;fill-rule:nonzero;stroke:none"
       transform="matrix(0.35277776,0,0,-0.35277776,113.6131,156.53759)"
       clip-path="url(#clipPath127)" />
    <path
       id="path128"
       d="m 0,0 c 0.063,0 0.096,-0.033 0.096,-0.096 v -1.737 c 0,-0.116 0.009,-0.212 0.028,-0.289 0.019,-0.076 0.05,-0.138 0.093,-0.182 0.044,-0.046 0.103,-0.077 0.177,-0.097 0.074,-0.018 0.168,-0.027 0.281,-0.027 h 1.762 c 0.063,0 0.095,-0.033 0.095,-0.097 V -2.951 C 2.532,-3.015 2.5,-3.046 2.437,-3.046 H 0.648 c -0.22,0 -0.407,0.019 -0.56,0.061 -0.155,0.04 -0.28,0.105 -0.377,0.198 -0.097,0.091 -0.168,0.209 -0.214,0.357 -0.045,0.145 -0.067,0.323 -0.067,0.532 v 1.802 c 0,0.063 0.033,0.096 0.1,0.096 z"
       style="fill:#26367c icc-color(sRGB-IEC61966-2, 0.1, 0.14898682, 0.21199036, 0.48599243);fill-opacity:1;fill-rule:nonzero;stroke:none"
       transform="matrix(0.35277776,0,0,-0.35277776,114.72911,156.53737)"
       clip-path="url(#clipPath129)" />
    <path
       id="path130"
       d="m 0,0 c 0.235,0 0.437,-0.024 0.605,-0.073 0.168,-0.047 0.306,-0.121 0.413,-0.221 0.108,-0.1 0.186,-0.228 0.237,-0.383 0.051,-0.155 0.077,-0.339 0.077,-0.551 V -1.82 C 1.332,-2.031 1.306,-2.215 1.255,-2.369 1.204,-2.525 1.126,-2.652 1.018,-2.753 0.911,-2.853 0.773,-2.927 0.605,-2.974 0.437,-3.022 0.235,-3.047 0,-3.047 h -2.037 c -0.087,0 -0.13,0.044 -0.13,0.131 v 2.784 c 0,0.089 0.043,0.132 0.13,0.132 z m -1.501,-2.385 c 0,-0.037 0.018,-0.057 0.056,-0.057 h 1.427 c 0.128,0 0.235,0.013 0.323,0.036 0.087,0.022 0.157,0.059 0.211,0.112 0.054,0.052 0.092,0.122 0.115,0.209 0.023,0.087 0.035,0.194 0.035,0.322 v 0.479 c 0,0.127 -0.012,0.234 -0.035,0.322 -0.023,0.087 -0.061,0.157 -0.115,0.209 -0.054,0.052 -0.124,0.09 -0.211,0.113 -0.088,0.023 -0.195,0.034 -0.323,0.034 h -1.427 c -0.038,0 -0.056,-0.019 -0.056,-0.061 z"
       style="fill:#26367c icc-color(sRGB-IEC61966-2, 0.1, 0.14898682, 0.21199036, 0.48599243);fill-opacity:1;fill-rule:nonzero;stroke:none"
       transform="matrix(0.35277776,0,0,-0.35277776,95.296915,158.90864)"
       clip-path="url(#clipPath131)" />
    <path
       id="path132"
       d="m 0,0 c 0.063,0 0.095,-0.031 0.095,-0.095 v -0.37 C 0.095,-0.503 0.094,-0.535 0.09,-0.561 0.088,-0.586 0.079,-0.623 0.065,-0.67 L -0.096,-1.262 C -0.108,-1.299 -0.121,-1.324 -0.138,-1.338 -0.153,-1.35 -0.179,-1.356 -0.214,-1.356 h -0.174 c -0.069,0 -0.097,0.031 -0.082,0.094 l 0.118,0.649 h -0.075 c -0.067,0 -0.1,0.032 -0.1,0.096 v 0.422 c 0,0.064 0.033,0.095 0.1,0.095 z"
       style="fill:#26367c icc-color(sRGB-IEC61966-2, 0.1, 0.14898682, 0.21199036, 0.48599243);fill-opacity:1;fill-rule:nonzero;stroke:none"
       transform="matrix(0.35277776,0,0,-0.35277776,96.101388,158.83219)"
       clip-path="url(#clipPath133)" />
    <path
       id="path134"
       d="M 0,0 C 0.067,0 0.1,-0.033 0.1,-0.096 V -0.51 C 0.1,-0.573 0.067,-0.605 0,-0.605 h -1.901 c -0.113,0 -0.207,-0.01 -0.281,-0.029 -0.074,-0.018 -0.134,-0.05 -0.179,-0.095 C -2.406,-0.775 -2.437,-0.835 -2.455,-0.912 -2.471,-0.989 -2.48,-1.083 -2.48,-1.197 V -1.24 h 2.458 c 0.064,0 0.095,-0.033 0.095,-0.096 V -1.68 c 0,-0.063 -0.031,-0.096 -0.095,-0.096 H -2.48 v -0.073 c 0,-0.114 0.009,-0.209 0.025,-0.287 0.018,-0.075 0.049,-0.137 0.094,-0.181 0.045,-0.046 0.105,-0.078 0.179,-0.096 0.074,-0.019 0.168,-0.029 0.281,-0.029 H 0 c 0.067,0 0.1,-0.032 0.1,-0.096 V -2.952 C 0.1,-3.015 0.067,-3.046 0,-3.046 h -1.914 c -0.221,0 -0.408,0.02 -0.562,0.061 -0.154,0.04 -0.279,0.106 -0.376,0.198 -0.098,0.091 -0.169,0.209 -0.214,0.356 -0.045,0.146 -0.067,0.324 -0.067,0.533 v 0.748 c 0,0.21 0.022,0.388 0.067,0.531 0.045,0.146 0.116,0.264 0.214,0.355 0.097,0.092 0.222,0.158 0.376,0.2 C -2.322,-0.021 -2.135,0 -1.914,0 Z m -0.805,0.94 c 0.032,0 0.055,-0.008 0.069,-0.022 0.015,-0.015 0.012,-0.035 -0.008,-0.061 L -1.188,0.217 C -1.205,0.188 -1.224,0.167 -1.242,0.154 -1.261,0.141 -1.287,0.135 -1.319,0.135 h -0.33 c -0.032,0 -0.056,0.007 -0.07,0.022 -0.014,0.014 -0.013,0.034 0.004,0.06 l 0.388,0.64 c 0.031,0.055 0.077,0.083 0.135,0.083 z"
       style="fill:#26367c icc-color(sRGB-IEC61966-2, 0.1, 0.14898682, 0.21199036, 0.48599243);fill-opacity:1;fill-rule:nonzero;stroke:none"
       transform="matrix(0.35277776,0,0,-0.35277776,97.387441,158.90864)"
       clip-path="url(#clipPath135)" />
    <path
       id="path136"
       d="m 0,0 c 0.066,0 0.1,-0.033 0.1,-0.096 v -0.427 c 0,-0.066 -0.034,-0.1 -0.1,-0.1 h -1.367 v -2.328 c 0,-0.064 -0.032,-0.096 -0.095,-0.096 h -0.475 c -0.063,0 -0.095,0.032 -0.095,0.096 v 2.328 h -1.367 c -0.067,0 -0.099,0.034 -0.099,0.1 v 0.427 c 0,0.063 0.032,0.096 0.099,0.096 z"
       style="fill:#26367c icc-color(sRGB-IEC61966-2, 0.1, 0.14898682, 0.21199036, 0.48599243);fill-opacity:1;fill-rule:nonzero;stroke:none"
       transform="matrix(0.35277776,0,0,-0.35277776,98.761509,158.90864)"
       clip-path="url(#clipPath137)" />
    <path
       id="path138"
       d="m 0,0 c 0.063,0 0.096,-0.033 0.096,-0.096 v -1.737 c 0,-0.116 0.009,-0.212 0.028,-0.289 C 0.143,-2.198 0.174,-2.26 0.217,-2.304 0.262,-2.35 0.319,-2.381 0.394,-2.4 0.468,-2.419 0.561,-2.428 0.674,-2.428 H 1.88 c 0.113,0 0.206,0.009 0.281,0.028 0.074,0.019 0.132,0.05 0.175,0.096 0.044,0.044 0.075,0.106 0.092,0.182 0.017,0.077 0.026,0.173 0.026,0.289 v 1.737 C 2.454,-0.033 2.486,0 2.55,0 H 3.025 C 3.088,0 3.12,-0.033 3.12,-0.096 V -1.898 C 3.12,-2.107 3.098,-2.285 3.055,-2.431 3.011,-2.578 2.941,-2.695 2.844,-2.788 2.746,-2.879 2.621,-2.946 2.466,-2.985 2.31,-3.026 2.122,-3.047 1.902,-3.047 H 0.648 c -0.22,0 -0.407,0.021 -0.56,0.062 -0.154,0.039 -0.28,0.106 -0.378,0.197 -0.096,0.093 -0.167,0.21 -0.213,0.357 -0.044,0.146 -0.067,0.324 -0.067,0.533 v 1.802 c 0,0.063 0.033,0.096 0.1,0.096 z"
       style="fill:#26367c icc-color(sRGB-IEC61966-2, 0.1, 0.14898682, 0.21199036, 0.48599243);fill-opacity:1;fill-rule:nonzero;stroke:none"
       transform="matrix(0.35277776,0,0,-0.35277776,99.14043,158.90864)"
       clip-path="url(#clipPath139)" />
    <path
       id="path140"
       d="m 0,0 c 0.235,0 0.437,-0.024 0.604,-0.073 0.169,-0.047 0.307,-0.121 0.414,-0.221 0.108,-0.1 0.186,-0.228 0.237,-0.383 0.051,-0.155 0.077,-0.339 0.077,-0.551 V -1.82 C 1.332,-2.031 1.306,-2.215 1.255,-2.369 1.204,-2.525 1.126,-2.652 1.018,-2.753 0.911,-2.853 0.773,-2.927 0.604,-2.974 0.437,-3.022 0.235,-3.047 0,-3.047 h -2.037 c -0.087,0 -0.13,0.044 -0.13,0.131 v 2.784 c 0,0.089 0.043,0.132 0.13,0.132 z m -1.501,-2.385 c 0,-0.037 0.018,-0.057 0.056,-0.057 h 1.427 c 0.128,0 0.235,0.013 0.323,0.036 0.086,0.022 0.157,0.059 0.211,0.112 0.054,0.052 0.092,0.122 0.115,0.209 0.023,0.087 0.035,0.194 0.035,0.322 v 0.479 c 0,0.127 -0.012,0.234 -0.035,0.322 -0.023,0.087 -0.061,0.157 -0.115,0.209 -0.054,0.052 -0.125,0.09 -0.211,0.113 -0.088,0.023 -0.195,0.034 -0.323,0.034 h -1.427 c -0.038,0 -0.056,-0.019 -0.056,-0.061 z"
       style="fill:#26367c icc-color(sRGB-IEC61966-2, 0.1, 0.14898682, 0.21199036, 0.48599243);fill-opacity:1;fill-rule:nonzero;stroke:none"
       transform="matrix(0.35277776,0,0,-0.35277776,101.20086,158.90864)"
       clip-path="url(#clipPath141)" />
    <path
       id="path142"
       d="M 0,0 C 0.066,0 0.1,-0.033 0.1,-0.096 V -0.51 C 0.1,-0.574 0.066,-0.605 0,-0.605 h -1.902 c -0.113,0 -0.206,-0.01 -0.281,-0.029 -0.074,-0.018 -0.133,-0.051 -0.178,-0.095 -0.045,-0.046 -0.077,-0.106 -0.094,-0.183 -0.017,-0.078 -0.026,-0.172 -0.026,-0.285 V -1.24 h 2.459 c 0.063,0 0.095,-0.032 0.095,-0.097 V -1.68 c 0,-0.064 -0.032,-0.097 -0.095,-0.097 H -2.481 V -1.85 c 0,-0.113 0.009,-0.208 0.026,-0.285 0.017,-0.076 0.049,-0.138 0.094,-0.182 0.045,-0.046 0.104,-0.077 0.178,-0.097 0.075,-0.018 0.168,-0.027 0.281,-0.027 H 0 c 0.066,0 0.1,-0.033 0.1,-0.097 V -2.951 C 0.1,-3.015 0.066,-3.047 0,-3.047 h -1.915 c -0.221,0 -0.407,0.021 -0.562,0.062 -0.153,0.039 -0.279,0.106 -0.376,0.197 -0.097,0.093 -0.168,0.21 -0.213,0.357 -0.045,0.146 -0.067,0.324 -0.067,0.533 v 0.748 c 0,0.21 0.022,0.387 0.067,0.532 0.045,0.144 0.116,0.263 0.213,0.354 0.097,0.091 0.223,0.158 0.376,0.2 C -2.322,-0.022 -2.136,0 -1.915,0 Z"
       style="fill:#26367c icc-color(sRGB-IEC61966-2, 0.1, 0.14898682, 0.21199036, 0.48599243);fill-opacity:1;fill-rule:nonzero;stroke:none"
       transform="matrix(0.35277776,0,0,-0.35277776,102.94933,158.90864)"
       clip-path="url(#clipPath143)" />
    <path
       id="path144"
       d="M 0,0 C 0.063,0 0.096,-0.033 0.096,-0.096 V -0.51 C 0.096,-0.574 0.063,-0.605 0,-0.605 h -2.18 c -0.084,0 -0.144,-0.022 -0.178,-0.065 -0.035,-0.045 -0.053,-0.103 -0.053,-0.179 v -0.148 c 0,-0.162 0.076,-0.243 0.226,-0.243 h 1.632 c 0.253,0 0.443,-0.065 0.57,-0.194 0.128,-0.128 0.192,-0.315 0.192,-0.555 v -0.348 c 0,-0.211 -0.063,-0.383 -0.188,-0.514 -0.124,-0.13 -0.319,-0.196 -0.583,-0.196 h -2.41 c -0.067,0 -0.1,0.032 -0.1,0.096 v 0.413 c 0,0.064 0.033,0.097 0.1,0.097 h 2.284 c 0.084,0 0.144,0.021 0.179,0.065 0.035,0.043 0.052,0.103 0.052,0.178 v 0.178 c 0,0.163 -0.076,0.243 -0.227,0.243 h -1.631 c -0.252,0 -0.442,0.066 -0.57,0.195 -0.128,0.129 -0.192,0.314 -0.192,0.554 v 0.318 c 0,0.212 0.063,0.383 0.188,0.513 C -2.765,-0.065 -2.57,0 -2.307,0 Z"
       style="fill:#26367c icc-color(sRGB-IEC61966-2, 0.1, 0.14898682, 0.21199036, 0.48599243);fill-opacity:1;fill-rule:nonzero;stroke:none"
       transform="matrix(0.35277776,0,0,-0.35277776,104.22184,158.90864)"
       clip-path="url(#clipPath145)" />
    <path
       id="path146"
       d="M 0,0 C 0.064,0 0.096,-0.033 0.096,-0.096 V -0.51 C 0.096,-0.574 0.064,-0.605 0,-0.605 h -2.18 c -0.084,0 -0.144,-0.022 -0.179,-0.065 -0.035,-0.045 -0.052,-0.103 -0.052,-0.179 v -0.148 c 0,-0.162 0.076,-0.243 0.226,-0.243 h 1.632 c 0.253,0 0.443,-0.065 0.57,-0.194 0.128,-0.128 0.192,-0.315 0.192,-0.555 v -0.348 c 0,-0.211 -0.063,-0.383 -0.188,-0.514 -0.124,-0.13 -0.319,-0.196 -0.582,-0.196 h -2.411 c -0.067,0 -0.1,0.032 -0.1,0.096 v 0.413 c 0,0.064 0.033,0.097 0.1,0.097 h 2.284 c 0.084,0 0.144,0.021 0.179,0.065 0.034,0.043 0.052,0.103 0.052,0.178 v 0.178 c 0,0.163 -0.076,0.243 -0.227,0.243 h -1.631 c -0.253,0 -0.442,0.066 -0.57,0.195 -0.128,0.129 -0.192,0.314 -0.192,0.554 v 0.318 c 0,0.212 0.063,0.383 0.188,0.513 C -2.765,-0.065 -2.571,0 -2.307,0 Z"
       style="fill:#26367c icc-color(sRGB-IEC61966-2, 0.1, 0.14898682, 0.21199036, 0.48599243);fill-opacity:1;fill-rule:nonzero;stroke:none"
       transform="matrix(0.35277776,0,0,-0.35277776,106.03924,158.90864)"
       clip-path="url(#clipPath147)" />
    <path
       id="path148"
       d="m 0,0 c 0.334,0 0.573,-0.076 0.718,-0.227 0.145,-0.151 0.218,-0.374 0.218,-0.67 v -0.321 c 0,-0.297 -0.073,-0.519 -0.218,-0.67 C 0.573,-2.04 0.334,-2.115 0,-2.115 h -1.801 v -0.837 c 0,-0.063 -0.032,-0.095 -0.095,-0.095 h -0.471 c -0.067,0 -0.1,0.032 -0.1,0.095 v 2.821 c 0,0.088 0.043,0.131 0.131,0.131 z m -1.801,-1.542 h 1.666 c 0.148,0 0.252,0.033 0.314,0.097 0.061,0.064 0.09,0.161 0.09,0.292 v 0.165 c 0,0.13 -0.029,0.228 -0.09,0.291 -0.062,0.064 -0.166,0.096 -0.314,0.096 h -1.61 c -0.037,0 -0.056,-0.017 -0.056,-0.052 z"
       style="fill:#26367c icc-color(sRGB-IEC61966-2, 0.1, 0.14898682, 0.21199036, 0.48599243);fill-opacity:1;fill-rule:nonzero;stroke:none"
       transform="matrix(0.35277776,0,0,-0.35277776,107.15187,158.90864)"
       clip-path="url(#clipPath149)" />
    <path
       id="path150"
       d="M 0,0 C 0.111,0 0.203,-0.023 0.279,-0.068 0.354,-0.114 0.428,-0.2 0.501,-0.331 l 1.44,-2.615 C 1.955,-2.975 1.959,-2.999 1.952,-3.019 1.945,-3.037 1.923,-3.046 1.889,-3.046 H 1.336 c -0.049,0 -0.083,0.019 -0.1,0.056 l -0.309,0.562 h -2.045 l -0.3,-0.562 c -0.021,-0.037 -0.054,-0.056 -0.1,-0.056 h -0.566 c -0.038,0 -0.06,0.009 -0.067,0.027 -0.007,0.02 -0.004,0.044 0.01,0.073 l 1.428,2.615 c 0.072,0.131 0.143,0.217 0.212,0.263 C -0.43,-0.023 -0.349,0 -0.257,0 Z m -0.844,-1.923 h 1.497 l -0.692,1.275 c -0.012,0.019 -0.028,0.029 -0.047,0.029 h -0.027 c -0.02,0 -0.036,-0.01 -0.048,-0.029 z"
       style="fill:#26367c icc-color(sRGB-IEC61966-2, 0.1, 0.14898682, 0.21199036, 0.48599243);fill-opacity:1;fill-rule:nonzero;stroke:none"
       transform="matrix(0.35277776,0,0,-0.35277776,108.1557,158.90864)"
       clip-path="url(#clipPath151)" />
    <path
       id="path152"
       d="m 0,0 c 0.066,0 0.1,-0.033 0.1,-0.096 v -0.427 c 0,-0.066 -0.034,-0.1 -0.1,-0.1 h -1.366 v -2.328 c 0,-0.064 -0.033,-0.096 -0.096,-0.096 h -0.474 c -0.065,0 -0.096,0.032 -0.096,0.096 v 2.328 h -1.367 c -0.066,0 -0.1,0.034 -0.1,0.1 v 0.427 c 0,0.063 0.034,0.096 0.1,0.096 z"
       style="fill:#26367c icc-color(sRGB-IEC61966-2, 0.1, 0.14898682, 0.21199036, 0.48599243);fill-opacity:1;fill-rule:nonzero;stroke:none"
       transform="matrix(0.35277776,0,0,-0.35277776,109.93359,158.90864)"
       clip-path="url(#clipPath153)" />
    <path
       id="path154"
       d="M 0,0 C 0.063,0 0.095,-0.033 0.095,-0.096 V -2.951 C 0.095,-3.015 0.063,-3.047 0,-3.047 h -0.47 c -0.067,0 -0.1,0.032 -0.1,0.096 v 2.855 c 0,0.063 0.033,0.096 0.1,0.096 z"
       style="fill:#26367c icc-color(sRGB-IEC61966-2, 0.1, 0.14898682, 0.21199036, 0.48599243);fill-opacity:1;fill-rule:nonzero;stroke:none"
       transform="matrix(0.35277776,0,0,-0.35277776,110.30055,158.90864)"
       clip-path="url(#clipPath155)" />
    <path
       id="path156"
       d="M 0,0 C 0.11,0 0.203,-0.023 0.278,-0.068 0.354,-0.114 0.427,-0.2 0.501,-0.331 L 1.94,-2.946 C 1.955,-2.975 1.959,-2.999 1.951,-3.019 1.944,-3.037 1.923,-3.046 1.889,-3.046 H 1.336 c -0.05,0 -0.083,0.019 -0.101,0.056 l -0.309,0.562 h -2.044 l -0.3,-0.562 c -0.021,-0.037 -0.054,-0.056 -0.1,-0.056 h -0.566 c -0.038,0 -0.061,0.009 -0.068,0.027 -0.007,0.02 -0.003,0.044 0.011,0.073 l 1.428,2.615 C -0.641,-0.2 -0.57,-0.114 -0.5,-0.068 -0.431,-0.023 -0.35,0 -0.257,0 Z m -0.844,-1.923 h 1.497 l -0.692,1.275 c -0.012,0.019 -0.028,0.029 -0.048,0.029 h -0.026 c -0.02,0 -0.036,-0.01 -0.048,-0.029 z"
       style="fill:#26367c icc-color(sRGB-IEC61966-2, 0.1, 0.14898682, 0.21199036, 0.48599243);fill-opacity:1;fill-rule:nonzero;stroke:none"
       transform="matrix(0.35277776,0,0,-0.35277776,111.21386,158.90864)"
       clip-path="url(#clipPath157)" />
    <path
       id="path158"
       d="m 0,0 c 0.064,0 0.096,-0.033 0.096,-0.096 v -1.737 c 0,-0.116 0.009,-0.212 0.028,-0.289 C 0.143,-2.198 0.174,-2.26 0.217,-2.304 0.261,-2.35 0.32,-2.381 0.394,-2.4 0.468,-2.419 0.561,-2.428 0.675,-2.428 h 1.762 c 0.063,0 0.095,-0.033 0.095,-0.097 V -2.951 C 2.532,-3.015 2.5,-3.047 2.437,-3.047 H 0.648 c -0.221,0 -0.406,0.021 -0.561,0.062 -0.154,0.039 -0.279,0.106 -0.376,0.197 -0.097,0.093 -0.168,0.21 -0.214,0.357 -0.045,0.146 -0.067,0.324 -0.067,0.533 v 1.802 c 0,0.063 0.033,0.096 0.1,0.096 z"
       style="fill:#26367c icc-color(sRGB-IEC61966-2, 0.1, 0.14898682, 0.21199036, 0.48599243);fill-opacity:1;fill-rule:nonzero;stroke:none"
       transform="matrix(0.35277776,0,0,-0.35277776,112.15934,158.90864)"
       clip-path="url(#clipPath159)" />
    <path
       id="path160"
       d="M 0,0 C 0.066,0 0.1,-0.033 0.1,-0.096 V -0.51 C 0.1,-0.574 0.066,-0.605 0,-0.605 h -1.902 c -0.113,0 -0.206,-0.01 -0.281,-0.029 -0.074,-0.018 -0.133,-0.051 -0.178,-0.095 -0.045,-0.046 -0.077,-0.106 -0.094,-0.183 -0.017,-0.078 -0.026,-0.172 -0.026,-0.285 V -1.24 h 2.459 c 0.063,0 0.095,-0.032 0.095,-0.097 V -1.68 c 0,-0.064 -0.032,-0.097 -0.095,-0.097 H -2.481 V -1.85 c 0,-0.113 0.009,-0.208 0.026,-0.285 0.017,-0.076 0.049,-0.138 0.094,-0.182 0.045,-0.046 0.104,-0.077 0.178,-0.097 0.075,-0.018 0.168,-0.027 0.281,-0.027 H 0 c 0.066,0 0.1,-0.033 0.1,-0.097 V -2.951 C 0.1,-3.015 0.066,-3.047 0,-3.047 h -1.915 c -0.221,0 -0.407,0.021 -0.561,0.062 -0.154,0.039 -0.28,0.106 -0.377,0.197 -0.097,0.093 -0.168,0.21 -0.213,0.357 -0.045,0.146 -0.067,0.324 -0.067,0.533 v 0.748 c 0,0.21 0.022,0.387 0.067,0.532 0.045,0.144 0.116,0.263 0.213,0.354 0.097,0.091 0.223,0.158 0.377,0.2 C -2.322,-0.022 -2.136,0 -1.915,0 Z"
       style="fill:#26367c icc-color(sRGB-IEC61966-2, 0.1, 0.14898682, 0.21199036, 0.48599243);fill-opacity:1;fill-rule:nonzero;stroke:none"
       transform="matrix(0.35277776,0,0,-0.35277776,114.27791,158.90864)"
       clip-path="url(#clipPath161)" />
    <path
       id="path162"
       d="M 0,0 C 0.063,0 0.096,-0.033 0.096,-0.096 V -0.51 C 0.096,-0.574 0.063,-0.605 0,-0.605 h -2.18 c -0.084,0 -0.144,-0.022 -0.178,-0.065 -0.035,-0.045 -0.053,-0.103 -0.053,-0.179 v -0.148 c 0,-0.162 0.076,-0.243 0.226,-0.243 h 1.632 c 0.253,0 0.443,-0.065 0.57,-0.194 0.128,-0.128 0.192,-0.315 0.192,-0.555 v -0.348 c 0,-0.211 -0.063,-0.383 -0.188,-0.514 -0.124,-0.13 -0.319,-0.196 -0.582,-0.196 h -2.411 c -0.067,0 -0.1,0.032 -0.1,0.096 v 0.413 c 0,0.064 0.033,0.097 0.1,0.097 h 2.284 c 0.084,0 0.144,0.021 0.179,0.065 0.035,0.043 0.052,0.103 0.052,0.178 v 0.178 c 0,0.163 -0.076,0.243 -0.227,0.243 h -1.631 c -0.252,0 -0.442,0.066 -0.57,0.195 -0.128,0.129 -0.192,0.314 -0.192,0.554 v 0.318 c 0,0.212 0.062,0.383 0.188,0.513 C -2.765,-0.065 -2.57,0 -2.307,0 Z"
       style="fill:#26367c icc-color(sRGB-IEC61966-2, 0.1, 0.14898682, 0.21199036, 0.48599243);fill-opacity:1;fill-rule:nonzero;stroke:none"
       transform="matrix(0.35277776,0,0,-0.35277776,115.55042,158.90864)"
       clip-path="url(#clipPath163)" />
  </g>
</svg>
