<?xml version="1.0" encoding="UTF-8" standalone="no"?>
<!-- Created with Inkscape (http://www.inkscape.org/) -->

<svg
   width="40mm"
   height="40mm"
   viewBox="0 0 40 40"
   version="1.1"
   id="svg12524"
   inkscape:version="1.1.1 (3bf5ae0d25, 2021-09-20)"
   sodipodi:docname="tgfr.svg"
   xmlns:inkscape="http://www.inkscape.org/namespaces/inkscape"
   xmlns:sodipodi="http://sodipodi.sourceforge.net/DTD/sodipodi-0.dtd"
   xmlns="http://www.w3.org/2000/svg"
   xmlns:svg="http://www.w3.org/2000/svg">
  <sodipodi:namedview
     id="namedview12526"
     pagecolor="#ffffff"
     bordercolor="#666666"
     borderopacity="1.0"
     inkscape:pageshadow="2"
     inkscape:pageopacity="0.0"
     inkscape:pagecheckerboard="0"
     inkscape:document-units="mm"
     showgrid="false"
     inkscape:zoom="1.9704153"
     inkscape:cx="77.902357"
     inkscape:cy="75.618575"
     inkscape:window-width="1920"
     inkscape:window-height="986"
     inkscape:window-x="-11"
     inkscape:window-y="-11"
     inkscape:window-maximized="1"
     inkscape:current-layer="layer1" />
  <defs
     id="defs12521">
    <clipPath
       clipPathUnits="userSpaceOnUse"
       id="clipPath891">
      <path
         d="M 0,500 H 500 V 0 H 0 Z"
         id="path889" />
    </clipPath>
  </defs>
  <g
     inkscape:label="Layer 1"
     inkscape:groupmode="layer"
     id="layer1"
     transform="translate(-82.924553,-110.64962)">
    <g
       id="g12499"
       transform="translate(103.13523,150.23902)">
      <g
         id="g887"
         clip-path="url(#clipPath891)"
         transform="matrix(0.07607232,0,0,-0.07607232,-19.229147,0.22346274)"
         style="fill:#3088ea;fill-opacity:1">
        <g
           id="g893"
           transform="translate(171.1035,234.5137)"
           style="fill:#3088ea;fill-opacity:1">
          <path
             id="path895"
             style="fill:#3088ea;fill-opacity:1;fill-rule:nonzero;stroke:none;stroke-width:1.33333"
             d="m 943.01172,-115.29492 c -0.848,2.98 -1.40711,6.03115 -2.14844,9.03515 -12.57067,54.81067 -25.27648,109.584115 -37.75781,164.412114 -11.952,53.194666 -23.90452,106.389936 -35.86719,159.585936 -19.59733,3.22133 -38.80045,8.64843 -57.42578,15.50977 -23.23067,8.652 -45.60303,19.90403 -65.70703,34.4707 -6.86133,4.77733 -12.67537,10.87894 -18.08203,17.21094 -8.688,10.33866 -15.85016,22.19328 -19.54883,35.25195 -2.96933,10.832 -3.52479,22.63264 -0.0781,33.41797 8.84667,24.72133 26.31204,46.1909 48.47071,60.24023 19.52666,12.04 40.68525,21.26354 62.41992,28.51954 36.29067,12.11733 74.40896,18.66621 112.6543,19.57421 -14.696,-4.972 -29.45176,-9.79028 -43.98243,-15.23828 -7.79333,-2.992 -15.71755,-5.82539 -22.96289,-10.02539 -16.39866,-7.91066 -32.34238,-16.94574 -46.87304,-27.95508 -7.876,-6.02133 -15.33444,-12.73518 -21.25977,-20.72851 -9.16533,-10.26667 -16.15779,-22.5945 -19.70312,-35.92383 -3.004,-11.304 -3.22182,-23.46865 0.24218,-34.69531 4.55867,-15.792 10.31252,-31.56027 19.86719,-45.07227 3.01067,-4.18133 6.6925,-7.80408 10.17383,-11.58008 16.46933,-17.11733 37.61483,-29.47017 60.29883,-36.32617 -14.048,62.62533 -28.17222,125.23324 -42.18555,187.86524 39.872,-39.32934 79.61859,-78.78884 119.41992,-118.1875 3.68,3.20933 6.89129,6.9145 10.50196,10.20117 14.60933,14.45466 29.32283,28.809 43.9375,43.26367 22.01065,21.53467 43.83975,43.25866 65.92375,64.72266 -14.4906,-62.708 -28.9755,-125.4201 -43.4355,-188.13477 22.8707,6.74933 44.3251,18.68296 61.5371,35.26563 5.0067,4.84133 9.9082,9.90055 13.6309,15.83789 6.2906,9.71866 10.8244,20.45509 14.5937,31.37109 2.4693,7.52267 5.1726,15.10408 5.586,23.08008 1.236,17.53466 -5.0717,34.87448 -14.961,49.14648 -2.628,3.96934 -5.9371,7.40662 -8.7305,11.25196 -6.9853,8.59466 -15.5762,15.72678 -24.5175,22.18945 -11.568,8.316 -23.9122,15.50824 -36.5762,22.01758 -4.784,2.22 -9.201,5.16618 -14.125,7.10351 -18.36131,7.776 -37.23459,14.27225 -56.11325,20.65625 2.24533,0.30667 4.50652,0.0546 6.75586,-0.0508 30.73599,-1.61467 61.27149,-6.92149 90.74219,-15.79883 24.18,-7.38 47.8646,-16.82932 69.666,-29.72265 23.1253,-12.87067 41.7249,-33.62624 52.0449,-57.99024 1.856,-4.54666 3.6939,-9.18289 4.2539,-14.10156 1.9493,-13.27067 -1.0669,-26.89427 -6.9629,-38.82227 -6.18,-12.55866 -15.0854,-23.64571 -25.3281,-33.12304 -4.2933,-4.07734 -9.2826,-7.28532 -14.1719,-10.58399 -16.0693,-10.59066 -33.4173,-19.16115 -51.3359,-26.14648 -21.788,-8.35333 -44.4014,-14.7617 -67.4961,-18.20703 -10.4747,-44.69067 -20.3216,-89.52268 -30.48827,-134.277346 -13.024,-57.725332 -26.04126,-115.44459 -39.05859,-173.169922 -1.99067,-8.434667 -3.66456,-16.951842 -5.83789,-25.339842 z"
             transform="matrix(0.75000002,0,0,-0.75000002,-628.41981,174.82085)" />
        </g>
        <g
           id="g901"
           transform="translate(257.082,122.9258)"
           style="fill:#3088ea;fill-opacity:1" />
        <g
           id="g905"
           transform="translate(194.0801,128.1299)"
           style="fill:#3088ea;fill-opacity:1" />
        <g
           id="g909"
           transform="translate(243.4839,128.9297)"
           style="fill:#3088ea;fill-opacity:1" />
        <g
           id="g913"
           transform="translate(299.7217,105.1836)"
           style="fill:#3088ea;fill-opacity:1" />
        <path
           id="path899-3"
           style="fill:#3088ea;fill-opacity:1;fill-rule:nonzero;stroke:none;stroke-width:0.999999"
           d="m 80.538542,275.05069 c -1.687004,-1.237 -3.457213,-2.36074 -5.278212,-3.38974 -2.433999,-1.353 -4.633448,-3.07239 -7.010445,-4.51739 -4.219006,-2.606 -7.584639,-6.92321 -8.185646,-11.94221 -0.384996,-5.65399 -1.383666,-11.54773 -4.639664,-16.32373 -1.396005,-2.57001 -2.506628,-5.3341 -4.47663,-7.5471 -0.097,2.867 1.172125,5.49754 2.228125,8.09054 1.272,3.044 1.523614,6.38156 1.752611,9.63257 0.309999,4.435 0.036,8.8862 0,13.3212 -0.01703,1.68799 -0.586857,3.30021 -1.514853,4.68721 -0.04402,-3.335 -2.971736,-5.32305 -4.177736,-8.17205 -1.533998,-3.287 -3.372394,-6.54177 -3.729394,-10.21677 -0.552997,-4.98801 -0.671726,-10.19269 0.910271,-15.01268 0.530003,-2.195 0.785893,-4.44159 1.086891,-6.67758 0.437002,-2.74701 -0.417715,-5.47838 -1.256717,-8.06337 -1.047998,-2.849 -1.969054,-5.73899 -2.887053,-8.63399 -0.614003,-1.943 -1.003747,-3.9829 -2.010748,-5.7809 0.11,3.781 1.787194,7.25521 2.357194,10.95722 0.663,3.968 0.914573,7.99413 0.998581,12.01014 0.09299,2.59699 -0.734201,5.10073 -1.569199,7.52671 -0.353002,1.10901 -1.071335,2.03864 -1.827335,2.90064 -0.786,-6.613 -5.552723,-12.11717 -5.950726,-18.83717 -0.287002,-4.117 -0.272933,-8.27077 0.129067,-12.38376 0.807997,-3.24701 3.712847,-5.77632 3.681842,-9.27933 0.243001,-3.88699 -0.824168,-7.67703 -1.209166,-11.52104 -0.278004,-2.505 -0.546614,-5.00592 -0.767616,-7.51992 -0.211995,-2.2 -0.005,-4.42945 -0.393998,-6.61645 -1.819994,4.205 -0.601482,8.88131 0.04755,13.21931 0.592995,4.139 0.357136,8.38148 -0.529859,12.45848 -0.39,1.953 -1.325923,3.75376 -1.643922,5.71976 -0.472995,2.774 -0.456658,5.59344 -0.536653,8.38944 -2.204002,-3.37 -3.920042,-7.04802 -5.448039,-10.76701 -2.285003,-7.78 -2.468486,-16.4239 0.672513,-23.9999 1.484003,-3.597 2.735491,-7.36522 5.00649,-10.56322 1.321006,-2.337 1.6953,-5.05896 2.0583,-7.68296 0.525,-5.655 1.338852,-11.28097 2.302849,-16.87398 -1.669995,3.17701 -1.894577,6.84788 -2.574572,10.31188 -0.557002,4.82801 -2.241662,9.42462 -4.048668,13.89861 -1.063995,2.589 -2.217734,5.18906 -3.980737,7.38407 -0.423,0.614 -1.171537,0.8093 -1.820541,1.0733 -0.06203,-2.169 0.004,-4.42262 -0.910271,-6.44662 -1.122,-2.434 -1.571158,-5.10568 -1.800163,-7.75768 v -2.79874 c 0.384,-6.21601 3.037024,-12.48088 8.206024,-16.18788 2.090003,-1.891 5.234542,-2.27446 6.908549,-4.64646 1.873995,-2.399 3.189778,-5.18917 4.143771,-8.07016 1.378012,-4.497 3.714832,-8.62156 5.454832,-12.98155 -3.105998,2.063 -4.312586,5.79543 -5.889589,8.98043 -1.709002,3.358 -3.553521,6.65636 -5.563521,9.83636 -2.642003,3.212 -6.000258,6.10974 -10.135255,7.09876 1.351994,-4.83801 0.728366,-10.01072 2.384366,-14.78172 1.056,-3.44199 3.297211,-6.3153 5.475212,-9.11629 2.43,-3.168 6.242876,-4.81442 9.917876,-6.05942 2.292998,-0.818 4.845138,-0.95922 6.922135,-2.32323 1.418002,-0.89299 2.579604,-2.1476 3.525602,-3.5256 1.302997,-1.931 2.824458,-3.72545 3.858462,-5.828449 -2.453004,1.443999 -4.009828,3.970249 -6.439828,5.441249 -3.411,2.156 -7.217633,3.67811 -11.140628,4.59211 -3.070006,0.65 -6.019029,1.75953 -8.797021,3.19953 1.956997,-8.77399 8.517118,-16.247231 16.738115,-19.754233 3.027,-1.259002 6.450122,-1.959272 9.680121,-1.107272 3.56,1.130996 7.667118,-0.296051 10.074116,-3.084049 2.381004,-2.521997 5.014993,-4.816376 7.254997,-7.472375 -1.724004,0.918998 -2.949112,2.489811 -4.592115,3.518809 -2.614996,1.679001 -5.595741,2.801083 -8.674747,3.247087 -5.110991,0.768997 -10.279437,1.090163 -15.447432,1.209165 -2.121,-0.02191 -4.056104,1.043648 -6.168104,1.12765 1.74,-2.253001 4.062489,-3.96824 5.794486,-6.229243 3.039,-3.865996 7.018381,-7.180156 11.772384,-8.661159 5.946001,-1.968997 12.668126,-2.119423 18.477141,0.407582 1.576993,0.684999 3.357038,0.976616 5.054041,0.57062 2.049998,-0.390001 3.64724,-1.825747 5.441246,-2.798745 3.206992,-1.789005 6.291824,-3.808869 9.591808,-5.420868 0.765007,-0.375995 1.430884,-0.903504 2.071888,-1.460506 -1.741007,0.279009 -3.401042,0.883887 -5.054041,1.480887 -7.284,2.694 -15.578259,2.931861 -22.872255,0.135853 -3.720008,-1.222994 -7.721636,-0.933446 -11.53463,-0.346449 4.789001,-5.642002 11.647555,-9.28567 18.857556,-10.712661 7.474994,-1.68801 16.157876,-1.64495 22.457875,3.281046 2.527,1.842998 5.98627,1.73307 8.75627,0.523067 4.60799,-2.053997 9.20409,-4.138473 13.81709,-6.188483 1.987,-0.89699 4.09693,-1.54781 5.94394,-2.73081 -2.019,-0.005 -3.88042,0.84068 -5.66542,1.68468 -3.13701,1.515 -6.51943,2.50795 -9.96543,2.98895 -5.712,0.79 -11.54609,-1.10929 -16.181087,-4.42229 -1.209996,-0.823 -2.17905,-1.97288 -3.47805,-2.66288 -1.696005,-0.689 -3.572931,-0.49959 -5.352934,-0.40759 1.931003,-1.029 3.891587,-1.98605 5.889587,-2.88705 2.336001,-1.03001 4.487133,-2.47364 6.922134,-3.29464 7.236,-2.563 15.17267,-2.74709 22.66167,-1.27709 3.255,0.742 6.72032,1.86593 8.88533,4.56494 0.663,0.78699 1.36175,1.64843 2.40475,1.92244 2.40199,0.72899 4.91561,0.0429 7.23461,-0.68611 9.605,-2.59799 19.26067,-4.96713 28.93167,-7.31613 1.824,-0.438 3.73156,-0.50389 5.52955,-1.08689 -2.79599,-1.189 -5.87371,-0.10083 -8.70871,0.42117 -5.019,1.669 -10.22957,2.82633 -15.50857,3.20633 -7.78,0.145 -15.65578,-2.13513 -21.96877,-6.72513 -1.258,-0.901 -2.69238,-1.51548 -4.12339,-2.08548 4.77101,-1.599 9.20003,-4.01762 13.68803,-6.24962 4.45699,-2.43 9.63864,-3.12167 14.65264,-3.06367 4.921,0.11498 9.98361,0.64656 14.48961,2.77157 3.949,1.789 7.76263,4.14213 10.54963,7.51313 0.535,0.653 1.1753,1.29599 2.0583,1.379 3.51701,0.55299 7.04088,-0.32176 10.50887,-0.82876 6.37501,-0.924 12.78145,-1.60581 19.15645,-2.53381 6.287,-0.67501 12.60969,-0.9624 18.91869,-1.36541 -2.68961,-2.30076 -5.37587,-4.60526 -8.06337,-6.90855 h 10.67191 c 2.03188,1.69191 4.07077,3.37538 6.07979,5.0948 3.25638,-0.55308 6.59667,-0.91956 9.92467,-0.98499 3.328,0.0654 6.66829,0.43191 9.92467,0.98499 2.00902,-1.71942 4.04793,-3.40289 6.0798,-5.0948 h 10.6719 c -2.6875,2.30329 -5.37375,4.60779 -8.06336,6.90855 6.30899,0.40301 12.6317,0.6904 18.91869,1.36541 6.37499,0.928 12.78144,1.60981 19.15644,2.53381 3.468,0.507 6.99188,1.38174 10.50888,0.82876 0.883,-0.083 1.5233,-0.726 2.0583,-1.379 2.787,-3.371 6.60064,-5.72413 10.54963,-7.51313 4.506,-2.12501 9.56861,-2.65659 14.48961,-2.77157 5.014,-0.058 10.19564,0.63367 14.65264,3.06367 4.48801,2.232 8.91702,4.65062 13.68802,6.24962 -1.43099,0.57 -2.86538,1.18448 -4.12338,2.08548 -6.31299,4.59 -14.18878,6.87013 -21.96878,6.72513 -5.279,-0.38 -10.48957,-1.53733 -15.50857,-3.20633 -2.835,-0.52199 -5.91271,-1.61017 -8.70871,-0.42117 1.79799,0.583 3.70556,0.64889 5.52956,1.08689 9.671,2.349 19.32667,4.71815 28.93167,7.31613 2.319,0.72901 4.83261,1.4151 7.23461,0.68611 1.043,-0.27401 1.74176,-1.13544 2.40475,-1.92244 2.16501,-2.69901 5.63032,-3.82294 8.88532,-4.56494 7.48901,-1.47 15.42567,-1.28591 22.66169,1.27709 2.43498,0.821 4.58612,2.26464 6.92211,3.29464 1.99801,0.901 3.95862,1.85805 5.8896,2.88705 -1.78,-0.092 -3.65693,-0.2814 -5.35293,0.40759 -1.29902,0.69 -2.26804,1.83988 -3.47805,2.66288 -4.63499,3.313 -10.46907,5.21229 -16.18107,4.42229 -3.44602,-0.481 -6.82846,-1.47396 -9.96545,-2.98895 -1.78501,-0.844 -3.64642,-1.68968 -5.66541,-1.68468 1.847,1.183 3.95692,1.83382 5.94393,2.73081 4.61301,2.05001 9.20911,4.134486 13.81711,6.188483 2.76999,1.210003 6.22926,1.319931 8.75624,-0.523067 6.3,-4.925996 14.98288,-4.969056 22.4579,-3.281046 7.21,1.426991 14.06854,5.070659 18.85754,10.712661 -3.81299,-0.586997 -7.81462,-0.876548 -11.53464,0.346449 -7.29399,2.796008 -15.58824,2.55814 -22.87225,-0.135853 -1.65298,-0.597 -3.31302,-1.201878 -5.05402,-1.480887 0.641,0.556999 1.30687,1.084511 2.07187,1.460506 3.29997,1.611999 6.38483,3.631863 9.5918,5.420868 1.79401,0.972998 3.39124,2.408744 5.44127,2.798745 1.69698,0.405996 3.47704,0.114393 5.05403,-0.57062 5.80904,-2.527005 12.53113,-2.376579 18.47714,-0.407582 4.754,1.481003 8.73338,4.795163 11.7724,8.661159 1.73196,2.261003 4.05446,3.976242 5.79446,6.229243 -2.11197,-0.084 -4.04709,-1.149562 -6.16811,-1.12765 -5.168,-0.119019 -10.33642,-0.440168 -15.44741,-1.209165 -3.07902,-0.446004 -6.05974,-1.568086 -8.67475,-3.247087 -1.64299,-1.028998 -2.8681,-2.599811 -4.59213,-3.518809 2.24003,2.655999 4.874,4.950378 7.255,7.472375 2.40702,2.787998 6.51411,4.215049 10.07414,3.084049 3.22999,-0.852004 6.65309,-0.151712 9.6801,1.107272 8.221,3.507002 14.78113,10.980243 16.73812,19.754233 -2.77799,-1.44 -5.72703,-2.54953 -8.79703,-3.19953 -3.92296,-0.91401 -7.72962,-2.43611 -11.14061,-4.59211 -2.43001,-1.471 -3.98682,-3.99725 -6.43982,-5.441249 1.03399,2.102999 2.55546,3.897449 3.85844,5.828449 0.946,1.378 2.1076,2.63261 3.5256,3.5256 2.07702,1.36401 4.62914,1.50523 6.92215,2.32323 3.67498,1.245 7.48786,2.89142 9.91787,6.05942 2.17799,2.80099 4.41921,5.6743 5.47522,9.11629 1.656,4.771 1.03235,9.94371 2.38437,14.78172 -4.13502,-0.98902 -7.49325,-3.88675 -10.13528,-7.09876 -2.01,-3.18 -3.85451,-6.47836 -5.56352,-9.83636 -1.57698,-3.185 -2.78359,-6.91743 -5.88959,-8.98043 1.74,4.35999 4.07683,8.48455 5.45483,12.98155 0.954,2.88099 2.26978,5.67115 4.14379,8.07016 1.67398,2.372 4.81852,2.75546 6.90855,4.64646 5.16897,3.707 7.82203,9.97187 8.20601,16.18788 v 2.79874 c -0.22886,2.652 -0.67815,5.32368 -1.80017,7.75768 -0.91424,2.024 -0.84826,4.27762 -0.91024,6.44662 -0.64904,-0.26398 -1.39755,-0.4593 -1.82055,-1.0733 -1.76303,-2.19501 -2.91676,-4.79507 -3.98073,-7.38407 -1.80703,-4.47399 -3.49169,-9.0706 -4.0487,-13.89861 -0.67996,-3.464 -0.90457,-7.13487 -2.57456,-10.31188 0.96402,5.59301 1.77784,11.21898 2.30286,16.87398 0.363,2.624 0.73727,5.34596 2.05831,7.68296 2.27099,3.198 3.52246,6.96622 5.00648,10.56322 3.14099,7.576 2.95752,16.2199 0.67251,23.9999 -1.52801,3.71899 -3.24405,7.39701 -5.44805,10.76701 -0.08,-2.796 -0.0636,-5.61544 -0.53663,-8.38944 -0.31789,-1.966 -1.25394,-3.76676 -1.64393,-5.71976 -0.88701,-4.077 -1.12286,-8.31948 -0.52985,-12.45848 0.64907,-4.338 1.86754,-9.01431 0.0477,-13.21931 -0.38902,2.187 -0.1819,4.41645 -0.39399,6.61645 -0.22121,2.514 -0.48964,5.01492 -0.76765,7.51992 -0.38498,3.84401 -1.45215,7.63405 -1.20914,11.52104 -0.0313,3.50301 2.87384,6.03232 3.68183,9.27933 0.40199,4.113 0.41608,8.26676 0.12904,12.38376 -0.398,6.72 -5.16474,12.22417 -5.95074,18.83717 -0.75599,-0.86201 -1.47431,-1.79164 -1.82733,-2.90064 -0.83501,-2.42599 -1.6622,-4.92971 -1.56919,-7.52671 0.0842,-4.016 0.33563,-8.04214 0.99858,-12.01014 0.56998,-3.70201 2.2472,-7.17622 2.35718,-10.95722 -1.007,1.798 -1.39675,3.8379 -2.01073,5.7809 -0.918,2.895 -1.83906,5.78499 -2.88706,8.63399 -0.83901,2.58499 -1.69374,5.31637 -1.25673,8.06337 0.30086,2.236 0.55691,4.48257 1.08689,6.67758 1.582,4.81999 1.46329,10.02468 0.91028,15.01268 -0.35699,3.675 -2.19538,6.92977 -3.72937,10.21677 -1.20602,2.849 -4.13377,4.83705 -4.17777,8.17205 -0.92798,-1.387 -1.49786,-2.99922 -1.51483,-4.68721 -0.0362,-4.43501 -0.30989,-8.88621 0,-13.3212 0.22886,-3.25101 0.4806,-6.58858 1.75259,-9.63257 1.05601,-2.59301 2.32515,-5.22354 2.22814,-8.09054 -1.97,2.213 -3.08061,4.9771 -4.47663,7.5471 -3.25601,4.776 -4.25466,10.66974 -4.63968,16.32373 -0.60101,5.019 -3.96661,9.33621 -8.18563,11.94221 -2.377,1.445 -4.57645,3.16439 -7.01046,4.51739 -1.821,1.029 -3.59119,2.15274 -5.27818,3.38974 0.54299,-4.02 1.09899,-8.18997 3.118,-11.78597 5.43,-7.83199 10.35666,-16.17539 17.37665,-22.73639 1.595,-1.197 2.29989,-3.11512 3.25389,-4.78911 1.62999,-3.154 3.39492,-6.29008 4.40192,-9.71409 0.16799,-0.74199 0.55976,-2.47346 -0.74726,-2.08547 -1.17999,1.72301 -1.21286,3.93477 -2.26887,5.71976 -2.54002,4.462 -6.14269,8.54913 -10.90967,10.66512 -3.03,1.32001 -6.03573,2.72409 -8.87174,4.42908 1.79798,-2.871 3.78388,-5.70406 4.82987,-8.96006 0.79998,-2.47 2.24626,-4.66145 3.66826,-6.81344 3.097,-4.64701 7.78802,-8.70536 13.49101,-9.44236 2.046,-0.424 3.61359,-2.20922 4.34756,-4.09622 1.36503,-3.627 3.03954,-7.15939 3.79056,-10.98439 0.73699,-2.49199 1.84385,-4.94044 1.71182,-7.60144 -1.28096,3.071 -2.31127,6.2434 -3.83128,9.21139 -1.31199,2.78001 -3.6314,4.88793 -5.86239,6.92893 -3.13602,2.898 -7.61714,3.24576 -11.22217,5.32577 1.39101,-1.93401 2.83906,-3.96211 3.28105,-6.36511 0.34015,-1.693 0.9276,-3.32318 1.58957,-4.91818 1.68801,-3.914 3.5065,-8.00011 6.77949,-10.86211 2.562,-2.041 5.092,-4.17125 8.04299,-5.63825 1.74901,-0.86099 2.8617,-2.66611 3.02973,-4.59211 0.69397,-5.412 2.37415,-10.8797 1.40614,-16.3577 -0.65798,2.165 -0.30746,4.4594 -0.80159,6.65041 -0.46898,2.598 -1.29442,5.12637 -2.51341,7.47237 -1.67002,3.799 -4.66803,6.77161 -7.61502,9.5986 -1.85501,1.87301 -4.51468,2.49988 -6.60968,4.04188 0.725,-1.984 1.49385,-3.96882 1.90886,-6.04583 0.90199,-4.75699 2.02659,-9.48303 3.55957,-14.08203 0.93601,-2.924 2.56652,-5.55881 4.38154,-8.01581 1.591,-2.103 3.49816,-4.15836 6.10016,-4.94535 1.57698,-0.32701 2.1046,-2.07244 1.94962,-3.49844 -0.26086,-3.09299 -0.26642,-6.2037 -0.4823,-9.2997 -0.17704,-2.165 -0.26364,-4.39128 -1.19558,-6.39228 -0.535,3.366 -0.18052,6.82463 -0.97142,10.15564 -0.62299,2.85499 -1.49783,5.75175 -3.32182,8.08374 -1.02898,1.467 -2.60506,2.4053 -3.67505,3.8313 -1.67798,2.201 -3.18561,4.54347 -4.51058,6.97647 -0.33111,-5.796 -0.80572,-11.75221 0.71325,-17.42421 1.37,-4.343 2.81722,-8.69518 4.88422,-12.76417 0.64501,-1.347 1.79899,-2.32609 2.75799,-3.44409 1.37801,-1.607 1.89672,-3.91193 1.25673,-5.94393 -1.127,-3.918 -2.41349,-7.78708 -3.6275,-11.68408 -0.442,-1.45299 -1.08575,-2.87777 -2.20777,-3.94677 -0.13181,1.852 0.0605,3.7088 0.57743,5.4888 0.98001,3.49 1.70108,7.09025 1.6711,10.72625 -0.0104,3.47201 -1.71385,6.59822 -2.89384,9.77523 -1.61201,3.167 -2.99885,6.46777 -3.48487,10.01977 -0.52999,-0.579 -1.13941,-1.14144 -1.36538,-1.92244 -0.92801,-2.841 -2.21173,-5.59185 -2.63573,-8.57285 -0.82601,-5.23601 -0.89574,-10.72426 0.74725,-15.81426 0.64998,-2.151 1.2512,-4.32307 2.12624,-6.39907 0.60497,-1.493 1.67433,-2.77853 2.02433,-4.38153 0.39698,-1.696 0.25633,-3.62821 -0.7948,-5.08121 -2.461,-3.354 -4.74709,-6.83063 -6.9561,-10.35263 -0.402,-0.62699 -0.93511,-1.14452 -1.47411,-1.65751 0.08,2.929 2.47373,4.96845 3.42373,7.60144 2.49598,5.049 1.83425,10.9365 0.31928,16.1675 -1.03399,3.406 -2.0285,6.86653 -2.05149,10.45453 -2.35002,-2.38601 -2.77656,-5.80909 -4.15057,-8.72909 -1.81999,-3.803 -3.00413,-7.88797 -3.96713,-11.98297 -0.68399,-3.662 -0.67725,-7.45662 -0.15616,-11.14063 0.15999,-1.706 1.41939,-3.02604 1.7594,-4.660043 0.10608,-2.637997 -1.76243,-4.776507 -3.49843,-6.548518 -2.691,-2.605995 -5.18741,-5.458159 -8.22639,-7.676164 0.75098,1.896 2.24147,3.307212 3.46445,4.884215 2.49703,3.798998 3.69004,8.349278 3.87205,12.85928 0.556,5.009 0.3702,10.09963 -0.59778,15.04664 -3.759,-3.37001 -6.62078,-7.60104 -8.83779,-12.11204 -3.85698,-6.352 -4.91772,-14.21191 -3.38974,-21.438918 0.24798,-1.258995 -0.0536,-2.856224 -1.29067,-3.505221 -3.428,-1.940004 -6.56294,-4.349548 -9.84994,-6.514551 -2.24801,-1.405 -4.12782,-3.406733 -6.63682,-4.374737 1.52801,2.01 3.65578,3.411394 5.48878,5.108386 3.61801,3.260004 7.02893,7.063565 8.50491,11.799556 1.41299,4.781004 0.71074,9.845473 -0.31928,14.625475 -1.49703,-2.589001 -3.74739,-4.636411 -6.09341,-6.453414 -1.37397,-1.073002 -3.04399,-1.63716 -4.49698,-2.588159 -4.95803,-3.454007 -8.40133,-9.148844 -8.68834,-15.236847 -0.11512,-2.941995 0.22677,-6.078849 -1.23634,-8.769851 -1.047,-2.340992 -3.61839,-3.2297 -5.69938,-4.408699 -5.59302,-2.800996 -11.30624,-5.595237 -17.42422,-7.017237 0.848,0.808 1.7885,1.53171 2.8395,2.04471 6.15901,2.999004 12.21182,6.740524 16.45282,12.227523 2.82299,4.267995 4.23459,9.525266 3.72259,14.632264 -3.39301,-2.147003 -6.81065,-4.42625 -10.74662,-5.441245 -5.74303,-1.826004 -11.34518,-5.280115 -14.34018,-10.665114 -1.767,-3.566003 -2.49998,-7.553281 -2.95498,-11.480288 -0.358,-1.72699 -1.0883,-3.74861 -2.84629,-4.47663 -11.20801,-2.95199 -22.42358,-5.90577 -33.53058,-9.23177 1.065,2.465 3.73189,3.43521 6.1749,3.89922 3.804,0.614 7.6958,1.23095 11.1678,2.98895 5.337,2.93299 10.38355,6.65532 13.96654,11.643311 2.47001,3.380004 3.7768,7.442283 4.7008,11.480282 -3.137,-1.886999 -6.66059,-2.960871 -10.18959,-3.844873 -4.051,-1.069003 -8.35197,-0.61013 -12.37697,-1.834129 -6.604,-2.076998 -12.56867,-6.675755 -15.60368,-12.974761 -1.24098,-3.71499 -2.05228,-7.75152 -4.61928,-10.84853 -1.03,-1.25899 -2.67753,-1.70443 -4.18453,-2.11943 -3.944,-0.998 -7.98394,-1.52137 -12.01693,-1.99037 -12.01602,-1.413 -24.13705,-1.25019 -36.20705,-1.7662 -1.05099,-0.058 -2.12902,-10e-4 -3.11802,0.4008 -3.42901,1.24999 -7.22714,2.01592 -10.82814,1.05292 -1.14398,-0.29115 -2.06779,-1.03916 -3.07726,-1.61675 -1.00947,0.57759 -1.93328,1.3256 -3.07726,1.61675 -3.601,0.963 -7.39915,0.19707 -10.82815,-1.05292 -0.989,-0.40201 -2.06702,-0.4588 -3.11802,-0.4008 -12.07017,0.516 -24.19121,0.3532 -36.20721,1.7662 -4.033,0.469 -8.07294,0.99237 -12.01694,1.99037 -1.507,0.41499 -3.15452,0.86045 -4.18453,2.11943 -2.56699,3.09701 -3.37828,7.13354 -4.61928,10.84853 -3.03501,6.299006 -8.99968,10.897763 -15.60368,12.974761 -4.02499,1.223999 -8.32597,0.765129 -12.37696,1.834129 -3.529,0.884002 -7.0526,1.957874 -10.1896,3.844873 0.924,-4.037999 2.2308,-8.100278 4.7008,-11.480282 3.583,-4.987991 8.62954,-8.710311 13.96654,-11.643311 3.472,-1.758 7.3638,-2.37495 11.1678,-2.98895 2.44301,-0.46401 5.1099,-1.43422 6.1749,-3.89922 -11.107,3.326 -22.32258,6.27978 -33.53057,9.23177 -1.758,0.728 -2.4883,2.74964 -2.8463,4.47663 -0.45499,3.927004 -1.18798,7.914285 -2.95498,11.480288 -2.995,5.384999 -8.59716,8.83911 -14.34016,10.665114 -3.936,1.014995 -7.35363,3.294242 -10.74663,5.441245 -0.512,-5.106998 0.89959,-10.364269 3.7226,-14.632264 4.24099,-5.486999 10.2938,-9.228519 16.45281,-12.227523 1.051,-0.513 1.99149,-1.23671 2.8395,-2.04471 -6.118,1.422 -11.83121,4.216241 -17.42422,7.017237 -2.08099,1.178999 -4.65238,2.067704 -5.69938,4.408699 -1.46299,2.691002 -1.12134,5.827856 -1.23634,8.769851 -0.28701,6.088003 -3.73033,11.78284 -8.688333,15.236847 -1.452997,0.950999 -3.123011,1.515157 -4.497011,2.588159 -2.346,1.817003 -4.596379,3.864413 -6.09338,6.453414 -1.030004,-4.779999 -1.732274,-9.844471 -0.319285,-14.625475 1.476001,-4.735994 4.886921,-8.539552 8.504921,-11.799556 1.832998,-1.696992 3.960798,-3.098386 5.488798,-5.108386 -2.509007,0.968004 -4.38883,2.969737 -6.636829,4.374737 -3.286994,2.165003 -6.421941,4.574547 -9.849946,6.514551 -1.236996,0.648997 -1.538686,2.246226 -1.29068,3.505221 1.527988,7.227008 0.467262,15.086921 -3.389742,21.438918 -2.217,4.511 -5.078777,8.74204 -8.837781,12.11204 -0.967986,-4.947 -1.153784,-10.03764 -0.597786,-15.04664 0.182006,-4.510002 1.37504,-9.060282 3.872047,-12.85928 1.222993,-1.577003 2.713474,-2.988215 3.464461,-4.884215 -3.038991,2.218005 -5.5354,5.070169 -8.226402,7.676164 -1.735996,1.772011 -3.604425,3.910521 -3.498428,6.548518 0.340014,1.634003 1.599399,2.954043 1.759403,4.660043 0.520994,3.68401 0.527759,7.47863 -0.156234,11.14063 -0.962999,4.095 -2.147146,8.17997 -3.967151,11.98297 -1.374,2.92 -1.800559,6.34308 -4.150562,8.72909 -0.02295,-3.588 -1.017511,-7.04853 -2.051507,-10.45453 -1.514999,-5.231 -2.176725,-11.1185 0.319285,-16.1675 0.949995,-2.63299 3.34371,-4.67244 3.423705,-7.60144 -0.539,0.51299 -1.072102,1.03052 -1.474102,1.65751 -2.208996,3.522 -4.495102,6.99863 -6.9561,10.35263 -1.051005,1.453 -1.191786,3.38522 -0.794789,5.08121 0.350003,1.603 1.419331,2.88853 2.024334,4.38153 0.875003,2.076 1.476235,4.24807 2.12623,6.39907 1.643001,5.09 1.573241,10.57825 0.747237,15.81426 -0.423997,2.981 -1.707712,5.73185 -2.63571,8.57285 -0.226003,0.781 -0.835412,1.34344 -1.365406,1.92244 -0.486,-3.552 -1.872838,-6.85277 -3.484843,-10.01977 -1.179997,-3.177 -2.883849,-6.30322 -2.893846,-9.77523 -0.03002,-3.636 0.691092,-7.23625 1.671094,-10.72625 0.516998,-1.78 0.70941,-3.6368 0.577411,-5.4888 -1.122,1.069 -1.765749,2.49378 -2.207747,3.94677 -1.214002,3.897 -2.500495,7.76608 -3.627497,11.68408 -0.639998,2.032 -0.12128,4.33693 1.256717,5.94393 0.959003,1.118 2.112986,2.09709 2.757985,3.44409 2.067,4.06899 3.514212,8.42117 4.884215,12.76417 1.518947,5.672 1.044227,11.62821 0.713221,17.42421 -1.324994,-2.433 -2.832598,-4.77547 -4.510596,-6.97647 -1.070001,-1.426 -2.646048,-2.3643 -3.675048,-3.8313 -1.824,-2.33199 -2.698807,-5.22875 -3.32181,-8.08374 -0.791002,-3.33101 -0.436411,-6.78964 -0.971408,-10.15564 -0.932003,2.001 -1.01858,4.22727 -1.19558,6.39228 -0.216001,3.096 -0.221308,6.20671 -0.482307,9.2997 -0.155003,1.426 0.372614,3.17144 1.949609,3.49844 2.602005,0.78699 4.509169,2.84235 6.100174,4.94535 1.815,2.457 3.44552,5.09181 4.381528,8.01581 1.532992,4.599 2.657571,9.32504 3.559566,14.08203 0.415006,2.07701 1.18385,4.06183 1.908852,6.04583 -2.095005,-1.542 -4.754648,-2.16887 -6.609653,-4.04188 -2.946998,-2.82699 -5.945033,-5.7996 -7.615028,-9.5986 -1.219005,-2.346 -2.044429,-4.87437 -2.513434,-7.47237 -0.493996,-2.19101 -0.143577,-4.48541 -0.801582,-6.65041 -0.967995,5.478 0.71216,10.9457 1.406164,16.3577 0.168001,1.926 1.280708,3.73112 3.029708,4.59211 2.951003,1.467 5.480991,3.59725 8.042991,5.63825 3.273,2.862 5.091476,6.94811 6.779481,10.86211 0.662001,1.595 1.24958,3.22519 1.589576,4.91818 0.442005,2.403 1.890049,4.4311 3.28105,6.36511 -3.605002,-2.08001 -8.086147,-2.42777 -11.222144,-5.32577 -2.231002,-2.041 -4.550411,-4.14892 -5.862416,-6.92893 -1.519995,-2.96799 -2.55029,-6.14039 -3.83129,-9.21139 -0.132,2.661 0.97485,5.10945 1.711853,7.60144 0.750998,3.825 2.425531,7.35739 3.790531,10.98439 0.734002,1.887 2.301563,3.67222 4.347563,4.09622 5.703001,0.737 10.394024,4.79536 13.491029,9.44236 1.422001,2.152 2.868268,4.34345 3.668254,6.81344 1.046003,3.256 3.031876,6.08906 4.829871,8.96006 -2.835995,-1.705 -5.841743,-3.10908 -8.871744,-4.42908 -4.766998,-2.11599 -8.369661,-6.20312 -10.909664,-10.66512 -1.056,-1.78499 -1.088887,-3.99675 -2.268884,-5.71976 -1.307003,-0.38799 -0.915238,1.34348 -0.747237,2.08547 1.007002,3.42401 2.771909,6.56009 4.401907,9.71409 0.954,1.674 1.658884,3.59211 3.253879,4.78911 7.019999,6.561 11.946671,14.9044 17.376661,22.73639 2.019002,3.596 2.57502,7.76597 3.11802,11.78597 z" />
      </g>
      <path
         id="text10232"
         style="font-size:7.9375px;line-height:1.25;font-family:'Times New Roman';-inkscape-font-specification:'Times New Roman, ';fill:#3088ea;fill-opacity:1;stroke-width:0.139693"
         d="m -4.2022535,-9.4151712 c -0.4065073,0 -0.729154,0.1300573 -0.9680294,0.3898867 -0.2388757,0.2598295 -0.3560545,0.6118342 -0.3560545,1.0602494 0,0.4484155 0.1171788,0.8004203 0.3560545,1.0602497 0.2388754,0.2598293 0.5615221,0.3896142 0.9680294,0.3896142 0.5573763,0 0.9639492,-0.2765716 1.114818,-0.745941 l -0.6327127,-0.28075 c -0.062862,0.2807834 -0.2347489,0.4359953 -0.4861968,0.4359953 -0.3687903,0 -0.5909682,-0.3185551 -0.5909682,-0.8591682 0,-0.5406129 0.2221779,-0.859168 0.5909682,-0.859168 0.2556387,0 0.4233349,0.1592281 0.4861968,0.4316299 l 0.6327127,-0.2807499 c -0.1508688,-0.4693694 -0.5574417,-0.7418481 -1.114818,-0.7418481 z m 5.4313944,0 c -0.31430957,0 -0.5741506,0.084023 -0.7794996,0.2474639 -0.20534911,0.1634411 -0.30585151,0.3812426 -0.30585151,0.6452626 0,0.2682125 0.0963342,0.4735057 0.29330136,0.6076114 0.0628623,0.046098 0.14254167,0.088061 0.23054846,0.1257783 0.0921976,0.033528 0.23458712,0.071223 0.42317269,0.1173214 0.2263032,0.05029 0.3728609,0.1006882 0.4357229,0.1467868 0.062862,0.046098 0.096583,0.1047379 0.096583,0.1759814 0,0.1802044 -0.163539,0.2933 -0.4149868,0.2933 -0.28916467,0 -0.51976784,-0.1635389 -0.56586662,-0.4149867 l -0.60324523,0.2515568 c 0.12991477,0.4400338 0.56154459,0.7039241 1.16501945,0.7039241 0.3310729,0 0.6035196,-0.079483 0.8130594,-0.2387343 0.20954,-0.1634412 0.3143098,-0.3773242 0.3143098,-0.6455352 0,-0.2724019 -0.092416,-0.4775763 -0.293575,-0.6242542 -0.1299145,-0.096388 -0.27645,-0.155093 -0.6578125,-0.2430999 -0.2221123,-0.05448 -0.3687679,-0.1006881 -0.43162977,-0.1467869 -0.062862,-0.046098 -0.096586,-0.1047364 -0.096586,-0.1759799 0,-0.1718228 0.15093417,-0.2892097 0.38142797,-0.2892097 0.2388756,0 0.419112,0.1300459 0.4526384,0.3437767 L 2.3104003,-8.706883 C 2.2056302,-9.1720616 1.8284248,-9.4151712 1.2291409,-9.4151712 Z m -3.9602496,0.050476 v 2.7993215 h 0.6747297 v -1.7265208 h 0.00819 l 1.14837787,1.7265208 h 0.6245266 V -9.364695 h -0.67472848 v 1.7180637 h -0.008458 l -1.10636369,-1.718064 z m 6.1855199,0 -1.0182325,2.7993215 H 3.1275512 L 3.3286328,-7.147883 h 1.026691 l 0.2013538,0.5825095 H 5.2731518 L 4.2549192,-9.3646958 Z m 0.3814281,0.7290243 h 0.00819 L 4.175253,-7.6676402 H 3.5046126 Z" />
    </g>
  </g>
</svg>
