<?xml version="1.0" encoding="UTF-8" standalone="no"?>
<svg
   xmlns:dc="http://purl.org/dc/elements/1.1/"
   xmlns:cc="http://creativecommons.org/ns#"
   xmlns:rdf="http://www.w3.org/1999/02/22-rdf-syntax-ns#"
   xmlns:svg="http://www.w3.org/2000/svg"
   xmlns="http://www.w3.org/2000/svg"
   xml:space="preserve"
   height="290"
   width="300"
   version="1.1"
   id="svg2"><metadata
     id="metadata8"><rdf:RDF><cc:Work
         rdf:about=""><dc:format>image/svg+xml</dc:format><dc:type
           rdf:resource="http://purl.org/dc/dcmitype/StillImage" /><dc:title></dc:title></cc:Work></rdf:RDF></metadata><defs
     id="defs6" /><g
     transform="matrix(0,1.25,1.25,0,-360.371,-167.036)"
     id="g12"><path
       id="path76"
       transform="matrix(0,0.8,0.8,0,133.6288,288.2968)"
       d="M 69.339844,46.03125 62.791016,59.339844 85.445312,64.382812 91.884766,51.181641 69.339844,46.03125 Z m 27.482422,6.333984 -6.44336,13.306641 22.656254,5.150391 6.32617,-13.203125 -22.539064,-5.253907 z m 73.529294,16.953125 -6.33203,13.306641 22.6543,5.259766 6.4375,-13.306641 -22.75977,-5.259766 z m 27.58985,6.44336 -6.43946,13.302734 22.75586,5.154297 6.33203,-13.203125 -22.64843,-5.253906 z"
       style="fill:#0e88d3;fill-opacity:1;fill-rule:evenodd;stroke:none" /><path
       id="path84"
       transform="matrix(0,0.8,0.8,0,133.6288,288.2968)"
       d="m 172.60938,161.71875 c -1.2887,0 -2.46798,0.53803 -3.54102,1.50586 -0.86264,0.85737 -1.50391,2.25064 -1.50391,3.64453 0,1.39915 0.64127,2.57735 1.50391,3.65039 1.07304,0.85738 2.25232,1.50391 3.54102,1.50391 1.50434,0 2.89848,-0.64653 3.75585,-1.50391 1.07304,-1.07304 1.50391,-2.25124 1.50391,-3.65039 0,-1.39389 -0.43087,-2.78716 -1.50391,-3.64453 -0.85737,-0.96783 -2.2515,-1.50586 -3.75585,-1.50586 z m -9.3418,12.98828 0,6.11719 14.60156,0 2.68164,0 18.89453,0 c -4.93911,1.07304 -9.33618,3.43351 -12.56054,6.75781 -1.71475,1.72001 -3.32573,4.40313 -4.83008,7.83789 -0.64698,1.49909 -1.18251,3.004 -1.82422,4.71875 10.51994,0.11045 17.06856,0.53634 19.9668,1.60938 1.93041,0.75217 3.65135,1.82458 5.47656,3.11328 2.25127,1.71475 3.43304,3.3299 3.7539,4.93945 l -21.2539,0 -7.19141,7.19141 24.90625,0 c 7.29558,-5.47563 10.83985,-9.98436 10.83985,-13.63477 0,-1.60955 -0.75037,-3.1078 -2.03907,-4.39648 -2.89823,-2.89825 -6.76508,-4.72466 -11.59375,-5.58203 -2.46692,-0.43133 -6.86985,-0.75196 -13.09765,-0.75196 0.85737,-1.17823 1.82595,-2.68228 2.57812,-4.07617 1.2887,-1.60956 2.46607,-2.36133 3.86524,-2.36133 3.2191,0 8.69466,2.1451 15.99023,6.33203 l 7.30078,-7.40625 c -2.78779,-1.71475 -5.68519,-3.21797 -8.37304,-4.29101 l 10.95117,0 37.78711,0 36.5,0 0,-6.11719 -36.5,0 -37.78711,0 -41.75977,0 -2.68164,0 -14.60156,0 z m 4.93945,11.05078 0,31.23438 8.91016,0 0,-31.23438 -8.91016,0 z m 55.71289,0 0,31.23438 9.01563,0 0,-21.25196 c 2.36172,-0.96783 4.72312,-1.60937 7.19531,-1.60937 2.46692,0 4.40324,0.75341 5.90234,1.93164 1.8252,1.93041 2.57672,4.93915 2.25586,9.01562 l 7.6211,-7.40624 c 0.21565,-3.86082 -0.75124,-6.87037 -2.68164,-8.80079 -1.61482,-1.50435 -3.5448,-2.36132 -6.01172,-2.36132 -2.36173,0 -5.04486,0.75177 -7.83789,2.36132 -2.57739,1.17824 -4.72335,2.89854 -6.44336,4.61329 l 0,-7.72657 -9.01563,0 z m 36.60352,0 0,23.29102 c 0,0 0.21591,4.5085 3.22461,6.75976 2.0356,1.2887 4.93359,1.1836 4.93359,1.1836 l 24.36914,0 0,-22.86133 c 0,-2.25653 -0.75231,-4.18733 -2.04101,-5.79688 -1.17823,-1.71475 -2.78699,-2.57617 -4.72266,-2.57617 l -25.76367,0 z m 21.98828,8.21094 c 2.33022,-0.0434 2.16601,0.57471 2.16601,4.23828 l 0,10.41016 -14.06054,0 c 0,0 -1.3979,0.11105 -1.71875,-0.32031 -0.42606,-0.53652 -0.2168,-1.17907 -0.2168,-4.29297 l 0,-9.98243 12.67188,0 c 0.44249,-0.0263 0.82531,-0.0465 1.1582,-0.0527 z"
       style="fill:#0e88d3;fill-opacity:1;fill-rule:evenodd;stroke:none" /><path
       id="path96"
       style="fill:#f47216;fill-opacity:1;fill-rule:evenodd;stroke:none"
       d="M 268.58418,348.40581 136.45375,413.58735 363.11214,413.15813 212.353,395.21112 268.58418,348.40581" /><path
       id="path98"
       transform="matrix(0,0.8,0.8,0,133.6288,288.2968)"
       d="m 110.66602,157.63867 c -0.52243,0.0189 -1.0571,0.0558 -1.60743,0.10938 l -3.0039,7.1914 c 8.47107,-1.53019 12.0881,0.83197 15.28515,9.55078 l -118.980465,0 0,6.22266 28.662109,0 0,3.54492 c 0,0 -11.383715,-4.50783 -21.0410152,4.18164 -7.6217,8.79993 -1.1835938,17.39063 -1.1835938,17.39063 0,0 6.2286,-3.43572 16.101563,-1.82617 9.231249,1.60955 8.804687,6.00781 8.804687,6.00781 0,0 -1.289275,5.47538 -8.695313,4.40234 -7.406037,-1.18348 -6.86914,-8.58398 -6.86914,-8.58398 l -8.1582032,5.4707 c 0,0 3.0999812,5.2763 10.0800782,6.96289 l 6.236328,9.35352 9.232422,0 -7.121094,-9.20117 c 0.805993,-0.14315 1.637839,-0.32689 2.501953,-0.56641 17.925975,-4.72345 11.592882,-18.24715 -1.714844,-21.78711 -9.236512,-2.36173 -19.2148432,2.14453 -19.2148432,2.14453 0,0 1.2843192,-11.37729 17.8164062,-8.68945 9.231237,1.6043 12.560547,5.36523 12.560547,5.36523 l 0,-14.16992 18.503906,0 -7.767578,3.65039 c 0,0 3.971334,4.40214 5.365234,10.19336 1.183488,6.01215 -1.394356,7.08616 -3.003906,7.19141 -1.073025,-0.74693 -6.117187,-7.9375 -6.117187,-7.9375 l -3.544922,3.10937 12.77539,20.07227 9.015625,0 c 0,0 -8.264047,-9.98338 -9.552734,-11.8086 2.117349,-0.0717 5.032774,-0.74752 6.949219,-3.33789 1.338094,0.69726 2.962968,1.26514 4.859375,1.40625 C 73.525881,203.78847 77.072266,201 77.072266,201 l 0,15.99219 9.335937,0 0,-36.2793 20.205077,0 -7.859374,3.65039 c 0,0 4.185644,4.40214 5.369144,10.19336 1.17823,6.01215 -1.2878,7.08616 -3.00782,7.19141 -0.85737,-0.74693 -6.117183,-7.9375 -6.117183,-7.9375 l -3.544922,3.10937 12.669925,20.07227 9.12109,0 c 0,0 -8.04724,-9.98338 -9.33594,-11.8086 2.89825,-0.1052 7.72661,-1.49961 8.58399,-8.36914 1.25246,-9.11318 -2.81605,-14.52497 -4.22657,-16.10156 l 11.09571,0 0,36.27344 9.34179,0 0,-36.27344 4.93946,0 0,-6.22266 -6.81446,0 c -3.85652,-13.4958 -8.56847,-17.12645 -16.1621,-16.85156 z m -50.156254,23.07422 16.5625,0 0,10.51953 c 0,0 -1.19e-4,2.89973 -5.691407,5.6875 -2.40099,1.30682 -4.862755,1.81245 -6.974609,1.95313 0.182531,-0.6279 0.331621,-1.30416 0.425781,-2.0586 1.252391,-9.11267 -2.887109,-14.52463 -4.322265,-16.10156 z"
       style="fill:#f47216;fill-opacity:1;fill-rule:evenodd;stroke:none" /></g></svg>