<?xml version="1.0" encoding="utf-8"?>
<!-- Generator: Adobe Illustrator 13.0.0, SVG Export Plug-In . SVG Version: 6.00 Build 14948)  -->
<!DOCTYPE svg PUBLIC "-//W3C//DTD SVG 1.1//EN" "http://www.w3.org/Graphics/SVG/1.1/DTD/svg11.dtd">
<svg version="1.1" id="レイヤー_1" xmlns="http://www.w3.org/2000/svg" xmlns:xlink="http://www.w3.org/1999/xlink" x="0px"
	 y="0px" width="443.521px" height="276.084px" viewBox="0 0 443.521 276.084" enable-background="new 0 0 443.521 276.084"
	 xml:space="preserve">
<g id="XMLID_2_">
	<g>
		<path fill="#0060B0" d="M393.438,52.834c11.83,0,23.67,0,35.5,0c-6.4,1.65-7.43,7.93-7,16c1.65,31.04,2.14,72.24,3.5,103
			c-9.5,0-19,0-28.5,0c-0.12-7.75-0.14-16.86-0.5-25c-11.17,0-22.33,0-33.5,0c-5.7,7.97-10.27,17.06-16,25c-20.17,0-40.33,0-60.5,0
			c-2.52-11.47-4.39-23.61-7-35c-9.1,9.93-18.71,23.85-28.5,35c-10.17,0-21.52,0-31.69,0c0,0,2.641-3.18,3.69-4.5
			c8.32-10.46,17.85-22.61,26-33.5c-15.5,6.67-29.83,14.51-44.5,22c-3.56,28.94-7.24,57.77-10.5,87
			c-12.37-19.46-25.22-38.44-41-54.5c-34.46,23.59-66.67,49.89-93,82c-1.61,1.96-3.15,5-6,5.5c23.81-38.18,52.98-71.01,88-98
			c-5.08-4.88-10.5-9.08-16.25-13.46c-3.09,2.49-14.13,17.46-14.5,17.58c0,0-0.13-0.12-1.25-0.12c3.87-6.79,8.74-12.96,13.33-19.04
			c-5.37-4.17-12.61-7.67-18.83-11.46c-13.96,18.86-46.74,32.21-79.5,22l0.88-3.19c0,0,5.25,0.681,7.62,0.69
			c21.79,0.09,36.93-14.73,46-29c-21.61-7.39-45.69-12.3-72.5-14.5l0.92-1.67c23.16-0.25,55.05,4.82,75.08,9.67c0,0,3.64-5.9,5-9
			c9.43-21.44,15.96-48.46,22.5-73c11.83,0,23.67,0,35.5,0c1.7,0.19-1.02,1.55-1.5,2c-5.21,4.92-6.72,16.22-9.5,25.5
			c-6.64,22.2-13.93,46.86-25.5,63.5c6.18,3.32,13.16,5.84,19,9.5c9.4-12.6,18.25-25.75,27-39c-1,0.12-20.88,1-25.5,1.5
			c0.54-1.87,1.24-4.07,1.5-6c9.22-0.6,18.41-1.25,28-1.5c20.81-28.85,40.68-58.65,61-88c-2.47,27.2-6.59,56.91-9.83,85
			c17.66-1,35.19-1.97,52.83-3c-1.75-9.12-9.5-40.88-11.5-50c13.83,0,27.67,0,41.5,0c-12.77,3.03-2.58,24.6-2.5,36
			c5.03-5.28,8.44-11.93,12.5-18c4.09-6.1,8.8-11.75,12.5-18c13,0,26,0,39,0c-7.79,2.55-12.01,8.43-17,15
			c-7.75,10.22-15.84,21.57-23.5,32c13.83-0.34,26.72-1.61,40.5-2c-17.38,4.29-33.88,8.5-50.5,14.5c4.63,18.87,9.75,37.26,14.5,56
			C344.077,130.144,368.308,91.044,393.438,52.834z M374.938,125.334c7.33,0,14.67,0,22,0c-0.12-3-0.19-25.44-0.5-36
			C389.237,101.304,381.928,113.164,374.938,125.334z M207.438,136.334c20.96-10.86,44.44-19.23,69-26.5
			c-22.23,1.11-44.49,1.59-66.58,2.83C209.018,120.584,208.107,128.584,207.438,136.334z M189.438,106.834
			c1.17-10.08,1.92-20.08,3-29c-7.72,10.29-15.84,20.17-23.5,30.5C176.438,107.834,183.188,107.254,189.438,106.834z
			 M183.938,148.834c1.5-12.17,2.77-23.55,4.5-35c-8.48,0.02-16.74,0.26-24.5,1c-10.92,13.42-21.44,27.23-32,41
			c7.5,3.75,14.04,8.83,20.5,13.5C162.748,162.314,172.987,155.224,183.938,148.834z M177.438,196.334c0.94-8.55,2.75-24.17,3-26.5
			c-5.5,4-11.54,6.8-16.5,11C169.237,185.204,172.888,191.224,177.438,196.334z"/>
	</g>
	<g>
	</g>
</g>
</svg>
