<?xml version="1.0" encoding="UTF-8" standalone="no"?>
<!-- Created with Inkscape (http://www.inkscape.org/) -->

<svg
   xmlns:dc="http://purl.org/dc/elements/1.1/"
   xmlns:cc="http://creativecommons.org/ns#"
   xmlns:rdf="http://www.w3.org/1999/02/22-rdf-syntax-ns#"
   xmlns:svg="http://www.w3.org/2000/svg"
   xmlns="http://www.w3.org/2000/svg"
   xmlns:xlink="http://www.w3.org/1999/xlink"
   xmlns:sodipodi="http://sodipodi.sourceforge.net/DTD/sodipodi-0.dtd"
   xmlns:inkscape="http://www.inkscape.org/namespaces/inkscape"
   sodipodi:docname="bulldozer_blade.svg"
   inkscape:version="0.48.3.1 r9886"
   version="1.1"
   id="svg2"
   height="335"
   width="170">
  <defs
     id="defs4">
    <linearGradient
       id="linearGradient3845">
      <stop
         style="stop-color:#fffc03;stop-opacity:1;"
         offset="0"
         id="stop3847" />
      <stop
         id="stop3853"
         offset="0.5"
         style="stop-color:#e7e500;stop-opacity:1;" />
      <stop
         style="stop-color:#858400;stop-opacity:1;"
         offset="1"
         id="stop3849" />
    </linearGradient>
    <linearGradient
       inkscape:collect="always"
       xlink:href="#linearGradient3845"
       id="linearGradient3851"
       x1="85"
       y1="-30"
       x2="85"
       y2="0"
       gradientUnits="userSpaceOnUse"
       gradientTransform="translate(0.5,-39.5)" />
  </defs>
  <sodipodi:namedview
     id="base"
     pagecolor="#ffffff"
     bordercolor="#666666"
     borderopacity="1.0"
     inkscape:pageopacity="0.0"
     inkscape:pageshadow="2"
     inkscape:zoom="2.7134328"
     inkscape:cx="19.768976"
     inkscape:cy="167.5"
     inkscape:document-units="px"
     inkscape:current-layer="layer5"
     showgrid="true"
     showguides="true"
     inkscape:guide-bbox="true"
     inkscape:window-width="1871"
     inkscape:window-height="1056"
     inkscape:window-x="49"
     inkscape:window-y="24"
     inkscape:window-maximized="1"
     inkscape:snap-grids="true">
    <inkscape:grid
       type="xygrid"
       id="grid2985"
       empspacing="5"
       visible="true"
       enabled="true"
       snapvisiblegridlinesonly="true" />
    <sodipodi:guide
       orientation="0,1"
       position="-60,225"
       id="guide3786" />
  </sodipodi:namedview>
  <metadata
     id="metadata7">
    <rdf:RDF>
      <cc:Work
         rdf:about="">
        <dc:format>image/svg+xml</dc:format>
        <dc:type
           rdf:resource="http://purl.org/dc/dcmitype/StillImage" />
        <dc:title />
      </cc:Work>
    </rdf:RDF>
  </metadata>
  <g
     inkscape:groupmode="layer"
     id="layer1"
     inkscape:label="Background"
     sodipodi:insensitive="true">
    <rect
       style="fill:#ffffff;fill-opacity:0;stroke:none"
       id="rect3798"
       width="170"
       height="335"
       x="0"
       y="0" />
  </g>
  <g
     inkscape:groupmode="layer"
     id="layer5"
     inkscape:label="Bulldozer Blade"
     transform="translate(0,80)"
     sodipodi:insensitive="true">
    <path
       style="fill:url(#linearGradient3851);fill-opacity:1;stroke:#000000;stroke-width:1;stroke-miterlimit:4;stroke-opacity:1;stroke-dashoffset:0"
       d="m 0.5,-69.5 170,0 0,28 c 0,0 -0.10674,1.142258 -0.48132,1.518677 -0.3689,0.370709 -1.49331,0.481323 -1.49331,0.481323 l -166.045172,0 c 0,0 -1.0469168,-0.110327 -1.4177641,-0.437566 C 0.7208435,-40.238989 0.5,-41.183168 0.5,-41.183168 z"
       id="rect3843"
       inkscape:connector-curvature="0"
       sodipodi:nodetypes="cccaccacc" />
    <rect
       style="fill:#9a9800;fill-opacity:1;stroke:#000000;stroke-width:1;stroke-miterlimit:4;stroke-opacity:1;stroke-dasharray:none;stroke-dashoffset:0"
       id="rect3856"
       width="100"
       height="5"
       x="35.5"
       y="-39.5" />
    <path
       style="fill:#7e7c00;fill-opacity:1;stroke:#000000;stroke-width:1;stroke-miterlimit:4;stroke-opacity:1;stroke-dashoffset:0"
       d="m 0.5,-76.5 2,-3 2,3 9,0 2,-3 2,3 11,0 2,-3 2,3 11,0 2,-3 2,3 11,0 2,-3 2,3 c 2.05644,0.02573 9.281216,0.03036 11,0 l 2,-3 2,3 11,0 2,-3 2,3 11,0 2,-3 2,3 11,0 2,-3 2,3 11,0 2,-3 2,3 11,0 2,-3 2,3 c 4.66667,0 9.33333,0 14,0 l 2,-3 2,3 0,6.999992 -170,0 z"
       id="rect3860"
       inkscape:connector-curvature="0"
       sodipodi:nodetypes="ccccccccccccccccccccccccccccccccccccccc" />
  </g>
</svg>
