<?xml version="1.0" encoding="UTF-8" standalone="no"?>
<!-- Created with Inkscape (http://www.inkscape.org/) -->

<svg
   xmlns:dc="http://purl.org/dc/elements/1.1/"
   xmlns:cc="http://creativecommons.org/ns#"
   xmlns:rdf="http://www.w3.org/1999/02/22-rdf-syntax-ns#"
   xmlns:svg="http://www.w3.org/2000/svg"
   xmlns="http://www.w3.org/2000/svg"
   xmlns:sodipodi="http://sodipodi.sourceforge.net/DTD/sodipodi-0.dtd"
   xmlns:inkscape="http://www.inkscape.org/namespaces/inkscape"
   width="177.35078"
   height="268.96619"
   id="svg2443"
   sodipodi:version="0.32"
   inkscape:version="0.47 r22583"
   sodipodi:docname="inflatable_greenhouse_color.svg"
   inkscape:output_extension="org.inkscape.output.svg.inkscape"
   version="1.0">
  <defs
     id="defs2445">
    <inkscape:perspective
       sodipodi:type="inkscape:persp3d"
       inkscape:vp_x="0 : 526.18109 : 1"
       inkscape:vp_y="0 : 1000 : 0"
       inkscape:vp_z="744.09448 : 526.18109 : 1"
       inkscape:persp3d-origin="372.04724 : 350.78739 : 1"
       id="perspective2451" />
  </defs>
  <sodipodi:namedview
     id="base"
     pagecolor="#ffffff"
     bordercolor="#666666"
     borderopacity="1.0"
     gridtolerance="10000"
     guidetolerance="10"
     objecttolerance="10"
     inkscape:pageopacity="0.0"
     inkscape:pageshadow="2"
     inkscape:zoom="1"
     inkscape:cx="58.463977"
     inkscape:cy="189.44013"
     inkscape:document-units="px"
     inkscape:current-layer="layer1"
     showgrid="true"
     inkscape:snap-global="false"
     inkscape:window-width="1440"
     inkscape:window-height="825"
     inkscape:window-x="0"
     inkscape:window-y="24"
     inkscape:window-maximized="1">
    <inkscape:grid
       type="xygrid"
       id="grid2459"
       visible="true"
       enabled="true"
       empspacing="5"
       snapvisiblegridlinesonly="true" />
  </sodipodi:namedview>
  <metadata
     id="metadata2448">
    <rdf:RDF>
      <cc:Work
         rdf:about="">
        <dc:format>image/svg+xml</dc:format>
        <dc:type
           rdf:resource="http://purl.org/dc/dcmitype/StillImage" />
      </cc:Work>
    </rdf:RDF>
  </metadata>
  <g
     inkscape:label="Layer 1"
     inkscape:groupmode="layer"
     id="layer1"
     style="display:inline"
     transform="translate(-287.5389,-367.45056)">
    <rect
       style="fill:#ffffff;fill-opacity:0;stroke:#000000;stroke-width:1.0583626"
       id="rect3252"
       width="176.29242"
       height="260.11984"
       x="288.06808"
       y="375.76773"
       ry="28.036873" />
    <rect
       style="fill:#ffffff;fill-opacity:0;stroke:#000000;stroke-width:1.0583626"
       id="rect3256"
       width="160.58279"
       height="249.21629"
       x="295.04996"
       y="381.99817"
       ry="24.14286" />
    <rect
       style="fill:#00ff00;fill-opacity:1;fill-rule:evenodd;stroke:#000000;stroke-width:1.58754408;stroke-miterlimit:4;stroke-opacity:1;stroke-dasharray:none"
       id="rect2457"
       width="59.170219"
       height="214.4729"
       x="303.19958"
       y="403.83746"
       ry="0.76663703" />
    <rect
       style="fill:#00ff00;fill-opacity:1;fill-rule:evenodd;stroke:#000000;stroke-width:1.58754408;stroke-miterlimit:4;stroke-opacity:1;stroke-dasharray:none"
       id="rect2461"
       width="56.120205"
       height="215.01724"
       x="392.25992"
       y="403.83746"
       ry="0.76663703" />
    <path
       style="fill:#cccccc;fill-opacity:1;fill-rule:evenodd;stroke:#000000;stroke-width:0.86436087;stroke-miterlimit:4;stroke-opacity:1;stroke-dasharray:none"
       d="m 313.25656,634.59632 c -11.28705,-1.97505 -21.64752,-11.39916 -23.81525,-21.66286 -0.89411,-4.23346 -0.85026,-209.94659 0.0457,-214.29863 1.47323,-7.1562 8.29484,-15.43837 15.54578,-18.87421 5.99572,-2.84105 8.66916,-3.13575 28.4476,-3.13575 l 18.17191,0 0,2.44956 0,2.44956 -17.28957,0 c -15.71349,0 -17.61354,0.0995 -20.84334,1.09108 -9.23356,2.8349 -15.89282,9.23084 -18.21543,17.49521 -0.89836,3.19655 -0.99188,13.2076 -0.99188,106.16585 0,67.53588 0.21293,103.63846 0.62264,105.56627 2.04705,9.63235 11.24293,17.79406 22.03068,19.55311 2.24988,0.36686 23.12254,0.50207 60.39021,0.39117 62.15603,-0.18493 58.6923,-0.009 65.15891,-3.31424 6.92701,-3.54085 12.36694,-10.83391 13.49386,-18.0906 0.36654,-2.36031 0.52676,-42.54996 0.42417,-106.39118 l -0.16488,-102.59799 -1.30846,-3.17836 c -3.15679,-7.66825 -10.12287,-13.59898 -18.6169,-15.84994 -2.47117,-0.65488 -6.37829,-0.84038 -17.70048,-0.84038 l -14.52935,0 0,-2.44956 0,-2.44956 16.62257,0.006 c 11.94164,0.005 17.48144,0.2117 19.67258,0.73532 10.41653,2.48925 18.97458,9.88197 21.92537,18.93985 0.86363,2.65098 0.94552,13.94414 0.80319,110.75232 l -0.15849,107.80032 -2.55349,4.58582 c -2.99829,5.38464 -7.3014,9.52523 -12.70972,12.22972 -7.20615,3.60351 -5.15141,3.50465 -71.66211,3.44753 -33.04687,-0.0284 -61.30499,-0.26503 -62.79579,-0.5259 l -1e-5,0 z"
       id="path2463" />
    <path
       style="fill:#ffffff;fill-opacity:1;fill-rule:evenodd;stroke:#000000;stroke-width:0.86436087;stroke-miterlimit:4;stroke-opacity:1;stroke-dasharray:none"
       d="m 318.52544,630.12628 c -9.56296,-1.31943 -17.29419,-6.71321 -20.82736,-14.53048 l -1.43772,-3.18099 -0.15868,-104.48 c -0.17379,-114.43343 -0.36741,-107.8627 3.34528,-113.51608 2.05017,-3.12182 6.87759,-7.33572 10.0673,-8.78785 5.3869,-2.4524 7.23972,-2.64645 25.32873,-2.65264 l 17.23257,-0.006 0,7.62087 0,7.62087 25.9251,0 25.92509,0 0,-7.65433 0,-7.65431 15.70756,0.16953 15.70755,0.16954 4.10125,1.73375 c 5.69955,2.40939 9.7574,5.96381 12.53607,10.98081 l 2.27275,4.10355 0.15861,105.61095 c 0.14446,96.18731 0.0704,105.84813 -0.83076,108.26906 -3.22569,8.6664 -11.15631,14.76824 -20.98292,16.14433 -4.47592,0.62682 -109.54989,0.66299 -114.07042,0.0393 l 0,2e-5 z m 130.41848,-11.016 c 0.56442,-0.50369 0.72986,-25.14559 0.72265,-107.6447 -0.005,-58.84533 -0.22891,-107.30015 -0.49726,-107.67738 -0.38346,-0.53902 -6.61852,-0.65558 -29.11827,-0.54435 l -28.63034,0.14154 -0.15403,107.4512 c -0.11319,78.97035 0.0279,107.6468 0.53221,108.18906 0.94634,1.01753 56.00823,1.09908 57.14504,0.0847 l 0,-1e-5 z m -86.01032,-0.54434 c 0.56443,-0.50368 0.72986,-25.0851 0.72265,-107.37254 -0.005,-58.69562 -0.22882,-107.02785 -0.49708,-107.40494 -0.38366,-0.5393 -6.92324,-0.65548 -30.64327,-0.54435 l -30.15552,0.14128 -0.15403,107.17903 c -0.11319,78.7691 0.0279,107.37462 0.53219,107.91689 0.94691,1.01814 59.05738,1.09984 60.19506,0.0847 l 0,0 z"
       id="path2474" />
    <path
       style="fill:#ffffff;fill-opacity:1;fill-rule:evenodd;stroke:#000000;stroke-width:0.86436087;stroke-miterlimit:4;stroke-opacity:1;stroke-dasharray:none"
       d="m 326.45547,629.59634 c -10.40135,-0.2989 -10.7802,-0.3512 -14.77629,-2.04049 -5.59876,-2.36678 -9.76705,-5.978 -12.39329,-10.73698 l -2.13,-3.85971 -0.34626,-88.18428 c -0.19044,-48.50136 -0.0981,-96.64302 0.2054,-106.98147 0.63533,-21.64816 0.59324,-21.48143 6.87699,-27.23696 6.73699,-6.17065 10.84701,-7.02881 33.69599,-7.03561 l 13.87755,-0.004 0,7.62086 0,7.62088 26.5351,0 26.53509,0 0,-7.70165 0,-7.70164 15.48593,0.29085 15.48595,0.29085 4.22999,1.98358 c 5.17763,2.42791 8.51296,5.41471 11.48898,10.28838 l 2.26566,3.71037 0.0743,105.97564 c 0.0719,102.31498 0.035,106.06966 -1.06751,108.69738 -0.62805,1.49695 -1.45153,3.11742 -1.83,3.60103 -0.51186,0.65402 -0.68814,-26.70158 -0.68814,-106.78291 0,-59.21419 -0.22863,-107.86628 -0.50805,-108.11573 -0.27941,-0.24946 -13.59272,-0.45356 -29.58511,-0.45356 l -29.07705,0 0,108.14378 c 0,59.47909 0.22865,108.34788 0.50813,108.59732 0.27948,0.24947 13.5155,0.45355 29.4134,0.45355 l 28.90525,0 -3.1833,2.88805 c -1.87856,1.70432 -4.80844,3.58908 -7.14831,4.5984 l -3.96502,1.71034 -13.72505,0.39244 c -15.70075,0.44889 -79.20902,0.42984 -95.16034,-0.0286 l 0,-2e-5 z m 37.0074,-10.55873 c 0.66404,-0.5934 0.66377,-215.15014 -2.4e-4,-215.74302 -0.2794,-0.24946 -14.27894,-0.45356 -31.11012,-0.45356 l -30.60213,0 -0.18555,101.52081 c -0.10207,55.83643 -0.006,104.50861 0.21208,108.16035 l 0.39761,6.63956 2.53293,0.22064 c 4.82624,0.42035 58.25001,0.10686 58.75543,-0.34479 l -10e-6,10e-6 z"
       id="path2476" />
  </g>
  <g
     inkscape:groupmode="layer"
     id="layer2"
     style="display:inline"
     transform="translate(-287.5389,-367.45056)">
    <rect
       style="fill:#000080;fill-opacity:0;stroke:#000000;stroke-width:1.0583626"
       id="rect3258"
       width="50.618664"
       height="29.594492"
       x="352.65048"
       y="367.97974"
       ry="0" />
    <path
       style="fill:#000080;fill-opacity:1;fill-rule:evenodd;stroke:#000000;stroke-width:0.43218043;stroke-miterlimit:4;stroke-opacity:1;stroke-dasharray:none"
       d="m 353.37691,382.77345 0,-14.28912 24.55259,0 24.55258,0 0,14.28912 0,14.28911 -24.55258,0 -24.55259,0 0,-14.28911 z"
       id="path2472" />
  </g>
</svg>
