<?xml version="1.0" encoding="UTF-8" standalone="no"?>
<svg
   width="24"
   height="24"
   fill="currentColor"
   class="bi bi-music-note-list"
   viewBox="0 0 24 24"
   version="1.1"
   id="svg4"
   sodipodi:docname="music-note.svg"
   inkscape:version="1.4.2 (ebf0e940, 2025-05-08)"
   xmlns:inkscape="http://www.inkscape.org/namespaces/inkscape"
   xmlns:sodipodi="http://sodipodi.sourceforge.net/DTD/sodipodi-0.dtd"
   xmlns="http://www.w3.org/2000/svg"
   xmlns:svg="http://www.w3.org/2000/svg">
  <defs
     id="defs4" />
  <sodipodi:namedview
     id="namedview4"
     pagecolor="#ffffff"
     bordercolor="#000000"
     borderopacity="0.25"
     inkscape:showpageshadow="2"
     inkscape:pageopacity="0.0"
     inkscape:pagecheckerboard="0"
     inkscape:deskcolor="#d1d1d1"
     inkscape:zoom="26"
     inkscape:cx="13.384615"
     inkscape:cy="13.230769"
     inkscape:window-width="1072"
     inkscape:window-height="987"
     inkscape:window-x="1125"
     inkscape:window-y="46"
     inkscape:window-maximized="0"
     inkscape:current-layer="svg4" />
  <path
     fill-rule="evenodd"
     d="m 1,14.833334 a 0.70588234,0.66666667 0 0 1 0.7058823,-0.666667 h 4.9411765 a 0.70588234,0.66666667 0 0 1 0,1.333333 H 1.7058823 A 0.70588234,0.66666667 0 0 1 1,14.833334 M 1,9.5 A 0.70588234,0.66666667 0 0 1 1.7058823,8.8333334 H 12.294118 a 0.7058824,0.66666673 0 0 1 0,1.3333336 H 1.7058823 A 0.70588234,0.66666667 0 0 1 1,9.5 M 1,4.1666666 A 0.70588234,0.66666667 0 0 1 1.7058823,3.5 H 12.294118 a 0.70588237,0.6666667 0 0 1 0,1.3333334 H 1.7058823 A 0.70588234,0.66666667 0 0 1 1,4.1666666"
     id="path4"
     style="fill:#ccaa00;fill-opacity:1;stroke-width:1.37198" />
  <path
     d="m 16.136787,19.791349 c 0,1.687729 -1.71064,3.054714 -3.818393,3.054714 C 10.21064,22.846063 8.5,21.479078 8.5,19.791349 c 0,-1.68773 1.71064,-3.054715 3.818394,-3.054715 2.107753,0 3.818393,1.366985 3.818393,3.054715"
     id="path1"
     style="fill:#ccaa00;fill-opacity:1;stroke-width:1.52736" />
  <path
     fill-rule="evenodd"
     d="M 16.136787,4.5177739 V 19.791349 H 14.60943 V 4.5177739 Z"
     id="path2"
     style="fill:#ccaa00;fill-opacity:1;stroke-width:1.52736" />
  <path
     d="m 14.60943,4.2428496 a 1.5273574,1.5273574 0 0 1 1.227995,-1.4968103 l 4.582072,-0.9164144 a 1.5273574,1.5273574 0 0 1 1.82672,1.4968102 V 6.0451313 L 14.60943,7.5724887 Z"
     id="path3"
     style="fill:#ccaa00;fill-opacity:1;stroke-width:1.52736" />
</svg>
