<?xml version="1.0" encoding="UTF-8" standalone="no"?>
<svg
   xmlns:dc="http://purl.org/dc/elements/1.1/"
   xmlns:cc="http://creativecommons.org/ns#"
   xmlns:rdf="http://www.w3.org/1999/02/22-rdf-syntax-ns#"
   xmlns:svg="http://www.w3.org/2000/svg"
   xmlns="http://www.w3.org/2000/svg"
   xmlns:xlink="http://www.w3.org/1999/xlink"
   xmlns:sodipodi="http://sodipodi.sourceforge.net/DTD/sodipodi-0.dtd"
   xmlns:inkscape="http://www.inkscape.org/namespaces/inkscape"
   style="enable-background:new"
   inkscape:export-ydpi="99.859245"
   inkscape:export-xdpi="99.859245"
   inkscape:export-filename="/home/scud/Documents/msp/concept_art/lander_hab_color.png"
   version="1.0"
   inkscape:output_extension="org.inkscape.output.svg.inkscape"
   sodipodi:docname="mod lander_hab.svg"
   inkscape:version="1.0beta1 (fe3e306, 2019-09-17)"
   sodipodi:version="0.32"
   id="svg2396"
   height="90"
   width="90">
  <defs
     id="defs2398">
    <linearGradient
       id="linearGradient1004"
       inkscape:collect="always">
      <stop
         id="stop1000"
         offset="0"
         style="stop-color:#c8beb7;stop-opacity:1;" />
      <stop
         id="stop1002"
         offset="1"
         style="stop-color:#c8beb7;stop-opacity:0;" />
    </linearGradient>
    <linearGradient
       id="linearGradient3282">
      <stop
         id="stop3284"
         offset="0"
         style="stop-color:#000000;stop-opacity:1;" />
      <stop
         id="stop3286"
         offset="1"
         style="stop-color:#7b7b7b;stop-opacity:1;" />
    </linearGradient>
    <linearGradient
       id="linearGradient3273">
      <stop
         id="stop3275"
         offset="0"
         style="stop-color:#000002;stop-opacity:1;" />
      <stop
         id="stop3277"
         offset="1"
         style="stop-color:#777779;stop-opacity:0.99137932;" />
    </linearGradient>
    <linearGradient
       id="linearGradient3264">
      <stop
         id="stop3266"
         offset="0"
         style="stop-color:#040000;stop-opacity:1;" />
      <stop
         id="stop3268"
         offset="1"
         style="stop-color:#848484;stop-opacity:1;" />
    </linearGradient>
    <linearGradient
       id="linearGradient3255">
      <stop
         id="stop3257"
         offset="0"
         style="stop-color:#000000;stop-opacity:1;" />
      <stop
         id="stop3259"
         offset="1"
         style="stop-color:#828282;stop-opacity:1;" />
    </linearGradient>
    <radialGradient
       gradientUnits="userSpaceOnUse"
       gradientTransform="matrix(-0.1654677,1.8658197,1.968524,0.17457583,168.77865,-412.44473)"
       r="9.4972916"
       fy="93.1082"
       fx="295.45956"
       cy="93.1082"
       cx="295.45956"
       id="radialGradient3261"
       xlink:href="#linearGradient3255"
       inkscape:collect="always" />
    <radialGradient
       gradientUnits="userSpaceOnUse"
       gradientTransform="matrix(2.2641037,0.04043416,0.03258003,-1.8243129,-407.6684,310.93869)"
       r="9.3880892"
       fy="93.485535"
       fx="337.68759"
       cy="93.485535"
       cx="337.68759"
       id="radialGradient3270"
       xlink:href="#linearGradient3264"
       inkscape:collect="always" />
    <radialGradient
       gradientUnits="userSpaceOnUse"
       gradientTransform="matrix(0.02472136,-1.7826321,-1.7437754,-0.02418251,585.4914,701.7959)"
       r="9.4417067"
       fy="134.02927"
       fx="336.77481"
       cy="134.02927"
       cx="336.77481"
       id="radialGradient3279"
       xlink:href="#linearGradient3273"
       inkscape:collect="always" />
    <radialGradient
       r="9.5718613"
       fy="134.23401"
       fx="293.59091"
       cy="134.23401"
       cx="293.59091"
       gradientTransform="matrix(-1.7393808,0.02607092,0.02629861,1.7547011,809.88511,-145.47832)"
       gradientUnits="userSpaceOnUse"
       id="radialGradient3319"
       xlink:href="#linearGradient3282"
       inkscape:collect="always" />
    <filter
       color-interpolation-filters="sRGB"
       id="filter3702"
       inkscape:collect="always">
      <feBlend
         id="feBlend3704"
         in2="BackgroundImage"
         mode="multiply"
         inkscape:collect="always" />
    </filter>
    <linearGradient
       gradientUnits="userSpaceOnUse"
       y2="126.06776"
       x2="376.04763"
       y1="126.06776"
       x1="287.15647"
       id="linearGradient1006"
       xlink:href="#linearGradient1004"
       inkscape:collect="always" />
  </defs>
  <sodipodi:namedview
     inkscape:document-rotation="0"
     fit-margin-bottom="0"
     fit-margin-right="0"
     fit-margin-left="0"
     fit-margin-top="0"
     inkscape:window-maximized="1"
     inkscape:snap-object-midpoints="true"
     inkscape:snap-grids="true"
     inkscape:guide-bbox="true"
     showguides="true"
     inkscape:snap-to-guides="false"
     inkscape:window-y="-8"
     inkscape:window-x="-8"
     inkscape:window-height="1057"
     inkscape:window-width="1920"
     inkscape:snap-global="false"
     showgrid="true"
     inkscape:current-layer="layer2"
     inkscape:document-units="px"
     inkscape:cy="43.162783"
     inkscape:cx="32.041084"
     inkscape:zoom="13.943559"
     inkscape:pageshadow="2"
     inkscape:pageopacity="0.0"
     objecttolerance="10"
     guidetolerance="10"
     gridtolerance="10000"
     borderopacity="1.0"
     bordercolor="#666666"
     pagecolor="#ffffff"
     id="base">
    <inkscape:grid
       spacingy="1"
       spacingx="1"
       originy="-0.010977786"
       originx="-0.004942895"
       snapvisiblegridlinesonly="true"
       empspacing="5"
       enabled="true"
       visible="true"
       id="grid2427"
       type="xygrid" />
    <sodipodi:guide
       id="guide2842"
       position="44.98881,66.11809"
       orientation="1,0" />
    <sodipodi:guide
       id="guide2844"
       position="-6.5591163,45.01119"
       orientation="0,1" />
  </sodipodi:namedview>
  <metadata
     id="metadata2401">
    <rdf:RDF>
      <cc:Work
         rdf:about="">
        <dc:format>image/svg+xml</dc:format>
        <dc:type
           rdf:resource="http://purl.org/dc/dcmitype/StillImage" />
        <dc:title></dc:title>
      </cc:Work>
    </rdf:RDF>
  </metadata>
  <g
     style="opacity:0"
     inkscape:label="background"
     id="layer3"
     inkscape:groupmode="layer">
    <rect
       ry="0.2091966"
       y="0.33205304"
       x="-0.76324654"
       height="87.122261"
       width="87.581802"
       id="rect123"
       style="opacity:0;fill:#ffffff;stroke:#000000;stroke-width:0;stroke-linejoin:round;stroke-miterlimit:3;stroke-dasharray:none" />
  </g>
  <g
     transform="translate(-286.65647,-81.067762)"
     style="display:inline"
     id="layer1"
     inkscape:groupmode="layer"
     inkscape:label="foot pads">
    <path
       inkscape:connector-curvature="0"
       sodipodi:nodetypes="ccc"
       id="path2415"
       d="m 291.9203,142.89536 c 0,0 -11.33435,11.32017 0.7084,23.42303 12.40265,11.0407 22.90149,-0.88107 22.90149,-0.88107"
       style="display:inline;fill:url(#radialGradient3261);fill-opacity:1;fill-rule:evenodd;stroke:#000000;stroke-width:0.455836px;stroke-linecap:butt;stroke-linejoin:miter;stroke-opacity:1" />
    <path
       inkscape:connector-curvature="0"
       sodipodi:nodetypes="ccc"
       id="path2417"
       d="m 348.21521,165.71127 c 0,0 11.32019,11.84176 23.42304,-0.20099 11.04071,-12.40265 -0.88106,-22.73234 -0.88106,-22.73234"
       style="display:inline;fill:url(#radialGradient3270);fill-opacity:1;fill-rule:evenodd;stroke:#000000;stroke-width:0.455836px;stroke-linecap:butt;stroke-linejoin:miter;stroke-opacity:1" />
    <path
       inkscape:connector-curvature="0"
       sodipodi:nodetypes="ccc"
       id="path2419"
       d="m 371.50389,109.67783 c 0,0 11.33435,-11.320194 -0.70839,-23.423052 -12.40265,-11.040704 -22.73236,1.05021 -22.73236,1.05021"
       style="display:inline;fill:url(#radialGradient3279);fill-opacity:1;fill-rule:evenodd;stroke:#000000;stroke-width:0.455836px;stroke-linecap:butt;stroke-linejoin:miter;stroke-opacity:1" />
    <path
       inkscape:connector-curvature="0"
       sodipodi:nodetypes="ccc"
       id="path2421"
       d="m 315.70602,86.585943 c 0,0 -11.99673,-11.841774 -24.09961,0.200971 -11.04069,12.402644 1.3885,23.239786 1.3885,23.239786"
       style="display:inline;fill:url(#radialGradient3319);fill-opacity:1;fill-rule:evenodd;stroke:#000000;stroke-width:0.455836px;stroke-linecap:butt;stroke-linejoin:miter;stroke-opacity:1" />
  </g>
  <g
     inkscape:label="frame"
     transform="translate(-286.65647,-81.067762)"
     style="display:inline"
     id="layer2"
     inkscape:groupmode="layer">
    <circle
       inkscape:label="outer"
       r="44.756851"
       cy="126.06776"
       cx="331.65646"
       id="path3634"
       style="fill:#ffffff;fill-opacity:1;fill-rule:evenodd;stroke:#000000;stroke-width:0.486296;stroke-linecap:round;stroke-linejoin:miter;stroke-miterlimit:4;stroke-dasharray:none;stroke-dashoffset:0;stroke-opacity:1" />
    <circle
       inkscape:label="inner"
       r="41.258163"
       cy="126.06776"
       cx="331.65646"
       id="path3632"
       style="fill:#f2f2f2;fill-opacity:1;fill-rule:evenodd;stroke:#000000;stroke-width:0.483673;stroke-linecap:round;stroke-linejoin:miter;stroke-miterlimit:4;stroke-dasharray:none;stroke-dashoffset:0;stroke-opacity:1" />
    <path
       inkscape:label="wall"
       inkscape:connector-curvature="0"
       id="path3637"
       d="m 325.4191,170.14275 c -16.40008,-2.39475 -29.95314,-13.42696 -35.67519,-29.03961 -3.41809,-9.32628 -3.45135,-20.42395 -0.0895,-29.87222 4.41458,-12.407005 14.40823,-22.528367 26.60071,-26.940665 16.39255,-5.932245 34.37479,-2.006625 46.64738,10.183378 7.02832,6.981007 11.34568,15.567847 12.8347,25.527107 0.46402,3.10364 0.39768,9.6096 -0.13101,12.85082 -1.92844,11.8222 -7.91756,21.70549 -17.55736,28.97339 -9.01009,6.79315 -21.41507,9.95536 -32.62971,8.3178 v 0 z m 13.50529,-2.72824 c 1.38937,-0.22684 4.01844,-0.90245 5.84243,-1.50141 13.5643,-4.45409 24.00631,-15.57471 27.5421,-29.33191 1.62896,-6.33804 1.63186,-14.81744 0.008,-21.04975 -3.54152,-13.58568 -13.85257,-24.727822 -27.01089,-29.188088 -12.37629,-4.195174 -25.96847,-2.505681 -36.63047,4.553127 -15.27148,10.110541 -22.19988,28.088851 -17.66441,45.837011 4.25835,16.66378 18.7474,29.15063 36.07007,31.08567 2.83971,0.3172 8.63533,0.11921 11.84406,-0.40465 z"
       style="color:#000000;display:inline;overflow:visible;visibility:visible;fill:url(#linearGradient1006);fill-opacity:1;fill-rule:nonzero;stroke:none;stroke-width:1.6;stroke-miterlimit:4;stroke-dasharray:none;marker:none;enable-background:accumulate" />
  </g>
  <g
     transform="translate(-0.00494289,1.7947453)"
     style="display:inline;opacity:0.5"
     inkscape:label="central ladder"
     id="layer4"
     inkscape:groupmode="layer">
    <circle
       r="8.0688171"
       cy="42.756763"
       cx="45.873501"
       id="path2850"
       style="display:inline;fill:#3771c8;fill-opacity:1;stroke:#000000;stroke-width:1.52147;stroke-opacity:1" />
    <rect
       transform="matrix(0.67005441,0.74231199,-0.73510777,0.67795027,0,0)"
       y="0.37801409"
       x="59.070133"
       height="3.1627498"
       width="6.7116122"
       id="rect3627"
       style="display:inline;fill:#4e4f4f;fill-opacity:1;fill-rule:nonzero;stroke:#000000;stroke-width:0.22942;stroke-linecap:round;stroke-linejoin:miter;stroke-miterlimit:4;stroke-dasharray:none;stroke-dashoffset:0;stroke-opacity:1" />
    <circle
       r="4.7612195"
       cy="42.783222"
       cx="45.796917"
       id="path3640"
       style="display:inline;fill:#2c2ea8;fill-opacity:1;fill-rule:nonzero;stroke:#000000;stroke-width:0.350154;stroke-linecap:round;stroke-linejoin:miter;stroke-miterlimit:4;stroke-dasharray:none;stroke-dashoffset:0;stroke-opacity:1" />
    <rect
       ry="0.46089727"
       transform="matrix(0.80296261,-0.5960294,0.52213113,0.85286522,0,0)"
       y="65.033501"
       x="14.726779"
       height="0.97940671"
       width="4.8348374"
       id="rect3633"
       style="display:inline;fill:#4e4f4f;fill-opacity:1;fill-rule:nonzero;stroke:#000000;stroke-width:0.361559;stroke-linecap:round;stroke-linejoin:miter;stroke-miterlimit:4;stroke-dasharray:none;stroke-dashoffset:0;stroke-opacity:1" />
    <rect
       style="display:inline;fill:#4e4f4f;fill-opacity:1;fill-rule:nonzero;stroke:#000000;stroke-width:0.304294;stroke-linecap:round;stroke-linejoin:miter;stroke-miterlimit:4;stroke-dasharray:none;stroke-dashoffset:0;stroke-opacity:1"
       id="rect3631"
       width="1.1429154"
       height="2.4286952"
       x="15.60623"
       y="63.121948"
       transform="rotate(-34.146954)"
       ry="0.38097179" />
    <rect
       ry="0.38097179"
       transform="rotate(-34.146954)"
       y="63.060989"
       x="11.274409"
       height="2.4286952"
       width="1.1429154"
       id="rect3629"
       style="display:inline;fill:#4e4f4f;fill-opacity:1;fill-rule:nonzero;stroke:#000000;stroke-width:0.304294;stroke-linecap:round;stroke-linejoin:miter;stroke-miterlimit:4;stroke-dasharray:none;stroke-dashoffset:0;stroke-opacity:1" />
  </g>
  <g
     transform="translate(-0.00494289,1.7947453)"
     style="display:inline;opacity:0.5;filter:url(#filter3702)"
     inkscape:label="interior"
     id="layer6"
     inkscape:groupmode="layer">
    <g
       transform="matrix(1.5513738,0,0,1.549696,-2.6200806,-3.6796863)"
       id="g3633"
       style="display:inline;fill:#e5f30c;fill-opacity:1;fill-rule:nonzero;stroke:#000000;stroke-opacity:1">
      <path
         inkscape:connector-curvature="0"
         id="path3635"
         style="fill:#e5f30c;fill-opacity:1;fill-rule:nonzero;stroke:#000000;stroke-width:0.998008;stroke-opacity:1"
         d="m 7.3648204,17.506108 c 0.6211957,-1.324685 1.9556771,-3.065583 2.8477326,-4.450513 0.549703,-0.853421 3.215275,-3.2934037 5.03634,-4.686839 0.626189,-0.4791449 1.302989,-0.8970676 2.007935,-1.2499365 2.23154,-1.1170227 2.942925,-1.3147048 6.975602,-2.7166596 m -0.08163,0 c 13.129041,-3.0283121 27.79299,4.1970402 31.716068,18.0998751 2.00802,7.116144 1.918614,15.753252 -2.821396,21.971573 -0.829815,-0.04982 -13.063714,-8.474862 -13.063714,-8.474862 1.232452,-2.429051 1.506002,-3.513878 1.337735,-6.064637 -0.551787,-8.364595 -7.418306,-10.553187 -10.140965,-10.553187 -2.722658,0 -6.846085,1.606032 -8.204255,4.799047 L 22.518756,27.06422 16.417134,27.041855 5.6949271,20.734091 7.4192413,17.315429"
         sodipodi:nodetypes="csaaccsccssccccc" />
    </g>
    <path
       inkscape:connector-curvature="0"
       sodipodi:nodetypes="cc"
       id="path3645"
       d="M 36.152792,30.087549 21.010696,9.517154"
       style="fill:none;stroke:#000000;stroke-width:1.61616px;stroke-linecap:butt;stroke-linejoin:miter;stroke-opacity:1" />
    <path
       inkscape:connector-curvature="0"
       sodipodi:nodetypes="cc"
       id="path3647"
       d="M 44.637208,26.736976 42.603945,1.8220526"
       style="fill:none;stroke:#000000;stroke-width:1.54869px;stroke-linecap:butt;stroke-linejoin:miter;stroke-opacity:1" />
    <path
       inkscape:connector-curvature="0"
       sodipodi:nodetypes="cc"
       id="path3651"
       d="M 52.241264,28.053968 62.733544,6.7087451"
       style="fill:none;stroke:#000000;stroke-width:1.56938px;stroke-linecap:butt;stroke-linejoin:miter;stroke-opacity:1" />
    <path
       inkscape:connector-curvature="0"
       sodipodi:nodetypes="cc"
       id="path3653"
       d="M 58.709721,34.803164 78.722429,21.001788"
       style="fill:none;stroke:#000000;stroke-width:1.56508px;stroke-linecap:butt;stroke-linejoin:miter;stroke-opacity:1" />
    <path
       inkscape:connector-curvature="0"
       sodipodi:nodetypes="cc"
       id="path3657"
       d="m 61.783954,43.050239 24.441839,0.06095"
       style="fill:none;stroke:#000000;stroke-width:1.52147px;stroke-linecap:butt;stroke-linejoin:miter;stroke-opacity:1" />
    <rect
       transform="matrix(-0.25405671,0.96718932,-0.96984954,-0.24370447,0,0)"
       y="-72.605942"
       x="28.622267"
       height="2.8830414"
       width="6.1180482"
       id="rect3654"
       style="display:inline;fill:#4e4f4f;fill-opacity:1;fill-rule:nonzero;stroke:#000000;stroke-width:0.209131;stroke-linecap:round;stroke-linejoin:miter;stroke-miterlimit:4;stroke-dasharray:none;stroke-dashoffset:0;stroke-opacity:1" />
    <rect
       style="display:inline;fill:#4e4f4f;fill-opacity:1;fill-rule:nonzero;stroke:#000000;stroke-width:0.209131;stroke-linecap:round;stroke-linejoin:miter;stroke-miterlimit:4;stroke-dasharray:none;stroke-dashoffset:0;stroke-opacity:1"
       id="rect3668"
       width="6.1180482"
       height="2.8830414"
       x="51.682297"
       y="-48.239918"
       transform="matrix(0.28879328,0.95739148,-0.95425005,0.29900978,0,0)" />
    <rect
       transform="matrix(0.7530426,0.65797176,-0.64988535,0.76003226,0,0)"
       y="-14.768389"
       x="59.493484"
       height="2.8830414"
       width="6.1180482"
       id="rect3670"
       style="display:inline;fill:#4e4f4f;fill-opacity:1;fill-rule:nonzero;stroke:#000000;stroke-width:0.209131;stroke-linecap:round;stroke-linejoin:miter;stroke-miterlimit:4;stroke-dasharray:none;stroke-dashoffset:0;stroke-opacity:1" />
    <rect
       style="display:inline;fill:#4e4f4f;fill-opacity:1;fill-rule:nonzero;stroke:#000000;stroke-width:0.209131;stroke-linecap:round;stroke-linejoin:miter;stroke-miterlimit:4;stroke-dasharray:none;stroke-dashoffset:0;stroke-opacity:1"
       id="rect3672"
       width="6.1180482"
       height="2.8830414"
       x="48.016037"
       y="20.275953"
       transform="matrix(0.99368614,0.11219563,-0.10156829,0.99482857,0,0)" />
    <rect
       transform="matrix(0.94037556,-0.34013792,0.35016962,0.93668631,0,0)"
       y="38.618195"
       x="25.168621"
       height="2.8830414"
       width="6.1180482"
       id="rect3674"
       style="display:inline;fill:#4e4f4f;fill-opacity:1;fill-rule:nonzero;stroke:#000000;stroke-width:0.209131;stroke-linecap:round;stroke-linejoin:miter;stroke-miterlimit:4;stroke-dasharray:none;stroke-dashoffset:0;stroke-opacity:1" />
    <rect
       style="display:inline;fill:#4e4f4f;fill-opacity:1;fill-rule:nonzero;stroke:#000000;stroke-width:0.209131;stroke-linecap:round;stroke-linejoin:miter;stroke-miterlimit:4;stroke-dasharray:none;stroke-dashoffset:0;stroke-opacity:1"
       id="rect3676"
       width="6.1180482"
       height="2.8830414"
       x="-21.851557"
       y="42.889793"
       transform="matrix(0.39862636,-0.91711342,0.92132172,0.38880109,0,0)" />
    <g
       transform="matrix(1.5212439,-0.02627105,0.02627105,1.5212439,-3.0017227,-1.2923715)"
       id="g3682">
      <path
         inkscape:connector-curvature="0"
         style="fill:#9d2e33;fill-opacity:1;stroke:#000000;stroke-width:0.2;stroke-linecap:butt;stroke-linejoin:miter;stroke-miterlimit:4;stroke-dasharray:none;stroke-opacity:1"
         d="m 43.033033,38.288365 1.103412,-2.758527 11.696157,2.868869 -2.758528,6.620467 z"
         id="path3678"
         transform="translate(0,-1.7737665)"
         sodipodi:nodetypes="ccccc" />
      <path
         inkscape:connector-curvature="0"
         style="fill:#ffffff;fill-opacity:1;stroke:#000000;stroke-width:0.2;stroke-linecap:butt;stroke-linejoin:miter;stroke-miterlimit:4;stroke-dasharray:none;stroke-opacity:1"
         d="m 50.977594,43.584739 2.317163,-5.848079 2.537845,0.662047 -2.758527,6.510125 z"
         id="path3680"
         transform="translate(0,-1.7737665)"
         sodipodi:nodetypes="ccccc" />
    </g>
    <g
       transform="matrix(1.2556918,-0.85913399,0.85913399,1.2556918,-20.261764,32.810623)"
       id="g3686">
      <path
         inkscape:connector-curvature="0"
         sodipodi:nodetypes="ccccc"
         transform="translate(0,-1.7737665)"
         id="path3688"
         d="m 43.033033,38.288365 1.103412,-2.758527 11.696157,2.868869 -2.758528,6.620467 z"
         style="fill:#9d2e33;fill-opacity:1;stroke:#000000;stroke-width:0.2;stroke-linecap:butt;stroke-linejoin:miter;stroke-miterlimit:4;stroke-dasharray:none;stroke-opacity:1" />
      <path
         inkscape:connector-curvature="0"
         sodipodi:nodetypes="ccccc"
         transform="translate(0,-1.7737665)"
         id="path3690"
         d="m 50.977594,43.584739 2.317163,-5.848079 2.537845,0.662047 -2.758527,6.510125 z"
         style="fill:#ffffff;fill-opacity:1;stroke:#000000;stroke-width:0.2;stroke-linecap:butt;stroke-linejoin:miter;stroke-miterlimit:4;stroke-dasharray:none;stroke-opacity:1" />
    </g>
    <g
       id="g3692"
       transform="matrix(-0.47757199,-1.4445754,1.4445754,-0.47757199,18.026705,103.10397)">
      <path
         inkscape:connector-curvature="0"
         style="fill:#9d2e33;fill-opacity:1;stroke:#000000;stroke-width:0.2;stroke-linecap:butt;stroke-linejoin:miter;stroke-miterlimit:4;stroke-dasharray:none;stroke-opacity:1"
         d="m 43.033033,38.288365 1.103412,-2.758527 11.696157,2.868869 -2.758528,6.620467 z"
         id="path3694"
         transform="translate(0,-1.7737665)"
         sodipodi:nodetypes="ccccc" />
      <path
         inkscape:connector-curvature="0"
         style="fill:#ffffff;fill-opacity:1;stroke:#000000;stroke-width:0.2;stroke-linecap:butt;stroke-linejoin:miter;stroke-miterlimit:4;stroke-dasharray:none;stroke-opacity:1"
         d="m 50.977594,43.584739 2.317163,-5.848079 2.537845,0.662047 -2.758527,6.510125 z"
         id="path3696"
         transform="translate(0,-1.7737665)"
         sodipodi:nodetypes="ccccc" />
    </g>
    <g
       transform="matrix(-1.1600934,-0.98440663,0.98440663,-1.1600934,53.176436,109.04661)"
       id="g3698">
      <path
         inkscape:connector-curvature="0"
         sodipodi:nodetypes="ccccc"
         transform="translate(0,-1.7737665)"
         id="path3700"
         d="m 43.033033,38.288365 1.103412,-2.758527 11.696157,2.868869 -2.758528,6.620467 z"
         style="fill:#9d2e33;fill-opacity:1;stroke:#000000;stroke-width:0.2;stroke-linecap:butt;stroke-linejoin:miter;stroke-miterlimit:4;stroke-dasharray:none;stroke-opacity:1" />
      <path
         inkscape:connector-curvature="0"
         sodipodi:nodetypes="ccccc"
         transform="translate(0,-1.7737665)"
         id="path3702"
         d="m 50.977594,43.584739 2.317163,-5.848079 2.537845,0.662047 -2.758527,6.510125 z"
         style="fill:#ffffff;fill-opacity:1;stroke:#000000;stroke-width:0.2;stroke-linecap:butt;stroke-linejoin:miter;stroke-miterlimit:4;stroke-dasharray:none;stroke-opacity:1" />
    </g>
    <path
       inkscape:connector-curvature="0"
       sodipodi:nodetypes="caaaaaaacaaacc"
       id="path3704"
       d="m 43.27189,18.705441 c 0,0 -1.981889,-0.735704 -2.631655,-1.510926 -0.955136,-1.139556 -1.11221,-2.764575 -1.510926,-4.19702 C 38.670215,11.348141 38.973861,9.4461663 38.122025,7.9610727 37.786749,7.3765517 37.248127,6.8377289 36.611098,6.6180265 35.763009,6.3255323 34.801144,6.5930605 33.925005,6.7859073 32.869499,7.0182345 31.983912,7.9662687 30.903152,7.9610727 29.999095,7.9567267 29.02421,7.5930587 28.38494,6.9537882 28.17185,6.7406978 28.049178,6.1143843 28.049178,6.1143843 c 0,0 1.569373,-0.8578951 2.38669,-1.2181645 1.021919,-0.4504571 2.069838,-0.8476127 3.137484,-1.1752775 1.667873,-0.5118774 3.371826,-0.912822 5.08748,-1.2296044 1.042578,-0.1925036 3.154569,-0.4060921 3.154569,-0.4060921 z"
       style="fill:#858480;fill-opacity:1;stroke:#000000;stroke-width:0.304294;stroke-linecap:butt;stroke-linejoin:miter;stroke-miterlimit:4;stroke-dasharray:none;stroke-opacity:1" />
    <path
       inkscape:connector-curvature="0"
       style="fill:#858480;fill-opacity:1;stroke:#000000;stroke-width:0.304294;stroke-linecap:butt;stroke-linejoin:miter;stroke-miterlimit:4;stroke-dasharray:none;stroke-opacity:1"
       d="m 54.685175,21.206521 c 0,0 -1.306056,-1.662336 -1.455393,-2.662769 -0.219522,-1.470606 0.495072,-2.9385 0.903025,-4.368342 0.469728,-1.646357 1.721861,-3.109871 1.77087,-4.8212226 0.01929,-0.6735746 -0.158703,-1.414359 -0.58726,-1.9343726 C 54.74587,6.7275105 53.78586,6.4534021 52.937958,6.1603668 51.916467,5.8073396 50.666163,6.1534211 49.747166,5.5846391 48.978423,5.1088525 48.336906,4.2896392 48.125528,3.4106321 48.055068,3.1176302 48.277492,2.519431 48.277492,2.519431 c 0,0 1.786393,0.087851 2.671555,0.2073869 1.106749,0.1494587 2.207837,0.3579528 3.289464,0.6360118 1.689714,0.4343818 3.35227,0.9822114 4.980859,1.6079279 0.989668,0.3802387 2.90238,1.3009217 2.90238,1.3009217 L 54.685169,21.206521 Z"
       id="path3706"
       sodipodi:nodetypes="caaaaaaacaaacc" />
    <path
       inkscape:connector-curvature="0"
       sodipodi:nodetypes="caaaaaaacaaacc"
       id="path3708"
       d="m 65.121289,30.642313 c 0,0 1.820291,1.075029 2.831684,1.090905 1.486719,0.02328 2.847355,-0.878888 4.21078,-1.472138 1.569881,-0.683086 2.855172,-2.117566 4.545053,-2.392205 0.665126,-0.108086 1.422932,-0.0295 1.994998,0.326595 0.761602,0.474101 1.160121,1.389491 1.56259,2.191254 0.484865,0.965906 0.307025,2.250963 0.992166,3.086782 0.573162,0.699158 1.469937,1.226842 2.369164,1.320257 0.299742,0.03113 0.863317,-0.268355 0.863317,-0.268355 0,0 -0.32305,-1.759135 -0.558464,-2.620752 -0.29434,-1.077308 -0.646455,-2.141205 -1.064954,-3.176625 -0.653776,-1.617529 -1.416418,-3.193152 -2.251777,-4.724816 -0.507635,-0.930769 -1.672908,-2.705104 -1.672908,-2.705104 l -13.821649,9.344208 z"
       style="fill:#858480;fill-opacity:1;stroke:#000000;stroke-width:0.304294;stroke-linecap:butt;stroke-linejoin:miter;stroke-miterlimit:4;stroke-dasharray:none;stroke-opacity:1" />
    <path
       inkscape:connector-curvature="0"
       style="fill:#858480;fill-opacity:1;stroke:#000000;stroke-width:0.304294;stroke-linecap:butt;stroke-linejoin:miter;stroke-miterlimit:4;stroke-dasharray:none;stroke-opacity:1"
       d="m 68.803225,43.784056 c 0,0 0.901099,1.912372 1.728624,2.49407 1.216471,0.85503 2.848916,0.873811 4.31001,1.149643 1.682337,0.317598 3.55172,-0.146214 5.103687,0.576639 0.61084,0.284519 1.193388,0.775521 1.466317,1.391616 0.363346,0.820238 0.178333,1.801322 0.06046,2.690655 -0.141999,1.071403 -1.011489,2.034205 -0.914725,3.110611 0.08099,0.900432 0.523079,1.84445 1.217165,2.423742 0.288548,0.240826 1.081857,0.317641 1.081857,0.317641 0,0 0.542352,-1.686534 0.794411,-2.535633 0.317819,-1.070618 0.66907,-2.134246 0.905033,-3.225832 0.368625,-1.705269 0.623654,-3.43708 0.793834,-5.173414 0.103414,-1.055144 0.13716,-3.177639 0.13716,-3.177639 z"
       id="path3710"
       sodipodi:nodetypes="caaaaaaacaaacc" />
    <circle
       r="4.7006617"
       cy="14.174471"
       cx="65.487495"
       id="path3712"
       style="fill:#85d1cc;fill-opacity:1;fill-rule:nonzero;stroke:#378581;stroke-width:0.760735;stroke-linecap:round;stroke-linejoin:miter;stroke-miterlimit:4;stroke-dasharray:none;stroke-dashoffset:0;stroke-opacity:1" />
    <path
       inkscape:connector-curvature="0"
       sodipodi:nodetypes="ccscac"
       id="path3716"
       d="m 69.080583,17.262609 3.220802,-3.502662 c 0,0 -0.683002,-0.65601 -1.830698,-1.590095 -1.220603,-0.993425 0.900875,0.868531 -1.608317,-1.319932 0,0 1.391943,1.86782 1.453135,2.967521 0.06778,1.218053 -1.234922,3.445168 -1.234922,3.445168 z"
       style="fill:#378581;fill-opacity:1;stroke:#378581;stroke-width:0.760735;stroke-linecap:butt;stroke-linejoin:miter;stroke-miterlimit:4;stroke-dasharray:none;stroke-opacity:1" />
    <path
       inkscape:connector-curvature="0"
       sodipodi:nodetypes="cccac"
       id="path3720"
       d="m 61.576232,11.622647 1.928577,-4.032476 3.769486,2.2353931 c 0,0 -2.18139,-0.497892 -3.199682,-0.175322 -1.011504,0.32042 -2.498381,1.9724049 -2.498381,1.9724049 z"
       style="fill:#378581;fill-opacity:1;stroke:#378581;stroke-width:0.760735;stroke-linecap:butt;stroke-linejoin:miter;stroke-miterlimit:4;stroke-dasharray:none;stroke-opacity:1" />
    <rect
       y="18.109671"
       x="63.68013"
       height="1.0519499"
       width="3.5065"
       id="rect3722"
       style="fill:#51999b;fill-opacity:1;fill-rule:nonzero;stroke:#234d5e;stroke-width:0.304294;stroke-linecap:butt;stroke-linejoin:miter;stroke-miterlimit:4;stroke-dasharray:none;stroke-dashoffset:0;stroke-opacity:1" />
    <ellipse
       ry="2.0654206"
       rx="2.0071347"
       cy="24.728285"
       cx="64.397835"
       id="path3724"
       style="fill:#ffffff;fill-opacity:1;fill-rule:nonzero;stroke:#bcc0c0;stroke-width:0.224672;stroke-linecap:butt;stroke-linejoin:miter;stroke-miterlimit:4;stroke-dasharray:none;stroke-dashoffset:0;stroke-opacity:1" />
    <rect
       ry="0.70785767"
       transform="matrix(0.81664788,-0.57713624,0.55511648,0.83177262,0,0)"
       y="59.497322"
       x="37.748589"
       height="2.0224504"
       width="4.2037315"
       id="rect3730"
       style="fill:#ffffff;fill-opacity:1;fill-rule:nonzero;stroke:#aeb5b3;stroke-width:0.224712;stroke-linecap:butt;stroke-linejoin:miter;stroke-miterlimit:4;stroke-dasharray:none;stroke-dashoffset:0;stroke-opacity:1" />
    <path
       inkscape:connector-curvature="0"
       sodipodi:nodetypes="caaac"
       id="path3732"
       d="m 55.101836,23.924403 c 0,0 1.561248,-0.0143 2.226007,-0.365815 0.494991,-0.26171 0.899691,-0.719859 1.15839,-1.216429 0.29328,-0.562949 0.459096,-1.236974 0.377585,-1.866483 -0.102669,-0.792951 -1.058753,-2.152409 -1.058753,-2.152409"
       style="fill:#9a9ba1;fill-opacity:1;stroke:#aeaeae;stroke-width:0.152147;stroke-linecap:butt;stroke-linejoin:miter;stroke-miterlimit:4;stroke-dasharray:none;stroke-opacity:1" />
    <ellipse
       ry="1.294219"
       rx="0.9536351"
       cy="-9.4422331"
       cx="60.616711"
       transform="rotate(29.529941)"
       id="path3734"
       style="fill:#4d4c4c;fill-opacity:1;fill-rule:nonzero;stroke:#aeaeae;stroke-width:0.152147;stroke-linecap:butt;stroke-linejoin:miter;stroke-miterlimit:4;stroke-dasharray:none;stroke-dashoffset:0;stroke-opacity:1" />
    <rect
       transform="rotate(53.30045)"
       y="-8.7445326"
       x="26.843918"
       height="5.0766783"
       width="12.691695"
       id="rect3682"
       style="display:inline;fill:#000000;fill-opacity:1;stroke:#000002;stroke-width:0.126917;stroke-linecap:round;stroke-linejoin:miter;stroke-miterlimit:4;stroke-dasharray:none;stroke-opacity:1;enable-background:new" />
    <rect
       transform="rotate(53.30045)"
       y="-8.7445326"
       x="21.767235"
       height="5.0766783"
       width="5.0766783"
       id="rect3684"
       style="display:inline;fill:#797a7a;fill-opacity:1;fill-rule:nonzero;stroke:#000002;stroke-width:0.126917;stroke-linecap:round;stroke-linejoin:miter;stroke-miterlimit:4;stroke-dasharray:none;stroke-opacity:1;enable-background:new" />
    <g
       transform="rotate(15.074823,39.671814,35.578647)"
       id="g1017">
      <rect
         y="25.892189"
         x="15.636099"
         height="0.6229558"
         width="12.131104"
         id="rect3706"
         style="display:inline;fill:#b1b3fb;fill-opacity:1;fill-rule:nonzero;stroke:#000002;stroke-width:0.11194;stroke-linecap:round;stroke-linejoin:miter;stroke-miterlimit:4;stroke-dasharray:none;stroke-opacity:1;enable-background:new"
         transform="rotate(15.210602)" />
      <rect
         style="display:inline;fill:#b1b3fb;fill-opacity:1;fill-rule:nonzero;stroke:#000002;stroke-width:0.11194;stroke-linecap:round;stroke-linejoin:miter;stroke-miterlimit:4;stroke-dasharray:none;stroke-opacity:1;enable-background:new"
         id="rect3708"
         width="12.131104"
         height="0.6229558"
         x="15.636099"
         y="31.13064"
         transform="rotate(15.210602)" />
      <rect
         y="26.573393"
         x="15.637325"
         height="4.4169083"
         width="4.4169083"
         id="rect3710"
         style="display:inline;fill:#797a7a;fill-opacity:1;fill-rule:nonzero;stroke:#000002;stroke-width:0.110423;stroke-linecap:round;stroke-linejoin:miter;stroke-miterlimit:4;stroke-dasharray:none;stroke-opacity:1;enable-background:new"
         transform="rotate(15.210602)" />
      <rect
         style="display:inline;fill:#cdcdc9;fill-opacity:1;fill-rule:nonzero;stroke:#000002;stroke-width:0.110423;stroke-linecap:round;stroke-linejoin:miter;stroke-miterlimit:4;stroke-dasharray:none;stroke-opacity:1;enable-background:new"
         id="rect3712"
         width="7.6195717"
         height="4.6034913"
         x="20.137758"
         y="26.626381"
         transform="rotate(15.210602)" />
      <rect
         style="display:inline;fill:#000000;fill-opacity:1;fill-rule:nonzero;stroke:#000002;stroke-width:0.110423;stroke-linecap:round;stroke-linejoin:miter;stroke-miterlimit:4;stroke-dasharray:none;stroke-opacity:1;enable-background:new"
         id="rect3714"
         width="2.6985984"
         height="1.1111875"
         x="21.566427"
         y="27.10261"
         transform="rotate(15.210602)" />
      <rect
         y="29.32498"
         x="24.423765"
         height="1.1111875"
         width="2.6985984"
         id="rect3716"
         style="display:inline;fill:#000000;fill-opacity:1;fill-rule:nonzero;stroke:#000002;stroke-width:0.110423;stroke-linecap:round;stroke-linejoin:miter;stroke-miterlimit:4;stroke-dasharray:none;stroke-opacity:1;enable-background:new"
         transform="rotate(15.210602)" />
      <rect
         style="display:inline;fill:#a0a2ff;fill-opacity:1;fill-rule:nonzero;stroke:#000002;stroke-width:0.110423;stroke-linecap:round;stroke-linejoin:miter;stroke-miterlimit:4;stroke-dasharray:none;stroke-opacity:1;enable-background:new"
         id="rect3718"
         width="4.1272678"
         height="0.79370534"
         x="20.137758"
         y="29.483728"
         transform="rotate(15.210602)" />
      <rect
         style="display:inline;fill:#a0a2ff;fill-opacity:1;fill-rule:nonzero;stroke:#000002;stroke-width:0.140133;stroke-linecap:round;stroke-linejoin:miter;stroke-miterlimit:4;stroke-dasharray:none;stroke-opacity:1;enable-background:new"
         id="rect3720"
         width="1.3989592"
         height="0.78325343"
         x="20.162239"
         y="27.220076"
         transform="rotate(15.210602)" />
      <rect
         style="display:inline;fill:#a0a2ff;fill-opacity:1;fill-rule:nonzero;stroke:#000002;stroke-width:0.110423;stroke-linecap:round;stroke-linejoin:miter;stroke-miterlimit:4;stroke-dasharray:none;stroke-opacity:1;enable-background:new"
         id="rect3722-3"
         width="0.67348129"
         height="4.6582456"
         x="19.384789"
         y="26.498695"
         transform="rotate(15.210602)" />
    </g>
    <rect
       transform="rotate(53.30045)"
       y="-9.5274954"
       x="21.765833"
       height="0.71600914"
       width="13.943172"
       id="rect3686"
       style="display:inline;fill:#b1b3fb;fill-opacity:1;fill-rule:nonzero;stroke:#000002;stroke-width:0.128661;stroke-linecap:round;stroke-linejoin:miter;stroke-miterlimit:4;stroke-dasharray:none;stroke-opacity:1;enable-background:new" />
    <rect
       transform="rotate(53.30045)"
       y="-3.7863457"
       x="21.764959"
       height="0.82028913"
       width="14.047453"
       id="rect3688"
       style="display:inline;fill:#b1b3fb;fill-opacity:1;fill-rule:nonzero;stroke:#000002;stroke-width:0.126917;stroke-linecap:round;stroke-linejoin:miter;stroke-miterlimit:4;stroke-dasharray:none;stroke-opacity:1;enable-background:new" />
    <path
       inkscape:connector-curvature="0"
       sodipodi:nodetypes="caccccc"
       id="path3780"
       d="m 22.918132,39.341422 c 0,0 0.239299,1.412591 0.619307,1.996708 0.404285,0.621435 1.675021,1.4632 1.675021,1.4632 l 5.263083,-0.04377 1.443326,-1.458867 0.852954,-1.946566 z"
       style="fill:#a0a09d;fill-opacity:1;stroke:#000000;stroke-width:0.304294;stroke-linecap:butt;stroke-linejoin:miter;stroke-miterlimit:4;stroke-dasharray:none;stroke-opacity:1" />
    <path
       d="m 679.56366,960.29846 c -0.43173,0.5014 -25.17083,-10.3193 -25.78291,-10.56308 -0.73856,-0.29416 -30.84476,-10.13499 -31.09424,-10.89776 -0.20675,-0.63215 21.53544,-17.03557 22.03818,-17.46387 0.60663,-0.5168 24.28251,-22.0808 25.06104,-21.9182 0.64522,0.13476 4.36223,27.46559 4.45676,28.12207 0.11406,0.79214 5.84212,32.11584 5.32117,32.72084 z"
       inkscape:randomized="-0.013436212"
       inkscape:rounded="0.024"
       inkscape:flatsided="false"
       sodipodi:arg2="1.7694612"
       sodipodi:arg1="0.88381136"
       sodipodi:r2="17.742689"
       sodipodi:r1="35.191051"
       sodipodi:cy="932.79163"
       sodipodi:cx="657.68152"
       sodipodi:sides="3"
       id="path4448"
       style="display:inline;fill:#1ab914;fill-opacity:1;fill-rule:evenodd;stroke:#1c6b17;stroke-width:1;stroke-linecap:round;stroke-linejoin:miter;stroke-miterlimit:4;stroke-dasharray:none;stroke-dashoffset:0;stroke-opacity:1;enable-background:new"
       sodipodi:type="star"
       transform="matrix(-0.02503207,-0.05439824,0.05439824,-0.02503207,-6.4011059,100.32991)" />
    <path
       d="m 662.25038,979.89623 c -1.03618,0.036 -18.24792,-37.892 -18.79328,-38.76785 -0.54536,-0.87585 -26.51748,-33.97515 -26.0311,-34.87904 0.48638,-0.9039 40.8879,2.81325 41.92744,2.78908 1.03954,-0.0242 42.39316,-5.9986 42.93524,-5.11919 0.54207,0.87941 -23.00734,34.50821 -23.48334,35.42457 -0.47599,0.91636 -15.51878,40.51642 -16.55496,40.55243 z"
       inkscape:randomized="-0.013436212"
       inkscape:rounded="0.024"
       inkscape:flatsided="false"
       sodipodi:arg2="2.5885906"
       sodipodi:arg1="1.541393"
       sodipodi:r2="20.824427"
       sodipodi:r1="49.493011"
       sodipodi:cy="929.88153"
       sodipodi:cx="660.59161"
       sodipodi:sides="3"
       id="path4452"
       style="display:inline;fill:#48ee14;fill-opacity:1;fill-rule:evenodd;stroke:#1c6b17;stroke-width:1;stroke-linecap:round;stroke-linejoin:miter;stroke-miterlimit:4;stroke-dasharray:none;stroke-dashoffset:0;stroke-opacity:1;enable-background:new"
       sodipodi:type="star"
       transform="matrix(-0.02503207,-0.05439824,0.05439824,-0.02503207,-6.4011059,100.32991)" />
    <path
       d="m 688.16925,941.35552 c -0.31353,0.65986 -29.84252,0.15792 -30.56846,0.2371 -0.72593,0.0792 -29.64637,6.52254 -30.06027,5.91888 -0.4139,-0.60365 14.54641,-25.74976 14.86274,-26.41008 0.31633,-0.66031 9.49431,-29.1083 10.2263,-29.17283 0.73199,-0.0645 14.7568,26.09122 15.1862,26.68327 0.4294,0.59206 20.66703,22.0838 20.35349,22.74366 z"
       inkscape:randomized="-0.013436212"
       inkscape:rounded="0.024"
       inkscape:flatsided="false"
       sodipodi:arg2="1.473825"
       sodipodi:arg1="0.42662749"
       sodipodi:r2="14.794926"
       sodipodi:r1="35.162815"
       sodipodi:cy="926.97144"
       sodipodi:cx="656.2265"
       sodipodi:sides="3"
       id="path4454"
       style="display:inline;fill:#55ee2d;fill-opacity:1;fill-rule:evenodd;stroke:#1c6b17;stroke-width:1;stroke-linecap:round;stroke-linejoin:miter;stroke-miterlimit:4;stroke-dasharray:none;stroke-dashoffset:0;stroke-opacity:1;enable-background:new"
       sodipodi:type="star"
       transform="matrix(-0.02503207,-0.05439824,0.05439824,-0.02503207,-6.4011059,100.32991)" />
    <path
       d="m 679.65402,924.36711 c 0.0629,0.4849 -17.13073,10.38773 -17.52622,10.6762 -0.39549,0.28846 -14.79523,13.94636 -15.24337,13.74687 -0.44814,-0.19949 -0.21349,-19.93384 -0.28311,-20.42159 -0.0696,-0.48775 -4.79585,-19.99209 -4.4034,-20.28048 0.39245,-0.28839 17.68343,9.77781 18.13301,9.97002 0.44958,0.1922 19.26016,5.82408 19.32309,6.30898 z"
       inkscape:randomized="-0.013436212"
       inkscape:rounded="0.024"
       inkscape:flatsided="false"
       sodipodi:arg2="0.92284256"
       sodipodi:arg1="-0.12435499"
       sodipodi:r2="9.8717251"
       sodipodi:r1="23.461939"
       sodipodi:cy="926.97144"
       sodipodi:cx="656.2265"
       sodipodi:sides="3"
       id="path4456"
       style="display:inline;fill:#6aee2d;fill-opacity:1;fill-rule:evenodd;stroke:#1c6b17;stroke-width:1;stroke-linecap:round;stroke-linejoin:miter;stroke-miterlimit:4;stroke-dasharray:none;stroke-dashoffset:0;stroke-opacity:1;enable-background:new"
       sodipodi:type="star"
       transform="matrix(-0.02503207,-0.05439824,0.05439824,-0.02503207,-6.4011059,100.32991)" />
    <circle
       r="4.6762266"
       cy="72.094543"
       cx="34.092888"
       id="path3797"
       style="fill:#bb3f43;fill-opacity:1;fill-rule:nonzero;stroke:#000000;stroke-width:0.353164;stroke-linecap:butt;stroke-linejoin:miter;stroke-miterlimit:4;stroke-dasharray:none;stroke-dashoffset:0;stroke-opacity:1" />
    <rect
       transform="rotate(48.568059)"
       ry="0.47681755"
       y="14.746052"
       x="74.764359"
       height="2.1824498"
       width="3.8612578"
       id="rect3799"
       style="fill:#5d8643;fill-opacity:1;fill-rule:nonzero;stroke:#000000;stroke-width:0.304294;stroke-linecap:butt;stroke-linejoin:miter;stroke-miterlimit:4;stroke-dasharray:none;stroke-dashoffset:0;stroke-opacity:1" />
    <rect
       style="fill:#5d8643;fill-opacity:1;fill-rule:nonzero;stroke:#000000;stroke-width:0.304294;stroke-linecap:butt;stroke-linejoin:miter;stroke-miterlimit:4;stroke-dasharray:none;stroke-dashoffset:0;stroke-opacity:1"
       id="rect3801"
       width="3.8612578"
       height="2.1824498"
       x="29.880749"
       y="65.853035"
       ry="0.47681755"
       transform="matrix(-0.66172993,0.74974229,0.74974229,0.66172993,0,0)" />
    <rect
       transform="rotate(-131.43194)"
       ry="0.47681755"
       y="-29.768616"
       x="-78.712616"
       height="2.1824498"
       width="3.8612578"
       id="rect3803"
       style="fill:#5d8643;fill-opacity:1;fill-rule:nonzero;stroke:#000000;stroke-width:0.304294;stroke-linecap:butt;stroke-linejoin:miter;stroke-miterlimit:4;stroke-dasharray:none;stroke-dashoffset:0;stroke-opacity:1" />
    <rect
       style="fill:#5d8643;fill-opacity:1;fill-rule:nonzero;stroke:#000000;stroke-width:0.304294;stroke-linecap:butt;stroke-linejoin:miter;stroke-miterlimit:4;stroke-dasharray:none;stroke-dashoffset:0;stroke-opacity:1"
       id="rect3805"
       width="3.8612578"
       height="2.1824498"
       x="-33.355091"
       y="-80.905151"
       ry="0.47681755"
       transform="matrix(0.66172993,-0.74974229,-0.74974229,-0.66172993,0,0)" />
    <rect
       ry="0.47681755"
       transform="rotate(49.73928)"
       y="26.843977"
       x="51.435307"
       height="5.7079463"
       width="20.817215"
       id="rect3807"
       style="fill:#8e3d30;fill-opacity:1;fill-rule:nonzero;stroke:#000000;stroke-width:0.304294;stroke-linecap:butt;stroke-linejoin:miter;stroke-miterlimit:4;stroke-dasharray:none;stroke-dashoffset:0;stroke-opacity:1" />
    <rect
       transform="rotate(-38.461551)"
       y="47.763149"
       x="-29.763891"
       height="3.8612578"
       width="4.5327806"
       id="rect3809"
       style="fill:#555830;fill-opacity:1;fill-rule:nonzero;stroke:#000000;stroke-width:0.304294;stroke-linecap:butt;stroke-linejoin:miter;stroke-miterlimit:4;stroke-dasharray:none;stroke-dashoffset:0;stroke-opacity:1" />
    <circle
       r="1.510927"
       cy="55.930717"
       cx="9.2938032"
       id="path3811"
       style="fill:#ffff7e;fill-opacity:1;fill-rule:nonzero;stroke:#0000f0;stroke-width:0.760735;stroke-linecap:butt;stroke-linejoin:miter;stroke-miterlimit:4;stroke-dasharray:none;stroke-dashoffset:0;stroke-opacity:1" />
    <rect
       ry="0.83940381"
       y="51.445213"
       x="19.151495"
       height="4.7006617"
       width="5.2043037"
       id="rect3813"
       style="fill:#b13736;fill-opacity:1;fill-rule:nonzero;stroke:#000001;stroke-width:0.304294;stroke-linecap:butt;stroke-linejoin:miter;stroke-miterlimit:4;stroke-dasharray:none;stroke-dashoffset:0;stroke-opacity:1" />
    <rect
       y="52.788258"
       x="41.31176"
       height="14.941389"
       width="2.5182116"
       id="rect3815"
       style="fill:#bdc1bb;fill-opacity:1;fill-rule:nonzero;stroke:#000001;stroke-width:0.304294;stroke-linecap:butt;stroke-linejoin:miter;stroke-miterlimit:4;stroke-dasharray:none;stroke-dashoffset:0;stroke-opacity:1" />
    <path
       inkscape:connector-curvature="0"
       sodipodi:nodetypes="ccczcc"
       id="path3662"
       d="M 79.329267,66.227366 C 71.803166,77.971893 58.265439,84.912378 44.757731,84.655287 l 0.06621,-33.209355 c 0,0 2.743357,0.599533 4.992042,-0.448097 2.248683,-1.04763 3.147366,-2.549738 3.147366,-2.549738 z"
       style="display:inline;fill:#aad400;fill-opacity:1;stroke:#000000;stroke-width:1.55487;stroke-opacity:1" />
    <rect
       style="display:inline;fill:#4e4f4f;fill-opacity:1;fill-rule:nonzero;stroke:#000000;stroke-width:0.193706;stroke-linecap:round;stroke-linejoin:miter;stroke-miterlimit:4;stroke-dasharray:none;stroke-dashoffset:0;stroke-opacity:1"
       id="rect3647"
       width="5.6668425"
       height="2.6704171"
       x="71.392403"
       y="10.822866"
       transform="matrix(0.83698278,0.54722923,-0.53825195,0.84278398,0,0)" />
    <rect
       ry="0"
       y="53.217274"
       x="45.164116"
       height="18.257652"
       width="6.0858779"
       id="rect3821"
       style="fill:#d2d1dd;fill-opacity:1;fill-rule:nonzero;stroke:#000001;stroke-width:0.304294;stroke-linecap:butt;stroke-linejoin:miter;stroke-miterlimit:4;stroke-dasharray:none;stroke-dashoffset:0;stroke-opacity:1" />
    <path
       inkscape:connector-curvature="0"
       sodipodi:nodetypes="cc"
       id="path3823"
       d="m 45.164112,59.303153 h 6.085883"
       style="fill:none;stroke:#000000;stroke-width:0.304294;stroke-linecap:butt;stroke-linejoin:miter;stroke-miterlimit:4;stroke-dasharray:none;stroke-opacity:1" />
    <path
       inkscape:connector-curvature="0"
       sodipodi:nodetypes="cc"
       id="path3825"
       d="m 45.164112,65.389036 h 6.085883"
       style="fill:none;stroke:#000000;stroke-width:0.304294;stroke-linecap:butt;stroke-linejoin:miter;stroke-miterlimit:4;stroke-dasharray:none;stroke-opacity:1" />
    <path
       inkscape:connector-curvature="0"
       sodipodi:nodetypes="caccacc"
       id="path3827"
       d="m 45.338714,79.527315 c 0,0 7.850925,-0.653714 11.529534,-1.940703 3.760741,-1.315724 10.453032,-5.796794 10.453032,-5.796794 l 3.021853,3.950106 c 0,0 -7.802959,5.111828 -12.176263,6.581958 -4.104228,1.379679 -12.837971,1.979961 -12.837971,1.979961 l 0.0099,-4.774528 z"
       style="fill:#a8a8b0;fill-opacity:1;stroke:#000000;stroke-width:0.304294;stroke-linecap:butt;stroke-linejoin:miter;stroke-miterlimit:4;stroke-dasharray:none;stroke-opacity:1" />
    <path
       inkscape:connector-curvature="0"
       sodipodi:nodetypes="cc"
       id="path3829"
       d="m 60.604501,75.734757 2.132333,4.353538"
       style="fill:none;stroke:#000000;stroke-width:0.304294;stroke-linecap:butt;stroke-linejoin:miter;stroke-miterlimit:4;stroke-dasharray:none;stroke-opacity:1" />
    <path
       inkscape:connector-curvature="0"
       sodipodi:nodetypes="cc"
       id="path3831"
       d="m 53.052448,78.666731 0.710781,4.708926"
       style="fill:none;stroke:#000000;stroke-width:0.304294;stroke-linecap:butt;stroke-linejoin:miter;stroke-miterlimit:4;stroke-dasharray:none;stroke-opacity:1" />
    <rect
       ry="0.62193364"
       transform="rotate(-48.760287)"
       y="98.311127"
       x="-5.6504493"
       height="4.0869975"
       width="6.7524099"
       id="rect3833"
       style="fill:#d2d1dd;fill-opacity:1;fill-rule:nonzero;stroke:#000001;stroke-width:0.304294;stroke-linecap:butt;stroke-linejoin:miter;stroke-miterlimit:4;stroke-dasharray:none;stroke-dashoffset:0;stroke-opacity:1" />
    <ellipse
       ry="1.1552054"
       rx="2.5270119"
       cy="100.13291"
       cx="1.3474749"
       transform="rotate(-46.726983)"
       id="path3835"
       style="fill:#3b3c3d;fill-opacity:1;fill-rule:nonzero;stroke:#5c5e5f;stroke-width:0.247279;stroke-linecap:butt;stroke-linejoin:miter;stroke-miterlimit:4;stroke-dasharray:none;stroke-dashoffset:0;stroke-opacity:1" />
  </g>
</svg>
