<?xml version="1.0" encoding="UTF-8" standalone="no"?>
<svg
   xmlns:dc="http://purl.org/dc/elements/1.1/"
   xmlns:cc="http://creativecommons.org/ns#"
   xmlns:rdf="http://www.w3.org/1999/02/22-rdf-syntax-ns#"
   xmlns:svg="http://www.w3.org/2000/svg"
   xmlns="http://www.w3.org/2000/svg"
   xmlns:xlink="http://www.w3.org/1999/xlink"
   xmlns:sodipodi="http://sodipodi.sourceforge.net/DTD/sodipodi-0.dtd"
   xmlns:inkscape="http://www.inkscape.org/namespaces/inkscape"
   width="900"
   height="900"
   id="svg2396"
   sodipodi:version="0.32"
   inkscape:version="1.0.1 (3bc2e813f5, 2020-09-07)"
   sodipodi:docname="machinery_hab.svg"
   inkscape:output_extension="org.inkscape.output.svg.inkscape"
   version="1.0"
   inkscape:export-filename="/home/scud/Documents/msp/concept_art/lander_hab_color.png"
   inkscape:export-xdpi="99.859245"
   inkscape:export-ydpi="99.859245"
   style="enable-background:new">
  <defs
     id="defs2398">
    <linearGradient
       id="linearGradient3282">
      <stop
         style="stop-color:#000000;stop-opacity:1;"
         offset="0"
         id="stop3284" />
      <stop
         style="stop-color:#7b7b7b;stop-opacity:1;"
         offset="1"
         id="stop3286" />
    </linearGradient>
    <linearGradient
       id="linearGradient3273">
      <stop
         style="stop-color:#000002;stop-opacity:1;"
         offset="0"
         id="stop3275" />
      <stop
         style="stop-color:#777779;stop-opacity:0.99137932;"
         offset="1"
         id="stop3277" />
    </linearGradient>
    <linearGradient
       id="linearGradient3264">
      <stop
         style="stop-color:#040000;stop-opacity:1;"
         offset="0"
         id="stop3266" />
      <stop
         style="stop-color:#848484;stop-opacity:1;"
         offset="1"
         id="stop3268" />
    </linearGradient>
    <linearGradient
       id="linearGradient3255">
      <stop
         style="stop-color:#000000;stop-opacity:1;"
         offset="0"
         id="stop3257" />
      <stop
         style="stop-color:#828282;stop-opacity:1;"
         offset="1"
         id="stop3259" />
    </linearGradient>
    <radialGradient
       inkscape:collect="always"
       xlink:href="#linearGradient3255"
       id="radialGradient3261"
       cx="295.45956"
       cy="93.1082"
       fx="295.45956"
       fy="93.1082"
       r="9.4972916"
       gradientTransform="matrix(-1.6457037,19.037556,19.578486,1.7812529,-883.8441,-4973.9737)"
       gradientUnits="userSpaceOnUse" />
    <radialGradient
       inkscape:collect="always"
       xlink:href="#linearGradient3264"
       id="radialGradient3270"
       cx="337.68759"
       cy="93.485535"
       fx="337.68759"
       fy="93.485535"
       r="9.3880892"
       gradientTransform="matrix(22.518254,0.41256269,0.32403343,-18.614048,-6613.0192,2408.2487)"
       gradientUnits="userSpaceOnUse" />
    <radialGradient
       inkscape:collect="always"
       xlink:href="#linearGradient3273"
       id="radialGradient3279"
       cx="336.77481"
       cy="134.02927"
       fx="336.77481"
       fy="134.02927"
       r="9.4417067"
       gradientTransform="matrix(0.24587292,-18.188764,-17.343187,-0.24674191,3263.475,6413.6081)"
       gradientUnits="userSpaceOnUse" />
    <radialGradient
       inkscape:collect="always"
       xlink:href="#linearGradient3282"
       id="radialGradient3319"
       gradientUnits="userSpaceOnUse"
       gradientTransform="matrix(-17.29948,0.26600991,0.26155986,17.903774,5489.0369,-2229.1042)"
       cx="293.59091"
       cy="134.23401"
       fx="293.59091"
       fy="134.23401"
       r="9.5718613" />
    <linearGradient
       id="linearGradient5110">
      <stop
         style="stop-color:#141010;stop-opacity:1;"
         offset="0"
         id="stop5112" />
      <stop
         style="stop-color:#2f3137;stop-opacity:0.97647059;"
         offset="1"
         id="stop5114" />
    </linearGradient>
    <linearGradient
       inkscape:collect="always"
       xlink:href="#linearGradient5110"
       id="linearGradient5704"
       gradientUnits="userSpaceOnUse"
       gradientTransform="matrix(1.4837908,0,0,1.4463373,-970.80586,16.96506)"
       x1="445"
       y1="270"
       x2="430"
       y2="270" />
    <linearGradient
       inkscape:collect="always"
       xlink:href="#linearGradient5110"
       id="linearGradient5707"
       gradientUnits="userSpaceOnUse"
       gradientTransform="matrix(1.4837908,0,0,1.4463373,-970.80586,16.96506)"
       x1="445"
       y1="215"
       x2="430"
       y2="215" />
    <linearGradient
       inkscape:collect="always"
       xlink:href="#linearGradient5110"
       id="linearGradient5714"
       gradientUnits="userSpaceOnUse"
       gradientTransform="matrix(1.4837908,0,0,1.4463373,-970.80586,16.96506)"
       x1="294.60699"
       y1="240"
       x2="335"
       y2="240" />
    <linearGradient
       id="linearGradient3708">
      <stop
         style="stop-color:#8f8f97;stop-opacity:1;"
         offset="0"
         id="stop3710" />
      <stop
         style="stop-color:#585456;stop-opacity:1;"
         offset="1"
         id="stop3712" />
    </linearGradient>
    <linearGradient
       inkscape:collect="always"
       xlink:href="#linearGradient3708"
       id="linearGradient5796"
       gradientUnits="userSpaceOnUse"
       gradientTransform="matrix(1.4100657,0,0,1.374473,-1107.3413,31.918356)"
       x1="439.88477"
       y1="517.99426"
       x2="440.67078"
       y2="498.57025" />
    <linearGradient
       id="linearGradient5274">
      <stop
         style="stop-color:#9d4199;stop-opacity:1;"
         offset="0"
         id="stop5276" />
      <stop
         id="stop5282"
         offset="0.5"
         style="stop-color:#be7e95;stop-opacity:0.99215686;" />
      <stop
         style="stop-color:#9d4199;stop-opacity:0.96862745;"
         offset="1"
         id="stop5278" />
    </linearGradient>
    <linearGradient
       id="linearGradient5264">
      <stop
         style="stop-color:#494a4a;stop-opacity:1;"
         offset="0"
         id="stop5266" />
      <stop
         style="stop-color:#872d87;stop-opacity:0.96078432;"
         offset="1"
         id="stop5268" />
    </linearGradient>
    <linearGradient
       inkscape:collect="always"
       xlink:href="#linearGradient5274"
       id="linearGradient5852"
       gradientUnits="userSpaceOnUse"
       gradientTransform="matrix(1.6344198,0,0,1.5931641,-155.30712,-1661.8391)"
       x1="304.60699"
       y1="660"
       x2="345.39301"
       y2="660" />
    <linearGradient
       inkscape:collect="always"
       xlink:href="#linearGradient5264"
       id="linearGradient5855"
       gradientUnits="userSpaceOnUse"
       gradientTransform="matrix(1.6344198,0,0,1.5931641,-155.30712,-1661.8391)"
       x1="289.60699"
       y1="660"
       x2="305.39301"
       y2="660" />
  </defs>
  <sodipodi:namedview
     id="base"
     pagecolor="#ffffff"
     bordercolor="#666666"
     borderopacity="1.0"
     gridtolerance="10000"
     guidetolerance="10"
     objecttolerance="10"
     inkscape:pageopacity="0.0"
     inkscape:pageshadow="2"
     inkscape:zoom="0.80104641"
     inkscape:cx="149.46851"
     inkscape:cy="523.05745"
     inkscape:document-units="px"
     inkscape:current-layer="layer6"
     showgrid="true"
     inkscape:snap-global="false"
     inkscape:window-width="1920"
     inkscape:window-height="1057"
     inkscape:window-x="-8"
     inkscape:window-y="-8"
     inkscape:snap-to-guides="false"
     showguides="false"
     inkscape:guide-bbox="true"
     inkscape:snap-grids="true"
     inkscape:snap-object-midpoints="true"
     inkscape:window-maximized="1"
     fit-margin-top="0"
     fit-margin-left="0"
     fit-margin-right="0"
     fit-margin-bottom="0"
     inkscape:document-rotation="0">
    <inkscape:grid
       type="xygrid"
       id="grid2427"
       visible="true"
       enabled="true"
       empspacing="5"
       snapvisiblegridlinesonly="true"
       originx="-0.004942895"
       originy="-0.010977786"
       spacingx="1"
       spacingy="1" />
    <sodipodi:guide
       orientation="1,0"
       position="31.552615,37.725682"
       id="guide2842" />
    <sodipodi:guide
       orientation="0,1"
       position="-8.059844,30.001804"
       id="guide2844" />
  </sodipodi:namedview>
  <metadata
     id="metadata2401">
    <rdf:RDF>
      <cc:Work
         rdf:about="">
        <dc:format>image/svg+xml</dc:format>
        <dc:type
           rdf:resource="http://purl.org/dc/dcmitype/StillImage" />
        <dc:title />
      </cc:Work>
    </rdf:RDF>
  </metadata>
  <g
     inkscape:label="foot pads"
     inkscape:groupmode="layer"
     id="layer1"
     style="display:inline"
     transform="translate(-286.65647,-83.38369)">
    <path
       style="display:inline;fill:url(#radialGradient3261);fill-opacity:1;fill-rule:evenodd;stroke:#000000;stroke-width:4.59196px;stroke-linecap:butt;stroke-linejoin:miter;stroke-opacity:1"
       d="m 340.89409,692.33858 c 0,0 -112.72882,115.50331 7.04555,238.99264 123.35387,112.65178 227.77299,-8.98984 227.77299,-8.98984"
       id="path2415"
       sodipodi:nodetypes="ccc"
       inkscape:connector-curvature="0" />
    <path
       style="display:inline;fill:url(#radialGradient3270);fill-opacity:1;fill-rule:evenodd;stroke:#000000;stroke-width:4.59196px;stroke-linecap:butt;stroke-linejoin:miter;stroke-opacity:1"
       d="m 904.82462,926.44705 c 0,0 112.58798,120.82515 232.96018,-2.05075 109.8084,-126.54819 -8.7629,-231.94534 -8.7629,-231.94534"
       id="path2417"
       sodipodi:nodetypes="ccc"
       inkscape:connector-curvature="0" />
    <path
       style="display:inline;fill:url(#radialGradient3279);fill-opacity:1;fill-rule:evenodd;stroke:#000000;stroke-width:4.59196px;stroke-linecap:butt;stroke-linejoin:miter;stroke-opacity:1"
       d="m 1135.2044,372.03815 c 0,0 112.7288,-115.50349 -7.0455,-238.99282 -123.354,-112.65183 -226.0908,10.71563 -226.0908,10.71563"
       id="path2419"
       sodipodi:nodetypes="ccc"
       inkscape:connector-curvature="0" />
    <path
       style="display:inline;fill:url(#radialGradient3319);fill-opacity:1;fill-rule:evenodd;stroke:#000000;stroke-width:4.59196px;stroke-linecap:butt;stroke-linejoin:miter;stroke-opacity:1"
       d="m 574.04546,138.72167 c 0,0 -119.31676,-120.825397 -239.68915,2.05058 -109.80814,126.54819 13.80964,237.12295 13.80964,237.12295"
       id="path2421"
       sodipodi:nodetypes="ccc"
       inkscape:connector-curvature="0" />
  </g>
  <g
     inkscape:groupmode="layer"
     id="layer2"
     style="display:inline"
     transform="translate(-286.65647,-83.38369)"
     inkscape:label="frame">
    <ellipse
       style="fill:#ffffff;fill-opacity:1;fill-rule:evenodd;stroke:#000000;stroke-width:4.86297;stroke-linecap:round;stroke-linejoin:miter;stroke-miterlimit:4;stroke-dasharray:none;stroke-dashoffset:0;stroke-opacity:1"
       id="path3634"
       cx="736.65643"
       cy="533.38367"
       inkscape:label="outer wall"
       rx="447.56851"
       ry="447.56839" />
    <circle
       style="fill:#ffffff;fill-opacity:1;fill-rule:evenodd;stroke:#000000;stroke-width:4.95911;stroke-linecap:round;stroke-linejoin:miter;stroke-miterlimit:4;stroke-dasharray:none;stroke-dashoffset:0;stroke-opacity:1"
       id="path3632"
       cx="737.19189"
       cy="533.93951"
       inkscape:label="inner wall"
       r="423.02045" />
    <path
       style="color:#000000;display:inline;overflow:visible;visibility:visible;fill:#73797a;fill-opacity:1;fill-rule:nonzero;stroke:none;stroke-width:15.5647;marker:none;enable-background:accumulate"
       d="M 675.0491,976.12725 C 510.29425,952.09916 374.14006,841.40513 316.65638,684.75225 282.31832,591.17514 281.98425,479.82431 315.75713,385.02307 360.10599,260.53491 460.50211,158.98009 582.98772,114.70841 747.66718,55.185996 928.31666,94.574513 1051.6071,216.88544 c 70.6066,70.04537 113.9786,156.20331 128.9373,256.13152 4.6616,31.14094 3.9951,96.42011 -1.3162,128.94139 -19.3735,118.62043 -79.5398,217.78655 -176.3811,290.71056 -90.51551,68.16046 -215.13582,99.88918 -327.79806,83.45834 v 0 z m 135.67434,-27.37432 c 13.95746,-2.2759 40.36929,-9.05493 58.69291,-15.06452 136.26695,-44.6913 241.16735,-156.27221 276.68785,-294.30804 16.3646,-63.59398 16.3935,-148.67373 0.07,-211.20699 -35.5766,-136.31482 -139.1613,-248.11181 -271.34988,-292.8648 -124.33216,-42.093151 -260.879,-25.14129 -367.9895,45.68475 -153.41732,101.4461 -223.01994,281.83548 -177.45669,459.9152 42.77949,167.19948 188.33638,292.4889 362.35996,311.90458 28.52752,3.18279 86.75033,1.19605 118.98525,-4.06018 z"
       id="path3637"
       inkscape:connector-curvature="0"
       inkscape:label="Thickness" />
    <circle
       style="display:inline;opacity:0.5;fill:#cececc;fill-opacity:1;fill-rule:nonzero;stroke:none;stroke-width:15.6828;enable-background:new"
       id="path5608"
       cx="736.84924"
       cy="534.75641"
       inkscape:label="grey floor"
       r="420.5" />
    <g
       id="g6069"
       inkscape:label="green roll"
       transform="matrix(1.4968722,0,0,1.4968722,507.15903,306.00903)">
      <path
         inkscape:connector-curvature="0"
         style="opacity:0.5;fill:#00ab00;fill-opacity:1;fill-rule:nonzero;stroke:none"
         d="m 60.058273,255.40706 c -7.00964,0 -12.697163,5.68752 -12.697163,12.69716 0,7.00964 5.687523,12.68049 12.697163,12.68049 7.00964,0 12.68049,-5.67085 12.68049,-12.68049 0,-7.00964 -5.67085,-12.69716 -12.68049,-12.69716 z m 0,9.64784 c 1.68231,0 3.03265,1.367 3.03265,3.04932 0,1.68231 -1.35034,3.03265 -3.03265,3.03265 -1.68231,0 -3.04932,-1.35034 -3.04932,-3.03265 0,-1.68232 1.36701,-3.04932 3.04932,-3.04932 z"
         id="path4131" />
      <path
         inkscape:connector-curvature="0"
         style="opacity:0.5;fill:#525255;fill-opacity:1;fill-rule:nonzero;stroke:#000000;stroke-width:0.533214;stroke-linecap:round;stroke-linejoin:miter;stroke-miterlimit:4;stroke-dasharray:none;stroke-dashoffset:0;stroke-opacity:1"
         d="m 59.425083,257.55658 c -5.63469,0.28562 -10.11441,4.95862 -10.11441,10.66428 0,5.88971 4.77457,10.66427 10.66428,10.66427 5.88972,0 10.66428,-4.77456 10.66428,-10.66427 0,-5.88972 -4.77456,-10.66428 -10.66428,-10.66428 -0.18405,0 -0.36811,-0.009 -0.54987,0 z m 0.54987,7.54831 c 0.40578,0 0.79814,0.0679 1.14974,0.21662 0.35161,0.14871 0.66721,0.36727 0.93313,0.63319 0.26592,0.26592 0.48448,0.58151 0.63319,0.93312 0.14872,0.35161 0.21662,0.74397 0.21662,1.14974 0,0.40578 -0.0679,0.79814 -0.21662,1.14975 -0.14871,0.3516 -0.36727,0.6672 -0.63319,0.93312 -0.26592,0.26592 -0.58152,0.48447 -0.93313,0.63319 -0.3516,0.14872 -0.74396,0.21662 -1.14974,0.21662 -0.40577,0 -0.79813,-0.0679 -1.14974,-0.21662 -0.3516,-0.14872 -0.66721,-0.36727 -0.93312,-0.63319 -0.26592,-0.26592 -0.48448,-0.58152 -0.6332,-0.93312 -0.14871,-0.35161 -0.21661,-0.74397 -0.21661,-1.14975 0,-0.40577 0.0679,-0.79813 0.21661,-1.14974 0.14872,-0.35161 0.36728,-0.6672 0.6332,-0.93312 0.26591,-0.26592 0.58152,-0.48448 0.93312,-0.63319 0.35161,-0.14872 0.74397,-0.21662 1.14974,-0.21662 z"
         id="path4133" />
      <path
         inkscape:connector-curvature="0"
         style="opacity:0.5;fill:none;stroke:#00ab00;stroke-width:1px;stroke-linecap:butt;stroke-linejoin:miter;stroke-opacity:1"
         d="m 48.308683,261.97316 c 0,0 2.085,-8.66143 5.39533,-11.10805 3.87448,-2.86358 9.96939,-0.0734 14.28179,-2.22161 4.35275,-2.16833 5.65984,-9.46402 10.473287,-10.15594 4.49664,-0.64637 12.06017,6.34746 12.06017,6.34746"
         id="path4135"
         sodipodi:nodetypes="caaac" />
    </g>
  </g>
  <g
     inkscape:groupmode="layer"
     id="layer6"
     inkscape:label="interior"
     style="opacity:0.5"
     transform="translate(-0.00494289,-2.2949493)">
    <g
       id="g148"
       inkscape:label="long machine 1"
       transform="matrix(0.89996597,0,0,0.89996597,10.930795,-31.439791)">
      <rect
         y="277.30582"
         x="-674.04767"
         height="173.56049"
         width="445.1373"
         id="rect4516"
         style="display:inline;fill:#ad552c;fill-opacity:1;fill-rule:nonzero;stroke:#050202;stroke-width:1.15145;stroke-linecap:round;stroke-linejoin:miter;stroke-miterlimit:4;stroke-dasharray:none;stroke-dashoffset:0;stroke-opacity:1;enable-background:new"
         transform="rotate(-90)" />
      <rect
         style="display:inline;fill:#9b0c0c;fill-opacity:1;fill-rule:nonzero;stroke:#050202;stroke-width:5.54628;stroke-linecap:round;stroke-linejoin:miter;stroke-miterlimit:4;stroke-dasharray:none;stroke-dashoffset:0;stroke-opacity:1;enable-background:new"
         id="rect3666"
         width="178.05493"
         height="159.09712"
         x="-666.6286"
         y="284.53751"
         ry="14.463373"
         rx="14.837909"
         transform="rotate(-90)" />
      <rect
         style="display:inline;fill:url(#linearGradient5714);fill-opacity:1;fill-rule:nonzero;stroke:#050202;stroke-width:1.15145;stroke-linecap:round;stroke-linejoin:miter;stroke-miterlimit:4;stroke-dasharray:none;stroke-dashoffset:0;stroke-opacity:1;enable-background:new"
         id="rect3668"
         width="59.351635"
         height="130.17036"
         x="-533.08765"
         y="299.00085"
         transform="rotate(-90)" />
      <rect
         style="display:inline;fill:#5f5d5e;fill-opacity:1;fill-rule:nonzero;stroke:#050202;stroke-width:1.15145;stroke-linecap:round;stroke-linejoin:miter;stroke-miterlimit:4;stroke-dasharray:none;stroke-dashoffset:0;stroke-opacity:1;enable-background:new"
         id="rect5118"
         width="140.96014"
         height="144.63371"
         x="-473.7359"
         y="291.7692"
         transform="rotate(-90)" />
      <rect
         style="display:inline;fill:#5f5d5e;fill-opacity:1;fill-rule:nonzero;stroke:#050202;stroke-width:2.61639;stroke-linecap:round;stroke-linejoin:miter;stroke-miterlimit:4;stroke-dasharray:none;stroke-dashoffset:0;stroke-opacity:1;enable-background:new"
         id="rect5120"
         width="111.28432"
         height="115.70699"
         x="-458.89804"
         y="306.23257"
         ry="14.463373"
         transform="rotate(-90)" />
      <rect
         style="display:inline;fill:#3e3d3c;fill-opacity:1;fill-rule:nonzero;stroke:#050202;stroke-width:2.61639;stroke-linecap:round;stroke-linejoin:miter;stroke-miterlimit:4;stroke-dasharray:none;stroke-dashoffset:0;stroke-opacity:1;enable-background:new"
         id="rect5122"
         width="89.027466"
         height="65.085182"
         x="-325.35681"
         y="378.54944"
         rx="7.4189544"
         ry="7.2316866"
         transform="rotate(-90)" />
      <rect
         style="display:inline;fill:#8a8510;fill-opacity:1;fill-rule:nonzero;stroke:#050202;stroke-width:2.61639;stroke-linecap:round;stroke-linejoin:miter;stroke-miterlimit:4;stroke-dasharray:none;stroke-dashoffset:0;stroke-opacity:1;enable-background:new"
         id="rect5124"
         width="86.589859"
         height="85.741417"
         x="-322.91931"
         y="285.57635"
         rx="7.4189544"
         ry="7.2316866"
         transform="rotate(-90)" />
      <rect
         style="display:inline;fill:url(#linearGradient5707);fill-opacity:1;fill-rule:nonzero;stroke:#050202;stroke-width:1.15145;stroke-linecap:round;stroke-linejoin:miter;stroke-miterlimit:4;stroke-dasharray:none;stroke-dashoffset:0;stroke-opacity:1;enable-background:new"
         id="rect5126"
         width="22.256866"
         height="57.853493"
         x="-332.77573"
         y="299.00085"
         transform="rotate(-90)" />
      <rect
         style="display:inline;fill:url(#linearGradient5704);fill-opacity:1;fill-rule:nonzero;stroke:#050202;stroke-width:1.15145;stroke-linecap:round;stroke-linejoin:miter;stroke-miterlimit:4;stroke-dasharray:none;stroke-dashoffset:0;stroke-opacity:1;enable-background:new"
         id="rect5136"
         width="22.256849"
         height="43.390102"
         x="-332.77573"
         y="385.78113"
         transform="rotate(-90)" />
      <rect
         style="display:inline;fill:#050505;fill-opacity:1;fill-rule:nonzero;stroke:#050202;stroke-width:1.15145;stroke-linecap:round;stroke-linejoin:miter;stroke-miterlimit:4;stroke-dasharray:none;stroke-dashoffset:0;stroke-opacity:1;enable-background:new"
         id="rect5146"
         width="66.770592"
         height="7.2316866"
         x="-436.6412"
         y="393.01279"
         ry="3.6158433"
         transform="rotate(-90)" />
      <rect
         ry="3.6158433"
         y="371.31772"
         x="-436.6412"
         height="7.2316866"
         width="66.770592"
         id="rect5148"
         style="display:inline;fill:#050505;fill-opacity:1;fill-rule:nonzero;stroke:#050202;stroke-width:1.15145;stroke-linecap:round;stroke-linejoin:miter;stroke-miterlimit:4;stroke-dasharray:none;stroke-dashoffset:0;stroke-opacity:1;enable-background:new"
         transform="rotate(-90)" />
      <rect
         style="display:inline;fill:#050505;fill-opacity:1;fill-rule:nonzero;stroke:#050202;stroke-width:1.15145;stroke-linecap:round;stroke-linejoin:miter;stroke-miterlimit:4;stroke-dasharray:none;stroke-dashoffset:0;stroke-opacity:1;enable-background:new"
         id="rect5150"
         width="66.770592"
         height="7.2316866"
         x="-436.6412"
         y="349.62268"
         ry="3.6158433"
         transform="rotate(-90)" />
      <rect
         ry="3.6158433"
         y="327.92758"
         x="-436.6412"
         height="7.2316866"
         width="66.770592"
         id="rect5152"
         style="display:inline;fill:#050505;fill-opacity:1;fill-rule:nonzero;stroke:#050202;stroke-width:1.15145;stroke-linecap:round;stroke-linejoin:miter;stroke-miterlimit:4;stroke-dasharray:none;stroke-dashoffset:0;stroke-opacity:1;enable-background:new"
         transform="rotate(-90)" />
    </g>
    <g
       id="g156"
       inkscape:label="shreder"
       transform="rotate(-62.867138,385.98637,399.81832)">
      <rect
         style="display:inline;fill:#909797;fill-opacity:1;fill-rule:nonzero;stroke:#050202;stroke-width:1.09423;stroke-linecap:round;stroke-linejoin:miter;stroke-miterlimit:4;stroke-dasharray:none;stroke-dashoffset:0;stroke-opacity:1;enable-background:new"
         id="rect3704"
         width="127.81599"
         height="84.543022"
         x="-548.14661"
         y="717.18982"
         transform="rotate(-90)" />
      <rect
         style="display:inline;fill:url(#linearGradient5796);fill-opacity:1;fill-rule:nonzero;stroke:#050202;stroke-width:1.09423;stroke-linecap:round;stroke-linejoin:miter;stroke-miterlimit:4;stroke-dasharray:none;stroke-dashoffset:0;stroke-opacity:1;enable-background:new"
         id="rect3706"
         width="127.72997"
         height="31.682661"
         x="-548.14661"
         y="717.18982"
         transform="rotate(-90)" />
      <rect
         style="display:inline;fill:#f25c55;fill-opacity:1;fill-rule:nonzero;stroke:#7f0202;stroke-width:1.09423;stroke-linecap:round;stroke-linejoin:miter;stroke-miterlimit:4;stroke-dasharray:none;stroke-dashoffset:0;stroke-opacity:1;enable-background:new"
         id="rect3716"
         width="18.120108"
         height="5.3523412"
         x="-449.52689"
         y="733.71021"
         transform="rotate(-90)" />
      <rect
         style="display:inline;fill:#f2cecf;fill-opacity:1;fill-rule:nonzero;stroke:#7f0202;stroke-width:1.09423;stroke-linecap:round;stroke-linejoin:miter;stroke-miterlimit:4;stroke-dasharray:none;stroke-dashoffset:0;stroke-opacity:1;enable-background:new"
         id="rect3718"
         width="7.1382232"
         height="12.845616"
         x="-479.17776"
         y="727.28741"
         transform="rotate(-90)" />
      <rect
         style="display:inline;fill:#f2cecf;fill-opacity:1;fill-rule:nonzero;stroke:#7f0202;stroke-width:1.09423;stroke-linecap:round;stroke-linejoin:miter;stroke-miterlimit:4;stroke-dasharray:none;stroke-dashoffset:0;stroke-opacity:1;enable-background:new"
         id="rect3720"
         width="6.5891309"
         height="13.380853"
         x="-491.25787"
         y="726.75214"
         transform="rotate(-90)" />
      <rect
         style="display:inline;fill:#f2cecf;fill-opacity:1;fill-rule:nonzero;stroke:#7f0202;stroke-width:1.09423;stroke-linecap:round;stroke-linejoin:miter;stroke-miterlimit:4;stroke-dasharray:none;stroke-dashoffset:0;stroke-opacity:1;enable-background:new"
         id="rect3722"
         width="6.5891237"
         height="13.380792"
         x="-503.33795"
         y="726.75214"
         transform="rotate(-90)" />
    </g>
    <g
       id="g174"
       inkscape:label="long machine 2"
       transform="translate(10,38)">
      <rect
         style="fill:#c76933;fill-opacity:1;fill-rule:nonzero;stroke:#000000;stroke-width:1.63566;stroke-linecap:round;stroke-linejoin:miter;stroke-miterlimit:4;stroke-dasharray:none;stroke-dashoffset:0;stroke-opacity:1"
         id="rect5619"
         width="151.45938"
         height="446.03653"
         x="531.77155"
         y="204.26491" />
      <rect
         style="display:inline;fill:#52536d;fill-opacity:1;fill-rule:nonzero;stroke:#050202;stroke-width:1.09423;stroke-linecap:round;stroke-linejoin:miter;stroke-miterlimit:4;stroke-dasharray:none;stroke-dashoffset:0;stroke-opacity:1;enable-background:new"
         id="rect3696"
         width="235.09018"
         height="162.41161"
         x="-657.70306"
         y="528.08051"
         transform="rotate(-90)" />
      <rect
         style="display:inline;fill:#909797;fill-opacity:1;fill-rule:nonzero;stroke:#050202;stroke-width:1.09423;stroke-linecap:round;stroke-linejoin:miter;stroke-miterlimit:4;stroke-dasharray:none;stroke-dashoffset:0;stroke-opacity:1;enable-background:new"
         id="rect3702"
         width="73.037735"
         height="37.821873"
         x="-657.70306"
         y="694.94177"
         transform="rotate(-90)" />
      <rect
         style="display:inline;fill:#80807c;fill-opacity:1;fill-rule:nonzero;stroke:#050202;stroke-width:1.09423;stroke-linecap:round;stroke-linejoin:miter;stroke-miterlimit:4;stroke-dasharray:none;stroke-dashoffset:0;stroke-opacity:1;enable-background:new"
         id="rect3698"
         width="29.671568"
         height="191.33415"
         x="-659.98541"
         y="514.73163"
         ry="11.124081"
         transform="rotate(-90)" />
      <rect
         style="display:inline;fill:#b3b7bd;fill-opacity:1;fill-rule:nonzero;stroke:#050202;stroke-width:1.09423;stroke-linecap:round;stroke-linejoin:miter;stroke-miterlimit:4;stroke-dasharray:none;stroke-dashoffset:0;stroke-opacity:1;enable-background:new"
         id="rect3700"
         width="59.343147"
         height="62.294853"
         x="-673.68005"
         y="577.02637"
         transform="rotate(-90)" />
      <path
         style="display:inline;fill:none;stroke:#000000;stroke-width:1.39215px;stroke-linecap:butt;stroke-linejoin:miter;stroke-opacity:1;enable-background:new"
         d="m 656.73286,627.91919 0.57086,-204.45951"
         id="path3724"
         inkscape:connector-curvature="0" />
      <path
         style="display:inline;fill:none;stroke:#000000;stroke-width:1.39215px;stroke-linecap:butt;stroke-linejoin:miter;stroke-opacity:1;enable-background:new"
         d="M 561.09053,627.91919 V 423.45968"
         id="path3726"
         inkscape:connector-curvature="0" />
      <path
         style="display:inline;fill:none;stroke:#000000;stroke-width:1.39215px;stroke-linecap:butt;stroke-linejoin:miter;stroke-opacity:1;enable-background:new"
         d="M 609.19711,613.81854 V 423.45968"
         id="path3728"
         inkscape:connector-curvature="0" />
      <path
         style="display:inline;fill:none;stroke:#000000;stroke-width:1.39215px;stroke-linecap:butt;stroke-linejoin:miter;stroke-opacity:1;enable-background:new"
         d="m 639.16546,666.79964 c 0,0 46.51001,13.73471 66.38696,3.68141 11.70487,-5.92003 22.12896,-33.1326 22.12896,-33.1326"
         id="path3730"
         sodipodi:nodetypes="cac"
         inkscape:connector-curvature="0" />
      <path
         style="display:inline;fill:none;stroke:#000000;stroke-width:1.39215px;stroke-linecap:butt;stroke-linejoin:miter;stroke-opacity:1;enable-background:new"
         d="m 639.16546,661.27756 c 0,0 45.37365,14.35479 64.5927,4.295 9.65656,-5.05453 17.34432,-28.22411 17.34432,-28.22411"
         id="path3732"
         sodipodi:nodetypes="cac"
         inkscape:connector-curvature="0" />
      <ellipse
         transform="rotate(-90)"
         style="display:inline;fill:#0a0c0c;fill-opacity:1;fill-rule:nonzero;stroke:#050202;stroke-width:1.09423;stroke-linecap:round;stroke-linejoin:miter;stroke-miterlimit:4;stroke-dasharray:none;stroke-dashoffset:0;stroke-opacity:1;enable-background:new"
         id="path3734"
         cx="-637.65515"
         cy="724.09283"
         rx="2.7610564"
         ry="7.7750468" />
      <rect
         style="display:inline;fill:#8cbed2;fill-opacity:1;fill-rule:nonzero;stroke:#050202;stroke-width:1.26833;stroke-linecap:round;stroke-linejoin:miter;stroke-miterlimit:4;stroke-dasharray:none;stroke-dashoffset:0;stroke-opacity:1;enable-background:new"
         id="rect5260"
         width="138.92569"
         height="175.24806"
         x="179.74898"
         y="-697.97491"
         transform="rotate(90)" />
      <rect
         style="display:inline;fill:url(#linearGradient5855);fill-opacity:1;fill-rule:nonzero;stroke:#050202;stroke-width:1.26833;stroke-linecap:round;stroke-linejoin:miter;stroke-miterlimit:4;stroke-dasharray:none;stroke-dashoffset:0;stroke-opacity:1;enable-background:new"
         id="rect5262"
         width="24.5163"
         height="175.24806"
         x="318.67471"
         y="-697.97491"
         transform="rotate(90)" />
      <rect
         style="display:inline;fill:url(#linearGradient5852);fill-opacity:1;fill-rule:nonzero;stroke:#050202;stroke-width:1.26833;stroke-linecap:round;stroke-linejoin:miter;stroke-miterlimit:4;stroke-dasharray:none;stroke-dashoffset:0;stroke-opacity:1;enable-background:new"
         id="rect5272"
         width="65.376793"
         height="175.24806"
         x="343.19095"
         y="-697.97491"
         transform="rotate(90)" />
      <rect
         style="display:inline;fill:#050204;fill-opacity:1;fill-rule:nonzero;stroke:#050202;stroke-width:1.26833;stroke-linecap:round;stroke-linejoin:miter;stroke-miterlimit:4;stroke-dasharray:none;stroke-dashoffset:0;stroke-opacity:1;enable-background:new"
         id="rect5284"
         width="8.1720991"
         height="159.31642"
         x="326.84677"
         y="-690.00903"
         transform="rotate(90)" />
      <rect
         style="display:inline;fill:#31ab9b;fill-opacity:1;fill-rule:nonzero;stroke:#050202;stroke-width:1.26833;stroke-linecap:round;stroke-linejoin:miter;stroke-miterlimit:4;stroke-dasharray:none;stroke-dashoffset:0;stroke-opacity:1;enable-background:new"
         id="rect5286"
         width="122.58152"
         height="159.31642"
         x="187.92104"
         y="-690.00903"
         ry="15.931642"
         transform="rotate(90)" />
    </g>
    <g
       id="g128"
       inkscape:label="bloack machine"
       transform="rotate(-31.223188,439.42336,480.87831)">
      <rect
         ry="32.553902"
         y="388.13467"
         x="36.756107"
         height="162.76949"
         width="126.93156"
         id="rect3622"
         style="display:inline;opacity:0.5;fill:#47484a;fill-opacity:1;fill-rule:nonzero;stroke:#050202;stroke-width:1.26313;stroke-linecap:round;stroke-linejoin:miter;stroke-miterlimit:4;stroke-dasharray:none;stroke-dashoffset:0;stroke-opacity:1;enable-background:new"
         transform="matrix(0.99977009,-0.02144215,0.02037379,0.99979243,0,0)" />
      <rect
         y="411.75049"
         x="162.42712"
         height="123.83081"
         width="17.977758"
         id="rect3624"
         style="display:inline;opacity:0.5;fill:#0c0b0c;fill-opacity:1;fill-rule:nonzero;stroke:#050202;stroke-width:1.26313;stroke-linecap:round;stroke-linejoin:miter;stroke-miterlimit:4;stroke-dasharray:none;stroke-dashoffset:0;stroke-opacity:1;enable-background:new"
         transform="matrix(0.99977009,-0.02144215,0.02037379,0.99979243,0,0)" />
      <rect
         y="411.75049"
         x="57.12878"
         height="18.442886"
         width="87.320526"
         id="rect3626"
         style="display:inline;opacity:0.5;fill:#0c0b0c;fill-opacity:1;fill-rule:nonzero;stroke:#050202;stroke-width:1.26313;stroke-linecap:round;stroke-linejoin:miter;stroke-miterlimit:4;stroke-dasharray:none;stroke-dashoffset:0;stroke-opacity:1;enable-background:new"
         transform="matrix(0.99977009,-0.02144215,0.02037379,0.99979243,0,0)" />
      <rect
         style="display:inline;opacity:0.5;fill:#0c0b0c;fill-opacity:1;fill-rule:nonzero;stroke:#050202;stroke-width:1.26313;stroke-linecap:round;stroke-linejoin:miter;stroke-miterlimit:4;stroke-dasharray:none;stroke-dashoffset:0;stroke-opacity:1;enable-background:new"
         id="rect3628"
         width="87.320526"
         height="18.442886"
         x="57.12878"
         y="446.00162"
         transform="matrix(0.99977009,-0.02144215,0.02037379,0.99979243,0,0)" />
      <rect
         y="477.61804"
         x="57.12878"
         height="18.442886"
         width="87.320526"
         id="rect3630"
         style="display:inline;opacity:0.5;fill:#0c0b0c;fill-opacity:1;fill-rule:nonzero;stroke:#050202;stroke-width:1.26313;stroke-linecap:round;stroke-linejoin:miter;stroke-miterlimit:4;stroke-dasharray:none;stroke-dashoffset:0;stroke-opacity:1;enable-background:new"
         transform="matrix(0.99977009,-0.02144215,0.02037379,0.99979243,0,0)" />
      <rect
         style="display:inline;opacity:0.5;fill:#0c0b0c;fill-opacity:1;fill-rule:nonzero;stroke:#050202;stroke-width:1.26313;stroke-linecap:round;stroke-linejoin:miter;stroke-miterlimit:4;stroke-dasharray:none;stroke-dashoffset:0;stroke-opacity:1;enable-background:new"
         id="rect3632"
         width="87.320526"
         height="18.442886"
         x="57.12878"
         y="506.5997"
         transform="matrix(0.99977009,-0.02144215,0.02037379,0.99979243,0,0)" />
    </g>
    <circle
       transform="matrix(0.8604199,-0.5095857,0.49101529,0.87115095,0,0)"
       style="display:inline;fill:#000000;fill-opacity:1;fill-rule:nonzero;stroke:#050202;stroke-width:1.09069;stroke-linecap:round;stroke-linejoin:miter;stroke-miterlimit:4;stroke-dasharray:none;stroke-dashoffset:0;stroke-opacity:1;enable-background:new"
       id="path3688"
       cx="-179.28375"
       cy="622.24731"
       r="0" />
    <g
       id="g133"
       inkscape:label="circular top machine"
       transform="rotate(-29.736745,448.30516,479.78922)">
      <rect
         style="display:inline;fill:#69696b;fill-opacity:1;fill-rule:nonzero;stroke:#050202;stroke-width:1.09269;stroke-linecap:round;stroke-linejoin:miter;stroke-miterlimit:4;stroke-dasharray:none;stroke-dashoffset:0;stroke-opacity:1;enable-background:new"
         id="rect3686"
         width="114.03291"
         height="115.4981"
         x="-235.47095"
         y="566.89172"
         ry="20.382017"
         transform="matrix(0.86023947,-0.50989024,0.4907146,0.87132037,0,0)" />
      <ellipse
         style="display:inline;fill:#b5b6b1;fill-opacity:1;fill-rule:nonzero;stroke:#050202;stroke-width:1.09269;stroke-linecap:round;stroke-linejoin:miter;stroke-miterlimit:4;stroke-dasharray:none;stroke-dashoffset:0;stroke-opacity:1;enable-background:new"
         id="path3692"
         transform="matrix(0.86023948,-0.50989022,0.49071457,0.87132038,0,0)"
         cx="-179.57236"
         cy="623.50836"
         rx="26.831272"
         ry="27.17602" />
      <rect
         style="display:inline;fill:#7a7879;fill-opacity:1;fill-rule:nonzero;stroke:#050202;stroke-width:1.09269;stroke-linecap:round;stroke-linejoin:miter;stroke-miterlimit:4;stroke-dasharray:none;stroke-dashoffset:0;stroke-opacity:1;enable-background:new"
         id="rect3694"
         width="78.257881"
         height="13.588046"
         x="-204.16768"
         y="614.44965"
         ry="4.5293536"
         transform="matrix(0.86023947,-0.50989024,0.4907146,0.87132037,0,0)" />
    </g>
    <g
       id="g120"
       inkscape:label="orange desk"
       transform="translate(-28,-20)">
      <rect
         style="fill:#ea6207;fill-opacity:1;fill-rule:nonzero;stroke:#000000;stroke-width:1.5329;stroke-linecap:round;stroke-linejoin:miter;stroke-miterlimit:4;stroke-dasharray:none;stroke-dashoffset:0;stroke-opacity:1"
         id="rect5916"
         width="80.456757"
         height="235.15857"
         x="233.68983"
         y="14.634265"
         transform="matrix(0.83156161,0.55543252,-0.53584208,0.84431822,0,0)" />
      <rect
         style="display:inline;fill:#37383f;fill-opacity:1;fill-rule:nonzero;stroke:#090407;stroke-width:0.995609;stroke-linecap:round;stroke-linejoin:miter;stroke-miterlimit:4;stroke-dasharray:none;stroke-dashoffset:0;stroke-opacity:1;enable-background:new"
         id="rect3751"
         width="23.912344"
         height="25.458736"
         x="-294.3512"
         y="-130.01903"
         ry="4.7783766"
         transform="matrix(-0.82604697,-0.56360129,0.54397194,-0.83910341,0,0)" />
      <path
         style="display:inline;fill:#bcb9bb;fill-opacity:1;fill-rule:nonzero;stroke:#090407;stroke-width:0.995471;stroke-linecap:round;stroke-linejoin:miter;stroke-miterlimit:4;stroke-dashoffset:0;stroke-opacity:1;enable-background:new"
         d="m 168.16756,261.49987 -8.24251,-7.55146 2.91799,-3.77655 9.10741,4.76811 -3.78289,6.55989 z"
         id="rect3753"
         sodipodi:nodetypes="ccccc"
         inkscape:connector-curvature="0" />
      <rect
         style="display:inline;fill:#4848cc;fill-opacity:1;fill-rule:nonzero;stroke:#090407;stroke-width:0.995609;stroke-linecap:round;stroke-linejoin:miter;stroke-miterlimit:4;stroke-dasharray:none;stroke-dashoffset:0;stroke-opacity:1;enable-background:new"
         id="rect3758"
         width="16.165565"
         height="4.3801789"
         x="-299.23605"
         y="-119.81899"
         transform="matrix(-0.82604697,-0.56360129,0.54397194,-0.83910341,0,0)" />
      <path
         style="display:inline;fill:none;stroke:#000000;stroke-width:1.26651px;stroke-linecap:butt;stroke-linejoin:miter;stroke-opacity:1;enable-background:new"
         d="m 185.47522,268.18469 c -0.65083,0.0371 -2.31361,0.67048 -1.95261,0.11332 0.4623,-0.71317 1.61553,-0.45144 2.38583,-0.78179 0.0651,-0.0279 0.57865,-0.89262 0.64977,-1.00239 0.43324,-0.66816 0.86649,-1.33647 1.29973,-2.00476 0.64976,-1.00238 1.29969,-2.00479 1.94947,-3.00718 0.11349,-0.1748 0.85224,-1.21942 0.86647,-1.33646 0.0227,-0.18769 -0.13166,-0.36871 -0.10896,-0.55639 0.0317,-0.26561 0.48469,-0.40596 0.43324,-0.66815 -0.0257,-0.1304 -0.29993,-0.0916 -0.32564,-0.22216 -0.0364,-0.1852 0.46954,-0.4831 0.43323,-0.66815 -0.0257,-0.1304 -0.29992,-0.0916 -0.32565,-0.22214 -0.0257,-0.13041 0.24227,-0.20307 0.2167,-0.33409 -0.0257,-0.1304 -0.29992,-0.0916 -0.32565,-0.22214 -0.0515,-0.2622 0.48468,-0.40596 0.43324,-0.66832 -0.0257,-0.13039 -0.29993,-0.0916 -0.32565,-0.22215 -0.0257,-0.13039 0.24227,-0.20304 0.21669,-0.33422 -0.0257,-0.13039 -0.29991,-0.0916 -0.32565,-0.22214 -0.0257,-0.13042 0.24228,-0.20308 0.2167,-0.33425 -0.0257,-0.1304 -0.29992,-0.0916 -0.32564,-0.22215 -0.0515,-0.26221 0.48468,-0.40595 0.43323,-0.66831 -0.0257,-0.13042 -0.29992,-0.0916 -0.32565,-0.22215 -0.0362,-0.18536 0.46956,-0.48279 0.43323,-0.66816 -0.0257,-0.13039 -0.29991,-0.0916 -0.32563,-0.22215 -0.0257,-0.13039 0.24226,-0.20305 0.21654,-0.33422 -0.0257,-0.13041 -0.29992,-0.0916 -0.32564,-0.22214 -0.0515,-0.26221 0.40115,-0.40286 0.43323,-0.66817 0.0227,-0.18768 -0.13165,-0.36869 -0.10895,-0.55638 0.0166,-0.13351 0.24226,-0.20305 0.2167,-0.33423 -0.0257,-0.1304 -0.29993,-0.0916 -0.32566,-0.22215 -0.0257,-0.13039 0.24228,-0.20306 0.21654,-0.33408 -0.0257,-0.1304 -0.29992,-0.0916 -0.32564,-0.22214 -0.0257,-0.1304 0.24226,-0.20307 0.21654,-0.33409 -0.0257,-0.13041 -0.21714,-0.14748 -0.32564,-0.22215 -0.5428,-0.37041 -1.08559,-0.74065 -1.62846,-1.11107 -0.86844,-0.59253 -1.73705,-1.18509 -2.60558,-1.77774 -0.10895,-0.0746 -0.21715,-0.14748 -0.32564,-0.22215 -0.10896,-0.0745 -0.19794,-0.24854 -0.32565,-0.22214 -0.12711,0.0263 -0.0893,0.30768 -0.21668,0.33407 -0.11048,0.0233 -0.8052,-0.64455 -0.97709,-0.66659 -0.1828,-0.0233 -0.35924,0.13506 -0.54234,0.11177 -0.13015,-0.017 -0.19792,-0.24855 -0.32565,-0.22215 -0.12711,0.0263 -0.10291,0.26747 -0.21653,0.33409 -1.57922,0.92816 0.25407,-0.34185 -0.86799,-0.11024 -0.12711,0.0263 -0.0893,0.30769 -0.21653,0.33423 -0.12711,0.0263 -0.19792,-0.24853 -0.32565,-0.22214 -0.12711,0.0263 -0.0892,0.30769 -0.21653,0.33407 -0.12712,0.0263 -0.19795,-0.24854 -0.32568,-0.22214 -0.1271,0.0263 -0.0893,0.30768 -0.21667,0.33422 -0.18084,0.0371 -0.47047,-0.4817 -0.65145,-0.44445 -0.12711,0.0263 -0.0892,0.3077 -0.21669,0.33424 -0.12712,0.0263 -0.21716,-0.14747 -0.32565,-0.22215 -0.23092,-0.15757 -1.84198,-1.31908 -1.95418,-1.33335 -0.18279,-0.0233 -0.35922,0.13506 -0.54232,0.11177 -0.23546,-0.0294 -1.15443,-0.9195 -1.30274,-0.88893 -0.12711,0.0263 -0.0893,0.3077 -0.21654,0.33426 -0.1271,0.0263 -0.19627,-0.20586 -0.32565,-0.22218 -0.1828,-0.0233 -0.35924,0.13507 -0.54233,0.11178 -0.13013,-0.017 -0.19793,-0.24854 -0.32565,-0.22215 -0.12711,0.0263 -0.0893,0.30769 -0.21654,0.33425 -0.12711,0.0263 -0.19627,-0.20586 -0.32565,-0.22217 -0.18279,-0.0233 -0.3615,0.0746 -0.54233,0.11177"
         id="path3761"
         inkscape:connector-curvature="0" />
      <rect
         style="display:inline;fill:#859296;fill-opacity:1;fill-rule:nonzero;stroke:#090407;stroke-width:1.08969;stroke-linecap:round;stroke-linejoin:miter;stroke-miterlimit:4;stroke-dasharray:none;stroke-dashoffset:0;stroke-opacity:1;enable-background:new"
         id="rect3769"
         width="41.439842"
         height="38.341061"
         x="-285.79102"
         y="-75.020248"
         transform="matrix(-0.81885614,-0.57399881,0.55433627,-0.8322928,0,0)" />
      <rect
         style="display:inline;fill:#599296;fill-opacity:1;fill-rule:nonzero;stroke:#090407;stroke-width:1.08969;stroke-linecap:round;stroke-linejoin:miter;stroke-miterlimit:4;stroke-dasharray:none;stroke-dashoffset:0;stroke-opacity:1;enable-background:new"
         id="rect3771"
         width="4.3166504"
         height="15.684979"
         x="-290.97092"
         y="-70.663315"
         transform="matrix(-0.81885614,-0.57399881,0.55433627,-0.8322928,0,0)" />
      <rect
         style="display:inline;fill:#1d1f1d;fill-opacity:1;fill-rule:nonzero;stroke:#090407;stroke-width:1.08969;stroke-linecap:round;stroke-linejoin:miter;stroke-miterlimit:4;stroke-dasharray:none;stroke-dashoffset:0;stroke-opacity:1;enable-background:new"
         id="rect3773"
         width="5.1799803"
         height="7.8424897"
         x="-290.97092"
         y="-47.135826"
         transform="matrix(-0.81885614,-0.57399881,0.55433627,-0.8322928,0,0)" />
      <rect
         style="display:inline;fill:#292927;fill-opacity:1;fill-rule:nonzero;stroke:#090407;stroke-width:0.97586;stroke-linecap:round;stroke-linejoin:miter;stroke-miterlimit:4;stroke-dasharray:none;stroke-dashoffset:0;stroke-opacity:1;enable-background:new"
         id="rect3765"
         width="34.800198"
         height="49.931423"
         x="-281.9993"
         y="-225.8886"
         transform="matrix(-0.81296171,-0.58231715,0.56264147,-0.82670102,0,0)" />
      <rect
         style="display:inline;fill:#807a7b;fill-opacity:1;fill-rule:nonzero;stroke:#090407;stroke-width:0.97586;stroke-linecap:round;stroke-linejoin:miter;stroke-miterlimit:4;stroke-dasharray:none;stroke-dashoffset:0;stroke-opacity:1;enable-background:new"
         id="rect3767"
         width="4.6400266"
         height="42.129639"
         x="-288.18604"
         y="-221.9877"
         transform="matrix(-0.81296171,-0.58231715,0.56264147,-0.82670102,0,0)" />
    </g>
    <g
       id="g9356"
       inkscape:label="stack boxes"
       style="opacity:1"
       transform="matrix(1.9548372,0,0,1.9548372,-136.5642,8.7828128)">
      <rect
         transform="rotate(-89.15175)"
         y="370.20361"
         x="-411.83902"
         height="30.503584"
         width="43.347195"
         id="rect3733"
         style="display:inline;opacity:0.5;fill:#cc4d12;fill-opacity:1;fill-rule:nonzero;stroke:#00004d;stroke-width:0.727495;stroke-linecap:round;stroke-linejoin:miter;stroke-miterlimit:4;stroke-dasharray:none;stroke-dashoffset:0;stroke-opacity:1;enable-background:new" />
      <path
         inkscape:connector-curvature="0"
         id="path3735"
         d="m 378.7191,417.85198 1.18338,-44.51207"
         style="display:inline;opacity:0.5;fill:none;stroke:#000000;stroke-width:0.727495;stroke-linecap:butt;stroke-linejoin:miter;stroke-miterlimit:4;stroke-dasharray:none;stroke-opacity:1;enable-background:new" />
      <rect
         transform="rotate(4.5095072)"
         y="339.12042"
         x="390.89633"
         height="31.306309"
         width="35.319939"
         id="rect3737"
         style="display:inline;opacity:0.5;fill:#cc6400;fill-opacity:1;fill-rule:nonzero;stroke:#00004d;stroke-width:0.727495;stroke-linecap:round;stroke-linejoin:miter;stroke-miterlimit:4;stroke-dasharray:none;stroke-dashoffset:0;stroke-opacity:1;enable-background:new" />
      <path
         inkscape:connector-curvature="0"
         sodipodi:nodetypes="cc"
         id="path3739"
         d="m 362.17997,384.36293 34.66824,2.54301"
         style="display:inline;opacity:0.5;fill:none;stroke:#000000;stroke-width:0.727495;stroke-linecap:butt;stroke-linejoin:miter;stroke-miterlimit:4;stroke-dasharray:none;stroke-opacity:1;enable-background:new" />
    </g>
  </g>
</svg>
