<?xml version="1.0" encoding="UTF-8" standalone="no"?>
<svg
   xmlns:dc="http://purl.org/dc/elements/1.1/"
   xmlns:cc="http://creativecommons.org/ns#"
   xmlns:rdf="http://www.w3.org/1999/02/22-rdf-syntax-ns#"
   xmlns:svg="http://www.w3.org/2000/svg"
   xmlns="http://www.w3.org/2000/svg"
   xmlns:xlink="http://www.w3.org/1999/xlink"
   xmlns:sodipodi="http://sodipodi.sourceforge.net/DTD/sodipodi-0.dtd"
   xmlns:inkscape="http://www.inkscape.org/namespaces/inkscape"
   width="900"
   height="900"
   id="svg2396"
   sodipodi:version="0.32"
   inkscape:version="1.0.1 (3bc2e813f5, 2020-09-07)"
   sodipodi:docname="machinery_hab.svg"
   inkscape:output_extension="org.inkscape.output.svg.inkscape"
   version="1.0"
   inkscape:export-filename="/home/scud/Documents/msp/concept_art/lander_hab_color.png"
   inkscape:export-xdpi="99.859245"
   inkscape:export-ydpi="99.859245"
   style="enable-background:new">
  <defs
     id="defs2398">
    <linearGradient
       id="linearGradient3282">
      <stop
         style="stop-color:#000000;stop-opacity:1;"
         offset="0"
         id="stop3284" />
      <stop
         style="stop-color:#7b7b7b;stop-opacity:1;"
         offset="1"
         id="stop3286" />
    </linearGradient>
    <linearGradient
       id="linearGradient3273">
      <stop
         style="stop-color:#000002;stop-opacity:1;"
         offset="0"
         id="stop3275" />
      <stop
         style="stop-color:#777779;stop-opacity:0.99137932;"
         offset="1"
         id="stop3277" />
    </linearGradient>
    <linearGradient
       id="linearGradient3264">
      <stop
         style="stop-color:#040000;stop-opacity:1;"
         offset="0"
         id="stop3266" />
      <stop
         style="stop-color:#848484;stop-opacity:1;"
         offset="1"
         id="stop3268" />
    </linearGradient>
    <linearGradient
       id="linearGradient3255">
      <stop
         style="stop-color:#000000;stop-opacity:1;"
         offset="0"
         id="stop3257" />
      <stop
         style="stop-color:#828282;stop-opacity:1;"
         offset="1"
         id="stop3259" />
    </linearGradient>
    <radialGradient
       inkscape:collect="always"
       xlink:href="#linearGradient3255"
       id="radialGradient3261"
       cx="295.45956"
       cy="93.1082"
       fx="295.45956"
       fy="93.1082"
       r="9.4972916"
       gradientTransform="matrix(-1.6433693,18.995214,19.550714,1.7772912,-882.18466,-4962.7248)"
       gradientUnits="userSpaceOnUse" />
    <radialGradient
       inkscape:collect="always"
       xlink:href="#linearGradient3264"
       id="radialGradient3270"
       cx="337.68759"
       cy="93.485535"
       fx="337.68759"
       fy="93.485535"
       r="9.3880892"
       gradientTransform="matrix(22.486312,0.41164511,0.3235738,-18.572648,-6603.2331,2403.0789)"
       gradientUnits="userSpaceOnUse" />
    <radialGradient
       inkscape:collect="always"
       xlink:href="#linearGradient3273"
       id="radialGradient3279"
       cx="336.77481"
       cy="134.02927"
       fx="336.77481"
       fy="134.02927"
       r="9.4417067"
       gradientTransform="matrix(0.24552415,-18.148311,-17.318586,-0.24619313,3259.2516,6399.53)"
       gradientUnits="userSpaceOnUse" />
    <radialGradient
       inkscape:collect="always"
       xlink:href="#linearGradient3282"
       id="radialGradient3319"
       gradientUnits="userSpaceOnUse"
       gradientTransform="matrix(-17.274941,0.26541828,0.26118885,17.863955,5481.6566,-2223.9601)"
       cx="293.59091"
       cy="134.23401"
       fx="293.59091"
       fy="134.23401"
       r="9.5718613" />
    <linearGradient
       id="linearGradient5110">
      <stop
         style="stop-color:#141010;stop-opacity:1;"
         offset="0"
         id="stop5112" />
      <stop
         style="stop-color:#2f3137;stop-opacity:0.97647059;"
         offset="1"
         id="stop5114" />
    </linearGradient>
    <linearGradient
       inkscape:collect="always"
       xlink:href="#linearGradient5110"
       id="linearGradient5704"
       gradientUnits="userSpaceOnUse"
       gradientTransform="matrix(1.3872909,0,0,1.353365,-885.01507,33.269645)"
       x1="445"
       y1="270"
       x2="430"
       y2="270" />
    <linearGradient
       inkscape:collect="always"
       xlink:href="#linearGradient5110"
       id="linearGradient5707"
       gradientUnits="userSpaceOnUse"
       gradientTransform="matrix(1.3872909,0,0,1.353365,-885.01507,33.269645)"
       x1="445"
       y1="215"
       x2="430"
       y2="215" />
    <linearGradient
       inkscape:collect="always"
       xlink:href="#linearGradient5110"
       id="linearGradient5714"
       gradientUnits="userSpaceOnUse"
       gradientTransform="matrix(1.3872909,0,0,1.353365,-885.01507,33.269645)"
       x1="294.60699"
       y1="240"
       x2="335"
       y2="240" />
    <linearGradient
       id="linearGradient3708">
      <stop
         style="stop-color:#8f8f97;stop-opacity:1;"
         offset="0"
         id="stop3710" />
      <stop
         style="stop-color:#585456;stop-opacity:1;"
         offset="1"
         id="stop3712" />
    </linearGradient>
    <linearGradient
       inkscape:collect="always"
       xlink:href="#linearGradient3708"
       id="linearGradient5796"
       gradientUnits="userSpaceOnUse"
       gradientTransform="matrix(1.3183605,0,0,1.2861203,-1042.5897,49.133163)"
       x1="439.88477"
       y1="517.99426"
       x2="440.67078"
       y2="498.57025" />
    <linearGradient
       id="linearGradient5274">
      <stop
         style="stop-color:#9d4199;stop-opacity:1;"
         offset="0"
         id="stop5276" />
      <stop
         id="stop5282"
         offset="0.5"
         style="stop-color:#be7e95;stop-opacity:0.99215686;" />
      <stop
         style="stop-color:#9d4199;stop-opacity:0.96862745;"
         offset="1"
         id="stop5278" />
    </linearGradient>
    <linearGradient
       id="linearGradient5264">
      <stop
         style="stop-color:#494a4a;stop-opacity:1;"
         offset="0"
         id="stop5266" />
      <stop
         style="stop-color:#872d87;stop-opacity:0.96078432;"
         offset="1"
         id="stop5268" />
    </linearGradient>
    <linearGradient
       inkscape:collect="always"
       xlink:href="#linearGradient5274"
       id="linearGradient5852"
       gradientUnits="userSpaceOnUse"
       gradientTransform="matrix(1.5281235,0,0,1.4907536,-137.94108,-1574.2807)"
       x1="304.60699"
       y1="660"
       x2="345.39301"
       y2="660" />
    <linearGradient
       inkscape:collect="always"
       xlink:href="#linearGradient5264"
       id="linearGradient5855"
       gradientUnits="userSpaceOnUse"
       gradientTransform="matrix(1.5281235,0,0,1.4907536,-137.94108,-1574.2807)"
       x1="289.60699"
       y1="660"
       x2="305.39301"
       y2="660" />
  </defs>
  <sodipodi:namedview
     id="base"
     pagecolor="#ffffff"
     bordercolor="#666666"
     borderopacity="1.0"
     gridtolerance="10000"
     guidetolerance="10"
     objecttolerance="10"
     inkscape:pageopacity="0.0"
     inkscape:pageshadow="2"
     inkscape:zoom="1.1328507"
     inkscape:cx="287.10629"
     inkscape:cy="487.58762"
     inkscape:document-units="px"
     inkscape:current-layer="layer1"
     showgrid="true"
     inkscape:snap-global="false"
     inkscape:window-width="1920"
     inkscape:window-height="1057"
     inkscape:window-x="-8"
     inkscape:window-y="-8"
     inkscape:snap-to-guides="false"
     showguides="false"
     inkscape:guide-bbox="true"
     inkscape:snap-grids="true"
     inkscape:snap-object-midpoints="true"
     inkscape:window-maximized="1"
     fit-margin-top="0"
     fit-margin-left="0"
     fit-margin-right="0"
     fit-margin-bottom="0"
     inkscape:document-rotation="0">
    <inkscape:grid
       type="xygrid"
       id="grid2427"
       visible="true"
       enabled="true"
       empspacing="5"
       snapvisiblegridlinesonly="true"
       originx="-0.004942895"
       originy="-0.010977786"
       spacingx="1"
       spacingy="1" />
    <sodipodi:guide
       orientation="1,0"
       position="31.552615,37.725682"
       id="guide2842" />
    <sodipodi:guide
       orientation="0,1"
       position="-8.059844,30.001804"
       id="guide2844" />
  </sodipodi:namedview>
  <metadata
     id="metadata2401">
    <rdf:RDF>
      <cc:Work
         rdf:about="">
        <dc:format>image/svg+xml</dc:format>
        <dc:type
           rdf:resource="http://purl.org/dc/dcmitype/StillImage" />
        <dc:title></dc:title>
      </cc:Work>
    </rdf:RDF>
  </metadata>
  <g
     inkscape:label="foot pads"
     inkscape:groupmode="layer"
     id="layer1"
     style="display:inline"
     transform="translate(-286.65647,-83.38369)">
    <path
       style="display:inline;fill:url(#radialGradient3261);fill-opacity:1;fill-rule:evenodd;stroke:#000000;stroke-width:4.5836px;stroke-linecap:butt;stroke-linejoin:miter;stroke-opacity:1"
       d="m 340.81626,690.98508 c 0,0 -112.56892,115.2464 7.03555,238.46108 123.17889,112.40124 227.44989,-8.96984 227.44989,-8.96984"
       id="path2415"
       sodipodi:nodetypes="ccc"
       inkscape:connector-curvature="0" />
    <path
       style="display:inline;fill:url(#radialGradient3270);fill-opacity:1;fill-rule:evenodd;stroke:#000000;stroke-width:4.5836px;stroke-linecap:butt;stroke-linejoin:miter;stroke-opacity:1"
       d="m 903.94684,924.57285 c 0,0 112.42826,120.55645 232.62976,-2.04618 109.6526,-126.26673 -8.7505,-231.42946 -8.7505,-231.42946"
       id="path2417"
       sodipodi:nodetypes="ccc"
       inkscape:connector-curvature="0" />
    <path
       style="display:inline;fill:url(#radialGradient3279);fill-opacity:1;fill-rule:evenodd;stroke:#000000;stroke-width:4.5836px;stroke-linecap:butt;stroke-linejoin:miter;stroke-opacity:1"
       d="m 1133.9998,371.39704 c 0,0 112.5689,-115.2466 -7.0355,-238.46127 -123.179,-112.401273 -225.77007,10.6918 -225.77007,10.6918"
       id="path2419"
       sodipodi:nodetypes="ccc"
       inkscape:connector-curvature="0" />
    <path
       style="display:inline;fill:url(#radialGradient3319);fill-opacity:1;fill-rule:evenodd;stroke:#000000;stroke-width:4.5836px;stroke-linecap:butt;stroke-linejoin:miter;stroke-opacity:1"
       d="m 573.63689,138.59948 c 0,0 -119.1475,-120.556656 -239.34915,2.04602 -109.65237,126.26673 13.79006,236.59556 13.79006,236.59556"
       id="path2421"
       sodipodi:nodetypes="ccc"
       inkscape:connector-curvature="0" />
  </g>
  <g
     inkscape:groupmode="layer"
     id="layer2"
     style="display:inline"
     transform="translate(-286.65647,-83.38369)"
     inkscape:label="frame">
    <circle
       style="fill:#ffffff;fill-opacity:1;fill-rule:evenodd;stroke:#000000;stroke-width:4.85217;stroke-linecap:round;stroke-linejoin:miter;stroke-miterlimit:4;stroke-dasharray:none;stroke-dashoffset:0;stroke-opacity:1"
       id="path3634"
       cx="735.65649"
       cy="532.38367"
       inkscape:label="outer wall"
       r="446.57391" />
    <circle
       style="fill:#ffffff;fill-opacity:1;fill-rule:evenodd;stroke:#000000;stroke-width:4.95328;stroke-linecap:round;stroke-linejoin:miter;stroke-miterlimit:4;stroke-dasharray:none;stroke-dashoffset:0;stroke-opacity:1"
       id="path3632"
       cx="736.65643"
       cy="533.38367"
       inkscape:label="inner wall"
       r="422.52335" />
    <path
       style="color:#000000;display:inline;overflow:visible;visibility:visible;fill:#73797a;fill-opacity:1;fill-rule:nonzero;stroke:none;stroke-width:15.5472;marker:none;enable-background:accumulate"
       d="M 674.61207,975.12401 C 510.04172,951.12283 374.03999,840.55275 316.62068,684.0753 282.32108,590.60297 281.98738,479.37684 315.72245,384.68175 360.02165,260.333 460.30534,158.89191 582.65377,114.6698 747.14882,55.214043 927.59601,94.558452 1050.7484,216.73242 c 70.5275,69.96693 113.851,156.02839 128.7929,255.84469 4.6564,31.10607 3.9907,96.31214 -1.3147,128.79701 -19.3518,118.48759 -79.4508,217.54266 -176.1837,290.38501 -90.41407,68.08414 -214.89483,99.77732 -327.43089,83.36488 v 0 z m 135.5224,-27.34366 c 13.94183,-2.27336 40.32408,-9.0448 58.62719,-15.04766 136.11434,-44.64124 240.89734,-156.0972 276.37804,-293.97846 16.3462,-63.52277 16.3752,-148.50725 0.07,-210.97048 C 1109.6728,291.62157 1006.2041,179.94978 874.16357,135.2469 749.97064,93.200891 613.5767,110.13377 506.58616,180.8805 353.34064,282.213 283.81596,462.40038 329.32819,640.28068 c 42.73158,167.01224 188.12547,292.16136 361.95418,311.55531 28.49557,3.17921 86.65318,1.1947 118.852,-4.05564 z"
       id="path3637"
       inkscape:connector-curvature="0"
       inkscape:label="Thickness" />
  </g>
  <g
     inkscape:groupmode="layer"
     id="layer6"
     inkscape:label="interior"
     style="opacity:0.5"
     transform="translate(-0.00494289,-2.2949493)">
    <circle
       style="display:inline;fill:#cececc;fill-opacity:1;fill-rule:nonzero;stroke:none;stroke-width:15.6641;enable-background:new"
       id="path5608"
       cx="450.00494"
       cy="452.29495"
       inkscape:label="grey floor"
       r="420" />
    <path
       style="fill:#eaedf0;fill-opacity:1;fill-rule:nonzero;stroke:#000000;stroke-width:1.52989;stroke-miterlimit:4;stroke-opacity:1"
       d="m 250.08155,683.639 c 0,0 38.30824,25.60177 59.62239,33.49878 44.85802,16.62009 92.76241,27.49289 140.45779,28.02994 45.38571,0.511 91.78187,-7.08959 134.19539,-23.65653 21.74044,-8.49195 59.21545,-37.87219 59.21545,-37.87219 l 61.69139,92.29311 c 0,0 -75.95067,53.27414 -118.78608,69.06552 -43.94812,16.2016 -91.27968,24.86808 -137.98348,24.93669 -46.73839,0.0681 -94.1283,-8.46718 -138.15492,-24.54926 C 266.99205,829.55109 190.0575,775.93211 190.0575,775.93211 Z"
       id="rect5610"
       sodipodi:nodetypes="caaaccaaacc"
       inkscape:connector-curvature="0" />
    <path
       style="fill:none;stroke:#000000;stroke-width:1.52989;stroke-linecap:butt;stroke-linejoin:miter;stroke-miterlimit:4;stroke-dasharray:none;stroke-opacity:1"
       d="m 546.86718,731.49471 41.68337,116.22095"
       id="path5613"
       sodipodi:nodetypes="cc"
       inkscape:connector-curvature="0" />
    <path
       style="fill:none;stroke:#000000;stroke-width:1.52989;stroke-linecap:butt;stroke-linejoin:miter;stroke-miterlimit:4;stroke-dasharray:none;stroke-opacity:1"
       d="M 443.4924,745.16777 V 869.93435"
       id="path5615"
       inkscape:connector-curvature="0" />
    <path
       style="fill:none;stroke:#000000;stroke-width:1.52989;stroke-linecap:butt;stroke-linejoin:miter;stroke-miterlimit:4;stroke-dasharray:none;stroke-opacity:1"
       d="M 338.45031,728.07646 298.43428,840.87912"
       id="path5617"
       inkscape:connector-curvature="0" />
    <rect
       style="fill:#c76933;fill-opacity:1;fill-rule:nonzero;stroke:#000000;stroke-width:1.52989;stroke-linecap:round;stroke-linejoin:miter;stroke-miterlimit:4;stroke-dasharray:none;stroke-dashoffset:0;stroke-opacity:1"
       id="rect5619"
       width="141.72339"
       height="417.02802"
       x="516.85516"
       y="198.24576" />
    <rect
       y="276.87537"
       x="-607.55676"
       height="162.40381"
       width="416.18726"
       id="rect4516"
       style="display:inline;fill:#ad552c;fill-opacity:1;fill-rule:nonzero;stroke:#050202;stroke-width:1.077;stroke-linecap:round;stroke-linejoin:miter;stroke-miterlimit:4;stroke-dasharray:none;stroke-dashoffset:0;stroke-opacity:1;enable-background:new"
       transform="rotate(-90)" />
    <rect
       style="display:inline;fill:#9b0c0c;fill-opacity:1;fill-rule:nonzero;stroke:#050202;stroke-width:5.18766;stroke-linecap:round;stroke-linejoin:miter;stroke-miterlimit:4;stroke-dasharray:none;stroke-dashoffset:0;stroke-opacity:1;enable-background:new"
       id="rect3666"
       width="166.47491"
       height="148.87016"
       x="-600.62024"
       y="283.64221"
       ry="13.53365"
       rx="13.872909"
       transform="rotate(-90)" />
    <rect
       style="display:inline;fill:url(#linearGradient5714);fill-opacity:1;fill-rule:nonzero;stroke:#050202;stroke-width:1.077;stroke-linecap:round;stroke-linejoin:miter;stroke-miterlimit:4;stroke-dasharray:none;stroke-dashoffset:0;stroke-opacity:1;enable-background:new"
       id="rect3668"
       width="55.491634"
       height="121.80284"
       x="-475.76428"
       y="297.17584"
       transform="rotate(-90)" />
    <rect
       style="display:inline;fill:#5f5d5e;fill-opacity:1;fill-rule:nonzero;stroke:#050202;stroke-width:1.077;stroke-linecap:round;stroke-linejoin:miter;stroke-miterlimit:4;stroke-dasharray:none;stroke-dashoffset:0;stroke-opacity:1;enable-background:new"
       id="rect5118"
       width="131.79263"
       height="135.33649"
       x="-420.27258"
       y="290.40903"
       transform="rotate(-90)" />
    <rect
       style="display:inline;fill:#5f5d5e;fill-opacity:1;fill-rule:nonzero;stroke:#050202;stroke-width:2.44722;stroke-linecap:round;stroke-linejoin:miter;stroke-miterlimit:4;stroke-dasharray:none;stroke-dashoffset:0;stroke-opacity:1;enable-background:new"
       id="rect5120"
       width="104.04681"
       height="108.2692"
       x="-406.39969"
       y="303.94266"
       ry="13.53365"
       transform="rotate(-90)" />
    <rect
       style="display:inline;fill:#3e3d3c;fill-opacity:1;fill-rule:nonzero;stroke:#050202;stroke-width:2.44722;stroke-linecap:round;stroke-linejoin:miter;stroke-miterlimit:4;stroke-dasharray:none;stroke-dashoffset:0;stroke-opacity:1;enable-background:new"
       id="rect5122"
       width="83.237457"
       height="60.901421"
       x="-281.54346"
       y="371.61093"
       rx="6.9364543"
       ry="6.7668252"
       transform="rotate(-90)" />
    <rect
       style="display:inline;fill:#8a8510;fill-opacity:1;fill-rule:nonzero;stroke:#050202;stroke-width:2.44722;stroke-linecap:round;stroke-linejoin:miter;stroke-miterlimit:4;stroke-dasharray:none;stroke-dashoffset:0;stroke-opacity:1;enable-background:new"
       id="rect5124"
       width="80.958382"
       height="80.229851"
       x="-279.26447"
       y="284.61426"
       rx="6.9364543"
       ry="6.7668252"
       transform="rotate(-90)" />
    <rect
       style="display:inline;fill:url(#linearGradient5707);fill-opacity:1;fill-rule:nonzero;stroke:#050202;stroke-width:1.077;stroke-linecap:round;stroke-linejoin:miter;stroke-miterlimit:4;stroke-dasharray:none;stroke-dashoffset:0;stroke-opacity:1;enable-background:new"
       id="rect5126"
       width="20.809364"
       height="54.134602"
       x="-288.47989"
       y="297.17584"
       transform="rotate(-90)" />
    <rect
       style="display:inline;fill:url(#linearGradient5704);fill-opacity:1;fill-rule:nonzero;stroke:#050202;stroke-width:1.077;stroke-linecap:round;stroke-linejoin:miter;stroke-miterlimit:4;stroke-dasharray:none;stroke-dashoffset:0;stroke-opacity:1;enable-background:new"
       id="rect5136"
       width="20.809349"
       height="40.600933"
       x="-288.47989"
       y="378.37775"
       transform="rotate(-90)" />
    <rect
       style="display:inline;fill:#050505;fill-opacity:1;fill-rule:nonzero;stroke:#050202;stroke-width:1.077;stroke-linecap:round;stroke-linejoin:miter;stroke-miterlimit:4;stroke-dasharray:none;stroke-dashoffset:0;stroke-opacity:1;enable-background:new"
       id="rect5146"
       width="62.428085"
       height="6.7668252"
       x="-385.59033"
       y="385.14456"
       ry="3.3834126"
       transform="rotate(-90)" />
    <rect
       ry="3.3834126"
       y="364.84406"
       x="-385.59033"
       height="6.7668252"
       width="62.428085"
       id="rect5148"
       style="display:inline;fill:#050505;fill-opacity:1;fill-rule:nonzero;stroke:#050202;stroke-width:1.077;stroke-linecap:round;stroke-linejoin:miter;stroke-miterlimit:4;stroke-dasharray:none;stroke-dashoffset:0;stroke-opacity:1;enable-background:new"
       transform="rotate(-90)" />
    <rect
       style="display:inline;fill:#050505;fill-opacity:1;fill-rule:nonzero;stroke:#050202;stroke-width:1.077;stroke-linecap:round;stroke-linejoin:miter;stroke-miterlimit:4;stroke-dasharray:none;stroke-dashoffset:0;stroke-opacity:1;enable-background:new"
       id="rect5150"
       width="62.428085"
       height="6.7668252"
       x="-385.59033"
       y="344.54361"
       ry="3.3834126"
       transform="rotate(-90)" />
    <rect
       ry="3.3834126"
       y="324.2431"
       x="-385.59033"
       height="6.7668252"
       width="62.428085"
       id="rect5152"
       style="display:inline;fill:#050505;fill-opacity:1;fill-rule:nonzero;stroke:#050202;stroke-width:1.077;stroke-linecap:round;stroke-linejoin:miter;stroke-miterlimit:4;stroke-dasharray:none;stroke-dashoffset:0;stroke-opacity:1;enable-background:new"
       transform="rotate(-90)" />
    <rect
       style="display:inline;fill:#52536d;fill-opacity:1;fill-rule:nonzero;stroke:#050202;stroke-width:1.02348;stroke-linecap:round;stroke-linejoin:miter;stroke-miterlimit:4;stroke-dasharray:none;stroke-dashoffset:0;stroke-opacity:1;enable-background:new"
       id="rect3696"
       width="219.80083"
       height="151.97159"
       x="-622.19403"
       y="513.40137"
       transform="rotate(-90)" />
    <rect
       style="display:inline;fill:#909797;fill-opacity:1;fill-rule:nonzero;stroke:#050202;stroke-width:1.02348;stroke-linecap:round;stroke-linejoin:miter;stroke-miterlimit:4;stroke-dasharray:none;stroke-dashoffset:0;stroke-opacity:1;enable-background:new"
       id="rect3702"
       width="68.287636"
       height="35.39064"
       x="-622.19403"
       y="669.53656"
       transform="rotate(-90)" />
    <rect
       style="display:inline;fill:#80807c;fill-opacity:1;fill-rule:nonzero;stroke:#050202;stroke-width:1.02348;stroke-linecap:round;stroke-linejoin:miter;stroke-miterlimit:4;stroke-dasharray:none;stroke-dashoffset:0;stroke-opacity:1;enable-background:new"
       id="rect3698"
       width="27.741844"
       height="179.03496"
       x="-624.32794"
       y="500.91055"
       ry="10.409011"
       transform="rotate(-90)" />
    <rect
       style="display:inline;fill:#b3b7bd;fill-opacity:1;fill-rule:nonzero;stroke:#050202;stroke-width:1.02348;stroke-linecap:round;stroke-linejoin:miter;stroke-miterlimit:4;stroke-dasharray:none;stroke-dashoffset:0;stroke-opacity:1;enable-background:new"
       id="rect3700"
       width="55.4837"
       height="58.290462"
       x="-637.13196"
       y="559.20099"
       transform="rotate(-90)" />
    <rect
       style="display:inline;fill:#909797;fill-opacity:1;fill-rule:nonzero;stroke:#050202;stroke-width:1.02348;stroke-linecap:round;stroke-linejoin:miter;stroke-miterlimit:4;stroke-dasharray:none;stroke-dashoffset:0;stroke-opacity:1;enable-background:new"
       id="rect3704"
       width="119.50332"
       height="79.10849"
       x="-519.7627"
       y="690.35449"
       transform="rotate(-90)" />
    <rect
       style="display:inline;fill:url(#linearGradient5796);fill-opacity:1;fill-rule:nonzero;stroke:#050202;stroke-width:1.02348;stroke-linecap:round;stroke-linejoin:miter;stroke-miterlimit:4;stroke-dasharray:none;stroke-dashoffset:0;stroke-opacity:1;enable-background:new"
       id="rect3706"
       width="119.4229"
       height="29.646059"
       x="-519.7627"
       y="690.35449"
       transform="rotate(-90)" />
    <rect
       style="display:inline;fill:#f25c55;fill-opacity:1;fill-rule:nonzero;stroke:#7f0202;stroke-width:1.02348;stroke-linecap:round;stroke-linejoin:miter;stroke-miterlimit:4;stroke-dasharray:none;stroke-dashoffset:0;stroke-opacity:1;enable-background:new"
       id="rect3716"
       width="16.941647"
       height="5.008286"
       x="-427.55685"
       y="705.81293"
       transform="rotate(-90)" />
    <rect
       style="display:inline;fill:#f2cecf;fill-opacity:1;fill-rule:nonzero;stroke:#7f0202;stroke-width:1.02348;stroke-linecap:round;stroke-linejoin:miter;stroke-miterlimit:4;stroke-dasharray:none;stroke-dashoffset:0;stroke-opacity:1;enable-background:new"
       id="rect3718"
       width="6.6739807"
       height="12.019885"
       x="-455.27933"
       y="699.80304"
       transform="rotate(-90)" />
    <rect
       style="display:inline;fill:#f2cecf;fill-opacity:1;fill-rule:nonzero;stroke:#7f0202;stroke-width:1.02348;stroke-linecap:round;stroke-linejoin:miter;stroke-miterlimit:4;stroke-dasharray:none;stroke-dashoffset:0;stroke-opacity:1;enable-background:new"
       id="rect3720"
       width="6.1605988"
       height="12.520715"
       x="-466.57382"
       y="699.30219"
       transform="rotate(-90)" />
    <rect
       style="display:inline;fill:#f2cecf;fill-opacity:1;fill-rule:nonzero;stroke:#7f0202;stroke-width:1.02348;stroke-linecap:round;stroke-linejoin:miter;stroke-miterlimit:4;stroke-dasharray:none;stroke-dashoffset:0;stroke-opacity:1;enable-background:new"
       id="rect3722"
       width="6.1605921"
       height="12.520658"
       x="-477.86823"
       y="699.30219"
       transform="rotate(-90)" />
    <path
       style="display:inline;fill:none;stroke:#000000;stroke-width:1.30214px;stroke-linecap:butt;stroke-linejoin:miter;stroke-opacity:1;enable-background:new"
       d="m 633.78381,594.34719 0.53416,-191.16224"
       id="path3724"
       inkscape:connector-curvature="0" />
    <path
       style="display:inline;fill:none;stroke:#000000;stroke-width:1.30214px;stroke-linecap:butt;stroke-linejoin:miter;stroke-opacity:1;enable-background:new"
       d="M 544.28949,594.34719 V 403.18495"
       id="path3726"
       inkscape:connector-curvature="0" />
    <path
       style="display:inline;fill:none;stroke:#000000;stroke-width:1.30214px;stroke-linecap:butt;stroke-linejoin:miter;stroke-opacity:1;enable-background:new"
       d="M 589.30371,581.16359 V 403.18495"
       id="path3728"
       inkscape:connector-curvature="0" />
    <path
       style="display:inline;fill:none;stroke:#000000;stroke-width:1.30214px;stroke-linecap:butt;stroke-linejoin:miter;stroke-opacity:1;enable-background:new"
       d="m 617.34566,630.69901 c 0,0 43.52029,12.84146 62.11952,3.44198 10.95247,-5.53501 20.70648,-30.97778 20.70648,-30.97778"
       id="path3730"
       sodipodi:nodetypes="cac"
       inkscape:connector-curvature="0" />
    <path
       style="display:inline;fill:none;stroke:#000000;stroke-width:1.30214px;stroke-linecap:butt;stroke-linejoin:miter;stroke-opacity:1;enable-background:new"
       d="m 617.34566,625.53606 c 0,0 42.45697,13.42122 60.4406,4.01568 9.03583,-4.7258 16.22941,-26.38853 16.22941,-26.38853"
       id="path3732"
       sodipodi:nodetypes="cac"
       inkscape:connector-curvature="0" />
    <ellipse
       transform="rotate(-90)"
       style="display:inline;fill:#0a0c0c;fill-opacity:1;fill-rule:nonzero;stroke:#050202;stroke-width:1.02348;stroke-linecap:round;stroke-linejoin:miter;stroke-miterlimit:4;stroke-dasharray:none;stroke-dashoffset:0;stroke-opacity:1;enable-background:new"
       id="path3734"
       cx="-603.45001"
       cy="696.81378"
       rx="2.5814879"
       ry="7.2752571" />
    <rect
       style="display:inline;fill:#8cbed2;fill-opacity:1;fill-rule:nonzero;stroke:#050202;stroke-width:1.18632;stroke-linecap:round;stroke-linejoin:miter;stroke-miterlimit:4;stroke-dasharray:none;stroke-dashoffset:0;stroke-opacity:1;enable-background:new"
       id="rect5260"
       width="129.8905"
       height="163.98289"
       x="175.32426"
       y="-672.37476"
       transform="rotate(90)" />
    <rect
       style="display:inline;fill:url(#linearGradient5855);fill-opacity:1;fill-rule:nonzero;stroke:#050202;stroke-width:1.18632;stroke-linecap:round;stroke-linejoin:miter;stroke-miterlimit:4;stroke-dasharray:none;stroke-dashoffset:0;stroke-opacity:1;enable-background:new"
       id="rect5262"
       width="22.921854"
       height="163.98289"
       x="305.21478"
       y="-672.37476"
       transform="rotate(90)" />
    <rect
       style="display:inline;fill:url(#linearGradient5852);fill-opacity:1;fill-rule:nonzero;stroke:#050202;stroke-width:1.18632;stroke-linecap:round;stroke-linejoin:miter;stroke-miterlimit:4;stroke-dasharray:none;stroke-dashoffset:0;stroke-opacity:1;enable-background:new"
       id="rect5272"
       width="61.124935"
       height="163.98289"
       x="328.1366"
       y="-672.37476"
       transform="rotate(90)" />
    <rect
       style="display:inline;fill:#050204;fill-opacity:1;fill-rule:nonzero;stroke:#050202;stroke-width:1.18632;stroke-linecap:round;stroke-linejoin:miter;stroke-miterlimit:4;stroke-dasharray:none;stroke-dashoffset:0;stroke-opacity:1;enable-background:new"
       id="rect5284"
       width="7.6406169"
       height="149.07536"
       x="312.85541"
       y="-664.92096"
       transform="rotate(90)" />
    <rect
       style="display:inline;fill:#31ab9b;fill-opacity:1;fill-rule:nonzero;stroke:#050202;stroke-width:1.18632;stroke-linecap:round;stroke-linejoin:miter;stroke-miterlimit:4;stroke-dasharray:none;stroke-dashoffset:0;stroke-opacity:1;enable-background:new"
       id="rect5286"
       width="114.60928"
       height="149.07536"
       x="182.96484"
       y="-664.92096"
       ry="14.907535"
       transform="rotate(90)" />
    <rect
       ry="32.481506"
       y="387.27753"
       x="36.702942"
       height="162.40752"
       width="126.75146"
       id="rect3622"
       style="display:inline;opacity:0.5;fill:#47484a;fill-opacity:1;fill-rule:nonzero;stroke:#050202;stroke-width:1.26083;stroke-linecap:round;stroke-linejoin:miter;stroke-miterlimit:4;stroke-dasharray:none;stroke-dashoffset:0;stroke-opacity:1;enable-background:new"
       transform="matrix(0.99977046,-0.02142486,0.02039023,0.9997921,0,0)" />
    <rect
       y="410.84082"
       x="162.19565"
       height="123.55543"
       width="17.95225"
       id="rect3624"
       style="display:inline;opacity:0.5;fill:#0c0b0c;fill-opacity:1;fill-rule:nonzero;stroke:#050202;stroke-width:1.26083;stroke-linecap:round;stroke-linejoin:miter;stroke-miterlimit:4;stroke-dasharray:none;stroke-dashoffset:0;stroke-opacity:1;enable-background:new"
       transform="matrix(0.99977046,-0.02142486,0.02039023,0.9997921,0,0)" />
    <rect
       y="410.84082"
       x="57.046703"
       height="18.401875"
       width="87.196632"
       id="rect3626"
       style="display:inline;opacity:0.5;fill:#0c0b0c;fill-opacity:1;fill-rule:nonzero;stroke:#050202;stroke-width:1.26083;stroke-linecap:round;stroke-linejoin:miter;stroke-miterlimit:4;stroke-dasharray:none;stroke-dashoffset:0;stroke-opacity:1;enable-background:new"
       transform="matrix(0.99977046,-0.02142486,0.02039023,0.9997921,0,0)" />
    <rect
       style="display:inline;opacity:0.5;fill:#0c0b0c;fill-opacity:1;fill-rule:nonzero;stroke:#050202;stroke-width:1.26083;stroke-linecap:round;stroke-linejoin:miter;stroke-miterlimit:4;stroke-dasharray:none;stroke-dashoffset:0;stroke-opacity:1;enable-background:new"
       id="rect3628"
       width="87.196632"
       height="18.401875"
       x="57.046703"
       y="445.01578"
       transform="matrix(0.99977046,-0.02142486,0.02039023,0.9997921,0,0)" />
    <rect
       y="476.56189"
       x="57.046703"
       height="18.401875"
       width="87.196632"
       id="rect3630"
       style="display:inline;opacity:0.5;fill:#0c0b0c;fill-opacity:1;fill-rule:nonzero;stroke:#050202;stroke-width:1.26083;stroke-linecap:round;stroke-linejoin:miter;stroke-miterlimit:4;stroke-dasharray:none;stroke-dashoffset:0;stroke-opacity:1;enable-background:new"
       transform="matrix(0.99977046,-0.02142486,0.02039023,0.9997921,0,0)" />
    <rect
       style="display:inline;opacity:0.5;fill:#0c0b0c;fill-opacity:1;fill-rule:nonzero;stroke:#050202;stroke-width:1.26083;stroke-linecap:round;stroke-linejoin:miter;stroke-miterlimit:4;stroke-dasharray:none;stroke-dashoffset:0;stroke-opacity:1;enable-background:new"
       id="rect3632"
       width="87.196632"
       height="18.401875"
       x="57.046703"
       y="505.4791"
       transform="matrix(0.99977046,-0.02142486,0.02039023,0.9997921,0,0)" />
    <rect
       style="display:inline;fill:#69696b;fill-opacity:1;fill-rule:nonzero;stroke:#050202;stroke-width:1.09069;stroke-linecap:round;stroke-linejoin:miter;stroke-miterlimit:4;stroke-dasharray:none;stroke-dashoffset:0;stroke-opacity:1;enable-background:new"
       id="rect3686"
       width="113.84728"
       height="115.26363"
       x="-235.09135"
       y="565.74554"
       ry="20.340641"
       transform="matrix(0.86041989,-0.50958573,0.49101532,0.87115094,0,0)" />
    <circle
       transform="matrix(0.8604199,-0.5095857,0.49101529,0.87115095,0,0)"
       style="display:inline;fill:#000000;fill-opacity:1;fill-rule:nonzero;stroke:#050202;stroke-width:1.09069;stroke-linecap:round;stroke-linejoin:miter;stroke-miterlimit:4;stroke-dasharray:none;stroke-dashoffset:0;stroke-opacity:1;enable-background:new"
       id="path3688"
       cx="-179.28375"
       cy="622.24731"
       rx="40.181393"
       ry="40.681282" />
    <ellipse
       style="display:inline;fill:#b5b6b1;fill-opacity:1;fill-rule:nonzero;stroke:#050202;stroke-width:1.09069;stroke-linecap:round;stroke-linejoin:miter;stroke-miterlimit:4;stroke-dasharray:none;stroke-dashoffset:0;stroke-opacity:1;enable-background:new"
       id="path3692"
       transform="matrix(0.8604199,-0.5095857,0.49101529,0.87115095,0,0)"
       cx="-179.28377"
       cy="622.24731"
       rx="26.787594"
       ry="27.12085" />
    <rect
       style="display:inline;fill:#7a7879;fill-opacity:1;fill-rule:nonzero;stroke:#050202;stroke-width:1.09069;stroke-linecap:round;stroke-linejoin:miter;stroke-miterlimit:4;stroke-dasharray:none;stroke-dashoffset:0;stroke-opacity:1;enable-background:new"
       id="rect3694"
       width="78.130486"
       height="13.560461"
       x="-203.83904"
       y="613.20697"
       ry="4.5201588"
       transform="matrix(0.86041989,-0.50958573,0.49101532,0.87115094,0,0)" />
    <rect
       style="fill:#ea6207;fill-opacity:1;fill-rule:nonzero;stroke:#000000;stroke-width:1.53009;stroke-linecap:round;stroke-linejoin:miter;stroke-miterlimit:4;stroke-dasharray:none;stroke-dashoffset:0;stroke-opacity:1"
       id="rect5916"
       width="80.322639"
       height="234.68996"
       x="233.30275"
       y="14.610592"
       transform="matrix(0.83176857,0.55512254,-0.5361504,0.84412247,0,0)" />
    <rect
       style="display:inline;fill:#37383f;fill-opacity:1;fill-rule:nonzero;stroke:#090407;stroke-width:0.993787;stroke-linecap:round;stroke-linejoin:miter;stroke-miterlimit:4;stroke-dasharray:none;stroke-dashoffset:0;stroke-opacity:1;enable-background:new"
       id="rect3751"
       width="23.872307"
       height="25.408184"
       x="-293.86087"
       y="-129.76631"
       ry="4.768888"
       transform="matrix(-0.82625865,-0.5632909,0.54428108,-0.83890292,0,0)" />
    <path
       style="display:inline;fill:#bcb9bb;fill-opacity:1;fill-rule:nonzero;stroke:#090407;stroke-width:0.993657;stroke-linecap:round;stroke-linejoin:miter;stroke-miterlimit:4;stroke-dashoffset:0;stroke-opacity:1;enable-background:new"
       d="m 167.92812,260.92426 -8.23082,-7.53466 2.91385,-3.76816 9.09449,4.75751 -3.77752,6.5453 z"
       id="rect3753"
       sodipodi:nodetypes="ccccc"
       inkscape:connector-curvature="0" />
    <rect
       style="display:inline;fill:#4848cc;fill-opacity:1;fill-rule:nonzero;stroke:#090407;stroke-width:0.993787;stroke-linecap:round;stroke-linejoin:miter;stroke-miterlimit:4;stroke-dasharray:none;stroke-dashoffset:0;stroke-opacity:1;enable-background:new"
       id="rect3758"
       width="16.1385"
       height="4.3714814"
       x="-298.73755"
       y="-119.58653"
       transform="matrix(-0.82625865,-0.5632909,0.54428108,-0.83890292,0,0)" />
    <path
       style="display:inline;fill:none;stroke:#000000;stroke-width:1.2642px;stroke-linecap:butt;stroke-linejoin:miter;stroke-opacity:1;enable-background:new"
       d="m 185.21123,267.59421 c -0.64991,0.0371 -2.31033,0.66899 -1.94984,0.11307 0.46164,-0.71159 1.61324,-0.45044 2.38244,-0.78005 0.065,-0.0279 0.57783,-0.89064 0.64885,-1.00017 0.43262,-0.66667 0.86526,-1.33349 1.29788,-2.00029 0.64885,-1.00016 1.29786,-2.00033 1.94671,-3.00049 0.11333,-0.17441 0.85103,-1.21671 0.86524,-1.3335 0.0227,-0.18727 -0.13147,-0.36788 -0.1088,-0.55515 0.0317,-0.26502 0.484,-0.40505 0.43262,-0.66666 -0.0257,-0.13011 -0.2995,-0.0914 -0.32518,-0.22166 -0.0363,-0.18479 0.46888,-0.48204 0.43262,-0.66667 -0.0257,-0.13011 -0.29949,-0.0914 -0.32519,-0.22165 -0.0257,-0.13011 0.24193,-0.20261 0.21639,-0.33334 -0.0257,-0.13011 -0.29949,-0.0914 -0.32518,-0.22165 -0.0514,-0.26162 0.48399,-0.40505 0.43262,-0.66683 -0.0257,-0.1301 -0.2995,-0.0914 -0.32519,-0.22165 -0.0257,-0.13011 0.24193,-0.2026 0.21639,-0.33348 -0.0257,-0.13011 -0.29949,-0.0914 -0.32519,-0.22166 -0.0257,-0.13012 0.24193,-0.20262 0.21639,-0.3335 -0.0257,-0.13011 -0.29949,-0.0914 -0.32518,-0.22166 -0.0514,-0.26162 0.48399,-0.40504 0.43262,-0.66682 -0.0257,-0.13012 -0.2995,-0.0914 -0.32519,-0.22165 -0.0362,-0.18495 0.46889,-0.48172 0.43262,-0.66667 -0.0257,-0.13011 -0.29949,-0.0914 -0.32517,-0.22166 -0.0257,-0.1301 0.24191,-0.2026 0.21623,-0.33348 -0.0257,-0.13012 -0.29949,-0.0914 -0.32518,-0.22165 -0.0514,-0.26163 0.40058,-0.40196 0.43262,-0.66668 0.0227,-0.18726 -0.13147,-0.36787 -0.1088,-0.55514 0.0166,-0.13321 0.24192,-0.2026 0.21639,-0.33349 -0.0257,-0.13011 -0.2995,-0.0914 -0.32519,-0.22165 -0.0257,-0.13011 0.24193,-0.20261 0.21623,-0.33334 -0.0257,-0.13011 -0.29949,-0.0914 -0.32518,-0.22165 -0.0257,-0.13011 0.24192,-0.20261 0.21623,-0.33335 -0.0257,-0.13011 -0.21683,-0.14715 -0.32517,-0.22165 -0.54203,-0.36959 -1.08405,-0.739 -1.62615,-1.10859 -0.86721,-0.59122 -1.73459,-1.18246 -2.60189,-1.77379 -0.10879,-0.0744 -0.21684,-0.14715 -0.32518,-0.22166 -0.1088,-0.0743 -0.19765,-0.24798 -0.32518,-0.22165 -0.12693,0.0263 -0.0892,0.307 -0.21638,0.33334 -0.11032,0.0233 -0.80405,-0.64313 -0.9757,-0.66512 -0.18254,-0.0233 -0.35873,0.13476 -0.54157,0.11152 -0.12996,-0.017 -0.19764,-0.24799 -0.32518,-0.22165 -0.12693,0.0263 -0.10277,0.26688 -0.21623,0.33334 -1.57698,0.9261 0.25371,-0.34108 -0.86676,-0.10999 -0.12693,0.0263 -0.0892,0.307 -0.21623,0.33349 -0.12693,0.0263 -0.19764,-0.24798 -0.32518,-0.22165 -0.12693,0.0263 -0.0891,0.307 -0.21623,0.33333 -0.12694,0.0263 -0.19767,-0.24799 -0.32521,-0.22165 -0.12692,0.0263 -0.0892,0.307 -0.21637,0.33348 -0.18058,0.0371 -0.4698,-0.48063 -0.65052,-0.44346 -0.12693,0.0263 -0.0891,0.30701 -0.21638,0.33349 -0.12694,0.0263 -0.21685,-0.14714 -0.32519,-0.22165 -0.23059,-0.15722 -1.83936,-1.31615 -1.9514,-1.33039 -0.18253,-0.0233 -0.35872,0.13476 -0.54156,0.11152 -0.23513,-0.0294 -1.15279,-0.91745 -1.30089,-0.88694 -0.12693,0.0263 -0.0892,0.30701 -0.21624,0.33351 -0.12692,0.0263 -0.19599,-0.20541 -0.32518,-0.22168 -0.18254,-0.0233 -0.35873,0.13476 -0.54156,0.11153 -0.12995,-0.017 -0.19765,-0.24799 -0.32519,-0.22166 -0.12693,0.0263 -0.0892,0.30701 -0.21623,0.33351 -0.12693,0.0263 -0.19599,-0.20541 -0.32519,-0.22168 -0.18253,-0.0233 -0.36099,0.0744 -0.54156,0.11153"
       id="path3761"
       inkscape:connector-curvature="0" />
    <rect
       style="display:inline;fill:#859296;fill-opacity:1;fill-rule:nonzero;stroke:#090407;stroke-width:1.08769;stroke-linecap:round;stroke-linejoin:miter;stroke-miterlimit:4;stroke-dasharray:none;stroke-dashoffset:0;stroke-opacity:1;enable-background:new"
       id="rect3769"
       width="41.370064"
       height="38.265282"
       x="-285.31235"
       y="-74.877403"
       transform="matrix(-0.8190738,-0.57368817,0.5546462,-0.83208629,0,0)" />
    <rect
       style="display:inline;fill:#599296;fill-opacity:1;fill-rule:nonzero;stroke:#090407;stroke-width:1.08769;stroke-linecap:round;stroke-linejoin:miter;stroke-miterlimit:4;stroke-dasharray:none;stroke-dashoffset:0;stroke-opacity:1;enable-background:new"
       id="rect3771"
       width="4.3093815"
       height="15.653978"
       x="-290.48355"
       y="-70.529083"
       transform="matrix(-0.8190738,-0.57368817,0.5546462,-0.83208629,0,0)" />
    <rect
       style="display:inline;fill:#1d1f1d;fill-opacity:1;fill-rule:nonzero;stroke:#090407;stroke-width:1.08769;stroke-linecap:round;stroke-linejoin:miter;stroke-miterlimit:4;stroke-dasharray:none;stroke-dashoffset:0;stroke-opacity:1;enable-background:new"
       id="rect3773"
       width="5.171258"
       height="7.8269892"
       x="-290.48355"
       y="-47.048092"
       transform="matrix(-0.8190738,-0.57368817,0.5546462,-0.83208629,0,0)" />
    <rect
       style="display:inline;fill:#292927;fill-opacity:1;fill-rule:nonzero;stroke:#090407;stroke-width:0.974074;stroke-linecap:round;stroke-linejoin:miter;stroke-miterlimit:4;stroke-dasharray:none;stroke-dashoffset:0;stroke-opacity:1;enable-background:new"
       id="rect3765"
       width="34.741329"
       height="49.833107"
       x="-281.5249"
       y="-225.44922"
       transform="matrix(-0.81318411,-0.58200653,0.56295183,-0.82648971,0,0)" />
    <rect
       style="display:inline;fill:#807a7b;fill-opacity:1;fill-rule:nonzero;stroke:#090407;stroke-width:0.974074;stroke-linecap:round;stroke-linejoin:miter;stroke-miterlimit:4;stroke-dasharray:none;stroke-dashoffset:0;stroke-opacity:1;enable-background:new"
       id="rect3767"
       width="4.6321774"
       height="42.04668"
       x="-287.70117"
       y="-221.556"
       transform="matrix(-0.81318411,-0.58200653,0.56295183,-0.82648971,0,0)" />
  </g>
</svg>
