<?xml version="1.0" encoding="UTF-8" standalone="no"?>
<!-- Created with Inkscape (http://www.inkscape.org/) -->

<svg
   xmlns:dc="http://purl.org/dc/elements/1.1/"
   xmlns:cc="http://creativecommons.org/ns#"
   xmlns:rdf="http://www.w3.org/1999/02/22-rdf-syntax-ns#"
   xmlns:svg="http://www.w3.org/2000/svg"
   xmlns="http://www.w3.org/2000/svg"
   xmlns:xlink="http://www.w3.org/1999/xlink"
   xmlns:sodipodi="http://sodipodi.sourceforge.net/DTD/sodipodi-0.dtd"
   xmlns:inkscape="http://www.inkscape.org/namespaces/inkscape"
   width="61.465576"
   height="59.154072"
   id="svg2396"
   sodipodi:version="0.32"
   inkscape:version="0.48.3.1 r9886"
   sodipodi:docname="machinery_hab.svg"
   inkscape:output_extension="org.inkscape.output.svg.inkscape"
   version="1.0"
   inkscape:export-filename="/home/scud/Documents/msp/concept_art/lander_hab_color.png"
   inkscape:export-xdpi="99.859245"
   inkscape:export-ydpi="99.859245"
   style="enable-background:new">
  <defs
     id="defs2398">
    <linearGradient
       id="linearGradient3282">
      <stop
         style="stop-color:#000000;stop-opacity:1;"
         offset="0"
         id="stop3284" />
      <stop
         style="stop-color:#7b7b7b;stop-opacity:1;"
         offset="1"
         id="stop3286" />
    </linearGradient>
    <linearGradient
       id="linearGradient3273">
      <stop
         style="stop-color:#000002;stop-opacity:1;"
         offset="0"
         id="stop3275" />
      <stop
         style="stop-color:#777779;stop-opacity:0.99137932;"
         offset="1"
         id="stop3277" />
    </linearGradient>
    <linearGradient
       id="linearGradient3264">
      <stop
         style="stop-color:#040000;stop-opacity:1;"
         offset="0"
         id="stop3266" />
      <stop
         style="stop-color:#848484;stop-opacity:1;"
         offset="1"
         id="stop3268" />
    </linearGradient>
    <linearGradient
       id="linearGradient3255">
      <stop
         style="stop-color:#000000;stop-opacity:1;"
         offset="0"
         id="stop3257" />
      <stop
         style="stop-color:#828282;stop-opacity:1;"
         offset="1"
         id="stop3259" />
    </linearGradient>
    <radialGradient
       inkscape:collect="always"
       xlink:href="#linearGradient3255"
       id="radialGradient3261"
       cx="295.45956"
       cy="93.1082"
       fx="295.45956"
       fy="93.1082"
       r="9.4972916"
       gradientTransform="matrix(-0.1087551,1.2263264,1.2938297,0.1147415,209.43424,-241.07979)"
       gradientUnits="userSpaceOnUse" />
    <radialGradient
       inkscape:collect="always"
       xlink:href="#linearGradient3264"
       id="radialGradient3270"
       cx="337.68759"
       cy="93.485535"
       fx="337.68759"
       fy="93.485535"
       r="9.3880892"
       gradientTransform="matrix(1.4881021,0.02657571,0.02141351,-1.1990457,-167.32106,234.26434)"
       gradientUnits="userSpaceOnUse" />
    <radialGradient
       inkscape:collect="always"
       xlink:href="#linearGradient3273"
       id="radialGradient3279"
       cx="336.77481"
       cy="134.02927"
       fx="336.77481"
       fy="134.02927"
       r="9.4417067"
       gradientTransform="matrix(0.01624833,-1.1716506,-1.1461117,-0.01589417,485.22738,491.16259)"
       gradientUnits="userSpaceOnUse" />
    <radialGradient
       inkscape:collect="always"
       xlink:href="#linearGradient3282"
       id="radialGradient3319"
       gradientUnits="userSpaceOnUse"
       gradientTransform="matrix(-1.1432233,0.01713534,0.01728499,1.1532927,630.449,-65.185943)"
       cx="293.59091"
       cy="134.23401"
       fx="293.59091"
       fy="134.23401"
       r="9.5718613" />
    <linearGradient
       id="linearGradient5110">
      <stop
         style="stop-color:#141010;stop-opacity:1;"
         offset="0"
         id="stop5112" />
      <stop
         style="stop-color:#2f3137;stop-opacity:0.97647059;"
         offset="1"
         id="stop5114" />
    </linearGradient>
    <linearGradient
       inkscape:collect="always"
       xlink:href="#linearGradient5110"
       id="linearGradient5704"
       gradientUnits="userSpaceOnUse"
       gradientTransform="matrix(0.08956317,0,0,0.08956317,-59.675076,3.527052)"
       x1="445"
       y1="270"
       x2="430"
       y2="270" />
    <linearGradient
       inkscape:collect="always"
       xlink:href="#linearGradient5110"
       id="linearGradient5707"
       gradientUnits="userSpaceOnUse"
       gradientTransform="matrix(0.08956317,0,0,0.08956317,-59.675076,3.527052)"
       x1="445"
       y1="215"
       x2="430"
       y2="215" />
    <linearGradient
       inkscape:collect="always"
       xlink:href="#linearGradient5110"
       id="linearGradient5714"
       gradientUnits="userSpaceOnUse"
       gradientTransform="matrix(0.08956317,0,0,0.08956317,-59.675076,3.527052)"
       x1="294.60699"
       y1="240"
       x2="335"
       y2="240" />
    <linearGradient
       id="linearGradient3708">
      <stop
         style="stop-color:#8f8f97;stop-opacity:1;"
         offset="0"
         id="stop3710" />
      <stop
         style="stop-color:#585456;stop-opacity:1;"
         offset="1"
         id="stop3712" />
    </linearGradient>
    <linearGradient
       inkscape:collect="always"
       xlink:href="#linearGradient3708"
       id="linearGradient5796"
       gradientUnits="userSpaceOnUse"
       gradientTransform="matrix(0.08511304,0,0,0.08511304,-69.848061,4.57687)"
       x1="439.88477"
       y1="517.99426"
       x2="440.67078"
       y2="498.57025" />
    <linearGradient
       id="linearGradient5274">
      <stop
         style="stop-color:#9d4199;stop-opacity:1;"
         offset="0"
         id="stop5276" />
      <stop
         id="stop5282"
         offset="0.5"
         style="stop-color:#be7e95;stop-opacity:0.99215686;" />
      <stop
         style="stop-color:#9d4199;stop-opacity:0.96862745;"
         offset="1"
         id="stop5278" />
    </linearGradient>
    <linearGradient
       id="linearGradient5264">
      <stop
         style="stop-color:#494a4a;stop-opacity:1;"
         offset="0"
         id="stop5266" />
      <stop
         style="stop-color:#872d87;stop-opacity:0.96078432;"
         offset="1"
         id="stop5268" />
    </linearGradient>
    <linearGradient
       inkscape:collect="always"
       xlink:href="#linearGradient5274"
       id="linearGradient5852"
       gradientUnits="userSpaceOnUse"
       gradientTransform="matrix(0.09865529,0,0,0.09865529,-6.366727,-105.50828)"
       x1="304.60699"
       y1="660"
       x2="345.39301"
       y2="660" />
    <linearGradient
       inkscape:collect="always"
       xlink:href="#linearGradient5264"
       id="linearGradient5855"
       gradientUnits="userSpaceOnUse"
       gradientTransform="matrix(0.09865529,0,0,0.09865529,-6.366727,-105.50828)"
       x1="289.60699"
       y1="660"
       x2="305.39301"
       y2="660" />
  </defs>
  <sodipodi:namedview
     id="base"
     pagecolor="#ffffff"
     bordercolor="#666666"
     borderopacity="1.0"
     gridtolerance="10000"
     guidetolerance="10"
     objecttolerance="10"
     inkscape:pageopacity="0.0"
     inkscape:pageshadow="2"
     inkscape:zoom="9.0628052"
     inkscape:cx="11.19715"
     inkscape:cy="30.719022"
     inkscape:document-units="px"
     inkscape:current-layer="layer6"
     showgrid="true"
     inkscape:snap-global="false"
     inkscape:window-width="1871"
     inkscape:window-height="1056"
     inkscape:window-x="49"
     inkscape:window-y="24"
     inkscape:snap-to-guides="false"
     showguides="false"
     inkscape:guide-bbox="true"
     inkscape:snap-grids="true"
     inkscape:snap-object-midpoints="true"
     inkscape:window-maximized="1"
     fit-margin-top="0"
     fit-margin-left="0"
     fit-margin-right="0"
     fit-margin-bottom="0">
    <inkscape:grid
       type="xygrid"
       id="grid2427"
       visible="true"
       enabled="true"
       empspacing="5"
       snapvisiblegridlinesonly="true"
       originx="-0.004942895px"
       originy="-0.010977786px" />
    <sodipodi:guide
       orientation="1,0"
       position="31.552615,37.725682"
       id="guide2842" />
    <sodipodi:guide
       orientation="0,1"
       position="-8.059844,30.001804"
       id="guide2844" />
  </sodipodi:namedview>
  <metadata
     id="metadata2401">
    <rdf:RDF>
      <cc:Work
         rdf:about="">
        <dc:format>image/svg+xml</dc:format>
        <dc:type
           rdf:resource="http://purl.org/dc/dcmitype/StillImage" />
        <dc:title />
      </cc:Work>
    </rdf:RDF>
  </metadata>
  <g
     inkscape:label="foot pads"
     inkscape:groupmode="layer"
     id="layer1"
     style="display:inline"
     transform="translate(-286.65647,-83.38369)">
    <path
       style="fill:url(#radialGradient3261);fill-opacity:1;fill-rule:evenodd;stroke:#000000;stroke-width:0.29960153px;stroke-linecap:butt;stroke-linejoin:miter;stroke-opacity:1;display:inline"
       d="m 290.37017,123.92237 c 0,0 -7.4496,7.44028 0.4656,15.39499 8.15175,7.2566 15.05221,-0.57909 15.05221,-0.57909"
       id="path2415"
       sodipodi:nodetypes="ccc"
       inkscape:connector-curvature="0" />
    <path
       style="fill:url(#radialGradient3270);fill-opacity:1;fill-rule:evenodd;stroke:#000000;stroke-width:0.29960153px;stroke-linecap:butt;stroke-linejoin:miter;stroke-opacity:1;display:inline"
       d="m 329.49009,138.81234 c 0,0 7.44029,7.7831 15.395,-0.1321 7.2566,-8.15175 -0.57909,-14.94103 -0.57909,-14.94103"
       id="path2417"
       sodipodi:nodetypes="ccc"
       inkscape:connector-curvature="0" />
    <path
       style="fill:url(#radialGradient3279);fill-opacity:1;fill-rule:evenodd;stroke:#000000;stroke-width:0.29960153px;stroke-linecap:butt;stroke-linejoin:miter;stroke-opacity:1;display:inline"
       d="m 344.58221,101.98778 c 0,0 7.4496,-7.440293 -0.4656,-15.395003 -8.15175,-7.2566 -14.94104,0.69026 -14.94104,0.69026"
       id="path2419"
       sodipodi:nodetypes="ccc"
       inkscape:connector-curvature="0" />
    <path
       style="fill:url(#radialGradient3319);fill-opacity:1;fill-rule:evenodd;stroke:#000000;stroke-width:0.29960153px;stroke-linecap:butt;stroke-linejoin:miter;stroke-opacity:1;display:inline"
       d="m 305.64545,87.340337 c 0,0 -7.88496,-7.78311 -15.83968,0.13209 -7.25659,8.15175 0.9126,15.274553 0.9126,15.274553"
       id="path2421"
       sodipodi:nodetypes="ccc"
       inkscape:connector-curvature="0" />
  </g>
  <g
     inkscape:groupmode="layer"
     id="layer2"
     style="display:inline"
     transform="translate(-286.65647,-83.38369)"
     inkscape:label="frame">
    <path
       sodipodi:type="arc"
       style="fill:#ffffff;fill-opacity:1;fill-rule:evenodd;stroke:#000000;stroke-width:0.315;stroke-linecap:round;stroke-linejoin:miter;stroke-miterlimit:4;stroke-opacity:1;stroke-dasharray:none;stroke-dashoffset:0"
       id="path3634"
       sodipodi:cx="30.935921"
       sodipodi:cy="31.938292"
       sodipodi:rx="28.991379"
       sodipodi:ry="28.991379"
       d="m 59.927299,31.938292 c 0,16.011496 -12.979882,28.991378 -28.991378,28.991378 -16.011497,0 -28.9913791,-12.979882 -28.9913791,-28.991378 0,-16.011497 12.9798821,-28.9913792 28.9913791,-28.9913792 16.011496,0 28.991378,12.9798822 28.991378,28.9913792 z"
       transform="translate(286.65153,81.088741)" />
    <path
       sodipodi:type="arc"
       style="fill:#ffffff;fill-opacity:1;fill-rule:evenodd;stroke:#000000;stroke-width:0.315;stroke-linecap:round;stroke-linejoin:miter;stroke-miterlimit:4;stroke-opacity:1;stroke-dasharray:none;stroke-dashoffset:0"
       id="path3632"
       sodipodi:cx="30.935921"
       sodipodi:cy="31.938292"
       sodipodi:rx="26.870056"
       sodipodi:ry="26.870056"
       d="m 57.805977,31.938292 c 0,14.839922 -12.030134,26.870056 -26.870056,26.870056 -14.839923,0 -26.8700564,-12.030134 -26.8700564,-26.870056 0,-14.839923 12.0301334,-26.8700566 26.8700564,-26.8700566 14.839922,0 26.870056,12.0301336 26.870056,26.8700566 z"
       transform="translate(286.65153,81.088741)" />
    <path
       style="color:#000000;fill:#73797a;fill-opacity:1;fill-rule:nonzero;stroke:none;stroke-width:1;marker:none;visibility:visible;display:inline;overflow:visible;enable-background:accumulate"
       d="M 26.935483,60.376935 C 16.356859,58.832243 7.6146336,51.716067 3.9237058,41.645339 1.7189182,35.629557 1.697468,28.471158 3.865967,22.376679 6.7135295,14.373721 13.159792,7.845078 21.024381,4.9989879 31.598164,1.1724766 43.197355,3.7046426 51.113627,11.567633 c 4.533515,4.503001 7.318361,10.041827 8.278833,16.4659 0.299315,2.001956 0.256531,6.198551 -0.08451,8.289243 -1.243927,7.62574 -5.107113,14.000822 -11.325127,18.68888 -5.811843,4.381826 -13.813497,6.421566 -21.047344,5.365279 l 0,0 z m 8.711414,-1.75981 c 0.896185,-0.146311 2.592043,-0.582114 3.768571,-0.968452 8.749459,-2.873065 15.484944,-10.046255 17.76565,-18.92015 1.050736,-4.088261 1.052604,-9.557774 0.0046,-13.577843 C 54.90131,16.387422 48.250311,9.2003413 39.762711,6.3233101 31.779558,3.617271 23.01212,4.7070536 16.134742,9.2602398 6.2840813,15.781896 1.8150172,27.37857 4.7405548,38.826762 7.4873502,49.575499 16.833307,57.629967 28.007061,58.878141 c 1.831703,0.204612 5.570087,0.07689 7.639836,-0.261016 z"
       id="path3637"
       transform="translate(286.65153,81.088741)"
       inkscape:connector-curvature="0" />
  </g>
  <g
     inkscape:groupmode="layer"
     id="layer6"
     inkscape:label="interior"
     style="opacity:0.5"
     transform="translate(-0.00494289,-2.2949493)">
    <path
       sodipodi:type="arc"
       style="fill:#cececc;fill-opacity:1;fill-rule:nonzero;stroke:none;display:inline;enable-background:new"
       id="path5608"
       sodipodi:cx="31.226534"
       sodipodi:cy="31.336876"
       sodipodi:rx="26.812891"
       sodipodi:ry="26.812891"
       d="m 58.039425,31.336876 c 0,14.808351 -12.00454,26.812891 -26.812891,26.812891 -14.808351,0 -26.8128911,-12.00454 -26.8128911,-26.812891 0,-14.808351 12.0045401,-26.8128911 26.8128911,-26.8128911 14.808351,0 26.812891,12.0045401 26.812891,26.8128911 z"
       transform="translate(-0.22068222,0.55170556)" />
    <path
       style="fill:#eaedf0;fill-opacity:1;fill-rule:nonzero;stroke:#000000;stroke-width:0.1;stroke-miterlimit:4;stroke-opacity:1"
       d="m 17.87526,46.674287 c 0,0 2.535167,1.652845 3.945698,2.162673 2.96862,1.072989 6.138844,1.774935 9.295235,1.809607 3.003541,0.03299 6.073952,-0.457703 8.8808,-1.527261 1.438741,-0.548237 3.918768,-2.445019 3.918768,-2.445019 l 4.082621,5.958421 c 0,0 -5.026273,3.439367 -7.861041,4.458855 -2.908405,1.045971 -6.040719,1.605476 -9.131489,1.609906 -3.093059,0.0044 -6.229235,-0.546639 -9.142835,-1.584894 -2.868653,-1.022238 -7.960037,-4.483867 -7.960037,-4.483867 l 3.97228,-5.958421 z"
       id="rect5610"
       sodipodi:nodetypes="caaaccaaacc"
       inkscape:connector-curvature="0" />
    <path
       style="fill:none;stroke:#000000;stroke-width:0.1;stroke-linecap:butt;stroke-linejoin:miter;stroke-miterlimit:4;stroke-opacity:1;stroke-dasharray:none"
       d="m 37.515978,49.763841 2.758528,7.503196"
       id="path5613"
       sodipodi:nodetypes="cc"
       inkscape:connector-curvature="0" />
    <path
       style="fill:none;stroke:#000000;stroke-width:0.1;stroke-linecap:butt;stroke-linejoin:miter;stroke-miterlimit:4;stroke-opacity:1;stroke-dasharray:none"
       d="m 30.674829,50.64657 0,8.054901"
       id="path5615"
       inkscape:connector-curvature="0" />
    <path
       style="fill:none;stroke:#000000;stroke-width:0.1;stroke-linecap:butt;stroke-linejoin:miter;stroke-miterlimit:4;stroke-opacity:1;stroke-dasharray:none"
       d="m 23.723339,49.543159 -2.648187,7.282513"
       id="path5617"
       inkscape:connector-curvature="0" />
    <rect
       style="fill:#c76933;fill-opacity:1;fill-rule:nonzero;stroke:#000000;stroke-width:0.1;stroke-linecap:round;stroke-linejoin:miter;stroke-miterlimit:4;stroke-opacity:1;stroke-dasharray:none;stroke-dashoffset:0"
       id="rect5619"
       width="9.3789892"
       height="26.923229"
       x="35.529839"
       y="15.337415" />
    <rect
       y="19.648424"
       x="-41.762436"
       height="10.747581"
       width="26.868952"
       id="rect4516"
       style="fill:#ad552c;fill-opacity:1;fill-rule:nonzero;stroke:#050202;stroke-width:0.07039665;stroke-linecap:round;stroke-linejoin:miter;stroke-miterlimit:4;stroke-opacity:1;stroke-dasharray:none;stroke-dashoffset:0;display:inline;enable-background:new"
       transform="matrix(0,-1,1,0,0,0)" />
    <rect
       style="fill:#9b0c0c;fill-opacity:1;fill-rule:nonzero;stroke:#050202;stroke-width:0.33908617;stroke-linecap:round;stroke-linejoin:miter;stroke-miterlimit:4;stroke-opacity:1;stroke-dasharray:none;stroke-dashoffset:0;display:inline;enable-background:new"
       id="rect3666"
       width="10.747581"
       height="9.8519487"
       x="-41.314617"
       y="20.096239"
       ry="0.89563167"
       rx="0.89563167"
       transform="matrix(0,-1,1,0,0,0)" />
    <rect
       style="fill:url(#linearGradient5714);fill-opacity:1;fill-rule:nonzero;stroke:#050202;stroke-width:0.07039665;stroke-linecap:round;stroke-linejoin:miter;stroke-miterlimit:4;stroke-opacity:1;stroke-dasharray:none;stroke-dashoffset:0;display:inline;enable-background:new"
       id="rect3668"
       width="3.5825267"
       height="8.0606852"
       x="-33.253944"
       y="20.991871"
       transform="matrix(0,-1,1,0,0,0)" />
    <rect
       style="fill:#5f5d5e;fill-opacity:1;fill-rule:nonzero;stroke:#050202;stroke-width:0.07039665;stroke-linecap:round;stroke-linejoin:miter;stroke-miterlimit:4;stroke-opacity:1;stroke-dasharray:none;stroke-dashoffset:0;display:inline;enable-background:new"
       id="rect5118"
       width="8.5085011"
       height="8.9563169"
       x="-29.671412"
       y="20.544056"
       transform="matrix(0,-1,1,0,0,0)" />
    <rect
       style="fill:#5f5d5e;fill-opacity:1;fill-rule:nonzero;stroke:#050202;stroke-width:0.15995982;stroke-linecap:round;stroke-linejoin:miter;stroke-miterlimit:4;stroke-opacity:1;stroke-dasharray:none;stroke-dashoffset:0;display:inline;enable-background:new"
       id="rect5120"
       width="6.7172379"
       height="7.1650534"
       x="-28.775782"
       y="21.439686"
       ry="0.89563167"
       transform="matrix(0,-1,1,0,0,0)" />
    <rect
       style="fill:#3e3d3c;fill-opacity:1;fill-rule:nonzero;stroke:#050202;stroke-width:0.15995982;stroke-linecap:round;stroke-linejoin:miter;stroke-miterlimit:4;stroke-opacity:1;stroke-dasharray:none;stroke-dashoffset:0;display:inline;enable-background:new"
       id="rect5122"
       width="5.3737903"
       height="4.0303426"
       x="-20.715094"
       y="25.917845"
       rx="0.44781584"
       ry="0.44781584"
       transform="matrix(0,-1,1,0,0,0)" />
    <rect
       style="fill:#8a8510;fill-opacity:1;fill-rule:nonzero;stroke:#050202;stroke-width:0.15995982;stroke-linecap:round;stroke-linejoin:miter;stroke-miterlimit:4;stroke-opacity:1;stroke-dasharray:none;stroke-dashoffset:0;display:inline;enable-background:new"
       id="rect5124"
       width="5.2266536"
       height="5.3094616"
       x="-20.567963"
       y="20.160568"
       rx="0.44781584"
       ry="0.44781584"
       transform="matrix(0,-1,1,0,0,0)" />
    <rect
       style="fill:url(#linearGradient5707);fill-opacity:1;fill-rule:nonzero;stroke:#050202;stroke-width:0.07039665;stroke-linecap:round;stroke-linejoin:miter;stroke-miterlimit:4;stroke-opacity:1;stroke-dasharray:none;stroke-dashoffset:0;display:inline;enable-background:new"
       id="rect5126"
       width="1.3434476"
       height="3.5825267"
       x="-21.162909"
       y="20.991871"
       transform="matrix(0,-1,1,0,0,0)" />
    <rect
       style="fill:url(#linearGradient5704);fill-opacity:1;fill-rule:nonzero;stroke:#050202;stroke-width:0.07039665;stroke-linecap:round;stroke-linejoin:miter;stroke-miterlimit:4;stroke-opacity:1;stroke-dasharray:none;stroke-dashoffset:0;display:inline;enable-background:new"
       id="rect5136"
       width="1.3434466"
       height="2.6868937"
       x="-21.162909"
       y="26.36566"
       transform="matrix(0,-1,1,0,0,0)" />
    <rect
       style="fill:#050505;fill-opacity:1;fill-rule:nonzero;stroke:#050202;stroke-width:0.07039665;stroke-linecap:round;stroke-linejoin:miter;stroke-miterlimit:4;stroke-opacity:1;stroke-dasharray:none;stroke-dashoffset:0;display:inline;enable-background:new"
       id="rect5146"
       width="4.0303426"
       height="0.44781584"
       x="-27.432335"
       y="26.813477"
       ry="0.22390792"
       transform="matrix(0,-1,1,0,0,0)" />
    <rect
       ry="0.22390792"
       y="25.470028"
       x="-27.432335"
       height="0.44781584"
       width="4.0303426"
       id="rect5148"
       style="fill:#050505;fill-opacity:1;fill-rule:nonzero;stroke:#050202;stroke-width:0.07039665;stroke-linecap:round;stroke-linejoin:miter;stroke-miterlimit:4;stroke-opacity:1;stroke-dasharray:none;stroke-dashoffset:0;display:inline;enable-background:new"
       transform="matrix(0,-1,1,0,0,0)" />
    <rect
       style="fill:#050505;fill-opacity:1;fill-rule:nonzero;stroke:#050202;stroke-width:0.07039665;stroke-linecap:round;stroke-linejoin:miter;stroke-miterlimit:4;stroke-opacity:1;stroke-dasharray:none;stroke-dashoffset:0;display:inline;enable-background:new"
       id="rect5150"
       width="4.0303426"
       height="0.44781584"
       x="-27.432335"
       y="24.126581"
       ry="0.22390792"
       transform="matrix(0,-1,1,0,0,0)" />
    <rect
       ry="0.22390792"
       y="22.783133"
       x="-27.432335"
       height="0.44781584"
       width="4.0303426"
       id="rect5152"
       style="fill:#050505;fill-opacity:1;fill-rule:nonzero;stroke:#050202;stroke-width:0.07039665;stroke-linecap:round;stroke-linejoin:miter;stroke-miterlimit:4;stroke-opacity:1;stroke-dasharray:none;stroke-dashoffset:0;display:inline;enable-background:new"
       transform="matrix(0,-1,1,0,0,0)" />
    <rect
       style="fill:#52536d;fill-opacity:1;fill-rule:nonzero;stroke:#050202;stroke-width:0.06689885;stroke-linecap:round;stroke-linejoin:miter;stroke-miterlimit:4;stroke-opacity:1;stroke-dasharray:none;stroke-dashoffset:0;display:inline;enable-background:new"
       id="rect3696"
       width="14.190289"
       height="10.057195"
       x="-42.707417"
       y="35.301273"
       transform="matrix(0,-1,1,0,0,0)" />
    <rect
       style="fill:#909797;fill-opacity:1;fill-rule:nonzero;stroke:#050202;stroke-width:0.06689885;stroke-linecap:round;stroke-linejoin:miter;stroke-miterlimit:4;stroke-opacity:1;stroke-dasharray:none;stroke-dashoffset:0;display:inline;enable-background:new"
       id="rect3702"
       width="4.4086332"
       height="2.3420863"
       x="-42.707417"
       y="45.634007"
       transform="matrix(0,-1,1,0,0,0)" />
    <rect
       style="fill:#80807c;fill-opacity:1;fill-rule:nonzero;stroke:#050202;stroke-width:0.06689885;stroke-linecap:round;stroke-linejoin:miter;stroke-miterlimit:4;stroke-opacity:1;stroke-dasharray:none;stroke-dashoffset:0;display:inline;enable-background:new"
       id="rect3698"
       width="1.7910069"
       height="11.8482"
       x="-42.845181"
       y="34.474655"
       ry="0.68884891"
       transform="matrix(0,-1,1,0,0,0)" />
    <rect
       style="fill:#b3b7bd;fill-opacity:1;fill-rule:nonzero;stroke:#050202;stroke-width:0.06689885;stroke-linecap:round;stroke-linejoin:miter;stroke-miterlimit:4;stroke-opacity:1;stroke-dasharray:none;stroke-dashoffset:0;display:inline;enable-background:new"
       id="rect3700"
       width="3.5820146"
       height="3.857554"
       x="-43.671803"
       y="38.332207"
       transform="matrix(0,-1,1,0,0,0)" />
    <rect
       style="fill:#909797;fill-opacity:1;fill-rule:nonzero;stroke:#050202;stroke-width:0.06689885;stroke-linecap:round;stroke-linejoin:miter;stroke-miterlimit:4;stroke-opacity:1;stroke-dasharray:none;stroke-dashoffset:0;display:inline;enable-background:new"
       id="rect3704"
       width="7.715106"
       height="5.2352524"
       x="-36.094471"
       y="47.011703"
       transform="matrix(0,-1,1,0,0,0)" />
    <rect
       style="fill:url(#linearGradient5796);fill-opacity:1;fill-rule:nonzero;stroke:#050202;stroke-width:0.06689885;stroke-linecap:round;stroke-linejoin:miter;stroke-miterlimit:4;stroke-opacity:1;stroke-dasharray:none;stroke-dashoffset:0;display:inline;enable-background:new"
       id="rect3706"
       width="7.7099142"
       height="1.9619209"
       x="-36.094471"
       y="47.011703"
       transform="matrix(0,-1,1,0,0,0)" />
    <rect
       style="fill:#f25c55;fill-opacity:1;fill-rule:nonzero;stroke:#7f0202;stroke-width:0.06689885;stroke-linecap:round;stroke-linejoin:miter;stroke-miterlimit:4;stroke-opacity:1;stroke-dasharray:none;stroke-dashoffset:0;display:inline;enable-background:new"
       id="rect3716"
       width="1.0937486"
       height="0.33143899"
       x="-30.141684"
       y="48.03471"
       transform="matrix(0,-1,1,0,0,0)" />
    <rect
       style="fill:#f2cecf;fill-opacity:1;fill-rule:nonzero;stroke:#7f0202;stroke-width:0.06689885;stroke-linecap:round;stroke-linejoin:miter;stroke-miterlimit:4;stroke-opacity:1;stroke-dasharray:none;stroke-dashoffset:0;display:inline;enable-background:new"
       id="rect3718"
       width="0.43087062"
       height="0.79545355"
       x="-31.93144"
       y="47.636986"
       transform="matrix(0,-1,1,0,0,0)" />
    <rect
       style="fill:#f2cecf;fill-opacity:1;fill-rule:nonzero;stroke:#7f0202;stroke-width:0.06689885;stroke-linecap:round;stroke-linejoin:miter;stroke-miterlimit:4;stroke-opacity:1;stroke-dasharray:none;stroke-dashoffset:0;display:inline;enable-background:new"
       id="rect3720"
       width="0.39772677"
       height="0.82859743"
       x="-32.66061"
       y="47.603844"
       transform="matrix(0,-1,1,0,0,0)" />
    <rect
       style="fill:#f2cecf;fill-opacity:1;fill-rule:nonzero;stroke:#7f0202;stroke-width:0.06689885;stroke-linecap:round;stroke-linejoin:miter;stroke-miterlimit:4;stroke-opacity:1;stroke-dasharray:none;stroke-dashoffset:0;display:inline;enable-background:new"
       id="rect3722"
       width="0.39772639"
       height="0.82859373"
       x="-33.389774"
       y="47.603844"
       transform="matrix(0,-1,1,0,0,0)" />
    <path
       style="fill:none;stroke:#000000;stroke-width:0.08511304px;stroke-linecap:butt;stroke-linejoin:miter;stroke-opacity:1;display:inline;enable-background:new"
       d="m 43.267959,40.90963 0.03535,-12.34139"
       id="path3724"
       inkscape:connector-curvature="0" />
    <path
       style="fill:none;stroke:#000000;stroke-width:0.08511304px;stroke-linecap:butt;stroke-linejoin:miter;stroke-opacity:1;display:inline;enable-background:new"
       d="m 37.345392,40.90963 0,-12.34139"
       id="path3726"
       inkscape:connector-curvature="0" />
    <path
       style="fill:none;stroke:#000000;stroke-width:0.08511304px;stroke-linecap:butt;stroke-linejoin:miter;stroke-opacity:1;display:inline;enable-background:new"
       d="m 40.324349,40.058499 0,-11.490259"
       id="path3728"
       inkscape:connector-curvature="0" />
    <path
       style="fill:none;stroke:#000000;stroke-width:0.08511304px;stroke-linecap:butt;stroke-linejoin:miter;stroke-opacity:1;display:inline;enable-background:new"
       d="m 42.180113,43.256494 c 0,0 2.880092,0.829042 4.110953,0.222214 0.724815,-0.357339 1.370317,-1.999919 1.370317,-1.999919"
       id="path3730"
       sodipodi:nodetypes="cac"
       inkscape:connector-curvature="0" />
    <path
       style="fill:none;stroke:#000000;stroke-width:0.08511304px;stroke-linecap:butt;stroke-linejoin:miter;stroke-opacity:1;display:inline;enable-background:new"
       d="m 42.180113,42.923175 c 0,0 2.809723,0.866471 3.999846,0.259251 0.597975,-0.305096 1.074033,-1.703637 1.074033,-1.703637"
       id="path3732"
       sodipodi:nodetypes="cac"
       inkscape:connector-curvature="0" />
    <path
       transform="matrix(0,-0.08511304,0.08511304,0,4.57687,69.848063)"
       sodipodi:type="arc"
       style="fill:#0a0c0c;fill-opacity:1;fill-rule:nonzero;stroke:#050202;stroke-width:0.78600001;stroke-linecap:round;stroke-linejoin:miter;stroke-miterlimit:4;stroke-opacity:1;stroke-dasharray:none;stroke-dashoffset:0;display:inline;enable-background:new"
       id="path3734"
       sodipodi:cx="333.09537"
       sodipodi:cy="503.59259"
       sodipodi:rx="1.9581046"
       sodipodi:ry="5.6567469"
       d="m 335.05347,503.59259 c 0,3.12414 -0.87667,5.65675 -1.9581,5.65675 -1.08143,0 -1.95811,-2.53261 -1.95811,-5.65675 0,-3.12413 0.87668,-5.65675 1.95811,-5.65675 1.08143,0 1.9581,2.53262 1.9581,5.65675 z" />
    <rect
       style="fill:#8cbed2;fill-opacity:1;fill-rule:nonzero;stroke:#050202;stroke-width:0.07754306;stroke-linecap:round;stroke-linejoin:miter;stroke-miterlimit:4;stroke-opacity:1;stroke-dasharray:none;stroke-dashoffset:0;display:inline;enable-background:new"
       id="rect5260"
       width="8.3857002"
       height="10.852082"
       x="13.857608"
       y="-45.821835"
       transform="matrix(0,1,-1,0,0,0)" />
    <rect
       style="fill:url(#linearGradient5855);fill-opacity:1;fill-rule:nonzero;stroke:#050202;stroke-width:0.07754306;stroke-linecap:round;stroke-linejoin:miter;stroke-miterlimit:4;stroke-opacity:1;stroke-dasharray:none;stroke-dashoffset:0;display:inline;enable-background:new"
       id="rect5262"
       width="1.4798294"
       height="10.852082"
       x="22.243309"
       y="-45.821835"
       transform="matrix(0,1,-1,0,0,0)" />
    <rect
       style="fill:url(#linearGradient5852);fill-opacity:1;fill-rule:nonzero;stroke:#050202;stroke-width:0.07754306;stroke-linecap:round;stroke-linejoin:miter;stroke-miterlimit:4;stroke-opacity:1;stroke-dasharray:none;stroke-dashoffset:0;display:inline;enable-background:new"
       id="rect5272"
       width="3.9462116"
       height="10.852082"
       x="23.723137"
       y="-45.821835"
       transform="matrix(0,1,-1,0,0,0)" />
    <rect
       style="fill:#050204;fill-opacity:1;fill-rule:nonzero;stroke:#050202;stroke-width:0.07754306;stroke-linecap:round;stroke-linejoin:miter;stroke-miterlimit:4;stroke-opacity:1;stroke-dasharray:none;stroke-dashoffset:0;display:inline;enable-background:new"
       id="rect5284"
       width="0.49327645"
       height="9.8655291"
       x="22.736584"
       y="-45.328556"
       transform="matrix(0,1,-1,0,0,0)" />
    <rect
       style="fill:#31ab9b;fill-opacity:1;fill-rule:nonzero;stroke:#050202;stroke-width:0.07754306;stroke-linecap:round;stroke-linejoin:miter;stroke-miterlimit:4;stroke-opacity:1;stroke-dasharray:none;stroke-dashoffset:0;display:inline;enable-background:new"
       id="rect5286"
       width="7.399147"
       height="9.8655291"
       x="14.350883"
       y="-45.328556"
       ry="0.98655289"
       transform="matrix(0,1,-1,0,0,0)" />
    <rect
       ry="2.0970204"
       y="27.56867"
       x="3.7008827"
       height="10.485102"
       width="8.3880816"
       id="rect3622"
       style="opacity:0.5;fill:#47484a;fill-opacity:1;fill-rule:nonzero;stroke:#050202;stroke-width:0.0824129;stroke-linecap:round;stroke-linejoin:miter;stroke-miterlimit:4;stroke-opacity:1;stroke-dasharray:none;stroke-dashoffset:0;display:inline;enable-background:new"
       transform="matrix(0.99978155,-0.02090115,0.02090115,0.99978155,0,0)" />
    <rect
       y="29.08993"
       x="12.005661"
       height="7.9767938"
       width="1.1880331"
       id="rect3624"
       style="opacity:0.5;fill:#0c0b0c;fill-opacity:1;fill-rule:nonzero;stroke:#050202;stroke-width:0.0824129;stroke-linecap:round;stroke-linejoin:miter;stroke-miterlimit:4;stroke-opacity:1;stroke-dasharray:none;stroke-dashoffset:0;display:inline;enable-background:new"
       transform="matrix(0.99978155,-0.02090115,0.02090115,0.99978155,0,0)" />
    <rect
       y="29.08993"
       x="5.0471807"
       height="1.1880331"
       width="5.7704463"
       id="rect3626"
       style="opacity:0.5;fill:#0c0b0c;fill-opacity:1;fill-rule:nonzero;stroke:#050202;stroke-width:0.0824129;stroke-linecap:round;stroke-linejoin:miter;stroke-miterlimit:4;stroke-opacity:1;stroke-dasharray:none;stroke-dashoffset:0;display:inline;enable-background:new"
       transform="matrix(0.99978155,-0.02090115,0.02090115,0.99978155,0,0)" />
    <rect
       style="opacity:0.5;fill:#0c0b0c;fill-opacity:1;fill-rule:nonzero;stroke:#050202;stroke-width:0.0824129;stroke-linecap:round;stroke-linejoin:miter;stroke-miterlimit:4;stroke-opacity:1;stroke-dasharray:none;stroke-dashoffset:0;display:inline;enable-background:new"
       id="rect3628"
       width="5.7704463"
       height="1.1880331"
       x="5.0471807"
       y="31.296278"
       transform="matrix(0.99978155,-0.02090115,0.02090115,0.99978155,0,0)" />
    <rect
       y="33.332909"
       x="5.0471807"
       height="1.1880331"
       width="5.7704463"
       id="rect3630"
       style="opacity:0.5;fill:#0c0b0c;fill-opacity:1;fill-rule:nonzero;stroke:#050202;stroke-width:0.0824129;stroke-linecap:round;stroke-linejoin:miter;stroke-miterlimit:4;stroke-opacity:1;stroke-dasharray:none;stroke-dashoffset:0;display:inline;enable-background:new"
       transform="matrix(0.99978155,-0.02090115,0.02090115,0.99978155,0,0)" />
    <rect
       style="opacity:0.5;fill:#0c0b0c;fill-opacity:1;fill-rule:nonzero;stroke:#050202;stroke-width:0.0824129;stroke-linecap:round;stroke-linejoin:miter;stroke-miterlimit:4;stroke-opacity:1;stroke-dasharray:none;stroke-dashoffset:0;display:inline;enable-background:new"
       id="rect3632"
       width="5.7704463"
       height="1.1880331"
       x="5.0471807"
       y="35.199818"
       transform="matrix(0.99978155,-0.02090115,0.02090115,0.99978155,0,0)" />
    <rect
       style="fill:#69696b;fill-opacity:1;fill-rule:nonzero;stroke:#050202;stroke-width:0.0712837;stroke-linecap:round;stroke-linejoin:miter;stroke-miterlimit:4;stroke-opacity:1;stroke-dasharray:none;stroke-dashoffset:0;display:inline;enable-background:new"
       id="rect3686"
       width="7.4867916"
       height="7.4867916"
       x="-15.582497"
       y="39.608448"
       ry="1.3211985"
       transform="matrix(0.86586837,-0.50027189,0.50027189,0.86586837,0,0)" />
    <path
       transform="matrix(0.0785271,-0.04537052,0.04537052,0.0785271,-25.627539,-2.3507071)"
       sodipodi:type="arc"
       style="fill:#000000;fill-opacity:1;fill-rule:nonzero;stroke:#050202;stroke-width:0.78600001;stroke-linecap:round;stroke-linejoin:miter;stroke-miterlimit:4;stroke-opacity:1;stroke-dasharray:none;stroke-dashoffset:0;display:inline;enable-background:new"
       id="path3688"
       sodipodi:cx="100.35744"
       sodipodi:cy="641.01306"
       sodipodi:rx="29.13603"
       sodipodi:ry="29.13603"
       d="m 129.49347,641.01306 c 0,16.09139 -13.04465,29.13603 -29.13603,29.13603 -16.091388,0 -29.136033,-13.04464 -29.136033,-29.13603 0,-16.09138 13.044645,-29.13603 29.136033,-29.13603 16.09138,0 29.13603,13.04465 29.13603,29.13603 z" />
    <path
       sodipodi:type="arc"
       style="fill:#b5b6b1;fill-opacity:1;fill-rule:nonzero;stroke:#050202;stroke-width:0.78600001;stroke-linecap:round;stroke-linejoin:miter;stroke-miterlimit:4;stroke-opacity:1;stroke-dasharray:none;stroke-dashoffset:0;display:inline;enable-background:new"
       id="path3692"
       sodipodi:cx="101.9761"
       sodipodi:cy="641.01306"
       sodipodi:rx="19.424021"
       sodipodi:ry="19.424019"
       d="m 121.40012,641.01306 c 0,10.72759 -8.69643,19.42402 -19.42402,19.42402 -10.727593,0 -19.424024,-8.69643 -19.424024,-19.42402 0,-10.72759 8.696431,-19.42402 19.424024,-19.42402 10.72759,0 19.42402,8.69643 19.42402,19.42402 z"
       transform="matrix(0.0785271,-0.04537052,0.04537052,0.0785271,-25.754649,-2.2772672)" />
    <rect
       style="fill:#7a7879;fill-opacity:1;fill-rule:nonzero;stroke:#050202;stroke-width:0.0712837;stroke-linecap:round;stroke-linejoin:miter;stroke-miterlimit:4;stroke-opacity:1;stroke-dasharray:none;stroke-dashoffset:0;display:inline;enable-background:new"
       id="rect3694"
       width="5.1379938"
       height="0.8808012"
       x="-13.52729"
       y="42.691242"
       ry="0.29360074"
       transform="matrix(0.86586837,-0.50027189,0.50027189,0.86586837,0,0)" />
    <rect
       style="fill:#ea6207;fill-opacity:1;fill-rule:nonzero;stroke:#000000;stroke-width:0.1;stroke-linecap:round;stroke-linejoin:miter;stroke-miterlimit:4;stroke-opacity:1;stroke-dasharray:none;stroke-dashoffset:0"
       id="rect5916"
       width="5.2758856"
       height="15.261677"
       x="17.82003"
       y="2.3545024"
       transform="matrix(0.83803015,0.54562393,-0.54562393,0.83803015,0,0)" />
    <rect
       style="fill:#37383f;fill-opacity:1;fill-rule:nonzero;stroke:#090407;stroke-width:0.06494933;stroke-linecap:round;stroke-linejoin:miter;stroke-miterlimit:4;stroke-opacity:1;stroke-dasharray:none;stroke-dashoffset:0;display:inline;enable-background:new"
       id="rect3751"
       width="1.5676693"
       height="1.6526345"
       x="-21.806967"
       y="-9.820406"
       ry="0.31018466"
       transform="matrix(-0.83266528,-0.55377661,0.55377661,-0.83266528,0,0)" />
    <path
       style="fill:#bcb9bb;fill-opacity:1;fill-rule:nonzero;stroke:#090407;stroke-width:0.06494933;stroke-linecap:round;stroke-linejoin:miter;stroke-miterlimit:4;stroke-opacity:1;stroke-dashoffset:0;display:inline;enable-background:new"
       d="m 12.438499,19.383924 -0.5447,-0.486436 0.192833,-0.243271 0.601856,0.307144 -0.249989,0.422562 z"
       id="rect3753"
       sodipodi:nodetypes="ccccc"
       inkscape:connector-curvature="0" />
    <rect
       style="fill:#4848cc;fill-opacity:1;fill-rule:nonzero;stroke:#090407;stroke-width:0.06494933;stroke-linecap:round;stroke-linejoin:miter;stroke-miterlimit:4;stroke-opacity:1;stroke-dasharray:none;stroke-dashoffset:0;display:inline;enable-background:new"
       id="rect3758"
       width="1.0597984"
       height="0.28433597"
       x="-22.127213"
       y="-9.1582775"
       transform="matrix(-0.83266528,-0.55377661,0.55377661,-0.83266528,0,0)" />
    <path
       style="fill:none;stroke:#000000;stroke-width:0.08263274px;stroke-linecap:butt;stroke-linejoin:miter;stroke-opacity:1;display:inline;enable-background:new"
       d="m 13.582263,19.814534 c -0.04301,0.0024 -0.152894,0.04319 -0.129037,0.0073 0.03055,-0.04594 0.106762,-0.02908 0.157666,-0.05036 0.0043,-0.0018 0.03824,-0.0575 0.04294,-0.06457 0.02863,-0.04304 0.05726,-0.08609 0.08589,-0.129139 0.04294,-0.06457 0.08589,-0.129141 0.12883,-0.193711 0.0075,-0.01126 0.05632,-0.07855 0.05726,-0.08609 0.0015,-0.01209 -0.0087,-0.02375 -0.0072,-0.03584 0.0021,-0.01711 0.03203,-0.02615 0.02863,-0.04304 -0.0017,-0.0084 -0.01982,-0.0059 -0.02152,-0.01431 -0.0024,-0.01193 0.03103,-0.03112 0.02863,-0.04304 -0.0017,-0.0084 -0.01982,-0.0059 -0.02152,-0.01431 -0.0017,-0.0084 0.01601,-0.01308 0.01432,-0.02152 -0.0017,-0.0084 -0.01982,-0.0059 -0.02152,-0.01431 -0.0034,-0.01689 0.03203,-0.02615 0.02863,-0.04305 -0.0017,-0.0084 -0.01982,-0.0059 -0.02152,-0.01431 -0.0017,-0.0084 0.01601,-0.01308 0.01432,-0.02153 -0.0017,-0.0084 -0.01982,-0.0059 -0.02152,-0.01431 -0.0017,-0.0084 0.01601,-0.01308 0.01432,-0.02153 -0.0017,-0.0084 -0.01982,-0.0059 -0.02152,-0.01431 -0.0034,-0.01689 0.03203,-0.02615 0.02863,-0.04305 -0.0017,-0.0084 -0.01982,-0.0059 -0.02152,-0.01431 -0.0024,-0.01194 0.03103,-0.0311 0.02863,-0.04304 -0.0017,-0.0084 -0.01982,-0.0059 -0.02152,-0.01431 -0.0017,-0.0084 0.01601,-0.01308 0.01431,-0.02153 -0.0017,-0.0084 -0.01982,-0.0059 -0.02152,-0.01431 -0.0034,-0.01689 0.02651,-0.02595 0.02863,-0.04304 0.0015,-0.01209 -0.0087,-0.02375 -0.0072,-0.03584 0.0011,-0.0086 0.01601,-0.01308 0.01432,-0.02153 -0.0017,-0.0084 -0.01982,-0.0059 -0.02152,-0.01431 -0.0017,-0.0084 0.01601,-0.01308 0.01431,-0.02152 -0.0017,-0.0084 -0.01982,-0.0059 -0.02152,-0.01431 -0.0017,-0.0084 0.01601,-0.01308 0.01431,-0.02152 -0.0017,-0.0084 -0.01435,-0.0095 -0.02152,-0.01431 -0.03587,-0.02386 -0.07174,-0.04771 -0.107616,-0.07157 -0.05739,-0.03817 -0.114792,-0.07634 -0.172187,-0.114516 -0.0072,-0.0048 -0.01435,-0.0095 -0.02152,-0.01431 -0.0072,-0.0048 -0.01308,-0.01601 -0.02152,-0.01431 -0.0084,0.0017 -0.0059,0.01982 -0.01432,0.02152 -0.0073,0.0015 -0.05321,-0.04152 -0.06457,-0.04294 -0.01208,-0.0015 -0.02374,0.0087 -0.03584,0.0072 -0.0086,-0.0011 -0.01308,-0.01601 -0.02152,-0.01431 -0.0084,0.0017 -0.0068,0.01723 -0.01431,0.02152 -0.104361,0.05979 0.01679,-0.02202 -0.05736,-0.0071 -0.0084,0.0017 -0.0059,0.01982 -0.01431,0.02153 -0.0084,0.0017 -0.01308,-0.01601 -0.02152,-0.01431 -0.0084,0.0017 -0.0059,0.01982 -0.01431,0.02152 -0.0084,0.0017 -0.01308,-0.01601 -0.02152,-0.01431 -0.0084,0.0017 -0.0059,0.01982 -0.01432,0.02153 -0.01195,0.0024 -0.03109,-0.03103 -0.04305,-0.02863 -0.0084,0.0017 -0.0059,0.01982 -0.01432,0.02153 -0.0084,0.0017 -0.01435,-0.0095 -0.02152,-0.01431 -0.01526,-0.01015 -0.121726,-0.08497 -0.12914,-0.08589 -0.01208,-0.0015 -0.02374,0.0087 -0.03584,0.0072 -0.01556,-0.0019 -0.07629,-0.05923 -0.08609,-0.05726 -0.0084,0.0017 -0.0059,0.01982 -0.01431,0.02153 -0.0084,0.0017 -0.01297,-0.01326 -0.02152,-0.01431 -0.01208,-0.0015 -0.02374,0.0087 -0.03584,0.0072 -0.0086,-0.0011 -0.01308,-0.01601 -0.02152,-0.01431 -0.0084,0.0017 -0.0059,0.01982 -0.01431,0.02153 -0.0084,0.0017 -0.01297,-0.01326 -0.02152,-0.01431 -0.01208,-0.0015 -0.02389,0.0048 -0.03584,0.0072"
       id="path3761"
       inkscape:connector-curvature="0" />
    <rect
       style="fill:#859296;fill-opacity:1;fill-rule:nonzero;stroke:#090407;stroke-width:0.0710861;stroke-linecap:round;stroke-linejoin:miter;stroke-miterlimit:4;stroke-opacity:1;stroke-dasharray:none;stroke-dashoffset:0;display:inline;enable-background:new"
       id="rect3769"
       width="2.7159407"
       height="2.4896126"
       x="-21.257252"
       y="-6.2200933"
       transform="matrix(-0.82566422,-0.56416186,0.56416186,-0.82566422,0,0)" />
    <rect
       style="fill:#599296;fill-opacity:1;fill-rule:nonzero;stroke:#090407;stroke-width:0.0710861;stroke-linecap:round;stroke-linejoin:miter;stroke-miterlimit:4;stroke-opacity:1;stroke-dasharray:none;stroke-dashoffset:0;display:inline;enable-background:new"
       id="rect3771"
       width="0.2829105"
       height="1.0184778"
       x="-21.596741"
       y="-5.9371834"
       transform="matrix(-0.82566422,-0.56416186,0.56416186,-0.82566422,0,0)" />
    <rect
       style="fill:#1d1f1d;fill-opacity:1;fill-rule:nonzero;stroke:#090407;stroke-width:0.0710861;stroke-linecap:round;stroke-linejoin:miter;stroke-miterlimit:4;stroke-opacity:1;stroke-dasharray:none;stroke-dashoffset:0;display:inline;enable-background:new"
       id="rect3773"
       width="0.33949259"
       height="0.5092389"
       x="-21.596741"
       y="-4.4094658"
       transform="matrix(-0.82566422,-0.56416186,0.56416186,-0.82566422,0,0)" />
    <rect
       style="fill:#292927;fill-opacity:1;fill-rule:nonzero;stroke:#090407;stroke-width:0.06366066;stroke-linecap:round;stroke-linejoin:miter;stroke-miterlimit:4;stroke-opacity:1;stroke-dasharray:none;stroke-dashoffset:0;display:inline;enable-background:new"
       id="rect3765"
       width="2.2802267"
       height="3.2429891"
       x="-21.017752"
       y="-15.994382"
       transform="matrix(-0.81992067,-0.57247715,0.57247715,-0.81992067,0,0)" />
    <rect
       style="fill:#807a7b;fill-opacity:1;fill-rule:nonzero;stroke:#090407;stroke-width:0.06366066;stroke-linecap:round;stroke-linejoin:miter;stroke-miterlimit:4;stroke-opacity:1;stroke-dasharray:none;stroke-dashoffset:0;display:inline;enable-background:new"
       id="rect3767"
       width="0.30403024"
       height="2.7362721"
       x="-21.423128"
       y="-15.741023"
       transform="matrix(-0.81992067,-0.57247715,0.57247715,-0.81992067,0,0)" />
  </g>
</svg>
