<?xml version="1.0" encoding="iso-8859-1"?>
<!-- Generator: Adobe Illustrator 19.0.0, SVG Export Plug-In . SVG Version: 6.00 Build 0)  -->
<svg version="1.1" id="Capa_1" xmlns="http://www.w3.org/2000/svg" xmlns:xlink="http://www.w3.org/1999/xlink" x="0px" y="0px"
	 viewBox="0 0 512 512" style="enable-background:new 0 0 512 512;" xml:space="preserve">
<path style="fill:#FFE1A0;" d="M276.318,455.111c22.707,0,41.789,15.521,47.216,36.533c1.855,7.182,8.268,12.229,15.686,12.229
	h34.622c0-49.373-40.024-89.397-89.397-89.397s-89.397,40.024-89.397,89.397h32.508
	C227.556,476.942,249.387,455.111,276.318,455.111z"/>
<g>
	<path style="fill:#F0C382;" d="M256.677,299.344c31.154-80.931,121.228-138.836,109.037-262.772C363.738,16.47,309.317,0,239.746,0
		S113.778,16.374,113.778,36.571c0,4.418,2.75,8.646,7.695,12.567c0,0,0.156,0.213,1.32,1.012c0.36,0.261,0.72,0.522,1.101,0.781
		c14.372,10.357,75.731,63.944,40,203.714c-2.738,10.709-4.7,21.035-5.973,30.986c-2.208,17.275-1.681,34.776,0.737,52.022
		c5.155,36.774,18.955,71.945,42.46,100.692c19.158,23.43,40.822,40.168,57.258,50.86c5.69,3.702,12.585-2.802,9.1-8.628
		C248.296,448.511,223.75,384.884,256.677,299.344z"/>
	<path style="fill:#F0C382;" d="M316.953,503.873c-2.238,0-4.468-0.921-6.071-2.73c-2.984-3.349-2.683-8.492,0.675-11.468
		l73.143-65.016c3.349-3,8.484-2.69,11.468,0.675c2.984,3.349,2.683,8.492-0.675,11.468l-73.143,65.016
		C320.802,503.198,318.873,503.873,316.953,503.873z"/>
</g>
<path style="fill:#F7D291;" d="M335.516,422.603c-1.635,0-3.286-0.492-4.714-1.516c-3.659-2.611-4.5-7.683-1.889-11.333l5.81-8.127
	c2.619-3.651,7.69-4.5,11.333-1.889c3.659,2.611,4.5,7.683,1.889,11.333l-5.81,8.127
	C340.548,421.421,338.048,422.603,335.516,422.603z"/>
<path style="fill:#F0C382;" d="M300.691,471.365c-1.635,0-3.286-0.492-4.714-1.516c-3.651-2.603-4.5-7.683-1.889-11.333
	l16.254-22.754c2.611-3.651,7.69-4.5,11.333-1.889c3.651,2.603,4.5,7.683,1.889,11.333L307.31,467.96
	C305.723,470.183,303.231,471.365,300.691,471.365z"/>
<path style="fill:#F7D291;" d="M373.842,512h-16.254c-4.492,0-8.127-3.635-8.127-8.127s3.635-8.127,8.127-8.127h16.254
	c4.492,0,8.127,3.635,8.127,8.127S378.334,512,373.842,512z"/>
<path style="fill:#F0C382;" d="M227.556,512h-32.508c-4.492,0-8.127-3.635-8.127-8.127s3.635-8.127,8.127-8.127h32.508
	c4.492,0,8.127,3.635,8.127,8.127S232.048,512,227.556,512z"/>
<path style="fill:#F7D291;" d="M284.445,438.857c-4.492,0-8.127-3.635-8.127-8.127v-16.254c0-4.492,3.635-8.127,8.127-8.127
	s8.127,3.635,8.127,8.127v16.254C292.572,435.222,288.937,438.857,284.445,438.857z"/>
<g>
	<path style="fill:#E3AA75;" d="M121.474,49.138c0,0,0.156,0.213,1.32,1.012c0.36,0.261,0.72,0.522,1.101,0.781
		c14.372,10.357,75.731,63.944,40,203.714c-2.738,10.709-4.7,21.035-5.973,30.986c-2.208,17.275-1.681,34.775,0.737,52.022
		c5.155,36.774,18.955,71.944,42.46,100.692c19.158,23.43,40.822,40.168,57.258,50.86c5.69,3.702,12.585-2.803,9.1-8.628
		c-0.006-0.009-0.011-0.019-0.017-0.028c-1.216-2.032-2.689-3.897-4.389-5.546c-54.059-52.429-111.255-111.62-42.158-230.249
		c77.077-132.331-5.548-204.119-5.548-204.119l-98.551-11.974c-1.938,2.55-3.037,5.191-3.037,7.91
		C113.778,40.99,116.529,45.218,121.474,49.138z"/>
	<ellipse style="fill:#E3AA75;" cx="239.75" cy="36.571" rx="125.97" ry="36.571"/>
</g>
<g>
	<path style="fill:#F7D291;" d="M256.767,299.125c-0.028,0.073-0.062,0.145-0.09,0.219c-2.102,5.459-3.973,10.733-5.599,16
		c3.925,3.212,7.598,6.534,10.684,9.815c10.5,11.151,12.397,18.929,10.833,22.19c0,0.008-0.008,0.008-0.008,0.008
		c-1.556,3.27-8.833,6.667-24.079,5.468c-15.952-1.246-35.373-7.024-54.683-16.278c-41.683-19.984-62.071-45.698-57.786-54.635
		c1.341-2.81,6.881-5.706,18.119-5.706c1.611,0,3.274,0.077,5.123,0.205c0.876-5.248,1.95-10.592,3.218-16.041
		c-0.401-0.036-0.713-0.093-1.111-0.125c-20.492-1.603-34.722,3.603-40.008,14.651c-11.5,24,24.198,56.556,65.413,76.302
		c21.079,10.103,42.548,16.436,60.444,17.833c2.437,0.19,4.778,0.286,7.032,0.286c16.722,0,28.317-5.198,32.976-14.937
		c5.302-11.048,0.452-25.381-13.643-40.365C268.841,308.959,263.152,303.953,256.767,299.125z"/>
	<path style="fill:#F7D291;" d="M341.275,159.886c-2.521,4.882-5.177,9.662-7.914,14.363c10.882,4.01,17.031,8.872,17.441,13.473
		c1.087,12.325-38.079,33.849-101.929,39.516c-29.246,2.595-56.96,1.19-78.048-3.968c-20.921-5.103-28.825-12.349-29.238-17.008
		c-0.413-4.643,6.095-13.167,25.794-21.873c2.35-1.039,4.903-2.085,7.446-3.052c0.16-5.958,0.135-11.703-0.103-17.19
		c-4.856,1.67-9.614,3.475-13.915,5.377c-30.857,13.643-36.294,28.294-35.413,38.175c0.873,9.889,8.802,23.357,41.571,31.365
		c15.421,3.762,33.96,5.69,53.944,5.69c9.532,0,19.389-0.437,29.397-1.325c60.024-5.325,119.381-26.667,116.683-57.135
		c0,0,0,0,0-0.008C365.959,174.642,356.238,165.94,341.275,159.886z"/>
</g>
<path style="fill:#D29B6E;" d="M314.871,7.218c-0.298,20.124-56.532,36.465-125.918,36.465c-28.204,0-54.179-2.728-75.173-7.273
	c-0.001,0.054-0.002,0.108-0.002,0.162c0,20.198,56.398,36.571,125.968,36.571s125.968-16.374,125.968-36.571
	C365.715,24.562,345.662,13.885,314.871,7.218z"/>
<path style="fill:#F0C382;" d="M225.016,166.603c-4.492,0-8.127-3.635-8.127-8.127s3.635-8.127,8.127-8.127
	c3.508,0,7.452-0.103,11.73-0.325c4.397-0.413,8.302,3.214,8.54,7.698c0.23,4.484-3.214,8.302-7.698,8.54
	C233.008,166.5,228.778,166.603,225.016,166.603z"/>
<path style="fill:#E3AA75;" d="M267.191,147c-4.421,0.762-7.389,4.968-6.627,9.389c0.683,3.96,4.119,6.746,8,6.746
	c0.46,0,0.921-0.04,1.389-0.119c20.913-3.609,54.436-11.433,82.21-27.022c3.141-7.99,5.892-16.29,8.132-24.923
	C333.603,132.755,291.396,142.824,267.191,147z"/>
<g>
</g>
<g>
</g>
<g>
</g>
<g>
</g>
<g>
</g>
<g>
</g>
<g>
</g>
<g>
</g>
<g>
</g>
<g>
</g>
<g>
</g>
<g>
</g>
<g>
</g>
<g>
</g>
<g>
</g>
</svg>
