<svg id="Layer_3" enable-background="new 0 0 64 64" height="512" viewBox="0 0 64 64" width="512" xmlns="http://www.w3.org/2000/svg"><path d="m34 62v-7l7 7v-6l-7-7v-12l10 10v12h4v-8l5 5 3-3-5-5h8v-4h-12l-10-10h12l7 7h6l-7-7h7v-4h-7l7-7h-6l-7 7h-12l10-10h12v-4h-8l5-5-3-3-5 5v-8h-4v12l-10 10v-12l7-7v-6l-7 7v-7h-4v7l-7-7v6l7 7v12l-10-10v-12h-4v8l-5-5-3 3 5 5h-8v4h12l10 10h-12l-7-7h-6l7 7h-7v4h7l-7 7h6l7-7h12l-10 10h-12v4h8l-5 5 3 3 5-5v8h4v-12l10-10v12l-7 7v6l7-7v7" fill="#c7e2fc"/><path d="m48 45.518v-28.518c0-2.761 2.239-5 5-5s5 2.239 5 5v28.518c2.411 1.615 4 4.362 4 7.482 0 4.971-4.029 9-9 9s-9-4.029-9-9c0-3.12 1.589-5.868 4-7.482z" fill="#2b74ca"/><path d="m50.498 12.694c-1.487.867-2.498 2.461-2.498 4.306v28.518c-2.411 1.615-4 4.362-4 7.482 0 .992.167 1.944.463 2.837 5.522-3.324 9.537-13.409 9.537-25.337 0-6.855-1.326-13.101-3.502-17.806z" fill="#3d98f7"/><path d="m52 17h2v32h-2z" fill="#fff"/><circle cx="53" cy="53" fill="#a1cdfb" r="5"/></svg>