<svg id="Capa_1" enable-background="new 0 0 512 512" height="512" viewBox="0 0 512 512" width="512" xmlns="http://www.w3.org/2000/svg"><g><path d="m497 211h-320c-41.355 0-75-33.645-75-75s33.645-75 75-75 75 33.645 75 75c0 8.284-6.716 15-15 15s-15-6.716-15-15c0-24.813-20.187-45-45-45s-45 20.187-45 45 20.187 45 45 45h320c8.284 0 15 6.716 15 15s-6.716 15-15 15z" fill="#86beec"/><path d="m257 391c-41.355 0-75-33.645-75-75s33.645-75 75-75h240c8.284 0 15 6.716 15 15s-6.716 15-15 15h-240c-24.813 0-45 20.187-45 45s20.187 45 45 45 45-20.187 45-45c0-8.284 6.716-15 15-15s15 6.716 15 15c0 41.355-33.645 75-75 75z" fill="#86beec"/><path d="m497 151h-140c-41.355 0-75-33.645-75-75s33.645-75 75-75 75 33.645 75 75c0 8.284-6.716 15-15 15s-15-6.716-15-15c0-24.813-20.187-45-45-45s-45 20.187-45 45 20.187 45 45 45h140c8.284 0 15 6.716 15 15s-6.716 15-15 15z" fill="#59a7e4"/><path d="m75 511c-41.355 0-75-33.645-75-75s33.645-75 75-75h80c8.284 0 15 6.716 15 15s-6.716 15-15 15h-80c-24.813 0-45 20.187-45 45s20.187 45 45 45 45-20.187 45-45c0-8.284 6.716-15 15-15s15 6.716 15 15c0 41.355-33.645 75-75 75z" fill="#86beec"/><path d="m387 511c-41.355 0-75-33.645-75-75s33.645-75 75-75h110c8.284 0 15 6.716 15 15s-6.716 15-15 15h-110c-24.813 0-45 20.187-45 45s20.187 45 45 45 45-20.187 45-45c0-8.284 6.716-15 15-15s15 6.716 15 15c0 41.355-33.645 75-75 75z" fill="#59a7e4"/><path d="m227 496c-16.542 0-30-13.458-30-30s13.458-30 30-30 30 13.458 30 30-13.458 30-30 30z" fill="#e4eff8"/><g fill="#59a7e4"><path d="m317 301c-8.284 0-15 6.716-15 15 0 24.813-20.187 45-45 45-.335 0-.666-.018-1-.025v30c.334.004.665.025 1 .025 41.355 0 75-33.645 75-75 0-8.284-6.716-15-15-15z"/><path d="m497 241h-240c-.335 0-.666.021-1 .025v30c.334-.007.665-.025 1-.025h240c8.284 0 15-6.716 15-15s-6.716-15-15-15z"/></g><path d="m497 181h-241v30h241c8.284 0 15-6.716 15-15s-6.716-15-15-15z" fill="#59a7e4"/><path d="m115 316c-16.542 0-30-13.458-30-30s13.458-30 30-30 30 13.458 30 30-13.458 30-30 30z" fill="#e4eff8"/><circle cx="482" cy="316" fill="#c6def0" r="15"/><circle cx="402" cy="316" fill="#c6def0" r="15"/><circle cx="482" cy="41" fill="#c6def0" r="15"/><g fill="#e4eff8"><circle cx="232" cy="31" r="15"/><circle cx="30" cy="321" r="15"/><path d="m30 216c-16.542 0-30-13.458-30-30s13.458-30 30-30 30 13.458 30 30-13.458 30-30 30z"/><path d="m30 61c-16.542 0-30-13.458-30-30s13.458-30 30-30 30 13.458 30 30-13.458 30-30 30z"/></g></g></svg>