<?xml version="1.0" encoding="UTF-8" standalone="no"?>
<svg
   shape-rendering="geometricPrecision"
   text-rendering="geometricPrecision"
   image-rendering="optimizeQuality"
   fill-rule="evenodd"
   clip-rule="evenodd"
   viewBox="0 0 494 511.501"
   version="1.1"
   id="svg7"
   sodipodi:docname="female.svg"
   inkscape:version="1.4.2 (ebf0e940, 2025-05-08)"
   xmlns:inkscape="http://www.inkscape.org/namespaces/inkscape"
   xmlns:sodipodi="http://sodipodi.sourceforge.net/DTD/sodipodi-0.dtd"
   xmlns="http://www.w3.org/2000/svg"
   xmlns:svg="http://www.w3.org/2000/svg">
  <defs
     id="defs7" />
  <sodipodi:namedview
     id="namedview7"
     pagecolor="#ffffff"
     bordercolor="#000000"
     borderopacity="0.25"
     inkscape:showpageshadow="2"
     inkscape:pageopacity="0.0"
     inkscape:pagecheckerboard="0"
     inkscape:deskcolor="#d1d1d1"
     inkscape:zoom="1.6207202"
     inkscape:cx="247.11237"
     inkscape:cy="255.7505"
     inkscape:window-width="1200"
     inkscape:window-height="956"
     inkscape:window-x="9"
     inkscape:window-y="25"
     inkscape:window-maximized="0"
     inkscape:current-layer="svg7" />
  <path
     fill="#D9E9F0"
     fill-rule="nonzero"
     d="M246.999 0C386.845 0 494 118.492 494 255.749c0 137.287-107.147 255.752-247.001 255.752C107.136 511.501 0 393.042 0 255.749 0 119.254 106.347 0 246.999 0z"
     id="path1"
     style="opacity:0.5;fill:#fdccf7;fill-opacity:1" />
  <path
     fill="#BD2122"
     fill-rule="nonzero"
     d="M450.855 399.843c-43.922 66.659-117.67 111.658-203.856 111.658-86.191 0-159.939-44.995-203.859-111.652 2.817-23.199 9.193-37.895 20.51-51.22 39.797-46.896 119.442-22.338 139.958-57.638h85.86c19.556 25.91 104.6 18.058 139.555 56.564 12.142 13.382 18.906 28.218 21.832 52.288z"
     id="path2" />
  <path
     fill="#DA9C69"
     d="M135.123 319.959c75.384 73.251 148.808 76.477 223.756 0-45.151-10.599-75.456-16.634-70.835-54.522-22.521 19.342-57.648 21.983-81.425 2.291l-.095-.067c-1.932 41.905-37.371 44.786-71.401 52.298z"
     id="path3" />
  <path
     fill="#DEA678"
     d="M135.123 319.959c37.635 36.571 74.785 55.683 111.878 56.143v-94.856c-14.304.426-28.709-3.854-40.382-13.518l-.095-.067c-1.932 41.905-37.371 44.786-71.401 52.298z"
     id="path4" />
  <path
     fill="#502F1B"
     d="M93.663 300.435c34.634-2.814 47.365-38.795 51.632-76.104 6.5-57.115-2.517-130.601 66.223-158.385 54.585-22.075 125.171 7.641 132.87 86.28-.322 53.439 14.707 144.326 62.537 148.209-10.594 29.83-139.628 30.789-118.742-26.346-25.627 17.66-51.493 19.218-79.728 1.687 3.399 61.488-104.198 54.489-114.792 24.659z"
     id="path5" />
  <path
     fill="#E9BE79"
     d="M292.763 270.636c30.382-33.603 34.996-67.424 26.337-110.587-20.888-9.681-34.549-30.962-41.549-62.937-8.362 60.874-83.122 58.261-101.921 69.337 0 35.72-3.698 61.224 16.996 94.048 2.64 4.191 5.215 8.234 8.326 11.59 25.12 27.084 68.068 23.693 91.811-1.451z"
     id="path6" />
  <path
     fill="#F2CD8C"
     d="M247.81 142.139c-25.741 15.76-60.242 17.277-72.182 24.311 0 5.124-.125 9.972-.247 14.611-.848 31.34 1.469 54.415 17.243 79.439 2.642 4.188 5.221 8.231 8.328 11.586 12.668 13.655 29.872 19.564 46.858 18.843v-148.79z"
     id="path7" />
</svg>
