<?xml version="1.0" encoding="UTF-8" standalone="no"?>
<svg
   shape-rendering="geometricPrecision"
   text-rendering="geometricPrecision"
   image-rendering="optimizeQuality"
   fill-rule="evenodd"
   clip-rule="evenodd"
   viewBox="0 0 500 499.99998"
   version="1.1"
   id="svg31"
   sodipodi:docname="robot.svg"
   width="500"
   height="500"
   inkscape:version="1.4.2 (ebf0e940, 2025-05-08)"
   xmlns:inkscape="http://www.inkscape.org/namespaces/inkscape"
   xmlns:sodipodi="http://sodipodi.sourceforge.net/DTD/sodipodi-0.dtd"
   xmlns="http://www.w3.org/2000/svg"
   xmlns:svg="http://www.w3.org/2000/svg">
  <defs
     id="defs31" />
  <sodipodi:namedview
     id="namedview31"
     pagecolor="#ffffff"
     bordercolor="#000000"
     borderopacity="0.25"
     inkscape:showpageshadow="2"
     inkscape:pageopacity="0.0"
     inkscape:pagecheckerboard="0"
     inkscape:deskcolor="#d1d1d1"
     inkscape:zoom="2.2629404"
     inkscape:cx="265.36271"
     inkscape:cy="304.47112"
     inkscape:window-width="1408"
     inkscape:window-height="947"
     inkscape:window-x="338"
     inkscape:window-y="64"
     inkscape:window-maximized="0"
     inkscape:current-layer="svg31" />
  <circle
     style="fill:#fafae2;fill-opacity:1;stroke:#626969;stroke-width:2.48756;stroke-linejoin:bevel"
     id="path32"
     cx="250"
     cy="250"
     r="248.75623" />
  <path
     fill="#213853"
     fill-rule="nonzero"
     d="m 396.95339,131.24765 c 9.07772,0.89181 17.2517,4.97972 23.37262,11.11789 6.95616,6.97199 11.27399,16.59882 11.27399,27.19678 v 36.45711 c 0,10.59707 -4.31783,20.2239 -11.27399,27.19678 -6.11201,6.12834 -14.26996,10.21363 -23.3308,11.11433 -2.45512,31.45148 -28.86639,56.39741 -60.84527,56.39741 H 287.4593 v 15.92551 c 7.08341,2.13492 12.2872,8.73235 12.32988,16.48467 h 22.24733 c 38.53124,0 70.02443,31.57276 70.02443,70.20134 v 44.36812 c 0,5.13222 -4.1497,9.29241 -9.2681,9.29241 H 116.79351 c -5.1184,0 -9.26809,-4.16019 -9.26809,-9.29241 v -44.36812 c 0,-38.62858 31.49318,-70.20134 70.02439,-70.20134 h 21.40496 c 0.0428,-7.73004 5.26338,-14.33637 12.32987,-16.47932 v -15.93086 h -48.6906 c -31.94689,0 -58.33502,-24.89421 -60.83641,-56.30112 C 92.236026,243.77138 83.643979,239.60407 77.274001,233.21621 70.317815,226.24333 66,216.6165 66,206.01943 v -36.45711 c 0,-10.59796 4.317815,-20.22479 11.274001,-27.19678 6.378877,-6.39679 14.986042,-10.56765 24.525449,-11.21328 2.72465,-31.185766 29.00694,-55.83383 60.79459,-55.83383 h 77.67083 V 54.853732 a 28.161873,28.233039 0 0 1 -10.62816,-6.695525 c -5.09174,-5.105474 -8.24247,-12.159497 -8.24247,-19.947462 0,-7.788854 3.15073,-14.841987 8.24247,-19.9474596 C 234.72928,3.1587045 241.76555,0 249.53297,0 c 7.76835,0 14.80459,3.1587045 19.89629,8.2641772 5.09261,5.1036898 8.24334,12.1568208 8.24334,19.9465678 0,7.787965 -3.15073,14.841988 -8.24334,19.946569 a 28.152978,28.224123 0 0 1 -10.62819,6.696418 V 75.31843 h 77.34887 c 31.82053,0 58.12416,24.69801 60.80345,55.92922 z"
     id="path1"
     style="stroke-width:0.890661" />
  <path
     fill="#495f7c"
     d="m 278.19122,300.72795 v 15.19959 h -57.63938 v -15.19959 z"
     id="path2"
     style="stroke-width:0.890661" />
  <path
     fill="#dd786d"
     d="M 101.56104,235.08716 C 86.856992,233.64426 75.268092,221.12361 75.268092,206.01943 v -36.45711 c 0,-15.10418 11.5889,-27.62481 26.292948,-29.06773 z"
     id="path3"
     style="stroke-width:0.890661" />
  <path
     fill="#ee9983"
     d="M 101.56104,223.18451 C 86.856992,221.74161 75.268092,209.22003 75.268092,194.11588 v -24.55356 c 0,-15.10418 11.5889,-27.62392 26.292948,-29.06773 z"
     id="path4"
     style="stroke-width:0.890661" />
  <path
     fill="#dd786d"
     d="m 397.18291,234.95164 c 14.15611,-1.96372 25.14899,-14.22222 25.14899,-28.93221 v -36.45711 c 0,-14.70997 -10.99288,-26.96849 -25.14899,-28.93221 z"
     id="path5"
     style="stroke-width:0.890661" />
  <path
     fill="#ee9983"
     d="m 397.18291,223.04896 c 14.15611,-1.96369 25.14899,-14.22219 25.14899,-28.93308 v -24.55356 c 0,-14.70997 -10.99288,-26.96849 -25.14899,-28.93131 z"
     id="path6"
     style="stroke-width:0.890661" />
  <path
     fill="#dfdcdf"
     d="m 162.59404,84.663451 h 173.5559 c 28.44207,0 51.71149,23.328219 51.71149,51.841299 v 103.03691 c 0,28.51303 -23.26942,51.84128 -51.71149,51.84128 h -173.5559 c -28.44211,0 -51.71152,-23.32825 -51.71152,-51.84128 V 136.50475 c 0,-28.51308 23.26941,-51.841299 51.71152,-51.841299 z"
     id="path7"
     style="stroke-width:0.890661" />
  <path
     fill="#f9f2f5"
     d="m 152.31835,84.663451 h 162.43406 c 28.44028,0 51.71149,23.336259 51.71149,51.841299 v 103.03691 c 0,14.30603 -5.8656,27.31806 -15.3027,36.72373 a 51.272955,51.402522 0 0 1 -19.01565,3.65274 H 169.71149 C 141.27741,279.91813 118,256.58901 118,228.07685 V 125.03994 c 0,-22.62727 10.54902,-40.376489 34.31835,-40.376489 z"
     id="path8"
     style="stroke-width:0.890661" />
  <path
     fill="#f0ab9e"
     d="m 249.53387,9.2915147 c 10.42181,0 18.87066,8.4701793 18.87066,18.9192303 0,10.449055 -8.44885,18.918341 -18.87066,18.918341 -10.42271,0 -18.87153,-8.469286 -18.87153,-18.918341 0,-10.449051 8.44882,-18.9192303 18.87153,-18.9192303 z"
     id="path9"
     style="stroke-width:0.890661" />
  <path
     fill="#ea8d7a"
     d="m 268.37072,29.330829 c -0.57819,9.928248 -8.78951,17.799147 -18.83775,17.799147 -8.43903,0 -15.58382,-5.554039 -17.99713,-13.215371 0.5791,-9.927353 8.79042,-17.798253 18.83687,-17.798253 8.43994,0 15.58468,5.554039 17.99801,13.214477 z"
     id="path10"
     style="stroke-width:0.890661" />
  <path
     fill="#faf4f4"
     d="m 216.21711,325.21818 h 66.30881 c 4.36585,0 7.94268,3.55466 7.99519,7.91995 h -82.29826 c 0.0516,-4.36529 3.62932,-7.91995 7.99426,-7.91995 z"
     id="path11"
     style="stroke-width:0.890661" />
  <path
     fill="#f2ebec"
     d="m 183.65026,342.42962 h 131.97536 c 0.20014,0.37098 0.46789,0.71344 0.80147,1.00951 3.62933,3.2122 6.86279,7.02636 9.70666,10.97074 2.86608,3.97649 5.35946,8.13485 7.47477,11.97134 3.67648,6.66964 5.6788,12.11667 6.75249,17.65824 1.08523,5.60487 1.25601,11.50402 1.25601,18.92817 v 44.58746 c 0,0.0518 8.9e-4,0.10259 0.004,0.15342 H 157.65554 c 0.002,-0.0509 0.004,-0.10167 0.004,-0.15342 v -44.58746 c 0,-7.42415 0.17078,-13.3233 1.25603,-18.92817 1.07368,-5.54157 3.07514,-10.9886 6.75248,-17.65824 2.11531,-3.83649 4.60957,-7.99485 7.47566,-11.97134 2.84386,-3.94438 6.07645,-7.75854 9.70664,-10.97074 a 3.6826863,3.6919924 0 0 0 0.80058,-1.00951 z m 142.40344,0.13735 c 31.56167,2.09214 56.73914,28.62543 56.73914,60.7725 v 17.97307 a 3.55993,3.568926 0 0 0 -0.19482,-0.006 h -33.5658 v -18.33957 c 0,-7.80671 -0.19125,-14.06614 -1.40192,-20.32113 -1.22401,-6.3192 -3.46028,-12.44575 -7.53438,-19.83601 -2.21138,-4.01211 -4.8542,-8.40864 -7.9667,-12.72755 -1.86179,-2.58263 -3.88459,-5.1224 -6.07552,-7.51596 z m 56.73914,86.16964 v 18.97189 h -33.76418 c 0.002,-0.0509 0.004,-0.10167 0.004,-0.15342 v -18.81399 h 33.56581 c 0.0649,0 0.12986,-0.002 0.19479,-0.005 z M 150.24724,447.7085 H 116.7935 v -18.97097 c 0.0551,0.003 0.11029,0.004 0.16634,0.004 h 33.28382 v 18.81398 c 0,0.0518 0.002,0.10256 0.004,0.15341 z m -0.004,-26.40134 h -33.28385 c -0.056,0 -0.11116,0.002 -0.16635,0.004 v -17.97135 c 0,-32.03564 25.00137,-58.49756 56.40917,-60.75111 -2.18293,2.38641 -4.19863,4.91996 -6.05509,7.49457 -3.11248,4.31804 -5.75532,8.71453 -7.96758,12.72755 -4.07409,7.39112 -6.31038,13.51679 -7.53438,19.83599 -1.21155,6.25499 -1.40192,12.51444 -1.40192,20.32112 z"
     id="path12"
     style="stroke-width:0.890661" />
  <path
     fill="#233551"
     fill-rule="nonzero"
     d="m 153.94948,421.30717 a 3.7076005,3.7169698 0 0 1 0,7.43392 h -36.98964 a 3.7084827,3.717854 0 0 1 0,-7.43392 z m 56.19032,-57.27581 h 79.30585 c 11.52484,0 20.96194,9.46898 20.96194,21.01492 v 21.91028 c 0,11.57269 -9.41751,21.01493 -20.96194,21.01493 H 210.1398 c -11.5284,0 -20.96196,-9.4681 -20.96196,-21.01493 v -21.91028 c 0,-11.57715 9.414,-21.01492 20.96196,-21.01492 z"
     id="path13"
     style="stroke-width:0.890661" />
  <path
     fill="#ee9a87"
     d="m 210.1398,373.32287 h 79.30585 c 6.43226,0 11.69387,5.2776 11.69387,11.72341 v 21.91028 c 0,6.44583 -5.26428,11.7234 -11.69387,11.7234 H 210.1398 c -6.42956,0 -11.69385,-5.27489 -11.69385,-11.7234 v -21.91028 c 0,-6.44852 5.26162,-11.72341 11.69385,-11.72341 z"
     id="path14"
     style="stroke-width:0.890661" />
  <path
     fill="#213853"
     fill-rule="nonzero"
     d="m 188.41728,141.9589 c 10.22258,0 19.48001,4.15571 26.17912,10.87263 6.7,6.71607 10.84523,15.99686 10.84523,26.24525 0,20.49771 -16.5783,37.11881 -37.02435,37.11881 -10.22346,0 -19.47997,-4.15572 -26.17999,-10.87266 -6.69999,-6.7169 -10.84524,-15.99772 -10.84524,-26.24615 0,-10.24839 4.14525,-19.52918 10.84524,-26.24525 6.70002,-6.71692 15.95653,-10.87263 26.17999,-10.87263 z"
     id="path15"
     style="stroke-width:0.890661" />
  <path
     fill="#3a506d"
     d="m 188.41728,147.53434 c 17.37713,0 31.46297,14.1214 31.46297,31.54244 0,17.42016 -14.08584,31.54337 -31.46297,31.54337 -17.37709,0 -31.46384,-14.12321 -31.46384,-31.54337 0,-17.42104 14.08675,-31.54244 31.46384,-31.54244 z"
     id="path16"
     style="stroke-width:0.890661" />
  <path
     fill="#213853"
     fill-rule="nonzero"
     d="m 188.41728,152.03428 c 7.44724,0 14.19079,3.02761 19.07347,7.92086 4.88091,4.89321 7.9009,11.65563 7.9009,19.12164 0,7.46693 -3.01999,14.22758 -7.9009,19.12257 -4.88268,4.89322 -11.62623,7.92083 -19.07347,7.92083 -7.44899,0 -14.19256,-3.02761 -19.07344,-7.92174 -4.8818,-4.89319 -7.90181,-11.65562 -7.90181,-19.12166 0,-7.46601 3.02001,-14.22753 7.90091,-19.12164 4.88267,-4.89325 11.62624,-7.92086 19.07434,-7.92086 z"
     id="path17"
     style="stroke-width:0.890661" />
  <path
     fill="#afe3f1"
     d="m 188.41728,157.60886 c 11.82729,0 21.41385,9.61077 21.41385,21.46792 0,11.8563 -9.58656,21.46796 -21.41385,21.46796 -11.82639,0 -21.41472,-9.61166 -21.41472,-21.46796 0,-11.85715 9.58833,-21.46792 21.41472,-21.46792 z"
     id="path18"
     style="stroke-width:0.890661" />
  <path
     fill="#213853"
     fill-rule="nonzero"
     d="m 311.01694,141.9589 c 20.4469,0 37.02523,16.62021 37.02523,37.11788 0,10.24843 -4.14526,19.52925 -10.84525,26.24615 -6.69912,6.71694 -15.95654,10.87266 -26.17998,10.87266 -10.22256,0 -19.47998,-4.15572 -26.17997,-10.87266 -6.69913,-6.7169 -10.84436,-15.99772 -10.84436,-26.24615 0,-10.24839 4.14523,-19.52918 10.84436,-26.24525 6.69999,-6.71692 15.95741,-10.87263 26.17997,-10.87263 z"
     id="path19"
     style="stroke-width:0.890661" />
  <path
     fill="#374b66"
     d="m 311.01694,147.53434 c 17.37713,0 31.46382,14.1214 31.46382,31.54244 0,17.42016 -14.08669,31.54337 -31.46382,31.54337 -17.37713,0 -31.46383,-14.12321 -31.46383,-31.54337 0,-17.42104 14.0867,-31.54244 31.46383,-31.54244 z"
     id="path20"
     style="stroke-width:0.890661" />
  <path
     fill="#213853"
     fill-rule="nonzero"
     d="m 311.01694,152.03428 c 7.44809,0 14.19169,3.02761 19.07436,7.92086 4.88087,4.89411 7.90086,11.65563 7.90086,19.12164 0,7.46604 -3.01999,14.22847 -7.90175,19.12166 -4.88089,4.89413 -11.62626,7.92174 -19.07347,7.92174 -7.44811,0 -14.19256,-3.02761 -19.07347,-7.92174 -4.8809,-4.89319 -7.90175,-11.65562 -7.90175,-19.12166 0,-7.46601 3.02085,-14.22753 7.90175,-19.12164 4.88179,-4.89325 11.62627,-7.92086 19.07347,-7.92086 z"
     id="path21"
     style="stroke-width:0.890661" />
  <path
     fill="#afe3f1"
     d="m 311.01694,157.60886 c 11.82641,0 21.41383,9.61077 21.41383,21.46792 0,11.8563 -9.58742,21.46796 -21.41383,21.46796 -11.82642,0 -21.41386,-9.61166 -21.41386,-21.46796 0,-11.85715 9.58744,-21.46792 21.41386,-21.46792 z"
     id="path22"
     style="stroke-width:0.890661" />
  <path
     fill="#213853"
     fill-rule="nonzero"
     d="m 277.4796,236.41683 a 5.5613897,5.5754436 0 1 1 0,11.14998 h -56.21611 a 5.5613897,5.5754436 0 1 1 0,-11.14998 z M 236.22726,99.091652 a 8.5867077,8.6084066 0 0 1 6.08624,2.528198 8.5831493,8.6048395 0 0 1 2.52181,6.10252 8.5858178,8.6075148 0 0 1 -2.52181,6.10247 8.58226,8.6039476 0 0 1 -6.08624,2.5282 8.5840391,8.6057312 0 0 1 -6.08799,-2.5282 8.5902657,8.6119738 0 0 1 -2.52184,-6.10247 8.5867077,8.6084066 0 0 1 2.52184,-6.10252 8.5902657,8.6119738 0 0 1 6.08799,-2.528198 z"
     id="path23"
     style="stroke-width:0.890661" />
  <path
     fill="#3a506d"
     d="m 236.22726,102.80862 a 4.9013541,4.91374 0 1 1 0,9.82748 4.9013541,4.91374 0 1 1 0,-9.82748 z"
     id="path24"
     style="stroke-width:0.890661" />
  <path
     fill="#213853"
     fill-rule="nonzero"
     d="m 262.60296,99.091652 a 8.5769227,8.598597 0 0 1 6.07375,2.528198 h 0.0132 a 8.5831493,8.6048395 0 0 1 2.52184,6.10252 8.5858178,8.6075148 0 0 1 -2.52184,6.10247 l -0.26331,0.23987 a 8.5698064,8.5914626 0 0 1 -11.8967,-0.23987 h -0.0143 a 8.5867077,8.6084066 0 0 1 -2.52273,-6.10247 8.5840391,8.6057312 0 0 1 2.52273,-6.10252 l 0.26329,-0.23987 a 8.566248,8.5878956 0 0 1 5.82381,-2.288328 z"
     id="path25"
     style="stroke-width:0.890661" />
  <path
     fill="#3a506d"
     d="m 262.60296,102.80862 a 4.9013529,4.9137388 0 1 1 -4.90223,4.91375 4.9013529,4.9137388 0 0 1 4.90223,-4.91375 z"
     id="path26"
     style="stroke-width:0.890661" />
  <path
     fill="#ffffff"
     d="m 182.88081,160.62575 c 4.99386,0 9.04125,4.05763 9.04125,9.06321 0,5.00738 -4.04739,9.0641 -9.04125,9.0641 -4.99385,0 -9.04128,-4.05672 -9.04128,-9.0641 0,-5.00558 4.04743,-9.06321 9.04128,-9.06321 z m 128.41544,0 c 4.99385,0 9.04039,4.05763 9.04039,9.06321 0,5.00738 -4.04654,9.0641 -9.04039,9.0641 -4.99386,0 -9.04125,-4.05672 -9.04125,-9.0641 0,-5.00558 4.04739,-9.06321 9.04125,-9.06321 z"
     id="path27"
     style="stroke-width:0.890661" />
  <path
     fill="#213853"
     fill-rule="nonzero"
     d="m 219.1962,387.37117 a 8.5831493,8.6048395 0 0 1 6.0871,2.5282 8.58226,8.6039476 0 0 1 2.52184,6.10159 8.5867077,8.6084066 0 0 1 -2.52184,6.10341 8.5867077,8.6084066 0 0 1 -6.0871,2.5282 8.5867077,8.6084066 0 0 1 -6.08713,-2.5282 8.5902657,8.6119738 0 0 1 -2.52182,-6.10341 8.5867077,8.6084066 0 0 1 2.52182,-6.10159 8.5858178,8.6075148 0 0 1 6.08713,-2.5282 z"
     id="path28"
     style="stroke-width:0.890661" />
  <path
     fill="#3a506d"
     d="m 219.1962,391.08722 a 4.901369,4.913755 0 1 1 8.8e-4,9.82751 4.901369,4.913755 0 0 1 -8.8e-4,-9.82751 z"
     id="path29"
     style="stroke-width:0.890661" />
  <path
     fill="#213853"
     fill-rule="nonzero"
     d="m 280.38927,387.37117 a 8.5680271,8.589679 0 0 1 6.07286,2.5282 h 0.0143 a 8.5840391,8.6057312 0 0 1 2.52274,6.10159 8.587597,8.6092982 0 0 1 -2.52274,6.10341 l -0.2633,0.23987 a 8.5689168,8.5905706 0 0 1 -5.82379,2.28833 8.5769227,8.598597 0 0 1 -6.07379,-2.5282 h -0.0132 a 8.5867077,8.6084066 0 0 1 -2.52179,-6.10341 8.58226,8.6039476 0 0 1 2.52179,-6.10159 l 0.26332,-0.2399 a 8.5644691,8.586112 0 0 1 5.82382,-2.2883 z"
     id="path30"
     style="stroke-width:0.890661" />
  <path
     fill="#3a506d"
     d="m 280.38927,391.08722 a 4.9022469,4.914635 0 1 1 0,9.82927 4.9022469,4.914635 0 0 1 0,-9.82927 z"
     id="path31"
     style="stroke-width:0.890661" />
</svg>
